<svg xmlns="http://www.w3.org/2000/svg" viewBox="0 0 394.21 92.27"><defs><style>.cls-1{fill:#fff}.cls-2{fill:#376fbc}</style></defs><title>アセット 1</title><g id="レイヤー_2" data-name="レイヤー 2"><g id="レイヤー_1-2" data-name="レイヤー 1"><path d="M50.09,68.87V23.4a12.15,12.15,0,0,1-10.55,0V50.28C31.07,48.09,23.93,40.71,20,30.68A12.22,12.22,0,0,1,9.7,33.11C15.12,47.93,26.27,58.75,39.54,61v7.82a12.15,12.15,0,0,1,10.55,0Z" class="cls-1"/><circle cx="44.82" cy="12.3" r="6.15" class="cls-2"/><path d="M44.82,0a12.29,12.29,0,1,0,12.3,12.3A12.32,12.32,0,0,0,44.82,0Zm0,18.45A6.15,6.15,0,1,1,51,12.3,6.16,6.16,0,0,1,44.82,18.45Z" class="cls-1"/><circle cx="44.82" cy="79.97" r="6.15" class="cls-2"/><path d="M50.09,68.87a12.29,12.29,0,1,0,7,11.1A12.21,12.21,0,0,0,50.09,68.87ZM44.82,86.12A6.15,6.15,0,1,1,51,80,6.16,6.16,0,0,1,44.82,86.12Z" class="cls-1"/><circle cx="12.3" cy="21.16" r="6.15" class="cls-2"/><path d="M12.3,8.86a12.3,12.3,0,1,0,12.3,12.3A12.32,12.32,0,0,0,12.3,8.86Zm0,18.45a6.15,6.15,0,1,1,6.15-6.15A6.16,6.16,0,0,1,12.3,27.31Z" class="cls-1"/><path d="M104.69,51.28,83,13.53H94.53l15.19,26.56L125,13.53H136.5L114.72,51.28V80h-10Z" class="cls-1"/><path d="M212.48,45.21l-8,4.26q-1.89-3.87-4.69-3.87a3.23,3.23,0,0,0-2.28.88,3,3,0,0,0-.95,2.26q0,2.41,5.6,4.78,7.7,3.31,10.37,6.11a10.47,10.47,0,0,1,2.67,7.53,13.2,13.2,0,0,1-4.48,10.16,15.23,15.23,0,0,1-10.5,3.87q-10.55,0-14.94-10.29l8.26-3.83a18,18,0,0,0,2.63,3.83,6,6,0,0,0,4.22,1.64q4.91,0,4.91-4.48,0-2.58-3.79-4.82-1.46-.73-2.93-1.42l-3-1.42a18.16,18.16,0,0,1-5.94-4.13,10.18,10.18,0,0,1-2.2-6.76,12,12,0,0,1,3.75-9,13.13,13.13,0,0,1,9.3-3.57Q208.56,36.9,212.48,45.21Z" class="cls-1"/><path d="M248.25,45.21l-8,4.26q-1.89-3.87-4.69-3.87a3.23,3.23,0,0,0-2.28.88,3,3,0,0,0-.95,2.26q0,2.41,5.6,4.78,7.7,3.31,10.37,6.11A10.46,10.46,0,0,1,251,67.16a13.2,13.2,0,0,1-4.48,10.16A15.24,15.24,0,0,1,236,81.2q-10.55,0-14.94-10.29l8.26-3.83a17.94,17.94,0,0,0,2.63,3.83,6,6,0,0,0,4.22,1.64q4.91,0,4.91-4.48,0-2.58-3.79-4.82-1.46-.73-2.93-1.42l-3-1.42a18.18,18.18,0,0,1-5.94-4.13,10.18,10.18,0,0,1-2.2-6.76,12,12,0,0,1,3.75-9,13.13,13.13,0,0,1,9.3-3.57Q244.33,36.9,248.25,45.21Z" class="cls-1"/><path d="M271.54,13.53v57h19.54V80H261.51V13.53Z" class="cls-1"/><path d="M361.28,7.29V42.93q5.81-6,13.17-6a18.12,18.12,0,0,1,14.12,6.33,22.59,22.59,0,0,1,5.64,15.67q0,9.69-5.68,16a18.31,18.31,0,0,1-14.25,6.28,18.12,18.12,0,0,1-13-5.6V80H351.6V7.29Zm23,52A14.48,14.48,0,0,0,381,49.52a10.48,10.48,0,0,0-8.31-3.87A11.14,11.14,0,0,0,364,49.39,13.91,13.91,0,0,0,360.72,59q0,6.11,3.27,9.77a10.88,10.88,0,0,0,8.61,3.75A10.68,10.68,0,0,0,381,68.8,13.75,13.75,0,0,0,384.31,59.33Z" class="cls-1"/><path d="M166.67,38.07l.11,19.15c.06.6,0,1.26,0,1.9a14.33,14.33,0,0,1-3.31,9.73,11.11,11.11,0,0,1-8.69,3.7,10.57,10.57,0,0,1-8.35-3.83,14.6,14.6,0,0,1-3.23-9.81,14,14,0,0,1,3.31-9.47,10.7,10.7,0,0,1,8.35-3.79,11,11,0,0,1,7.81,2.93V40A16.71,16.71,0,0,0,153,36.9a18.18,18.18,0,0,0-14.12,6.29q-5.64,6.28-5.64,15.71,0,9.6,5.64,16A18.54,18.54,0,0,0,153.3,81.2q6.89,0,12.87-5.6V80h9.73V38.07Z" class="cls-1"/><path d="M330.12,38.07l.11,19.15c.06.6,0,1.26,0,1.9a14.33,14.33,0,0,1-3.31,9.73,11.11,11.11,0,0,1-8.69,3.7,10.57,10.57,0,0,1-8.35-3.83,14.6,14.6,0,0,1-3.23-9.81,14,14,0,0,1,3.31-9.47,10.7,10.7,0,0,1,8.35-3.79,11,11,0,0,1,7.81,2.93V40a16.71,16.71,0,0,0-9.62-3.05,18.18,18.18,0,0,0-14.12,6.29q-5.64,6.28-5.64,15.71,0,9.6,5.64,16a18.54,18.54,0,0,0,14.38,6.28q6.89,0,12.87-5.6V80h9.73V38.07Z" class="cls-1"/></g></g></svg>