<?xml version="1.0" encoding="UTF-8" standalone="no"?><svg xmlns="http://www.w3.org/2000/svg" xmlns:xlink="http://www.w3.org/1999/xlink" clip-rule="evenodd" stroke-miterlimit="10" viewBox="0 0 887 75"><desc>SVG generated by Keynote</desc><defs></defs><g transform="matrix(1.00, 0.00, -0.00, -1.00, 0.0, 75.0)"><text xml:space="preserve" font-family="Times-Roman,Times" font-size="79.0" fill="#000000" transform="matrix(1.00, 0.00, -0.00, -1.00, -0.4, 19.4)">O</text><text xml:space="preserve" font-family="Times-Roman,Times" font-size="79.0" fill="#000000" transform="matrix(1.00, 0.00, -0.00, -1.00, 56.6, 19.4)">t</text><text xml:space="preserve" font-family="Times-Roman,Times" font-size="79.0" fill="#000000" transform="matrix(1.00, 0.00, -0.00, -1.00, 78.6, 19.4)">h</text><text xml:space="preserve" font-family="Times-Roman,Times" font-size="79.0" fill="#000000" transform="matrix(1.00, 0.00, -0.00, -1.00, 118.1, 19.4)">e</text><text xml:space="preserve" font-family="Times-Roman,Times" font-size="79.0" fill="#000000" transform="matrix(1.00, 0.00, -0.00, -1.00, 153.1, 19.4)">r</text><text xml:space="preserve" font-family="Times-Roman,Times" font-size="79.0" fill="#000000" transform="matrix(1.00, 0.00, -0.00, -1.00, 179.4, 19.4)"> </text><text xml:space="preserve" font-family="Times-Roman,Times" font-size="79.0" fill="#000000" transform="matrix(1.00, 0.00, -0.00, -1.00, 199.2, 19.4)">S</text><text xml:space="preserve" font-family="Times-Roman,Times" font-size="79.0" fill="#000000" transform="matrix(1.00, 0.00, -0.00, -1.00, 243.1, 19.4)">a</text><text xml:space="preserve" font-family="Times-Roman,Times" font-size="79.0" fill="#000000" transform="matrix(1.00, 0.00, -0.00, -1.00, 278.2, 19.4)">m</text><text xml:space="preserve" font-family="Times-Roman,Times" font-size="79.0" fill="#000000" transform="matrix(1.00, 0.00, -0.00, -1.00, 339.6, 19.4)">p</text><text xml:space="preserve" font-family="Times-Roman,Times" font-size="79.0" fill="#000000" transform="matrix(1.00, 0.00, -0.00, -1.00, 379.1, 19.4)">l</text><text xml:space="preserve" font-family="Times-Roman,Times" font-size="79.0" fill="#000000" transform="matrix(1.00, 0.00, -0.00, -1.00, 401.0, 19.4)">e</text><text xml:space="preserve" font-family="Times-Roman,Times" font-size="79.0" fill="#000000" transform="matrix(1.00, 0.00, -0.00, -1.00, 436.1, 19.4)">:</text><text xml:space="preserve" font-family="Times-Roman,Times" font-size="79.0" fill="#000000" transform="matrix(1.00, 0.00, -0.00, -1.00, 458.0, 19.4)"> </text><text xml:space="preserve" font-family="Times-Roman,Times" font-size="79.0" fill="#000000" transform="matrix(1.00, 0.00, -0.00, -1.00, 476.4, 19.4)">W</text><text xml:space="preserve" font-family="Times-Roman,Times" font-size="79.0" fill="#000000" transform="matrix(1.00, 0.00, -0.00, -1.00, 550.9, 19.4)">h</text><text xml:space="preserve" font-family="Times-Roman,Times" font-size="79.0" fill="#000000" transform="matrix(1.00, 0.00, -0.00, -1.00, 590.4, 19.4)">a</text><text xml:space="preserve" font-family="Times-Roman,Times" font-size="79.0" fill="#000000" transform="matrix(1.00, 0.00, -0.00, -1.00, 625.5, 19.4)">c</text><text xml:space="preserve" font-family="Times-Roman,Times" font-size="79.0" fill="#000000" transform="matrix(1.00, 0.00, -0.00, -1.00, 660.5, 19.4)">k</text><text xml:space="preserve" font-family="Times-Roman,Times" font-size="79.0" fill="#000000" transform="matrix(1.00, 0.00, -0.00, -1.00, 700.0, 19.4)"> </text><text xml:space="preserve" font-family="Times-Roman,Times" font-size="79.0" fill="#000000" transform="matrix(1.00, 0.00, -0.00, -1.00, 719.8, 19.4)">a</text><text xml:space="preserve" font-family="Times-Roman,Times" font-size="79.0" fill="#000000" transform="matrix(1.00, 0.00, -0.00, -1.00, 754.8, 19.4)"> </text><text xml:space="preserve" font-family="Times-Roman,Times" font-size="79.0" fill="#000000" transform="matrix(1.00, 0.00, -0.00, -1.00, 774.6, 19.4)">C</text><text xml:space="preserve" font-family="Times-Roman,Times" font-size="79.0" fill="#000000" transform="matrix(1.00, 0.00, -0.00, -1.00, 827.3, 19.4)">a</text><text xml:space="preserve" font-family="Times-Roman,Times" font-size="79.0" fill="#000000" transform="matrix(1.00, 0.00, -0.00, -1.00, 862.3, 19.4)">t</text></g></svg>