<?xml version="1.0" encoding="UTF-8" standalone="no"?><svg xmlns="http://www.w3.org/2000/svg" xmlns:xlink="http://www.w3.org/1999/xlink" clip-rule="evenodd" stroke-miterlimit="10" viewBox="0 0 1024 768"><desc>SVG generated by Keynote</desc><defs></defs><g transform="matrix(1.00, 0.00, -0.00, -1.00, 0.0, 768.0)"><path d="M 0.0 768.0 L 1024.0 768.0 L 1024.0 0.0 L 0.0 0.0 Z M 0.0 768.0 " fill="#FEFFFF"></path><image xlink:href="D16081DEDC5AA01D9F1E13CE712D045B.jpeg" width="2592.00" height="1936.00" transform="matrix(0.40, 0.00, -0.00, -0.40, -3.3, 768.9)"></image><g opacity="0.69"><g><clipPath id="clip0x6180006b1640"><path d="M 7.0 6.0 L 453.0 6.0 L 453.0 192.0 L 7.0 192.0 Z M 7.0 6.0 "></path></clipPath><g clip-path="url(#clip0x6180006b1640)"><image xlink:href="3879C2F5971ED450749E153A1C14DBE2.png" width="443.00" height="180.00" transform="matrix(1.00, 0.00, -0.00, -1.00, 8.1, 186.7)" opacity="0.50"></image><path d="M 11.1 34.1 L 11.0 163.7 C 11.0 175.8 21.0 186.0 33.1 186.0 L 426.6 186.0 C 438.8 186.0 449.0 175.8 449.0 163.7 L 449.0 34.1 C 449.0 22.0 438.8 12.0 426.6 12.0 L 33.1 12.0 C 21.0 12.0 11.1 22.0 11.1 34.1 Z M 11.1 34.1 " fill="#000000"></path></g></g></g><image xlink:href="190DAF42AE2C6A6111D56A98B06E35E6.png" width="178.00" height="193.00" transform="matrix(1.00, 0.00, -0.00, -1.00, -2.0, 385.5)" opacity="0.50"></image><g><clipPath id="clip0x6000008b8ea0"><path d="M 168.1 381.5 L 101.5 335.2 C 96.5 336.0 91.4 336.4 86.1 336.4 C 39.1 336.4 1.0 305.2 1.0 266.6 C 1.0 228.1 39.1 196.8 86.1 196.8 C 133.1 196.8 171.2 228.1 171.2 266.6 C 171.2 284.8 162.7 301.3 148.8 313.7 L 168.1 381.5 Z M 168.1 381.5 "></path></clipPath><g clip-path="url(#clip0x6000008b8ea0)"><image xlink:href="54AAA609FA4289ED6813ACB24DD77507.png" width="600.00" height="600.00" transform="matrix(0.50, 0.00, -0.00, -0.50, 1.0, 381.5)"></image></g></g><g><clipPath id="clip0x6080008ab100"><path d="M 1.0 196.8 L 171.2 196.8 L 171.2 336.4 L 1.0 336.4 Z M 1.0 196.8 "></path></clipPath><g clip-path="url(#clip0x6080008ab100)"><text xml:space="preserve" font-family="Times-Roman,Times" font-size="24.0" fill="#FEFFFE" transform="matrix(1.00, 0.00, -0.00, -1.00, 49.1, 286.9)">2</text><text xml:space="preserve" font-family="Times-Roman,Times" font-size="24.0" fill="#FEFFFE" transform="matrix(1.00, 0.00, -0.00, -1.00, 61.1, 286.9)"> </text><text xml:space="preserve" font-family="Times-Roman,Times" font-size="24.0" fill="#FEFFFE" transform="matrix(1.00, 0.00, -0.00, -1.00, 67.1, 286.9)">U</text><text xml:space="preserve" font-family="Times-Roman,Times" font-size="24.0" fill="#FEFFFE" transform="matrix(1.00, 0.00, -0.00, -1.00, 84.4, 286.9)">S</text><text xml:space="preserve" font-family="Times-Roman,Times" font-size="24.0" fill="#FEFFFE" transform="matrix(1.00, 0.00, -0.00, -1.00, 97.8, 286.9)">B</text><text xml:space="preserve" font-family="Times-Roman,Times" font-size="24.0" fill="#FEFFFE" transform="matrix(1.00, 0.00, -0.00, -1.00, 113.8, 286.9)">s</text><text xml:space="preserve" font-family="LucidaGrande,Lucida Grande" font-size="24.0" fill="#FEFFFE" transform="matrix(1.00, 0.00, -0.00, -1.00, 123.1, 286.9)"> </text><text xml:space="preserve" font-family="Times-Roman,Times" font-size="24.0" fill="#FEFFFE" transform="matrix(1.00, 0.00, -0.00, -1.00, 24.5, 257.9)">f</text><text xml:space="preserve" font-family="Times-Roman,Times" font-size="24.0" fill="#FEFFFE" transform="matrix(1.00, 0.00, -0.00, -1.00, 32.5, 257.9)">o</text><text xml:space="preserve" font-family="Times-Roman,Times" font-size="24.0" fill="#FEFFFE" transform="matrix(1.00, 0.00, -0.00, -1.00, 44.5, 257.9)">r</text><text xml:space="preserve" font-family="Times-Roman,Times" font-size="24.0" fill="#FEFFFE" transform="matrix(1.00, 0.00, -0.00, -1.00, 52.5, 257.9)"> </text><text xml:space="preserve" font-family="Times-Roman,Times" font-size="24.0" fill="#FEFFFE" transform="matrix(1.00, 0.00, -0.00, -1.00, 58.5, 257.9)">k</text><text xml:space="preserve" font-family="Times-Roman,Times" font-size="24.0" fill="#FEFFFE" transform="matrix(1.00, 0.00, -0.00, -1.00, 70.5, 257.9)">e</text><text xml:space="preserve" font-family="Times-Roman,Times" font-size="24.0" fill="#FEFFFE" transform="matrix(1.00, 0.00, -0.00, -1.00, 81.1, 257.9)">y</text><text xml:space="preserve" font-family="Times-Roman,Times" font-size="24.0" fill="#FEFFFE" transform="matrix(1.00, 0.00, -0.00, -1.00, 93.1, 257.9)">b</text><text xml:space="preserve" font-family="Times-Roman,Times" font-size="24.0" fill="#FEFFFE" transform="matrix(1.00, 0.00, -0.00, -1.00, 105.1, 257.9)">o</text><text xml:space="preserve" font-family="Times-Roman,Times" font-size="24.0" fill="#FEFFFE" transform="matrix(1.00, 0.00, -0.00, -1.00, 117.1, 257.9)">a</text><text xml:space="preserve" font-family="Times-Roman,Times" font-size="24.0" fill="#FEFFFE" transform="matrix(1.00, 0.00, -0.00, -1.00, 127.8, 257.9)">r</text><text xml:space="preserve" font-family="Times-Roman,Times" font-size="24.0" fill="#FEFFFE" transform="matrix(1.00, 0.00, -0.00, -1.00, 135.7, 257.9)">d</text><text xml:space="preserve" font-family="Times-Roman,Times" font-size="24.0" fill="#FEFFFE" transform="matrix(1.00, 0.00, -0.00, -1.00, 147.7, 257.9)">	</text><text xml:space="preserve" font-family="Times-Roman,Times" font-size="24.0" fill="#FEFFFE" transform="matrix(1.00, 0.00, -0.00, -1.00, 175.7, 257.9)">
</text><text xml:space="preserve" font-family="Times-Roman,Times" font-size="24.0" fill="#FEFFFE" transform="matrix(1.00, 0.00, -0.00, -1.00, 175.7, 257.9)"></text><text xml:space="preserve" font-family="Times-Roman,Times" font-size="24.0" fill="#FEFFFE" transform="matrix(1.00, 0.00, -0.00, -1.00, 42.5, 228.9)">&amp;</text><text xml:space="preserve" font-family="Times-Roman,Times" font-size="24.0" fill="#FEFFFE" transform="matrix(1.00, 0.00, -0.00, -1.00, 61.1, 228.9)"> </text><text xml:space="preserve" font-family="Times-Roman,Times" font-size="24.0" fill="#FEFFFE" transform="matrix(1.00, 0.00, -0.00, -1.00, 67.1, 228.9)">m</text><text xml:space="preserve" font-family="Times-Roman,Times" font-size="24.0" fill="#FEFFFE" transform="matrix(1.00, 0.00, -0.00, -1.00, 85.8, 228.9)">o</text><text xml:space="preserve" font-family="Times-Roman,Times" font-size="24.0" fill="#FEFFFE" transform="matrix(1.00, 0.00, -0.00, -1.00, 97.8, 228.9)">u</text><text xml:space="preserve" font-family="Times-Roman,Times" font-size="24.0" fill="#FEFFFE" transform="matrix(1.00, 0.00, -0.00, -1.00, 109.8, 228.9)">s</text><text xml:space="preserve" font-family="Times-Roman,Times" font-size="24.0" fill="#FEFFFE" transform="matrix(1.00, 0.00, -0.00, -1.00, 119.1, 228.9)">e</text></g></g><image xlink:href="C5226B75219813888840FF4018807D2A.png" width="223.00" height="182.00" transform="matrix(1.00, 0.00, -0.00, -1.00, 20.8, 766.0)" opacity="0.50"></image><g><clipPath id="clip0x6000008b3e00"><path d="M 124.5 762.0 C 68.9 762.0 23.8 727.5 23.8 684.9 C 23.8 642.3 68.9 607.8 124.5 607.8 C 141.2 607.8 156.8 610.9 170.7 616.4 L 239.0 588.4 L 206.5 640.2 C 218.3 652.8 225.2 668.2 225.2 684.9 C 225.2 727.5 180.1 762.0 124.5 762.0 Z M 124.5 762.0 "></path></clipPath><g clip-path="url(#clip0x6000008b3e00)"><image xlink:href="../../B179F06B-B29C-4752-B627-651BC7E9B2D1/assets/54AAA609FA4289ED6813ACB24DD77507.png" width="600.00" height="600.00" transform="matrix(0.50, 0.00, -0.00, -0.50, 23.8, 762.0)"></image></g></g><g><clipPath id="clip0x6100008aed00"><path d="M 23.8 607.8 L 225.2 607.8 L 225.2 762.0 L 23.8 762.0 Z M 23.8 607.8 "></path></clipPath><g clip-path="url(#clip0x6100008aed00)"><text xml:space="preserve" font-family="Times-Roman,Times" font-size="30.0" fill="#FEFFFE" transform="matrix(1.00, 0.00, -0.00, -1.00, 73.7, 711.3)">E</text><text xml:space="preserve" font-family="Times-Roman,Times" font-size="30.0" fill="#FEFFFE" transform="matrix(1.00, 0.00, -0.00, -1.00, 92.0, 711.3)">t</text><text xml:space="preserve" font-family="Times-Roman,Times" font-size="30.0" fill="#FEFFFE" transform="matrix(1.00, 0.00, -0.00, -1.00, 100.4, 711.3)">h</text><text xml:space="preserve" font-family="Times-Roman,Times" font-size="30.0" fill="#FEFFFE" transform="matrix(1.00, 0.00, -0.00, -1.00, 115.4, 711.3)">e</text><text xml:space="preserve" font-family="Times-Roman,Times" font-size="30.0" fill="#FEFFFE" transform="matrix(1.00, 0.00, -0.00, -1.00, 128.7, 711.3)">r</text><text xml:space="preserve" font-family="Times-Roman,Times" font-size="30.0" fill="#FEFFFE" transform="matrix(1.00, 0.00, -0.00, -1.00, 138.7, 711.3)">n</text><text xml:space="preserve" font-family="Times-Roman,Times" font-size="30.0" fill="#FEFFFE" transform="matrix(1.00, 0.00, -0.00, -1.00, 153.7, 711.3)">e</text><text xml:space="preserve" font-family="Times-Roman,Times" font-size="30.0" fill="#FEFFFE" transform="matrix(1.00, 0.00, -0.00, -1.00, 167.0, 711.3)">t</text><text xml:space="preserve" font-family="Times-Roman,Times" font-size="30.0" fill="#FEFFFE" transform="matrix(1.00, 0.00, -0.00, -1.00, 175.3, 711.3)">	</text><text xml:space="preserve" font-family="Times-Roman,Times" font-size="30.0" fill="#FEFFFE" transform="matrix(1.00, 0.00, -0.00, -1.00, 203.3, 711.3)">
</text><text xml:space="preserve" font-family="Times-Roman,Times" font-size="30.0" fill="#FEFFFE" transform="matrix(1.00, 0.00, -0.00, -1.00, 203.3, 711.3)"></text><text xml:space="preserve" font-family="Times-Roman,Times" font-size="30.0" fill="#FEFFFE" transform="matrix(1.00, 0.00, -0.00, -1.00, 40.2, 674.3)">t</text><text xml:space="preserve" font-family="Times-Roman,Times" font-size="30.0" fill="#FEFFFE" transform="matrix(1.00, 0.00, -0.00, -1.00, 48.5, 674.3)">o</text><text xml:space="preserve" font-family="Times-Roman,Times" font-size="30.0" fill="#FEFFFE" transform="matrix(1.00, 0.00, -0.00, -1.00, 63.5, 674.3)"> </text><text xml:space="preserve" font-family="Times-Roman,Times" font-size="30.0" fill="#FEFFFE" transform="matrix(1.00, 0.00, -0.00, -1.00, 71.0, 674.3)">a</text><text xml:space="preserve" font-family="Times-Roman,Times" font-size="30.0" fill="#FEFFFE" transform="matrix(1.00, 0.00, -0.00, -1.00, 84.3, 674.3)">c</text><text xml:space="preserve" font-family="Times-Roman,Times" font-size="30.0" fill="#FEFFFE" transform="matrix(1.00, 0.00, -0.00, -1.00, 97.6, 674.3)">c</text><text xml:space="preserve" font-family="Times-Roman,Times" font-size="30.0" fill="#FEFFFE" transform="matrix(1.00, 0.00, -0.00, -1.00, 111.0, 674.3)">e</text><text xml:space="preserve" font-family="Times-Roman,Times" font-size="30.0" fill="#FEFFFE" transform="matrix(1.00, 0.00, -0.00, -1.00, 124.3, 674.3)">s</text><text xml:space="preserve" font-family="Times-Roman,Times" font-size="30.0" fill="#FEFFFE" transform="matrix(1.00, 0.00, -0.00, -1.00, 135.9, 674.3)">s</text><text xml:space="preserve" font-family="Times-Roman,Times" font-size="30.0" fill="#FEFFFE" transform="matrix(1.00, 0.00, -0.00, -1.00, 147.6, 674.3)"> </text><text xml:space="preserve" font-family="Times-Roman,Times" font-size="30.0" fill="#FEFFFE" transform="matrix(1.00, 0.00, -0.00, -1.00, 154.6, 674.3)">W</text><text xml:space="preserve" font-family="Times-Roman,Times" font-size="30.0" fill="#FEFFFE" transform="matrix(1.00, 0.00, -0.00, -1.00, 180.5, 674.3)">e</text><text xml:space="preserve" font-family="Times-Roman,Times" font-size="30.0" fill="#FEFFFE" transform="matrix(1.00, 0.00, -0.00, -1.00, 193.8, 674.3)">b</text><text xml:space="preserve" font-family="Times-Roman,Times" font-size="30.0" fill="#FEFFFE" transform="matrix(1.00, 0.00, -0.00, -1.00, 208.8, 674.3)"> </text><text xml:space="preserve" font-family="Times-Roman,Times" font-size="30.0" fill="#FEFFFE" transform="matrix(1.00, 0.00, -0.00, -1.00, 76.2, 637.3)">(</text><text xml:space="preserve" font-family="Times-Roman,Times" font-size="30.0" fill="#FEFFFE" transform="matrix(1.00, 0.00, -0.00, -1.00, 86.2, 637.3)">o</text><text xml:space="preserve" font-family="Times-Roman,Times" font-size="30.0" fill="#FEFFFE" transform="matrix(1.00, 0.00, -0.00, -1.00, 101.2, 637.3)">p</text><text xml:space="preserve" font-family="Times-Roman,Times" font-size="30.0" fill="#FEFFFE" transform="matrix(1.00, 0.00, -0.00, -1.00, 116.2, 637.3)">t</text><text xml:space="preserve" font-family="Times-Roman,Times" font-size="30.0" fill="#FEFFFE" transform="matrix(1.00, 0.00, -0.00, -1.00, 124.5, 637.3)">i</text><text xml:space="preserve" font-family="Times-Roman,Times" font-size="30.0" fill="#FEFFFE" transform="matrix(1.00, 0.00, -0.00, -1.00, 132.9, 637.3)">o</text><text xml:space="preserve" font-family="Times-Roman,Times" font-size="30.0" fill="#FEFFFE" transform="matrix(1.00, 0.00, -0.00, -1.00, 147.9, 637.3)">n</text><text xml:space="preserve" font-family="Times-Roman,Times" font-size="30.0" fill="#FEFFFE" transform="matrix(1.00, 0.00, -0.00, -1.00, 162.9, 637.3)">)</text></g></g><image xlink:href="09D55757A872FC92EAB16BCCCB7099EE.png" width="272.00" height="213.00" transform="matrix(1.00, 0.00, -0.00, -1.00, 568.0, 767.8)" opacity="0.50"></image><g><clipPath id="clip0x6000008b6e00"><path d="M 715.4 763.8 C 649.3 763.8 595.7 736.1 595.7 701.9 C 595.7 682.3 613.3 664.9 640.7 653.5 L 571.0 558.9 L 686.1 641.9 C 695.5 640.7 705.3 640.0 715.4 640.0 C 781.5 640.0 835.2 667.7 835.2 701.9 C 835.2 736.1 781.5 763.8 715.4 763.8 Z M 715.4 763.8 "></path></clipPath><g clip-path="url(#clip0x6000008b6e00)"><image xlink:href="../../B179F06B-B29C-4752-B627-651BC7E9B2D1/assets/54AAA609FA4289ED6813ACB24DD77507.png" width="600.00" height="600.00" transform="matrix(0.50, 0.00, -0.00, -0.50, 571.0, 763.8)"></image></g></g><g><clipPath id="clip0x6100008af5a0"><path d="M 595.7 640.0 L 835.2 640.0 L 835.2 763.8 L 595.7 763.8 Z M 595.7 640.0 "></path></clipPath><g clip-path="url(#clip0x6100008af5a0)"><text xml:space="preserve" font-family="Times-Roman,Times" font-size="37.0" fill="#FEFFFE" transform="matrix(1.00, 0.00, -0.00, -1.00, 666.1, 711.3)">H</text><text xml:space="preserve" font-family="Times-Roman,Times" font-size="37.0" fill="#FEFFFE" transform="matrix(1.00, 0.00, -0.00, -1.00, 692.8, 711.3)">D</text><text xml:space="preserve" font-family="Times-Roman,Times" font-size="37.0" fill="#FEFFFE" transform="matrix(1.00, 0.00, -0.00, -1.00, 719.6, 711.3)">M</text><text xml:space="preserve" font-family="Times-Roman,Times" font-size="37.0" fill="#FEFFFE" transform="matrix(1.00, 0.00, -0.00, -1.00, 752.5, 711.3)">I</text><text xml:space="preserve" font-family="Times-Roman,Times" font-size="37.0" fill="#FEFFFE" transform="matrix(1.00, 0.00, -0.00, -1.00, 764.8, 711.3)">	</text><text xml:space="preserve" font-family="Times-Roman,Times" font-size="37.0" fill="#FEFFFE" transform="matrix(1.00, 0.00, -0.00, -1.00, 792.8, 711.3)">
</text><text xml:space="preserve" font-family="Times-Roman,Times" font-size="37.0" fill="#FEFFFE" transform="matrix(1.00, 0.00, -0.00, -1.00, 792.8, 711.3)"></text><text xml:space="preserve" font-family="Times-Roman,Times" font-size="37.0" fill="#FEFFFE" transform="matrix(1.00, 0.00, -0.00, -1.00, 643.0, 667.3)">t</text><text xml:space="preserve" font-family="Times-Roman,Times" font-size="37.0" fill="#FEFFFE" transform="matrix(1.00, 0.00, -0.00, -1.00, 653.3, 667.3)">o</text><text xml:space="preserve" font-family="Times-Roman,Times" font-size="37.0" fill="#FEFFFE" transform="matrix(1.00, 0.00, -0.00, -1.00, 671.8, 667.3)"> </text><text xml:space="preserve" font-family="Times-Roman,Times" font-size="37.0" fill="#FEFFFE" transform="matrix(1.00, 0.00, -0.00, -1.00, 681.0, 667.3)">d</text><text xml:space="preserve" font-family="Times-Roman,Times" font-size="37.0" fill="#FEFFFE" transform="matrix(1.00, 0.00, -0.00, -1.00, 699.5, 667.3)">i</text><text xml:space="preserve" font-family="Times-Roman,Times" font-size="37.0" fill="#FEFFFE" transform="matrix(1.00, 0.00, -0.00, -1.00, 709.8, 667.3)">s</text><text xml:space="preserve" font-family="Times-Roman,Times" font-size="37.0" fill="#FEFFFE" transform="matrix(1.00, 0.00, -0.00, -1.00, 724.2, 667.3)">p</text><text xml:space="preserve" font-family="Times-Roman,Times" font-size="37.0" fill="#FEFFFE" transform="matrix(1.00, 0.00, -0.00, -1.00, 742.7, 667.3)">l</text><text xml:space="preserve" font-family="Times-Roman,Times" font-size="37.0" fill="#FEFFFE" transform="matrix(1.00, 0.00, -0.00, -1.00, 753.0, 667.3)">a</text><text xml:space="preserve" font-family="Times-Roman,Times" font-size="37.0" fill="#FEFFFE" transform="matrix(1.00, 0.00, -0.00, -1.00, 769.4, 667.3)">y</text></g></g><image xlink:href="457558FBFD3953AC704207AA9CE9BE9E.png" width="209.00" height="166.00" transform="matrix(1.00, 0.00, -0.00, -1.00, 809.9, 690.7)" opacity="0.50"></image><g><clipPath id="clip0x6000008b0320"><path d="M 923.3 686.7 C 873.1 686.7 832.5 658.9 832.5 624.7 C 832.5 611.5 838.4 599.4 848.6 589.3 L 812.9 529.1 L 899.5 564.8 C 907.1 563.4 915.1 562.6 923.3 562.6 C 973.4 562.6 1014.1 590.4 1014.1 624.7 C 1014.1 658.9 973.4 686.7 923.3 686.7 Z M 923.3 686.7 "></path></clipPath><g clip-path="url(#clip0x6000008b0320)"><image xlink:href="../../B179F06B-B29C-4752-B627-651BC7E9B2D1/assets/54AAA609FA4289ED6813ACB24DD77507.png" width="600.00" height="600.00" transform="matrix(0.50, 0.00, -0.00, -0.50, 812.9, 686.7)"></image></g></g><g><clipPath id="clip0x6000008b6800"><path d="M 832.5 562.6 L 1014.1 562.6 L 1014.1 686.7 L 832.5 686.7 Z M 832.5 562.6 "></path></clipPath><g clip-path="url(#clip0x6000008b6800)"><text xml:space="preserve" font-family="Times-Roman,Times" font-size="27.0" fill="#FEFFFE" transform="matrix(1.00, 0.00, -0.00, -1.00, 860.6, 631.7)">M</text><text xml:space="preserve" font-family="Times-Roman,Times" font-size="27.0" fill="#FEFFFE" transform="matrix(1.00, 0.00, -0.00, -1.00, 884.7, 631.7)">i</text><text xml:space="preserve" font-family="Times-Roman,Times" font-size="27.0" fill="#FEFFFE" transform="matrix(1.00, 0.00, -0.00, -1.00, 892.2, 631.7)">c</text><text xml:space="preserve" font-family="Times-Roman,Times" font-size="27.0" fill="#FEFFFE" transform="matrix(1.00, 0.00, -0.00, -1.00, 904.1, 631.7)">r</text><text xml:space="preserve" font-family="Times-Roman,Times" font-size="27.0" fill="#FEFFFE" transform="matrix(1.00, 0.00, -0.00, -1.00, 913.1, 631.7)">o</text><text xml:space="preserve" font-family="Times-Roman,Times" font-size="27.0" fill="#FEFFFE" transform="matrix(1.00, 0.00, -0.00, -1.00, 926.6, 631.7)"> </text><text xml:space="preserve" font-family="Times-Roman,Times" font-size="27.0" fill="#FEFFFE" transform="matrix(1.00, 0.00, -0.00, -1.00, 933.4, 631.7)">U</text><text xml:space="preserve" font-family="Times-Roman,Times" font-size="27.0" fill="#FEFFFE" transform="matrix(1.00, 0.00, -0.00, -1.00, 952.9, 631.7)">S</text><text xml:space="preserve" font-family="Times-Roman,Times" font-size="27.0" fill="#FEFFFE" transform="matrix(1.00, 0.00, -0.00, -1.00, 967.9, 631.7)">B</text><text xml:space="preserve" font-family="Times-Roman,Times" font-size="27.0" fill="#FEFFFE" transform="matrix(1.00, 0.00, -0.00, -1.00, 985.9, 631.7)"> </text><text xml:space="preserve" font-family="Times-Roman,Times" font-size="27.0" fill="#FEFFFE" transform="matrix(1.00, 0.00, -0.00, -1.00, 875.7, 599.7)">t</text><text xml:space="preserve" font-family="Times-Roman,Times" font-size="27.0" fill="#FEFFFE" transform="matrix(1.00, 0.00, -0.00, -1.00, 883.2, 599.7)">o</text><text xml:space="preserve" font-family="Times-Roman,Times" font-size="27.0" fill="#FEFFFE" transform="matrix(1.00, 0.00, -0.00, -1.00, 896.7, 599.7)"> </text><text xml:space="preserve" font-family="Times-Roman,Times" font-size="27.0" fill="#FEFFFE" transform="matrix(1.00, 0.00, -0.00, -1.00, 903.4, 599.7)">p</text><text xml:space="preserve" font-family="Times-Roman,Times" font-size="27.0" fill="#FEFFFE" transform="matrix(1.00, 0.00, -0.00, -1.00, 916.9, 599.7)">o</text><text xml:space="preserve" font-family="Times-Roman,Times" font-size="27.0" fill="#FEFFFE" transform="matrix(1.00, 0.00, -0.00, -1.00, 930.4, 599.7)">w</text><text xml:space="preserve" font-family="Times-Roman,Times" font-size="27.0" fill="#FEFFFE" transform="matrix(1.00, 0.00, -0.00, -1.00, 949.9, 599.7)">e</text><text xml:space="preserve" font-family="Times-Roman,Times" font-size="27.0" fill="#FEFFFE" transform="matrix(1.00, 0.00, -0.00, -1.00, 961.9, 599.7)">r</text></g></g><image xlink:href="A1509E0B4740C09C5F52B11ED495CB9D.png" width="255.00" height="160.00" transform="matrix(1.00, 0.00, -0.00, -1.00, 456.2, 241.9)" opacity="0.50"></image><g><clipPath id="clip0x6000008baee0"><path d="M 705.8 237.9 L 587.2 175.8 C 582.1 176.1 576.9 176.5 571.6 176.5 C 509.5 176.5 459.2 156.1 459.2 131.0 C 459.2 105.9 509.5 85.6 571.6 85.6 C 633.6 85.6 684.0 105.9 684.0 131.0 C 684.0 145.0 668.4 157.4 644.0 165.8 L 705.8 237.9 Z M 705.8 237.9 "></path></clipPath><g clip-path="url(#clip0x6000008baee0)"><image xlink:href="../../B179F06B-B29C-4752-B627-651BC7E9B2D1/assets/54AAA609FA4289ED6813ACB24DD77507.png" width="600.00" height="600.00" transform="matrix(0.50, 0.00, -0.00, -0.50, 459.2, 237.9)"></image></g></g><g><clipPath id="clip0x6080008abca0"><path d="M 459.2 85.6 L 684.0 85.6 L 684.0 176.5 L 459.2 176.5 Z M 459.2 85.6 "></path></clipPath><g clip-path="url(#clip0x6080008abca0)"><text xml:space="preserve" font-family="Times-Roman,Times" font-size="27.0" fill="#FEFFFE" transform="matrix(1.00, 0.00, -0.00, -1.00, 529.2, 137.6)">P</text><text xml:space="preserve" font-family="Times-Roman,Times" font-size="27.0" fill="#FEFFFE" transform="matrix(1.00, 0.00, -0.00, -1.00, 544.2, 137.6)">i</text><text xml:space="preserve" font-family="Times-Roman,Times" font-size="27.0" fill="#FEFFFE" transform="matrix(1.00, 0.00, -0.00, -1.00, 551.7, 137.6)">n</text><text xml:space="preserve" font-family="Times-Roman,Times" font-size="27.0" fill="#FEFFFE" transform="matrix(1.00, 0.00, -0.00, -1.00, 565.2, 137.6)">s</text><text xml:space="preserve" font-family="Times-Roman,Times" font-size="27.0" fill="#FEFFFE" transform="matrix(1.00, 0.00, -0.00, -1.00, 575.7, 137.6)"> </text><text xml:space="preserve" font-family="Times-Roman,Times" font-size="27.0" fill="#FEFFFE" transform="matrix(1.00, 0.00, -0.00, -1.00, 582.5, 137.6)">f</text><text xml:space="preserve" font-family="Times-Roman,Times" font-size="27.0" fill="#FEFFFE" transform="matrix(1.00, 0.00, -0.00, -1.00, 591.5, 137.6)">o</text><text xml:space="preserve" font-family="Times-Roman,Times" font-size="27.0" fill="#FEFFFE" transform="matrix(1.00, 0.00, -0.00, -1.00, 605.0, 137.6)">r</text><text xml:space="preserve" font-family="Times-Roman,Times" font-size="27.0" fill="#FEFFFE" transform="matrix(1.00, 0.00, -0.00, -1.00, 614.0, 137.6)"> </text><text xml:space="preserve" font-family="Times-Roman,Times" font-size="27.0" fill="#FEFFFE" transform="matrix(1.00, 0.00, -0.00, -1.00, 508.6, 105.6)">p</text><text xml:space="preserve" font-family="Times-Roman,Times" font-size="27.0" fill="#FEFFFE" transform="matrix(1.00, 0.00, -0.00, -1.00, 522.1, 105.6)">r</text><text xml:space="preserve" font-family="Times-Roman,Times" font-size="27.0" fill="#FEFFFE" transform="matrix(1.00, 0.00, -0.00, -1.00, 531.1, 105.6)">o</text><text xml:space="preserve" font-family="Times-Roman,Times" font-size="27.0" fill="#FEFFFE" transform="matrix(1.00, 0.00, -0.00, -1.00, 544.6, 105.6)">t</text><text xml:space="preserve" font-family="Times-Roman,Times" font-size="27.0" fill="#FEFFFE" transform="matrix(1.00, 0.00, -0.00, -1.00, 552.1, 105.6)">o</text><text xml:space="preserve" font-family="Times-Roman,Times" font-size="27.0" fill="#FEFFFE" transform="matrix(1.00, 0.00, -0.00, -1.00, 565.6, 105.6)">t</text><text xml:space="preserve" font-family="Times-Roman,Times" font-size="27.0" fill="#FEFFFE" transform="matrix(1.00, 0.00, -0.00, -1.00, 573.1, 105.6)">y</text><text xml:space="preserve" font-family="Times-Roman,Times" font-size="27.0" fill="#FEFFFE" transform="matrix(1.00, 0.00, -0.00, -1.00, 586.6, 105.6)">p</text><text xml:space="preserve" font-family="Times-Roman,Times" font-size="27.0" fill="#FEFFFE" transform="matrix(1.00, 0.00, -0.00, -1.00, 600.1, 105.6)">i</text><text xml:space="preserve" font-family="Times-Roman,Times" font-size="27.0" fill="#FEFFFE" transform="matrix(1.00, 0.00, -0.00, -1.00, 607.6, 105.6)">n</text><text xml:space="preserve" font-family="Times-Roman,Times" font-size="27.0" fill="#FEFFFE" transform="matrix(1.00, 0.00, -0.00, -1.00, 621.1, 105.6)">g</text></g></g><image xlink:href="8932DB934C01AB0917CCB151A73DC1BB.png" width="233.00" height="242.00" transform="matrix(1.00, 0.00, -0.00, -1.00, 795.4, 305.2)" opacity="0.50"></image><g><clipPath id="clip0x6000008bab20"><path d="M 958.2 301.2 L 904.6 203.2 C 845.4 201.2 798.4 171.7 798.4 135.5 C 798.4 98.0 848.7 67.7 910.8 67.7 C 972.9 67.7 1023.1 98.0 1023.1 135.5 C 1023.1 164.1 993.8 188.5 952.4 198.5 L 958.2 301.2 Z M 958.2 301.2 "></path></clipPath><g clip-path="url(#clip0x6000008bab20)"><image xlink:href="../../B179F06B-B29C-4752-B627-651BC7E9B2D1/assets/54AAA609FA4289ED6813ACB24DD77507.png" width="600.00" height="600.00" transform="matrix(0.50, 0.00, -0.00, -0.50, 798.4, 301.2)"></image></g></g><g><clipPath id="clip0x6100008afae0"><path d="M 798.4 67.7 L 1023.2 67.7 L 1023.2 203.4 L 798.4 203.4 Z M 798.4 67.7 "></path></clipPath><g clip-path="url(#clip0x6100008afae0)"><text xml:space="preserve" font-family="Times-Roman,Times" font-size="29.0" fill="#FEFFFE" transform="matrix(1.00, 0.00, -0.00, -1.00, 837.5, 151.4)">S</text><text xml:space="preserve" font-family="Times-Roman,Times" font-size="29.0" fill="#FEFFFE" transform="matrix(1.00, 0.00, -0.00, -1.00, 853.6, 151.4)">D</text><text xml:space="preserve" font-family="Times-Roman,Times" font-size="29.0" fill="#FEFFFE" transform="matrix(1.00, 0.00, -0.00, -1.00, 874.6, 151.4)"> </text><text xml:space="preserve" font-family="Times-Roman,Times" font-size="29.0" fill="#FEFFFE" transform="matrix(1.00, 0.00, -0.00, -1.00, 881.8, 151.4)">C</text><text xml:space="preserve" font-family="Times-Roman,Times" font-size="29.0" fill="#FEFFFE" transform="matrix(1.00, 0.00, -0.00, -1.00, 901.2, 151.4)">a</text><text xml:space="preserve" font-family="Times-Roman,Times" font-size="29.0" fill="#FEFFFE" transform="matrix(1.00, 0.00, -0.00, -1.00, 914.0, 151.4)">r</text><text xml:space="preserve" font-family="Times-Roman,Times" font-size="29.0" fill="#FEFFFE" transform="matrix(1.00, 0.00, -0.00, -1.00, 923.7, 151.4)">d</text><text xml:space="preserve" font-family="Times-Roman,Times" font-size="29.0" fill="#FEFFFE" transform="matrix(1.00, 0.00, -0.00, -1.00, 938.2, 151.4)"> </text><text xml:space="preserve" font-family="Times-Roman,Times" font-size="29.0" fill="#FEFFFE" transform="matrix(1.00, 0.00, -0.00, -1.00, 945.4, 151.4)">(</text><text xml:space="preserve" font-family="Times-Roman,Times" font-size="29.0" fill="#FEFFFE" transform="matrix(1.00, 0.00, -0.00, -1.00, 955.1, 151.4)">o</text><text xml:space="preserve" font-family="Times-Roman,Times" font-size="29.0" fill="#FEFFFE" transform="matrix(1.00, 0.00, -0.00, -1.00, 969.6, 151.4)">n</text><text xml:space="preserve" font-family="Times-Roman,Times" font-size="29.0" fill="#FEFFFE" transform="matrix(1.00, 0.00, -0.00, -1.00, 984.1, 151.4)"> </text><text xml:space="preserve" font-family="Times-Roman,Times" font-size="29.0" fill="#FEFFFE" transform="matrix(1.00, 0.00, -0.00, -1.00, 812.9, 116.4)">t</text><text xml:space="preserve" font-family="Times-Roman,Times" font-size="29.0" fill="#FEFFFE" transform="matrix(1.00, 0.00, -0.00, -1.00, 821.0, 116.4)">h</text><text xml:space="preserve" font-family="Times-Roman,Times" font-size="29.0" fill="#FEFFFE" transform="matrix(1.00, 0.00, -0.00, -1.00, 835.5, 116.4)">e</text><text xml:space="preserve" font-family="Times-Roman,Times" font-size="29.0" fill="#FEFFFE" transform="matrix(1.00, 0.00, -0.00, -1.00, 848.4, 116.4)"> </text><text xml:space="preserve" font-family="Times-Roman,Times" font-size="29.0" fill="#FEFFFE" transform="matrix(1.00, 0.00, -0.00, -1.00, 855.6, 116.4)">b</text><text xml:space="preserve" font-family="Times-Roman,Times" font-size="29.0" fill="#FEFFFE" transform="matrix(1.00, 0.00, -0.00, -1.00, 870.1, 116.4)">a</text><text xml:space="preserve" font-family="Times-Roman,Times" font-size="29.0" fill="#FEFFFE" transform="matrix(1.00, 0.00, -0.00, -1.00, 883.0, 116.4)">c</text><text xml:space="preserve" font-family="Times-Roman,Times" font-size="29.0" fill="#FEFFFE" transform="matrix(1.00, 0.00, -0.00, -1.00, 895.8, 116.4)">k</text><text xml:space="preserve" font-family="Times-Roman,Times" font-size="29.0" fill="#FEFFFE" transform="matrix(1.00, 0.00, -0.00, -1.00, 910.3, 116.4)">)</text><text xml:space="preserve" font-family="Times-Roman,Times" font-size="29.0" fill="#FEFFFE" transform="matrix(1.00, 0.00, -0.00, -1.00, 920.0, 116.4)"> </text><text xml:space="preserve" font-family="Times-Roman,Times" font-size="29.0" fill="#FEFFFE" transform="matrix(1.00, 0.00, -0.00, -1.00, 927.2, 116.4)">t</text><text xml:space="preserve" font-family="Times-Roman,Times" font-size="29.0" fill="#FEFFFE" transform="matrix(1.00, 0.00, -0.00, -1.00, 935.3, 116.4)">o</text><text xml:space="preserve" font-family="Times-Roman,Times" font-size="29.0" fill="#FEFFFE" transform="matrix(1.00, 0.00, -0.00, -1.00, 949.8, 116.4)"> </text><text xml:space="preserve" font-family="Times-Roman,Times" font-size="29.0" fill="#FEFFFE" transform="matrix(1.00, 0.00, -0.00, -1.00, 957.0, 116.4)">b</text><text xml:space="preserve" font-family="Times-Roman,Times" font-size="29.0" fill="#FEFFFE" transform="matrix(1.00, 0.00, -0.00, -1.00, 971.5, 116.4)">o</text><text xml:space="preserve" font-family="Times-Roman,Times" font-size="29.0" fill="#FEFFFE" transform="matrix(1.00, 0.00, -0.00, -1.00, 986.0, 116.4)">o</text><text xml:space="preserve" font-family="Times-Roman,Times" font-size="29.0" fill="#FEFFFE" transform="matrix(1.00, 0.00, -0.00, -1.00, 1000.5, 116.4)">t</text><text xml:space="preserve" font-family="Times-Roman,Times" font-size="29.0" fill="#FEFFFE" transform="matrix(1.00, 0.00, -0.00, -1.00, 1008.6, 116.4)"> </text></g></g><text xml:space="preserve" font-family="Times-Bold,Times" font-weight="bold" font-size="57.6" fill="#FEFFFE" transform="matrix(1.00, 0.00, -0.00, -1.00, 50.6, 112.7)">P</text><text xml:space="preserve" font-family="Times-Bold,Times" font-weight="bold" font-size="57.6" fill="#FEFFFE" transform="matrix(1.00, 0.00, -0.00, -1.00, 85.8, 112.7)">o</text><text xml:space="preserve" font-family="Times-Bold,Times" font-weight="bold" font-size="57.6" fill="#FEFFFE" transform="matrix(1.00, 0.00, -0.00, -1.00, 114.6, 112.7)">r</text><text xml:space="preserve" font-family="Times-Bold,Times" font-weight="bold" font-size="57.6" fill="#FEFFFE" transform="matrix(1.00, 0.00, -0.00, -1.00, 140.2, 112.7)">t</text><text xml:space="preserve" font-family="Times-Bold,Times" font-weight="bold" font-size="57.6" fill="#FEFFFE" transform="matrix(1.00, 0.00, -0.00, -1.00, 159.4, 112.7)">s</text><text xml:space="preserve" font-family="Times-Bold,Times" font-weight="bold" font-size="57.6" fill="#FEFFFE" transform="matrix(1.00, 0.00, -0.00, -1.00, 181.8, 112.7)"> </text><text xml:space="preserve" font-family="Times-Bold,Times" font-weight="bold" font-size="57.6" fill="#FEFFFE" transform="matrix(1.00, 0.00, -0.00, -1.00, 196.2, 112.7)">w</text><text xml:space="preserve" font-family="Times-Bold,Times" font-weight="bold" font-size="57.6" fill="#FEFFFE" transform="matrix(1.00, 0.00, -0.00, -1.00, 237.9, 112.7)">e</text><text xml:space="preserve" font-family="Times-Bold,Times" font-weight="bold" font-size="57.6" fill="#FEFFFE" transform="matrix(1.00, 0.00, -0.00, -1.00, 263.4, 112.7)">’</text><text xml:space="preserve" font-family="Times-Bold,Times" font-weight="bold" font-size="57.6" fill="#FEFFFE" transform="matrix(1.00, 0.00, -0.00, -1.00, 282.6, 112.7)">l</text><text xml:space="preserve" font-family="Times-Bold,Times" font-weight="bold" font-size="57.6" fill="#FEFFFE" transform="matrix(1.00, 0.00, -0.00, -1.00, 298.6, 112.7)">l</text><text xml:space="preserve" font-family="Times-Bold,Times" font-weight="bold" font-size="57.6" fill="#FEFFFE" transform="matrix(1.00, 0.00, -0.00, -1.00, 314.6, 112.7)"> </text><text xml:space="preserve" font-family="Times-Bold,Times" font-weight="bold" font-size="57.6" fill="#FEFFFE" transform="matrix(1.00, 0.00, -0.00, -1.00, 329.0, 112.7)">u</text><text xml:space="preserve" font-family="Times-Bold,Times" font-weight="bold" font-size="57.6" fill="#FEFFFE" transform="matrix(1.00, 0.00, -0.00, -1.00, 361.1, 112.7)">s</text><text xml:space="preserve" font-family="Times-Bold,Times" font-weight="bold" font-size="57.6" fill="#FEFFFE" transform="matrix(1.00, 0.00, -0.00, -1.00, 383.5, 112.7)">e</text><text xml:space="preserve" font-family="Times-Bold,Times" font-weight="bold" font-size="57.6" fill="#FEFFFE" transform="matrix(1.00, 0.00, -0.00, -1.00, 409.1, 112.7)"> </text><text xml:space="preserve" font-family="Times-Bold,Times" font-weight="bold" font-size="57.6" fill="#FEFFFE" transform="matrix(1.00, 0.00, -0.00, -1.00, 24.9, 44.7)">i</text><text xml:space="preserve" font-family="Times-Bold,Times" font-weight="bold" font-size="57.6" fill="#FEFFFE" transform="matrix(1.00, 0.00, -0.00, -1.00, 40.9, 44.7)">n</text><text xml:space="preserve" font-family="Times-Bold,Times" font-weight="bold" font-size="57.6" fill="#FEFFFE" transform="matrix(1.00, 0.00, -0.00, -1.00, 73.0, 44.7)"> </text><text xml:space="preserve" font-family="Times-Bold,Times" font-weight="bold" font-size="57.6" fill="#FEFFFE" transform="matrix(1.00, 0.00, -0.00, -1.00, 87.4, 44.7)">t</text><text xml:space="preserve" font-family="Times-Bold,Times" font-weight="bold" font-size="57.6" fill="#FEFFFE" transform="matrix(1.00, 0.00, -0.00, -1.00, 106.6, 44.7)">h</text><text xml:space="preserve" font-family="Times-Bold,Times" font-weight="bold" font-size="57.6" fill="#FEFFFE" transform="matrix(1.00, 0.00, -0.00, -1.00, 138.6, 44.7)">i</text><text xml:space="preserve" font-family="Times-Bold,Times" font-weight="bold" font-size="57.6" fill="#FEFFFE" transform="matrix(1.00, 0.00, -0.00, -1.00, 154.6, 44.7)">s</text><text xml:space="preserve" font-family="Times-Bold,Times" font-weight="bold" font-size="57.6" fill="#FEFFFE" transform="matrix(1.00, 0.00, -0.00, -1.00, 177.1, 44.7)"> </text><text xml:space="preserve" font-family="Times-Bold,Times" font-weight="bold" font-size="57.6" fill="#FEFFFE" transform="matrix(1.00, 0.00, -0.00, -1.00, 191.5, 44.7)">w</text><text xml:space="preserve" font-family="Times-Bold,Times" font-weight="bold" font-size="57.6" fill="#FEFFFE" transform="matrix(1.00, 0.00, -0.00, -1.00, 233.1, 44.7)">o</text><text xml:space="preserve" font-family="Times-Bold,Times" font-weight="bold" font-size="57.6" fill="#FEFFFE" transform="matrix(1.00, 0.00, -0.00, -1.00, 261.9, 44.7)">r</text><text xml:space="preserve" font-family="Times-Bold,Times" font-weight="bold" font-size="57.6" fill="#FEFFFE" transform="matrix(1.00, 0.00, -0.00, -1.00, 287.5, 44.7)">k</text><text xml:space="preserve" font-family="Times-Bold,Times" font-weight="bold" font-size="57.6" fill="#FEFFFE" transform="matrix(1.00, 0.00, -0.00, -1.00, 319.5, 44.7)">s</text><text xml:space="preserve" font-family="Times-Bold,Times" font-weight="bold" font-size="57.6" fill="#FEFFFE" transform="matrix(1.00, 0.00, -0.00, -1.00, 341.9, 44.7)">h</text><text xml:space="preserve" font-family="Times-Bold,Times" font-weight="bold" font-size="57.6" fill="#FEFFFE" transform="matrix(1.00, 0.00, -0.00, -1.00, 374.0, 44.7)">o</text><text xml:space="preserve" font-family="Times-Bold,Times" font-weight="bold" font-size="57.6" fill="#FEFFFE" transform="matrix(1.00, 0.00, -0.00, -1.00, 402.8, 44.7)">p</text></g></svg>