<?xml version="1.0" encoding="UTF-8" standalone="no"?><svg xmlns="http://www.w3.org/2000/svg" xmlns:xlink="http://www.w3.org/1999/xlink" clip-rule="evenodd" stroke-miterlimit="10" viewBox="0 0 1024 768"><desc>SVG generated by Keynote</desc><defs></defs><g transform="matrix(1.00, 0.00, -0.00, -1.00, 0.0, 768.0)"><path d="M 0.0 768.0 L 1024.0 768.0 L 1024.0 0.0 L 0.0 0.0 Z M 0.0 768.0 " fill="#FEFFFF"></path><text xml:space="preserve" font-family="Times-Roman,Times" font-size="43.0" fill="#000000" transform="matrix(1.00, 0.00, -0.00, -1.00, 22.7, 510.5)">•</text><text xml:space="preserve" font-family="Times-Roman,Times" font-size="43.0" fill="#000000" transform="matrix(1.00, 0.00, -0.00, -1.00, 37.7, 510.5)"> </text><text xml:space="preserve" font-family="Times-Roman,Times" font-size="43.0" fill="#000000" transform="matrix(1.00, 0.00, -0.00, -1.00, 48.5, 510.5)">C</text><text xml:space="preserve" font-family="Times-Roman,Times" font-size="43.0" fill="#000000" transform="matrix(1.00, 0.00, -0.00, -1.00, 77.2, 510.5)">r</text><text xml:space="preserve" font-family="Times-Roman,Times" font-size="43.0" fill="#000000" transform="matrix(1.00, 0.00, -0.00, -1.00, 91.5, 510.5)">e</text><text xml:space="preserve" font-family="Times-Roman,Times" font-size="43.0" fill="#000000" transform="matrix(1.00, 0.00, -0.00, -1.00, 110.6, 510.5)">a</text><text xml:space="preserve" font-family="Times-Roman,Times" font-size="43.0" fill="#000000" transform="matrix(1.00, 0.00, -0.00, -1.00, 129.6, 510.5)">t</text><text xml:space="preserve" font-family="Times-Roman,Times" font-size="43.0" fill="#000000" transform="matrix(1.00, 0.00, -0.00, -1.00, 141.6, 510.5)">e</text><text xml:space="preserve" font-family="Times-Roman,Times" font-size="43.0" fill="#000000" transform="matrix(1.00, 0.00, -0.00, -1.00, 160.7, 510.5)"> </text><text xml:space="preserve" font-family="Times-Roman,Times" font-size="43.0" fill="#000000" transform="matrix(1.00, 0.00, -0.00, -1.00, 171.4, 510.5)">a</text><text xml:space="preserve" font-family="Times-Roman,Times" font-size="43.0" fill="#000000" transform="matrix(1.00, 0.00, -0.00, -1.00, 190.5, 510.5)"> </text><text xml:space="preserve" font-family="Times-Roman,Times" font-size="43.0" fill="#000000" transform="matrix(1.00, 0.00, -0.00, -1.00, 201.2, 510.5)">s</text><text xml:space="preserve" font-family="Times-Roman,Times" font-size="43.0" fill="#000000" transform="matrix(1.00, 0.00, -0.00, -1.00, 218.0, 510.5)">c</text><text xml:space="preserve" font-family="Times-Roman,Times" font-size="43.0" fill="#000000" transform="matrix(1.00, 0.00, -0.00, -1.00, 237.0, 510.5)">r</text><text xml:space="preserve" font-family="Times-Roman,Times" font-size="43.0" fill="#000000" transform="matrix(1.00, 0.00, -0.00, -1.00, 251.4, 510.5)">i</text><text xml:space="preserve" font-family="Times-Roman,Times" font-size="43.0" fill="#000000" transform="matrix(1.00, 0.00, -0.00, -1.00, 263.3, 510.5)">p</text><text xml:space="preserve" font-family="Times-Roman,Times" font-size="43.0" fill="#000000" transform="matrix(1.00, 0.00, -0.00, -1.00, 284.8, 510.5)">t</text><text xml:space="preserve" font-family="Times-Roman,Times" font-size="43.0" fill="#000000" transform="matrix(1.00, 0.00, -0.00, -1.00, 296.7, 510.5)"> </text><text xml:space="preserve" font-family="Times-Roman,Times" font-size="43.0" fill="#000000" transform="matrix(1.00, 0.00, -0.00, -1.00, 307.5, 510.5)">t</text><text xml:space="preserve" font-family="Times-Roman,Times" font-size="43.0" fill="#000000" transform="matrix(1.00, 0.00, -0.00, -1.00, 319.4, 510.5)">h</text><text xml:space="preserve" font-family="Times-Roman,Times" font-size="43.0" fill="#000000" transform="matrix(1.00, 0.00, -0.00, -1.00, 340.9, 510.5)">a</text><text xml:space="preserve" font-family="Times-Roman,Times" font-size="43.0" fill="#000000" transform="matrix(1.00, 0.00, -0.00, -1.00, 360.0, 510.5)">t</text><text xml:space="preserve" font-family="Times-Roman,Times" font-size="43.0" fill="#000000" transform="matrix(1.00, 0.00, -0.00, -1.00, 371.9, 510.5)"> </text><text xml:space="preserve" font-family="Times-Roman,Times" font-size="43.0" fill="#000000" transform="matrix(1.00, 0.00, -0.00, -1.00, 382.7, 510.5)">t</text><text xml:space="preserve" font-family="Times-Roman,Times" font-size="43.0" fill="#000000" transform="matrix(1.00, 0.00, -0.00, -1.00, 394.6, 510.5)">u</text><text xml:space="preserve" font-family="Times-Roman,Times" font-size="43.0" fill="#000000" transform="matrix(1.00, 0.00, -0.00, -1.00, 416.1, 510.5)">r</text><text xml:space="preserve" font-family="Times-Roman,Times" font-size="43.0" fill="#000000" transform="matrix(1.00, 0.00, -0.00, -1.00, 430.5, 510.5)">n</text><text xml:space="preserve" font-family="Times-Roman,Times" font-size="43.0" fill="#000000" transform="matrix(1.00, 0.00, -0.00, -1.00, 452.0, 510.5)">s</text><text xml:space="preserve" font-family="Times-Roman,Times" font-size="43.0" fill="#000000" transform="matrix(1.00, 0.00, -0.00, -1.00, 468.7, 510.5)"> </text><text xml:space="preserve" font-family="Times-Roman,Times" font-size="43.0" fill="#000000" transform="matrix(1.00, 0.00, -0.00, -1.00, 22.7, 458.5)">o</text><text xml:space="preserve" font-family="Times-Roman,Times" font-size="43.0" fill="#000000" transform="matrix(1.00, 0.00, -0.00, -1.00, 44.2, 458.5)">n</text><text xml:space="preserve" font-family="Times-Roman,Times" font-size="43.0" fill="#000000" transform="matrix(1.00, 0.00, -0.00, -1.00, 65.7, 458.5)"> </text><text xml:space="preserve" font-family="Times-Roman,Times" font-size="43.0" fill="#000000" transform="matrix(1.00, 0.00, -0.00, -1.00, 76.4, 458.5)">L</text><text xml:space="preserve" font-family="Times-Roman,Times" font-size="43.0" fill="#000000" transform="matrix(1.00, 0.00, -0.00, -1.00, 102.7, 458.5)">E</text><text xml:space="preserve" font-family="Times-Roman,Times" font-size="43.0" fill="#000000" transform="matrix(1.00, 0.00, -0.00, -1.00, 128.9, 458.5)">D</text><text xml:space="preserve" font-family="Times-Roman,Times" font-size="43.0" fill="#000000" transform="matrix(1.00, 0.00, -0.00, -1.00, 160.0, 458.5)"> </text><text xml:space="preserve" font-family="Times-Roman,Times" font-size="43.0" fill="#000000" transform="matrix(1.00, 0.00, -0.00, -1.00, 170.8, 458.5)">l</text><text xml:space="preserve" font-family="Times-Roman,Times" font-size="43.0" fill="#000000" transform="matrix(1.00, 0.00, -0.00, -1.00, 182.7, 458.5)">i</text><text xml:space="preserve" font-family="Times-Roman,Times" font-size="43.0" fill="#000000" transform="matrix(1.00, 0.00, -0.00, -1.00, 194.6, 458.5)">g</text><text xml:space="preserve" font-family="Times-Roman,Times" font-size="43.0" fill="#000000" transform="matrix(1.00, 0.00, -0.00, -1.00, 216.1, 458.5)">h</text><text xml:space="preserve" font-family="Times-Roman,Times" font-size="43.0" fill="#000000" transform="matrix(1.00, 0.00, -0.00, -1.00, 237.6, 458.5)">t</text><text xml:space="preserve" font-family="Times-Roman,Times" font-size="43.0" fill="#000000" transform="matrix(1.00, 0.00, -0.00, -1.00, 249.6, 458.5)"> </text><text xml:space="preserve" font-family="Times-Roman,Times" font-size="43.0" fill="#000000" transform="matrix(1.00, 0.00, -0.00, -1.00, 260.3, 458.5)">w</text><text xml:space="preserve" font-family="Times-Roman,Times" font-size="43.0" fill="#000000" transform="matrix(1.00, 0.00, -0.00, -1.00, 291.4, 458.5)">h</text><text xml:space="preserve" font-family="Times-Roman,Times" font-size="43.0" fill="#000000" transform="matrix(1.00, 0.00, -0.00, -1.00, 312.9, 458.5)">i</text><text xml:space="preserve" font-family="Times-Roman,Times" font-size="43.0" fill="#000000" transform="matrix(1.00, 0.00, -0.00, -1.00, 324.8, 458.5)">l</text><text xml:space="preserve" font-family="Times-Roman,Times" font-size="43.0" fill="#000000" transform="matrix(1.00, 0.00, -0.00, -1.00, 336.8, 458.5)">e</text><text xml:space="preserve" font-family="Times-Roman,Times" font-size="43.0" fill="#000000" transform="matrix(1.00, 0.00, -0.00, -1.00, 355.8, 458.5)"> </text><text xml:space="preserve" font-family="Times-Roman,Times" font-size="43.0" fill="#000000" transform="matrix(1.00, 0.00, -0.00, -1.00, 366.6, 458.5)">p</text><text xml:space="preserve" font-family="Times-Roman,Times" font-size="43.0" fill="#000000" transform="matrix(1.00, 0.00, -0.00, -1.00, 388.1, 458.5)">r</text><text xml:space="preserve" font-family="Times-Roman,Times" font-size="43.0" fill="#000000" transform="matrix(1.00, 0.00, -0.00, -1.00, 402.4, 458.5)">e</text><text xml:space="preserve" font-family="Times-Roman,Times" font-size="43.0" fill="#000000" transform="matrix(1.00, 0.00, -0.00, -1.00, 421.5, 458.5)">s</text><text xml:space="preserve" font-family="Times-Roman,Times" font-size="43.0" fill="#000000" transform="matrix(1.00, 0.00, -0.00, -1.00, 438.2, 458.5)">s</text><text xml:space="preserve" font-family="Times-Roman,Times" font-size="43.0" fill="#000000" transform="matrix(1.00, 0.00, -0.00, -1.00, 455.0, 458.5)">i</text><text xml:space="preserve" font-family="Times-Roman,Times" font-size="43.0" fill="#000000" transform="matrix(1.00, 0.00, -0.00, -1.00, 466.9, 458.5)">n</text><text xml:space="preserve" font-family="Times-Roman,Times" font-size="43.0" fill="#000000" transform="matrix(1.00, 0.00, -0.00, -1.00, 488.4, 458.5)">g</text><text xml:space="preserve" font-family="Times-Roman,Times" font-size="43.0" fill="#000000" transform="matrix(1.00, 0.00, -0.00, -1.00, 509.9, 458.5)"> </text><text xml:space="preserve" font-family="Times-Bold,Times" font-weight="bold" font-size="43.0" fill="#000000" transform="matrix(1.00, 0.00, -0.00, -1.00, 22.7, 406.5)">S</text><text xml:space="preserve" font-family="Times-Bold,Times" font-weight="bold" font-size="43.0" fill="#000000" transform="matrix(1.00, 0.00, -0.00, -1.00, 46.6, 406.5)">p</text><text xml:space="preserve" font-family="Times-Bold,Times" font-weight="bold" font-size="43.0" fill="#000000" transform="matrix(1.00, 0.00, -0.00, -1.00, 70.5, 406.5)">a</text><text xml:space="preserve" font-family="Times-Bold,Times" font-weight="bold" font-size="43.0" fill="#000000" transform="matrix(1.00, 0.00, -0.00, -1.00, 92.0, 406.5)">c</text><text xml:space="preserve" font-family="Times-Bold,Times" font-weight="bold" font-size="43.0" fill="#000000" transform="matrix(1.00, 0.00, -0.00, -1.00, 111.1, 406.5)">e</text><text xml:space="preserve" font-family="Times-Roman,Times" font-size="43.0" fill="#000000" transform="matrix(1.00, 0.00, -0.00, -1.00, 130.2, 406.5)"> </text><text xml:space="preserve" font-family="Times-Roman,Times" font-size="43.0" fill="#000000" transform="matrix(1.00, 0.00, -0.00, -1.00, 140.9, 406.5)">o</text><text xml:space="preserve" font-family="Times-Roman,Times" font-size="43.0" fill="#000000" transform="matrix(1.00, 0.00, -0.00, -1.00, 162.4, 406.5)">n</text><text xml:space="preserve" font-family="Times-Roman,Times" font-size="43.0" fill="#000000" transform="matrix(1.00, 0.00, -0.00, -1.00, 183.9, 406.5)"> </text><text xml:space="preserve" font-family="Times-Roman,Times" font-size="43.0" fill="#000000" transform="matrix(1.00, 0.00, -0.00, -1.00, 194.7, 406.5)">y</text><text xml:space="preserve" font-family="Times-Roman,Times" font-size="43.0" fill="#000000" transform="matrix(1.00, 0.00, -0.00, -1.00, 216.2, 406.5)">o</text><text xml:space="preserve" font-family="Times-Roman,Times" font-size="43.0" fill="#000000" transform="matrix(1.00, 0.00, -0.00, -1.00, 237.7, 406.5)">u</text><text xml:space="preserve" font-family="Times-Roman,Times" font-size="43.0" fill="#000000" transform="matrix(1.00, 0.00, -0.00, -1.00, 259.2, 406.5)">r</text><text xml:space="preserve" font-family="Times-Roman,Times" font-size="43.0" fill="#000000" transform="matrix(1.00, 0.00, -0.00, -1.00, 273.5, 406.5)"> </text><text xml:space="preserve" font-family="Times-Roman,Times" font-size="43.0" fill="#000000" transform="matrix(1.00, 0.00, -0.00, -1.00, 284.2, 406.5)">k</text><text xml:space="preserve" font-family="Times-Roman,Times" font-size="43.0" fill="#000000" transform="matrix(1.00, 0.00, -0.00, -1.00, 305.7, 406.5)">e</text><text xml:space="preserve" font-family="Times-Roman,Times" font-size="43.0" fill="#000000" transform="matrix(1.00, 0.00, -0.00, -1.00, 324.8, 406.5)">y</text><text xml:space="preserve" font-family="Times-Roman,Times" font-size="43.0" fill="#000000" transform="matrix(1.00, 0.00, -0.00, -1.00, 346.3, 406.5)">b</text><text xml:space="preserve" font-family="Times-Roman,Times" font-size="43.0" fill="#000000" transform="matrix(1.00, 0.00, -0.00, -1.00, 367.8, 406.5)">o</text><text xml:space="preserve" font-family="Times-Roman,Times" font-size="43.0" fill="#000000" transform="matrix(1.00, 0.00, -0.00, -1.00, 389.3, 406.5)">a</text><text xml:space="preserve" font-family="Times-Roman,Times" font-size="43.0" fill="#000000" transform="matrix(1.00, 0.00, -0.00, -1.00, 408.4, 406.5)">r</text><text xml:space="preserve" font-family="Times-Roman,Times" font-size="43.0" fill="#000000" transform="matrix(1.00, 0.00, -0.00, -1.00, 422.7, 406.5)">d</text><text xml:space="preserve" font-family="Times-Roman,Times" font-size="43.0" fill="#000000" transform="matrix(1.00, 0.00, -0.00, -1.00, 444.2, 406.5)">.</text><text xml:space="preserve" font-family="LucidaGrande,Lucida Grande" font-size="43.0" fill="#000000" transform="matrix(1.00, 0.00, -0.00, -1.00, 455.0, 406.5)"> </text><text xml:space="preserve" font-family="Times-Roman,Times" font-size="43.0" fill="#000000" transform="matrix(1.00, 0.00, -0.00, -1.00, 22.7, 291.5)">•</text><text xml:space="preserve" font-family="Times-Roman,Times" font-size="43.0" fill="#000000" transform="matrix(1.00, 0.00, -0.00, -1.00, 37.7, 291.5)"> </text><text xml:space="preserve" font-family="Times-Roman,Times" font-size="43.0" fill="#000000" transform="matrix(1.00, 0.00, -0.00, -1.00, 48.5, 291.5)">I</text><text xml:space="preserve" font-family="Times-Roman,Times" font-size="43.0" fill="#000000" transform="matrix(1.00, 0.00, -0.00, -1.00, 62.8, 291.5)">f</text><text xml:space="preserve" font-family="Times-Roman,Times" font-size="43.0" fill="#000000" transform="matrix(1.00, 0.00, -0.00, -1.00, 77.1, 291.5)"> </text><text xml:space="preserve" font-family="Times-Roman,Times" font-size="43.0" fill="#000000" transform="matrix(1.00, 0.00, -0.00, -1.00, 87.9, 291.5)">n</text><text xml:space="preserve" font-family="Times-Roman,Times" font-size="43.0" fill="#000000" transform="matrix(1.00, 0.00, -0.00, -1.00, 109.4, 291.5)">o</text><text xml:space="preserve" font-family="Times-Roman,Times" font-size="43.0" fill="#000000" transform="matrix(1.00, 0.00, -0.00, -1.00, 130.9, 291.5)">t</text><text xml:space="preserve" font-family="Times-Roman,Times" font-size="43.0" fill="#000000" transform="matrix(1.00, 0.00, -0.00, -1.00, 142.8, 291.5)"> </text><text xml:space="preserve" font-family="Times-Roman,Times" font-size="43.0" fill="#000000" transform="matrix(1.00, 0.00, -0.00, -1.00, 153.6, 291.5)">p</text><text xml:space="preserve" font-family="Times-Roman,Times" font-size="43.0" fill="#000000" transform="matrix(1.00, 0.00, -0.00, -1.00, 175.1, 291.5)">r</text><text xml:space="preserve" font-family="Times-Roman,Times" font-size="43.0" fill="#000000" transform="matrix(1.00, 0.00, -0.00, -1.00, 189.4, 291.5)">e</text><text xml:space="preserve" font-family="Times-Roman,Times" font-size="43.0" fill="#000000" transform="matrix(1.00, 0.00, -0.00, -1.00, 208.5, 291.5)">s</text><text xml:space="preserve" font-family="Times-Roman,Times" font-size="43.0" fill="#000000" transform="matrix(1.00, 0.00, -0.00, -1.00, 225.2, 291.5)">s</text><text xml:space="preserve" font-family="Times-Roman,Times" font-size="43.0" fill="#000000" transform="matrix(1.00, 0.00, -0.00, -1.00, 241.9, 291.5)">i</text><text xml:space="preserve" font-family="Times-Roman,Times" font-size="43.0" fill="#000000" transform="matrix(1.00, 0.00, -0.00, -1.00, 253.9, 291.5)">n</text><text xml:space="preserve" font-family="Times-Roman,Times" font-size="43.0" fill="#000000" transform="matrix(1.00, 0.00, -0.00, -1.00, 275.4, 291.5)">g</text><text xml:space="preserve" font-family="Times-Roman,Times" font-size="43.0" fill="#000000" transform="matrix(1.00, 0.00, -0.00, -1.00, 296.9, 291.5)"> </text><text xml:space="preserve" font-family="Times-Bold,Times" font-weight="bold" font-size="43.0" fill="#000000" transform="matrix(1.00, 0.00, -0.00, -1.00, 307.6, 291.5)">S</text><text xml:space="preserve" font-family="Times-Bold,Times" font-weight="bold" font-size="43.0" fill="#000000" transform="matrix(1.00, 0.00, -0.00, -1.00, 331.6, 291.5)">p</text><text xml:space="preserve" font-family="Times-Bold,Times" font-weight="bold" font-size="43.0" fill="#000000" transform="matrix(1.00, 0.00, -0.00, -1.00, 355.5, 291.5)">a</text><text xml:space="preserve" font-family="Times-Bold,Times" font-weight="bold" font-size="43.0" fill="#000000" transform="matrix(1.00, 0.00, -0.00, -1.00, 377.0, 291.5)">c</text><text xml:space="preserve" font-family="Times-Bold,Times" font-weight="bold" font-size="43.0" fill="#000000" transform="matrix(1.00, 0.00, -0.00, -1.00, 396.1, 291.5)">e</text><text xml:space="preserve" font-family="Times-Roman,Times" font-size="43.0" fill="#000000" transform="matrix(1.00, 0.00, -0.00, -1.00, 415.1, 291.5)">,</text><text xml:space="preserve" font-family="Times-Roman,Times" font-size="43.0" fill="#000000" transform="matrix(1.00, 0.00, -0.00, -1.00, 425.9, 291.5)"> </text><text xml:space="preserve" font-family="Times-Roman,Times" font-size="43.0" fill="#000000" transform="matrix(1.00, 0.00, -0.00, -1.00, 22.7, 239.5)">L</text><text xml:space="preserve" font-family="Times-Roman,Times" font-size="43.0" fill="#000000" transform="matrix(1.00, 0.00, -0.00, -1.00, 48.9, 239.5)">E</text><text xml:space="preserve" font-family="Times-Roman,Times" font-size="43.0" fill="#000000" transform="matrix(1.00, 0.00, -0.00, -1.00, 75.2, 239.5)">D</text><text xml:space="preserve" font-family="Times-Roman,Times" font-size="43.0" fill="#000000" transform="matrix(1.00, 0.00, -0.00, -1.00, 106.3, 239.5)"> </text><text xml:space="preserve" font-family="Times-Roman,Times" font-size="43.0" fill="#000000" transform="matrix(1.00, 0.00, -0.00, -1.00, 117.0, 239.5)">l</text><text xml:space="preserve" font-family="Times-Roman,Times" font-size="43.0" fill="#000000" transform="matrix(1.00, 0.00, -0.00, -1.00, 128.9, 239.5)">i</text><text xml:space="preserve" font-family="Times-Roman,Times" font-size="43.0" fill="#000000" transform="matrix(1.00, 0.00, -0.00, -1.00, 140.9, 239.5)">g</text><text xml:space="preserve" font-family="Times-Roman,Times" font-size="43.0" fill="#000000" transform="matrix(1.00, 0.00, -0.00, -1.00, 162.4, 239.5)">h</text><text xml:space="preserve" font-family="Times-Roman,Times" font-size="43.0" fill="#000000" transform="matrix(1.00, 0.00, -0.00, -1.00, 183.9, 239.5)">t</text><text xml:space="preserve" font-family="Times-Roman,Times" font-size="43.0" fill="#000000" transform="matrix(1.00, 0.00, -0.00, -1.00, 195.8, 239.5)"> </text><text xml:space="preserve" font-family="Times-Roman,Times" font-size="43.0" fill="#000000" transform="matrix(1.00, 0.00, -0.00, -1.00, 206.6, 239.5)">s</text><text xml:space="preserve" font-family="Times-Roman,Times" font-size="43.0" fill="#000000" transform="matrix(1.00, 0.00, -0.00, -1.00, 223.3, 239.5)">h</text><text xml:space="preserve" font-family="Times-Roman,Times" font-size="43.0" fill="#000000" transform="matrix(1.00, 0.00, -0.00, -1.00, 244.8, 239.5)">o</text><text xml:space="preserve" font-family="Times-Roman,Times" font-size="43.0" fill="#000000" transform="matrix(1.00, 0.00, -0.00, -1.00, 266.3, 239.5)">u</text><text xml:space="preserve" font-family="Times-Roman,Times" font-size="43.0" fill="#000000" transform="matrix(1.00, 0.00, -0.00, -1.00, 287.8, 239.5)">l</text><text xml:space="preserve" font-family="Times-Roman,Times" font-size="43.0" fill="#000000" transform="matrix(1.00, 0.00, -0.00, -1.00, 299.7, 239.5)">d</text><text xml:space="preserve" font-family="Times-Roman,Times" font-size="43.0" fill="#000000" transform="matrix(1.00, 0.00, -0.00, -1.00, 321.2, 239.5)"> </text><text xml:space="preserve" font-family="Times-Roman,Times" font-size="43.0" fill="#000000" transform="matrix(1.00, 0.00, -0.00, -1.00, 332.0, 239.5)">b</text><text xml:space="preserve" font-family="Times-Roman,Times" font-size="43.0" fill="#000000" transform="matrix(1.00, 0.00, -0.00, -1.00, 353.5, 239.5)">e</text><text xml:space="preserve" font-family="Times-Roman,Times" font-size="43.0" fill="#000000" transform="matrix(1.00, 0.00, -0.00, -1.00, 372.6, 239.5)"> </text><text xml:space="preserve" font-family="Times-Roman,Times" font-size="43.0" fill="#000000" transform="matrix(1.00, 0.00, -0.00, -1.00, 383.3, 239.5)">o</text><text xml:space="preserve" font-family="Times-Roman,Times" font-size="43.0" fill="#000000" transform="matrix(1.00, 0.00, -0.00, -1.00, 404.8, 239.5)">f</text><text xml:space="preserve" font-family="Times-Roman,Times" font-size="43.0" fill="#000000" transform="matrix(1.00, 0.00, -0.00, -1.00, 418.4, 239.5)">f</text><text xml:space="preserve" font-family="Times-Roman,Times" font-size="43.0" fill="#000000" transform="matrix(1.00, 0.00, -0.00, -1.00, 432.7, 239.5)">.</text><text xml:space="preserve" font-family="LucidaGrande,Lucida Grande" font-size="43.0" fill="#000000" transform="matrix(1.00, 0.00, -0.00, -1.00, 443.5, 239.5)"> </text><text xml:space="preserve" font-family="Times-Roman,Times" font-size="43.0" fill="#000000" transform="matrix(1.00, 0.00, -0.00, -1.00, 22.7, 124.5)">•</text><text xml:space="preserve" font-family="Times-Roman,Times" font-size="43.0" fill="#000000" transform="matrix(1.00, 0.00, -0.00, -1.00, 37.7, 124.5)"> </text><text xml:space="preserve" font-family="Times-Roman,Times" font-size="43.0" fill="#000000" transform="matrix(1.00, 0.00, -0.00, -1.00, 48.5, 124.5)">H</text><text xml:space="preserve" font-family="Times-Roman,Times" font-size="43.0" fill="#000000" transform="matrix(1.00, 0.00, -0.00, -1.00, 79.5, 124.5)">i</text><text xml:space="preserve" font-family="Times-Roman,Times" font-size="43.0" fill="#000000" transform="matrix(1.00, 0.00, -0.00, -1.00, 91.5, 124.5)">n</text><text xml:space="preserve" font-family="Times-Roman,Times" font-size="43.0" fill="#000000" transform="matrix(1.00, 0.00, -0.00, -1.00, 113.0, 124.5)">t</text><text xml:space="preserve" font-family="Times-Roman,Times" font-size="43.0" fill="#000000" transform="matrix(1.00, 0.00, -0.00, -1.00, 124.9, 124.5)">:</text><text xml:space="preserve" font-family="Times-Roman,Times" font-size="43.0" fill="#000000" transform="matrix(1.00, 0.00, -0.00, -1.00, 136.9, 124.5)"> </text><text xml:space="preserve" font-family="Times-Roman,Times" font-size="43.0" fill="#000000" transform="matrix(1.00, 0.00, -0.00, -1.00, 147.6, 124.5)">S</text><text xml:space="preserve" font-family="Times-Roman,Times" font-size="43.0" fill="#000000" transform="matrix(1.00, 0.00, -0.00, -1.00, 171.5, 124.5)">o</text><text xml:space="preserve" font-family="Times-Roman,Times" font-size="43.0" fill="#000000" transform="matrix(1.00, 0.00, -0.00, -1.00, 193.0, 124.5)">m</text><text xml:space="preserve" font-family="Times-Roman,Times" font-size="43.0" fill="#000000" transform="matrix(1.00, 0.00, -0.00, -1.00, 226.5, 124.5)">e</text><text xml:space="preserve" font-family="Times-Roman,Times" font-size="43.0" fill="#000000" transform="matrix(1.00, 0.00, -0.00, -1.00, 245.5, 124.5)"> </text><text xml:space="preserve" font-family="Times-Roman,Times" font-size="43.0" fill="#000000" transform="matrix(1.00, 0.00, -0.00, -1.00, 256.3, 124.5)">b</text><text xml:space="preserve" font-family="Times-Roman,Times" font-size="43.0" fill="#000000" transform="matrix(1.00, 0.00, -0.00, -1.00, 277.8, 124.5)">l</text><text xml:space="preserve" font-family="Times-Roman,Times" font-size="43.0" fill="#000000" transform="matrix(1.00, 0.00, -0.00, -1.00, 289.7, 124.5)">o</text><text xml:space="preserve" font-family="Times-Roman,Times" font-size="43.0" fill="#000000" transform="matrix(1.00, 0.00, -0.00, -1.00, 311.2, 124.5)">c</text><text xml:space="preserve" font-family="Times-Roman,Times" font-size="43.0" fill="#000000" transform="matrix(1.00, 0.00, -0.00, -1.00, 330.3, 124.5)">k</text><text xml:space="preserve" font-family="Times-Roman,Times" font-size="43.0" fill="#000000" transform="matrix(1.00, 0.00, -0.00, -1.00, 351.8, 124.5)"> </text><text xml:space="preserve" font-family="Times-Roman,Times" font-size="43.0" fill="#000000" transform="matrix(1.00, 0.00, -0.00, -1.00, 362.6, 124.5)">i</text><text xml:space="preserve" font-family="Times-Roman,Times" font-size="43.0" fill="#000000" transform="matrix(1.00, 0.00, -0.00, -1.00, 374.5, 124.5)">n</text><text xml:space="preserve" font-family="Times-Roman,Times" font-size="43.0" fill="#000000" transform="matrix(1.00, 0.00, -0.00, -1.00, 396.0, 124.5)"> </text><text xml:space="preserve" font-family="Times-Bold,Times" font-weight="bold" font-size="43.0" fill="#000000" transform="matrix(1.00, 0.00, -0.00, -1.00, 22.7, 72.5)">S</text><text xml:space="preserve" font-family="Times-Bold,Times" font-weight="bold" font-size="43.0" fill="#000000" transform="matrix(1.00, 0.00, -0.00, -1.00, 46.6, 72.5)">e</text><text xml:space="preserve" font-family="Times-Bold,Times" font-weight="bold" font-size="43.0" fill="#000000" transform="matrix(1.00, 0.00, -0.00, -1.00, 65.7, 72.5)">n</text><text xml:space="preserve" font-family="Times-Bold,Times" font-weight="bold" font-size="43.0" fill="#000000" transform="matrix(1.00, 0.00, -0.00, -1.00, 89.6, 72.5)">s</text><text xml:space="preserve" font-family="Times-Bold,Times" font-weight="bold" font-size="43.0" fill="#000000" transform="matrix(1.00, 0.00, -0.00, -1.00, 106.4, 72.5)">i</text><text xml:space="preserve" font-family="Times-Bold,Times" font-weight="bold" font-size="43.0" fill="#000000" transform="matrix(1.00, 0.00, -0.00, -1.00, 118.3, 72.5)">n</text><text xml:space="preserve" font-family="Times-Bold,Times" font-weight="bold" font-size="43.0" fill="#000000" transform="matrix(1.00, 0.00, -0.00, -1.00, 142.2, 72.5)">g</text><text xml:space="preserve" font-family="Times-Roman,Times" font-size="43.0" fill="#000000" transform="matrix(1.00, 0.00, -0.00, -1.00, 163.7, 72.5)"> </text><text xml:space="preserve" font-family="Times-Roman,Times" font-size="43.0" fill="#000000" transform="matrix(1.00, 0.00, -0.00, -1.00, 174.4, 72.5)">m</text><text xml:space="preserve" font-family="Times-Roman,Times" font-size="43.0" fill="#000000" transform="matrix(1.00, 0.00, -0.00, -1.00, 207.9, 72.5)">a</text><text xml:space="preserve" font-family="Times-Roman,Times" font-size="43.0" fill="#000000" transform="matrix(1.00, 0.00, -0.00, -1.00, 226.9, 72.5)">y</text><text xml:space="preserve" font-family="Times-Roman,Times" font-size="43.0" fill="#000000" transform="matrix(1.00, 0.00, -0.00, -1.00, 248.4, 72.5)"> </text><text xml:space="preserve" font-family="Times-Roman,Times" font-size="43.0" fill="#000000" transform="matrix(1.00, 0.00, -0.00, -1.00, 259.2, 72.5)">b</text><text xml:space="preserve" font-family="Times-Roman,Times" font-size="43.0" fill="#000000" transform="matrix(1.00, 0.00, -0.00, -1.00, 280.7, 72.5)">e</text><text xml:space="preserve" font-family="Times-Roman,Times" font-size="43.0" fill="#000000" transform="matrix(1.00, 0.00, -0.00, -1.00, 299.8, 72.5)"> </text><text xml:space="preserve" font-family="Times-Roman,Times" font-size="43.0" fill="#000000" transform="matrix(1.00, 0.00, -0.00, -1.00, 310.5, 72.5)">h</text><text xml:space="preserve" font-family="Times-Roman,Times" font-size="43.0" fill="#000000" transform="matrix(1.00, 0.00, -0.00, -1.00, 332.0, 72.5)">e</text><text xml:space="preserve" font-family="Times-Roman,Times" font-size="43.0" fill="#000000" transform="matrix(1.00, 0.00, -0.00, -1.00, 351.1, 72.5)">l</text><text xml:space="preserve" font-family="Times-Roman,Times" font-size="43.0" fill="#000000" transform="matrix(1.00, 0.00, -0.00, -1.00, 363.0, 72.5)">p</text><text xml:space="preserve" font-family="Times-Roman,Times" font-size="43.0" fill="#000000" transform="matrix(1.00, 0.00, -0.00, -1.00, 384.5, 72.5)">f</text><text xml:space="preserve" font-family="Times-Roman,Times" font-size="43.0" fill="#000000" transform="matrix(1.00, 0.00, -0.00, -1.00, 398.9, 72.5)">u</text><text xml:space="preserve" font-family="Times-Roman,Times" font-size="43.0" fill="#000000" transform="matrix(1.00, 0.00, -0.00, -1.00, 420.4, 72.5)">l</text><text xml:space="preserve" font-family="Times-Roman,Times" font-size="43.0" fill="#000000" transform="matrix(1.00, 0.00, -0.00, -1.00, 432.3, 72.5)">.</text><text xml:space="preserve" font-family="Times-Bold,Times" font-weight="bold" font-size="72.2" fill="#000000" transform="matrix(1.00, 0.00, -0.00, -1.00, 108.7, 691.9)">H</text><text xml:space="preserve" font-family="Times-Bold,Times" font-weight="bold" font-size="72.2" fill="#000000" transform="matrix(1.00, 0.00, -0.00, -1.00, 164.9, 691.9)">a</text><text xml:space="preserve" font-family="Times-Bold,Times" font-weight="bold" font-size="72.2" fill="#000000" transform="matrix(1.00, 0.00, -0.00, -1.00, 201.0, 691.9)">n</text><text xml:space="preserve" font-family="Times-Bold,Times" font-weight="bold" font-size="72.2" fill="#000000" transform="matrix(1.00, 0.00, -0.00, -1.00, 241.2, 691.9)">d</text><text xml:space="preserve" font-family="Times-Bold,Times" font-weight="bold" font-size="72.2" fill="#000000" transform="matrix(1.00, 0.00, -0.00, -1.00, 281.4, 691.9)">s</text><text xml:space="preserve" font-family="Times-Bold,Times" font-weight="bold" font-size="72.2" fill="#000000" transform="matrix(1.00, 0.00, -0.00, -1.00, 309.5, 691.9)">-</text><text xml:space="preserve" font-family="Times-Bold,Times" font-weight="bold" font-size="72.2" fill="#000000" transform="matrix(1.00, 0.00, -0.00, -1.00, 333.5, 691.9)">o</text><text xml:space="preserve" font-family="Times-Bold,Times" font-weight="bold" font-size="72.2" fill="#000000" transform="matrix(1.00, 0.00, -0.00, -1.00, 369.6, 691.9)">n</text><text xml:space="preserve" font-family="Times-Bold,Times" font-weight="bold" font-size="72.2" fill="#000000" transform="matrix(1.00, 0.00, -0.00, -1.00, 409.8, 691.9)">:</text><text xml:space="preserve" font-family="Times-Bold,Times" font-weight="bold" font-size="72.2" fill="#000000" transform="matrix(1.00, 0.00, -0.00, -1.00, 433.8, 691.9)"> </text><text xml:space="preserve" font-family="LucidaGrande-Bold,Lucida Grande" font-weight="bold" font-size="72.2" fill="#000000" transform="matrix(1.00, 0.00, -0.00, -1.00, 451.8, 691.9)"> </text><text xml:space="preserve" font-family="Times-Bold,Times" font-weight="bold" font-size="72.2" fill="#000000" transform="matrix(1.00, 0.00, -0.00, -1.00, 40.6, 605.9)">L</text><text xml:space="preserve" font-family="Times-Bold,Times" font-weight="bold" font-size="72.2" fill="#000000" transform="matrix(1.00, 0.00, -0.00, -1.00, 88.7, 605.9)">i</text><text xml:space="preserve" font-family="Times-Bold,Times" font-weight="bold" font-size="72.2" fill="#000000" transform="matrix(1.00, 0.00, -0.00, -1.00, 108.8, 605.9)">g</text><text xml:space="preserve" font-family="Times-Bold,Times" font-weight="bold" font-size="72.2" fill="#000000" transform="matrix(1.00, 0.00, -0.00, -1.00, 144.9, 605.9)">h</text><text xml:space="preserve" font-family="Times-Bold,Times" font-weight="bold" font-size="72.2" fill="#000000" transform="matrix(1.00, 0.00, -0.00, -1.00, 185.0, 605.9)">t</text><text xml:space="preserve" font-family="Times-Bold,Times" font-weight="bold" font-size="72.2" fill="#000000" transform="matrix(1.00, 0.00, -0.00, -1.00, 209.1, 605.9)"> </text><text xml:space="preserve" font-family="Times-Bold,Times" font-weight="bold" font-size="72.2" fill="#000000" transform="matrix(1.00, 0.00, -0.00, -1.00, 227.1, 605.9)">b</text><text xml:space="preserve" font-family="Times-Bold,Times" font-weight="bold" font-size="72.2" fill="#000000" transform="matrix(1.00, 0.00, -0.00, -1.00, 267.3, 605.9)">y</text><text xml:space="preserve" font-family="Times-Bold,Times" font-weight="bold" font-size="72.2" fill="#000000" transform="matrix(1.00, 0.00, -0.00, -1.00, 303.4, 605.9)"> </text><text xml:space="preserve" font-family="Times-Bold,Times" font-weight="bold" font-size="72.2" fill="#000000" transform="matrix(1.00, 0.00, -0.00, -1.00, 321.5, 605.9)">S</text><text xml:space="preserve" font-family="Times-Bold,Times" font-weight="bold" font-size="72.2" fill="#000000" transform="matrix(1.00, 0.00, -0.00, -1.00, 361.6, 605.9)">p</text><text xml:space="preserve" font-family="Times-Bold,Times" font-weight="bold" font-size="72.2" fill="#000000" transform="matrix(1.00, 0.00, -0.00, -1.00, 401.8, 605.9)">a</text><text xml:space="preserve" font-family="Times-Bold,Times" font-weight="bold" font-size="72.2" fill="#000000" transform="matrix(1.00, 0.00, -0.00, -1.00, 437.9, 605.9)">c</text><text xml:space="preserve" font-family="Times-Bold,Times" font-weight="bold" font-size="72.2" fill="#000000" transform="matrix(1.00, 0.00, -0.00, -1.00, 470.0, 605.9)">e</text><image xlink:href="A129E3974487BC7A8976458D6326E28D.png" width="497.00" height="874.00" transform="matrix(1.00, 0.00, -0.00, -1.00, 535.4, 861.3)" opacity="0.50"></image><image xlink:href="A850AF48CBC0D6B9DBDA6D6DA1AF33B8.png" width="1080.00" height="1920.00" transform="matrix(0.45, 0.00, -0.00, -0.45, 538.9, 858.5)"></image></g></svg>