<?xml version="1.0" encoding="UTF-8" standalone="no"?><svg xmlns="http://www.w3.org/2000/svg" xmlns:xlink="http://www.w3.org/1999/xlink" clip-rule="evenodd" stroke-miterlimit="10" viewBox="0 0 1024 768"><desc>SVG generated by Keynote</desc><defs></defs><g transform="matrix(1.00, 0.00, -0.00, -1.00, 0.0, 768.0)"><path d="M 0.0 768.0 L 1024.0 768.0 L 1024.0 0.0 L 0.0 0.0 Z M 0.0 768.0 " fill="#FEFFFF"></path><g opacity="0.69"><g><clipPath id="clip0x6180014bd520"><path d="M 15.0 650.0 L 1009.0 650.0 L 1009.0 754.0 L 15.0 754.0 Z M 15.0 650.0 "></path></clipPath><g clip-path="url(#clip0x6180014bd520)"><image xlink:href="../../253A3407-F406-408D-B024-E74253B0AB53/assets/9477B24E8AD1DECC730E812270F096E2.png" width="991.00" height="98.00" transform="matrix(1.00, 0.00, -0.00, -1.00, 16.6, 748.9)" opacity="0.50"></image><path d="M 19.6 678.1 L 20.0 725.9 C 20.0 738.1 29.5 748.0 41.6 748.0 L 982.4 748.0 C 994.5 748.0 1004.0 738.1 1004.0 725.9 L 1004.0 678.1 C 1004.0 665.9 994.5 656.0 982.4 656.0 L 41.6 656.0 C 29.5 656.0 19.6 665.9 19.6 678.1 Z M 19.6 678.1 " fill="#000000"></path></g></g></g><text xml:space="preserve" font-family="Times-Roman,Times" font-size="64.0" fill="#FEFFFE" transform="matrix(1.00, 0.00, -0.00, -1.00, 60.5, 679.5)">3</text><text xml:space="preserve" font-family="Times-Roman,Times" font-size="64.0" fill="#FEFFFE" transform="matrix(1.00, 0.00, -0.00, -1.00, 92.5, 679.5)">)</text><text xml:space="preserve" font-family="Times-Roman,Times" font-size="64.0" fill="#FEFFFE" transform="matrix(1.00, 0.00, -0.00, -1.00, 113.8, 679.5)">.</text><text xml:space="preserve" font-family="Times-Roman,Times" font-size="64.0" fill="#FEFFFE" transform="matrix(1.00, 0.00, -0.00, -1.00, 129.8, 679.5)"> </text><text xml:space="preserve" font-family="Times-Roman,Times" font-size="64.0" fill="#FEFFFE" transform="matrix(1.00, 0.00, -0.00, -1.00, 145.8, 679.5)">C</text><text xml:space="preserve" font-family="Times-Roman,Times" font-size="64.0" fill="#FEFFFE" transform="matrix(1.00, 0.00, -0.00, -1.00, 188.5, 679.5)">o</text><text xml:space="preserve" font-family="Times-Roman,Times" font-size="64.0" fill="#FEFFFE" transform="matrix(1.00, 0.00, -0.00, -1.00, 220.5, 679.5)">n</text><text xml:space="preserve" font-family="Times-Roman,Times" font-size="64.0" fill="#FEFFFE" transform="matrix(1.00, 0.00, -0.00, -1.00, 252.5, 679.5)">t</text><text xml:space="preserve" font-family="Times-Roman,Times" font-size="64.0" fill="#FEFFFE" transform="matrix(1.00, 0.00, -0.00, -1.00, 270.3, 679.5)">r</text><text xml:space="preserve" font-family="Times-Roman,Times" font-size="64.0" fill="#FEFFFE" transform="matrix(1.00, 0.00, -0.00, -1.00, 291.6, 679.5)">o</text><text xml:space="preserve" font-family="Times-Roman,Times" font-size="64.0" fill="#FEFFFE" transform="matrix(1.00, 0.00, -0.00, -1.00, 323.6, 679.5)">l</text><text xml:space="preserve" font-family="Times-Roman,Times" font-size="64.0" fill="#FEFFFE" transform="matrix(1.00, 0.00, -0.00, -1.00, 341.4, 679.5)"> </text><text xml:space="preserve" font-family="Times-Roman,Times" font-size="64.0" fill="#FEFFFE" transform="matrix(1.00, 0.00, -0.00, -1.00, 357.4, 679.5)">L</text><text xml:space="preserve" font-family="Times-Roman,Times" font-size="64.0" fill="#FEFFFE" transform="matrix(1.00, 0.00, -0.00, -1.00, 396.5, 679.5)">E</text><text xml:space="preserve" font-family="Times-Roman,Times" font-size="64.0" fill="#FEFFFE" transform="matrix(1.00, 0.00, -0.00, -1.00, 435.5, 679.5)">D</text><text xml:space="preserve" font-family="Times-Roman,Times" font-size="64.0" fill="#FEFFFE" transform="matrix(1.00, 0.00, -0.00, -1.00, 481.8, 679.5)"> </text><text xml:space="preserve" font-family="Times-Roman,Times" font-size="64.0" fill="#FEFFFE" transform="matrix(1.00, 0.00, -0.00, -1.00, 497.8, 679.5)">l</text><text xml:space="preserve" font-family="Times-Roman,Times" font-size="64.0" fill="#FEFFFE" transform="matrix(1.00, 0.00, -0.00, -1.00, 515.5, 679.5)">i</text><text xml:space="preserve" font-family="Times-Roman,Times" font-size="64.0" fill="#FEFFFE" transform="matrix(1.00, 0.00, -0.00, -1.00, 533.3, 679.5)">g</text><text xml:space="preserve" font-family="Times-Roman,Times" font-size="64.0" fill="#FEFFFE" transform="matrix(1.00, 0.00, -0.00, -1.00, 565.3, 679.5)">h</text><text xml:space="preserve" font-family="Times-Roman,Times" font-size="64.0" fill="#FEFFFE" transform="matrix(1.00, 0.00, -0.00, -1.00, 597.3, 679.5)">t</text><text xml:space="preserve" font-family="Times-Roman,Times" font-size="64.0" fill="#FEFFFE" transform="matrix(1.00, 0.00, -0.00, -1.00, 615.1, 679.5)"> </text><text xml:space="preserve" font-family="Times-Roman,Times" font-size="64.0" fill="#FEFFFE" transform="matrix(1.00, 0.00, -0.00, -1.00, 631.1, 679.5)">f</text><text xml:space="preserve" font-family="Times-Roman,Times" font-size="64.0" fill="#FEFFFE" transform="matrix(1.00, 0.00, -0.00, -1.00, 652.4, 679.5)">r</text><text xml:space="preserve" font-family="Times-Roman,Times" font-size="64.0" fill="#FEFFFE" transform="matrix(1.00, 0.00, -0.00, -1.00, 673.7, 679.5)">o</text><text xml:space="preserve" font-family="Times-Roman,Times" font-size="64.0" fill="#FEFFFE" transform="matrix(1.00, 0.00, -0.00, -1.00, 705.7, 679.5)">m</text><text xml:space="preserve" font-family="Times-Roman,Times" font-size="64.0" fill="#FEFFFE" transform="matrix(1.00, 0.00, -0.00, -1.00, 755.5, 679.5)"> </text><text xml:space="preserve" font-family="Times-Roman,Times" font-size="64.0" fill="#FEFFFE" transform="matrix(1.00, 0.00, -0.00, -1.00, 771.5, 679.5)">S</text><text xml:space="preserve" font-family="Times-Roman,Times" font-size="64.0" fill="#FEFFFE" transform="matrix(1.00, 0.00, -0.00, -1.00, 807.1, 679.5)">c</text><text xml:space="preserve" font-family="Times-Roman,Times" font-size="64.0" fill="#FEFFFE" transform="matrix(1.00, 0.00, -0.00, -1.00, 835.5, 679.5)">r</text><text xml:space="preserve" font-family="Times-Roman,Times" font-size="64.0" fill="#FEFFFE" transform="matrix(1.00, 0.00, -0.00, -1.00, 856.8, 679.5)">a</text><text xml:space="preserve" font-family="Times-Roman,Times" font-size="64.0" fill="#FEFFFE" transform="matrix(1.00, 0.00, -0.00, -1.00, 885.2, 679.5)">t</text><text xml:space="preserve" font-family="Times-Roman,Times" font-size="64.0" fill="#FEFFFE" transform="matrix(1.00, 0.00, -0.00, -1.00, 902.9, 679.5)">c</text><text xml:space="preserve" font-family="Times-Roman,Times" font-size="64.0" fill="#FEFFFE" transform="matrix(1.00, 0.00, -0.00, -1.00, 931.3, 679.5)">h</text><image xlink:href="../../02E41901-93EB-4AB1-986B-219589FE2B33/assets/B6FB5F31CA1B882AC193EDC639264399.png" width="569.00" height="437.00" transform="matrix(1.00, 0.00, -0.00, -1.00, 447.7, 645.6)" opacity="0.70"></image><image xlink:href="../../8976B68F-AA45-497B-BB2A-FF9583129B4C/assets/3A05FE7A516DFE1D0BE1C615BC303A3B.jpeg" width="3264.00" height="2448.00" transform="matrix(0.16, 0.00, -0.00, -0.16, 467.7, 635.6)"></image><text xml:space="preserve" font-family="Times-Roman,Times" font-size="43.0" fill="#000000" transform="matrix(1.00, 0.00, -0.00, -1.00, 67.6, 176.3)">1</text><text xml:space="preserve" font-family="Times-Roman,Times" font-size="43.0" fill="#000000" transform="matrix(1.00, 0.00, -0.00, -1.00, 89.1, 176.3)">.</text><text xml:space="preserve" font-family="Times-Roman,Times" font-size="43.0" fill="#000000" transform="matrix(1.00, 0.00, -0.00, -1.00, 99.8, 176.3)"> </text><text xml:space="preserve" font-family="Times-Roman,Times" font-size="43.0" fill="#000000" transform="matrix(1.00, 0.00, -0.00, -1.00, 110.6, 176.3)">C</text><text xml:space="preserve" font-family="Times-Roman,Times" font-size="43.0" fill="#000000" transform="matrix(1.00, 0.00, -0.00, -1.00, 139.3, 176.3)">l</text><text xml:space="preserve" font-family="Times-Roman,Times" font-size="43.0" fill="#000000" transform="matrix(1.00, 0.00, -0.00, -1.00, 151.2, 176.3)">o</text><text xml:space="preserve" font-family="Times-Roman,Times" font-size="43.0" fill="#000000" transform="matrix(1.00, 0.00, -0.00, -1.00, 172.7, 176.3)">s</text><text xml:space="preserve" font-family="Times-Roman,Times" font-size="43.0" fill="#000000" transform="matrix(1.00, 0.00, -0.00, -1.00, 189.5, 176.3)">e</text><text xml:space="preserve" font-family="Times-Roman,Times" font-size="43.0" fill="#000000" transform="matrix(1.00, 0.00, -0.00, -1.00, 208.5, 176.3)"> </text><text xml:space="preserve" font-family="Times-Bold,Times" font-weight="bold" font-size="43.0" fill="#000000" transform="matrix(1.00, 0.00, -0.00, -1.00, 219.3, 176.3)">S</text><text xml:space="preserve" font-family="Times-Bold,Times" font-weight="bold" font-size="43.0" fill="#000000" transform="matrix(1.00, 0.00, -0.00, -1.00, 243.2, 176.3)">c</text><text xml:space="preserve" font-family="Times-Bold,Times" font-weight="bold" font-size="43.0" fill="#000000" transform="matrix(1.00, 0.00, -0.00, -1.00, 262.3, 176.3)">r</text><text xml:space="preserve" font-family="Times-Bold,Times" font-weight="bold" font-size="43.0" fill="#000000" transform="matrix(1.00, 0.00, -0.00, -1.00, 281.4, 176.3)">a</text><text xml:space="preserve" font-family="Times-Bold,Times" font-weight="bold" font-size="43.0" fill="#000000" transform="matrix(1.00, 0.00, -0.00, -1.00, 302.9, 176.3)">t</text><text xml:space="preserve" font-family="Times-Bold,Times" font-weight="bold" font-size="43.0" fill="#000000" transform="matrix(1.00, 0.00, -0.00, -1.00, 317.2, 176.3)">c</text><text xml:space="preserve" font-family="Times-Bold,Times" font-weight="bold" font-size="43.0" fill="#000000" transform="matrix(1.00, 0.00, -0.00, -1.00, 336.3, 176.3)">h</text><text xml:space="preserve" font-family="Times-Roman,Times" font-size="43.0" fill="#000000" transform="matrix(1.00, 0.00, -0.00, -1.00, 360.2, 176.3)"> </text><text xml:space="preserve" font-family="Times-Roman,Times" font-size="43.0" fill="#000000" transform="matrix(1.00, 0.00, -0.00, -1.00, 370.9, 176.3)">w</text><text xml:space="preserve" font-family="Times-Roman,Times" font-size="43.0" fill="#000000" transform="matrix(1.00, 0.00, -0.00, -1.00, 402.0, 176.3)">i</text><text xml:space="preserve" font-family="Times-Roman,Times" font-size="43.0" fill="#000000" transform="matrix(1.00, 0.00, -0.00, -1.00, 413.9, 176.3)">n</text><text xml:space="preserve" font-family="Times-Roman,Times" font-size="43.0" fill="#000000" transform="matrix(1.00, 0.00, -0.00, -1.00, 435.4, 176.3)">d</text><text xml:space="preserve" font-family="Times-Roman,Times" font-size="43.0" fill="#000000" transform="matrix(1.00, 0.00, -0.00, -1.00, 456.9, 176.3)">o</text><text xml:space="preserve" font-family="Times-Roman,Times" font-size="43.0" fill="#000000" transform="matrix(1.00, 0.00, -0.00, -1.00, 478.4, 176.3)">w</text><text xml:space="preserve" font-family="Times-Roman,Times" font-size="43.0" fill="#000000" transform="matrix(1.00, 0.00, -0.00, -1.00, 506.7, 176.3)">.</text><text xml:space="preserve" font-family="Times-Roman,Times" font-size="43.0" fill="#000000" transform="matrix(1.00, 0.00, -0.00, -1.00, 517.5, 176.3)">	</text><text xml:space="preserve" font-family="Times-Roman,Times" font-size="43.0" fill="#000000" transform="matrix(1.00, 0.00, -0.00, -1.00, 545.5, 176.3)">
</text><text xml:space="preserve" font-family="Times-Roman,Times" font-size="43.0" fill="#000000" transform="matrix(1.00, 0.00, -0.00, -1.00, 545.5, 176.3)"></text><text xml:space="preserve" font-family="Times-Roman,Times" font-size="43.0" fill="#000000" transform="matrix(1.00, 0.00, -0.00, -1.00, 67.6, 122.7)">2</text><text xml:space="preserve" font-family="Times-Roman,Times" font-size="43.0" fill="#000000" transform="matrix(1.00, 0.00, -0.00, -1.00, 89.1, 122.7)">.</text><text xml:space="preserve" font-family="Times-Roman,Times" font-size="43.0" fill="#000000" transform="matrix(1.00, 0.00, -0.00, -1.00, 99.8, 122.7)"> </text><text xml:space="preserve" font-family="Times-Roman,Times" font-size="43.0" fill="#000000" transform="matrix(1.00, 0.00, -0.00, -1.00, 110.6, 122.7)">O</text><text xml:space="preserve" font-family="Times-Roman,Times" font-size="43.0" fill="#000000" transform="matrix(1.00, 0.00, -0.00, -1.00, 141.7, 122.7)">p</text><text xml:space="preserve" font-family="Times-Roman,Times" font-size="43.0" fill="#000000" transform="matrix(1.00, 0.00, -0.00, -1.00, 163.2, 122.7)">e</text><text xml:space="preserve" font-family="Times-Roman,Times" font-size="43.0" fill="#000000" transform="matrix(1.00, 0.00, -0.00, -1.00, 182.2, 122.7)">n</text><text xml:space="preserve" font-family="Times-Roman,Times" font-size="43.0" fill="#000000" transform="matrix(1.00, 0.00, -0.00, -1.00, 203.7, 122.7)"> </text><text xml:space="preserve" font-family="Times-Bold,Times" font-weight="bold" font-size="43.0" fill="#000000" transform="matrix(1.00, 0.00, -0.00, -1.00, 214.5, 122.7)">S</text><text xml:space="preserve" font-family="Times-Bold,Times" font-weight="bold" font-size="43.0" fill="#000000" transform="matrix(1.00, 0.00, -0.00, -1.00, 238.4, 122.7)">c</text><text xml:space="preserve" font-family="Times-Bold,Times" font-weight="bold" font-size="43.0" fill="#000000" transform="matrix(1.00, 0.00, -0.00, -1.00, 257.5, 122.7)">r</text><text xml:space="preserve" font-family="Times-Bold,Times" font-weight="bold" font-size="43.0" fill="#000000" transform="matrix(1.00, 0.00, -0.00, -1.00, 276.6, 122.7)">a</text><text xml:space="preserve" font-family="Times-Bold,Times" font-weight="bold" font-size="43.0" fill="#000000" transform="matrix(1.00, 0.00, -0.00, -1.00, 298.1, 122.7)">t</text><text xml:space="preserve" font-family="Times-Bold,Times" font-weight="bold" font-size="43.0" fill="#000000" transform="matrix(1.00, 0.00, -0.00, -1.00, 312.4, 122.7)">c</text><text xml:space="preserve" font-family="Times-Bold,Times" font-weight="bold" font-size="43.0" fill="#000000" transform="matrix(1.00, 0.00, -0.00, -1.00, 331.5, 122.7)">h</text><text xml:space="preserve" font-family="Times-Bold,Times" font-weight="bold" font-size="43.0" fill="#000000" transform="matrix(1.00, 0.00, -0.00, -1.00, 355.4, 122.7)"> </text><text xml:space="preserve" font-family="Times-Bold,Times" font-weight="bold" font-size="43.0" fill="#000000" transform="matrix(1.00, 0.00, -0.00, -1.00, 366.1, 122.7)">G</text><text xml:space="preserve" font-family="Times-Bold,Times" font-weight="bold" font-size="43.0" fill="#000000" transform="matrix(1.00, 0.00, -0.00, -1.00, 399.6, 122.7)">P</text><text xml:space="preserve" font-family="Times-Bold,Times" font-weight="bold" font-size="43.0" fill="#000000" transform="matrix(1.00, 0.00, -0.00, -1.00, 425.8, 122.7)">I</text><text xml:space="preserve" font-family="Times-Bold,Times" font-weight="bold" font-size="43.0" fill="#000000" transform="matrix(1.00, 0.00, -0.00, -1.00, 442.6, 122.7)">O</text><text xml:space="preserve" font-family="Times-Bold,Times" font-weight="bold" font-size="43.0" fill="#000000" transform="matrix(1.00, 0.00, -0.00, -1.00, 476.0, 122.7)">4</text><text xml:space="preserve" font-family="Times-Roman,Times" font-size="43.0" fill="#000000" transform="matrix(1.00, 0.00, -0.00, -1.00, 497.5, 122.7)">.</text><text xml:space="preserve" font-family="Times-Roman,Times" font-size="43.0" fill="#000000" transform="matrix(1.00, 0.00, -0.00, -1.00, 508.3, 122.7)"> </text><text xml:space="preserve" font-family="Times-Roman,Times" font-size="43.0" fill="#000000" transform="matrix(1.00, 0.00, -0.00, -1.00, 519.0, 122.7)"> </text><text xml:space="preserve" font-family="Times-Roman,Times" font-size="43.0" fill="#000000" transform="matrix(1.00, 0.00, -0.00, -1.00, 529.8, 122.7)">	</text><text xml:space="preserve" font-family="Times-Roman,Times" font-size="43.0" fill="#000000" transform="matrix(1.00, 0.00, -0.00, -1.00, 557.8, 122.7)">
</text><text xml:space="preserve" font-family="Times-Roman,Times" font-size="43.0" fill="#000000" transform="matrix(1.00, 0.00, -0.00, -1.00, 557.8, 122.7)"></text><text xml:space="preserve" font-family="Times-Roman,Times" font-size="43.0" fill="#000000" transform="matrix(1.00, 0.00, -0.00, -1.00, 67.6, 69.1)">3</text><text xml:space="preserve" font-family="Times-Roman,Times" font-size="43.0" fill="#000000" transform="matrix(1.00, 0.00, -0.00, -1.00, 89.1, 69.1)">.</text><text xml:space="preserve" font-family="Times-Roman,Times" font-size="43.0" fill="#000000" transform="matrix(1.00, 0.00, -0.00, -1.00, 99.8, 69.1)"> </text><text xml:space="preserve" font-family="Times-Roman,Times" font-size="43.0" fill="#000000" transform="matrix(1.00, 0.00, -0.00, -1.00, 110.6, 69.1)">F</text><text xml:space="preserve" font-family="Times-Roman,Times" font-size="43.0" fill="#000000" transform="matrix(1.00, 0.00, -0.00, -1.00, 134.5, 69.1)">i</text><text xml:space="preserve" font-family="Times-Roman,Times" font-size="43.0" fill="#000000" transform="matrix(1.00, 0.00, -0.00, -1.00, 146.5, 69.1)">l</text><text xml:space="preserve" font-family="Times-Roman,Times" font-size="43.0" fill="#000000" transform="matrix(1.00, 0.00, -0.00, -1.00, 158.4, 69.1)">e</text><text xml:space="preserve" font-family="Times-Roman,Times" font-size="43.0" fill="#000000" transform="matrix(1.00, 0.00, -0.00, -1.00, 177.5, 69.1)"> </text><text xml:space="preserve" font-family="Times-Roman,Times" font-size="43.0" fill="#000000" transform="matrix(1.00, 0.00, -0.00, -1.00, 188.2, 69.1)">-</text><text xml:space="preserve" font-family="Times-Roman,Times" font-size="43.0" fill="#000000" transform="matrix(1.00, 0.00, -0.00, -1.00, 202.5, 69.1)">&gt;</text><text xml:space="preserve" font-family="Times-Roman,Times" font-size="43.0" fill="#000000" transform="matrix(1.00, 0.00, -0.00, -1.00, 226.8, 69.1)"> </text><text xml:space="preserve" font-family="Times-Roman,Times" font-size="43.0" fill="#000000" transform="matrix(1.00, 0.00, -0.00, -1.00, 237.5, 69.1)">O</text><text xml:space="preserve" font-family="Times-Roman,Times" font-size="43.0" fill="#000000" transform="matrix(1.00, 0.00, -0.00, -1.00, 268.6, 69.1)">p</text><text xml:space="preserve" font-family="Times-Roman,Times" font-size="43.0" fill="#000000" transform="matrix(1.00, 0.00, -0.00, -1.00, 290.1, 69.1)">e</text><text xml:space="preserve" font-family="Times-Roman,Times" font-size="43.0" fill="#000000" transform="matrix(1.00, 0.00, -0.00, -1.00, 309.2, 69.1)">n</text><text xml:space="preserve" font-family="Times-Roman,Times" font-size="43.0" fill="#000000" transform="matrix(1.00, 0.00, -0.00, -1.00, 330.7, 69.1)"> </text><text xml:space="preserve" font-family="Times-Bold,Times" font-weight="bold" font-size="43.0" fill="#000000" transform="matrix(1.00, 0.00, -0.00, -1.00, 341.4, 69.1)">b</text><text xml:space="preserve" font-family="Times-Bold,Times" font-weight="bold" font-size="43.0" fill="#000000" transform="matrix(1.00, 0.00, -0.00, -1.00, 365.4, 69.1)">l</text><text xml:space="preserve" font-family="Times-Bold,Times" font-weight="bold" font-size="43.0" fill="#000000" transform="matrix(1.00, 0.00, -0.00, -1.00, 377.3, 69.1)">i</text><text xml:space="preserve" font-family="Times-Bold,Times" font-weight="bold" font-size="43.0" fill="#000000" transform="matrix(1.00, 0.00, -0.00, -1.00, 389.3, 69.1)">n</text><text xml:space="preserve" font-family="Times-Bold,Times" font-weight="bold" font-size="43.0" fill="#000000" transform="matrix(1.00, 0.00, -0.00, -1.00, 413.2, 69.1)">k</text><text xml:space="preserve" font-family="Times-Bold,Times" font-weight="bold" font-size="43.0" fill="#000000" transform="matrix(1.00, 0.00, -0.00, -1.00, 437.1, 69.1)">1</text><text xml:space="preserve" font-family="Times-Bold,Times" font-weight="bold" font-size="43.0" fill="#000000" transform="matrix(1.00, 0.00, -0.00, -1.00, 456.3, 69.1)">1</text><text xml:space="preserve" font-family="Times-Roman,Times" font-size="43.0" fill="#000000" transform="matrix(1.00, 0.00, -0.00, -1.00, 477.7, 69.1)">.</text><text xml:space="preserve" font-family="Times-Roman,Times" font-size="43.0" fill="#000000" transform="matrix(1.00, 0.00, -0.00, -1.00, 488.5, 69.1)">	</text><text xml:space="preserve" font-family="Times-Roman,Times" font-size="43.0" fill="#000000" transform="matrix(1.00, 0.00, -0.00, -1.00, 516.5, 69.1)">
</text><text xml:space="preserve" font-family="Times-Roman,Times" font-size="43.0" fill="#000000" transform="matrix(1.00, 0.00, -0.00, -1.00, 516.5, 69.1)"></text><text xml:space="preserve" font-family="Times-Roman,Times" font-size="43.0" fill="#000000" transform="matrix(1.00, 0.00, -0.00, -1.00, 67.6, 15.5)">4</text><text xml:space="preserve" font-family="Times-Roman,Times" font-size="43.0" fill="#000000" transform="matrix(1.00, 0.00, -0.00, -1.00, 89.1, 15.5)">.</text><text xml:space="preserve" font-family="Times-Roman,Times" font-size="43.0" fill="#000000" transform="matrix(1.00, 0.00, -0.00, -1.00, 99.8, 15.5)"> </text><text xml:space="preserve" font-family="Times-Roman,Times" font-size="43.0" fill="#000000" transform="matrix(1.00, 0.00, -0.00, -1.00, 110.6, 15.5)">C</text><text xml:space="preserve" font-family="Times-Roman,Times" font-size="43.0" fill="#000000" transform="matrix(1.00, 0.00, -0.00, -1.00, 139.3, 15.5)">l</text><text xml:space="preserve" font-family="Times-Roman,Times" font-size="43.0" fill="#000000" transform="matrix(1.00, 0.00, -0.00, -1.00, 151.2, 15.5)">i</text><text xml:space="preserve" font-family="Times-Roman,Times" font-size="43.0" fill="#000000" transform="matrix(1.00, 0.00, -0.00, -1.00, 163.2, 15.5)">c</text><text xml:space="preserve" font-family="Times-Roman,Times" font-size="43.0" fill="#000000" transform="matrix(1.00, 0.00, -0.00, -1.00, 182.2, 15.5)">k</text><text xml:space="preserve" font-family="Times-Roman,Times" font-size="43.0" fill="#000000" transform="matrix(1.00, 0.00, -0.00, -1.00, 203.7, 15.5)"> </text><text xml:space="preserve" font-family="Times-Roman,Times" font-size="43.0" fill="#000000" transform="matrix(1.00, 0.00, -0.00, -1.00, 214.5, 15.5)">t</text><text xml:space="preserve" font-family="Times-Roman,Times" font-size="43.0" fill="#000000" transform="matrix(1.00, 0.00, -0.00, -1.00, 226.4, 15.5)">h</text><text xml:space="preserve" font-family="Times-Roman,Times" font-size="43.0" fill="#000000" transform="matrix(1.00, 0.00, -0.00, -1.00, 247.9, 15.5)">e</text><text xml:space="preserve" font-family="Times-Roman,Times" font-size="43.0" fill="#000000" transform="matrix(1.00, 0.00, -0.00, -1.00, 267.0, 15.5)"> </text><text xml:space="preserve" font-family="Times-Roman,Times" font-size="43.0" fill="#000000" transform="matrix(1.00, 0.00, -0.00, -1.00, 277.7, 15.5)">g</text><text xml:space="preserve" font-family="Times-Roman,Times" font-size="43.0" fill="#000000" transform="matrix(1.00, 0.00, -0.00, -1.00, 299.2, 15.5)">r</text><text xml:space="preserve" font-family="Times-Roman,Times" font-size="43.0" fill="#000000" transform="matrix(1.00, 0.00, -0.00, -1.00, 313.6, 15.5)">e</text><text xml:space="preserve" font-family="Times-Roman,Times" font-size="43.0" fill="#000000" transform="matrix(1.00, 0.00, -0.00, -1.00, 332.6, 15.5)">e</text><text xml:space="preserve" font-family="Times-Roman,Times" font-size="43.0" fill="#000000" transform="matrix(1.00, 0.00, -0.00, -1.00, 351.7, 15.5)">n</text><text xml:space="preserve" font-family="Times-Roman,Times" font-size="43.0" fill="#000000" transform="matrix(1.00, 0.00, -0.00, -1.00, 373.2, 15.5)"> </text><text xml:space="preserve" font-family="Times-Roman,Times" font-size="43.0" fill="#000000" transform="matrix(1.00, 0.00, -0.00, -1.00, 384.0, 15.5)">ﬂ</text><text xml:space="preserve" font-family="Times-Roman,Times" font-size="43.0" fill="#000000" transform="matrix(1.00, 0.00, -0.00, -1.00, 407.9, 15.5)">a</text><text xml:space="preserve" font-family="Times-Roman,Times" font-size="43.0" fill="#000000" transform="matrix(1.00, 0.00, -0.00, -1.00, 427.0, 15.5)">g</text><text xml:space="preserve" font-family="Times-Roman,Times" font-size="43.0" fill="#000000" transform="matrix(1.00, 0.00, -0.00, -1.00, 448.5, 15.5)">.</text><image xlink:href="../../02E41901-93EB-4AB1-986B-219589FE2B33/assets/AED7D047539FCFC05C2D181ECA9E7F80.png" width="286.00" height="175.00" transform="matrix(1.00, 0.00, -0.00, -1.00, 650.7, 196.4)"></image><image xlink:href="../../02E41901-93EB-4AB1-986B-219589FE2B33/assets/387B0FEFF6FC26CD0AFF37B6949E79E2.png" width="415.00" height="427.00" transform="matrix(1.00, 0.00, -0.00, -1.00, 15.4, 642.3)" opacity="0.70"></image><image xlink:href="../../02E41901-93EB-4AB1-986B-219589FE2B33/assets/7A280B5BDB4F824386EE828ED96ECFDD.png" width="318.00" height="328.00" transform="matrix(1.18, 0.00, -0.00, -1.18, 35.4, 632.3)"></image></g></svg>