<?xml version="1.0" encoding="UTF-8" standalone="no"?><svg xmlns="http://www.w3.org/2000/svg" xmlns:xlink="http://www.w3.org/1999/xlink" clip-rule="evenodd" stroke-miterlimit="10" viewBox="0 0 1024 768"><desc>SVG generated by Keynote</desc><defs></defs><g transform="matrix(1.00, 0.00, -0.00, -1.00, 0.0, 768.0)"><path d="M 0.0 768.0 L 1024.0 768.0 L 1024.0 0.0 L 0.0 0.0 Z M 0.0 768.0 " fill="#FEFFFF"></path><image xlink:href="F355C6980ADF62949F1B8812F2F8D727.png" width="599.00" height="315.00" transform="matrix(1.00, 0.00, -0.00, -1.00, -0.3, 638.6)" opacity="0.70"></image><image xlink:href="B87B6B131DE5BF6AA54D80E016AB6E7F.png" width="1612.00" height="792.00" transform="matrix(0.35, 0.00, -0.00, -0.35, 19.7, 628.6)"></image><text xml:space="preserve" font-family="Times-Bold,Times" font-weight="bold" font-size="102.0" fill="#000000" transform="matrix(1.00, 0.00, -0.00, -1.00, 296.7, 663.8)">S</text><text xml:space="preserve" font-family="Times-Bold,Times" font-weight="bold" font-size="102.0" fill="#000000" transform="matrix(1.00, 0.00, -0.00, -1.00, 353.4, 663.8)">u</text><text xml:space="preserve" font-family="Times-Bold,Times" font-weight="bold" font-size="102.0" fill="#000000" transform="matrix(1.00, 0.00, -0.00, -1.00, 410.2, 663.8)">m</text><text xml:space="preserve" font-family="Times-Bold,Times" font-weight="bold" font-size="102.0" fill="#000000" transform="matrix(1.00, 0.00, -0.00, -1.00, 495.1, 663.8)">m</text><text xml:space="preserve" font-family="Times-Bold,Times" font-weight="bold" font-size="102.0" fill="#000000" transform="matrix(1.00, 0.00, -0.00, -1.00, 580.1, 663.8)">a</text><text xml:space="preserve" font-family="Times-Bold,Times" font-weight="bold" font-size="102.0" fill="#000000" transform="matrix(1.00, 0.00, -0.00, -1.00, 631.1, 663.8)">r</text><text xml:space="preserve" font-family="Times-Bold,Times" font-weight="bold" font-size="102.0" fill="#000000" transform="matrix(1.00, 0.00, -0.00, -1.00, 676.4, 663.8)">y</text><g opacity="0.69"><g><clipPath id="clip0x6180006bbfc0"><path d="M 26.0 347.0 L 573.0 347.0 L 573.0 418.0 L 26.0 418.0 Z M 26.0 347.0 "></path></clipPath><g clip-path="url(#clip0x6180006bbfc0)"><image xlink:href="3D49DD974D4D463B1BD8E1D85C8E7178.png" width="545.00" height="64.00" transform="matrix(1.00, 0.00, -0.00, -1.00, 27.0, 412.9)" opacity="0.50"></image><path d="M 30.0 367.7 L 30.0 397.9 C 30.0 405.6 36.3 412.0 44.0 412.0 L 554.6 412.0 C 562.3 412.0 569.0 405.6 569.0 397.9 L 569.0 367.7 C 569.0 360.0 562.3 354.0 554.6 354.0 L 44.0 354.0 C 36.3 354.0 30.0 360.0 30.0 367.7 Z M 30.0 367.7 " fill="#000000"></path></g></g></g><text xml:space="preserve" font-family="Times-Roman,Times" font-size="41.0" fill="#FEFFFE" transform="matrix(1.00, 0.00, -0.00, -1.00, 50.0, 369.6)">M</text><text xml:space="preserve" font-family="Times-Roman,Times" font-size="41.0" fill="#FEFFFE" transform="matrix(1.00, 0.00, -0.00, -1.00, 86.4, 369.6)">a</text><text xml:space="preserve" font-family="Times-Roman,Times" font-size="41.0" fill="#FEFFFE" transform="matrix(1.00, 0.00, -0.00, -1.00, 104.6, 369.6)">k</text><text xml:space="preserve" font-family="Times-Roman,Times" font-size="41.0" fill="#FEFFFE" transform="matrix(1.00, 0.00, -0.00, -1.00, 125.1, 369.6)">e</text><text xml:space="preserve" font-family="Times-Roman,Times" font-size="41.0" fill="#FEFFFE" transform="matrix(1.00, 0.00, -0.00, -1.00, 143.3, 369.6)"> </text><text xml:space="preserve" font-family="Times-Roman,Times" font-size="41.0" fill="#FEFFFE" transform="matrix(1.00, 0.00, -0.00, -1.00, 153.6, 369.6)">a</text><text xml:space="preserve" font-family="Times-Roman,Times" font-size="41.0" fill="#FEFFFE" transform="matrix(1.00, 0.00, -0.00, -1.00, 171.7, 369.6)"> </text><text xml:space="preserve" font-family="Times-Roman,Times" font-size="41.0" fill="#FEFFFE" transform="matrix(1.00, 0.00, -0.00, -1.00, 182.0, 369.6)">p</text><text xml:space="preserve" font-family="Times-Roman,Times" font-size="41.0" fill="#FEFFFE" transform="matrix(1.00, 0.00, -0.00, -1.00, 202.5, 369.6)">r</text><text xml:space="preserve" font-family="Times-Roman,Times" font-size="41.0" fill="#FEFFFE" transform="matrix(1.00, 0.00, -0.00, -1.00, 216.1, 369.6)">o</text><text xml:space="preserve" font-family="Times-Roman,Times" font-size="41.0" fill="#FEFFFE" transform="matrix(1.00, 0.00, -0.00, -1.00, 236.6, 369.6)">g</text><text xml:space="preserve" font-family="Times-Roman,Times" font-size="41.0" fill="#FEFFFE" transform="matrix(1.00, 0.00, -0.00, -1.00, 257.1, 369.6)">r</text><text xml:space="preserve" font-family="Times-Roman,Times" font-size="41.0" fill="#FEFFFE" transform="matrix(1.00, 0.00, -0.00, -1.00, 270.8, 369.6)">a</text><text xml:space="preserve" font-family="Times-Roman,Times" font-size="41.0" fill="#FEFFFE" transform="matrix(1.00, 0.00, -0.00, -1.00, 289.0, 369.6)">m</text><text xml:space="preserve" font-family="Times-Roman,Times" font-size="41.0" fill="#FEFFFE" transform="matrix(1.00, 0.00, -0.00, -1.00, 320.9, 369.6)"> </text><text xml:space="preserve" font-family="Times-Roman,Times" font-size="41.0" fill="#FEFFFE" transform="matrix(1.00, 0.00, -0.00, -1.00, 331.1, 369.6)">w</text><text xml:space="preserve" font-family="Times-Roman,Times" font-size="41.0" fill="#FEFFFE" transform="matrix(1.00, 0.00, -0.00, -1.00, 360.7, 369.6)">i</text><text xml:space="preserve" font-family="Times-Roman,Times" font-size="41.0" fill="#FEFFFE" transform="matrix(1.00, 0.00, -0.00, -1.00, 372.1, 369.6)">t</text><text xml:space="preserve" font-family="Times-Roman,Times" font-size="41.0" fill="#FEFFFE" transform="matrix(1.00, 0.00, -0.00, -1.00, 383.5, 369.6)">h</text><text xml:space="preserve" font-family="Times-Roman,Times" font-size="41.0" fill="#FEFFFE" transform="matrix(1.00, 0.00, -0.00, -1.00, 404.0, 369.6)"> </text><text xml:space="preserve" font-family="Times-Bold,Times" font-weight="bold" font-size="41.0" fill="#FEFFFE" transform="matrix(1.00, 0.00, -0.00, -1.00, 414.3, 369.6)">S</text><text xml:space="preserve" font-family="Times-Bold,Times" font-weight="bold" font-size="41.0" fill="#FEFFFE" transform="matrix(1.00, 0.00, -0.00, -1.00, 437.1, 369.6)">c</text><text xml:space="preserve" font-family="Times-Bold,Times" font-weight="bold" font-size="41.0" fill="#FEFFFE" transform="matrix(1.00, 0.00, -0.00, -1.00, 455.3, 369.6)">r</text><text xml:space="preserve" font-family="Times-Bold,Times" font-weight="bold" font-size="41.0" fill="#FEFFFE" transform="matrix(1.00, 0.00, -0.00, -1.00, 473.5, 369.6)">a</text><text xml:space="preserve" font-family="Times-Bold,Times" font-weight="bold" font-size="41.0" fill="#FEFFFE" transform="matrix(1.00, 0.00, -0.00, -1.00, 494.0, 369.6)">t</text><text xml:space="preserve" font-family="Times-Bold,Times" font-weight="bold" font-size="41.0" fill="#FEFFFE" transform="matrix(1.00, 0.00, -0.00, -1.00, 507.6, 369.6)">c</text><text xml:space="preserve" font-family="Times-Bold,Times" font-weight="bold" font-size="41.0" fill="#FEFFFE" transform="matrix(1.00, 0.00, -0.00, -1.00, 525.8, 369.6)">h</text></g></svg>