<?xml version="1.0" encoding="UTF-8" standalone="no"?><svg xmlns="http://www.w3.org/2000/svg" xmlns:xlink="http://www.w3.org/1999/xlink" clip-rule="evenodd" stroke-miterlimit="10" viewBox="0 0 1024 768"><desc>SVG generated by Keynote</desc><defs></defs><g transform="matrix(1.00, 0.00, -0.00, -1.00, 0.0, 768.0)"><path d="M 0.0 768.0 L 1024.0 768.0 L 1024.0 0.0 L 0.0 0.0 Z M 0.0 768.0 " fill="#FEFFFF"></path><image xlink:href="../../59AF8132-DE29-4119-86F3-C53B93FB773C/assets/AF2D5E66B6CE471C4F4B597712116728.jpeg" width="3264.00" height="2448.00" transform="matrix(0.31, 0.00, -0.00, -0.31, 0.0, 768.0)"></image><g opacity="0.69"><g><clipPath id="clip0x6080010a5ac0"><path d="M 83.0 654.0 L 1022.0 654.0 L 1022.0 758.0 L 83.0 758.0 Z M 83.0 654.0 "></path></clipPath><g clip-path="url(#clip0x6080010a5ac0)"><image xlink:href="../../59AF8132-DE29-4119-86F3-C53B93FB773C/assets/A170B6F51AECB476297826292796576C.png" width="936.00" height="98.00" transform="matrix(1.00, 0.00, -0.00, -1.00, 84.6, 752.9)" opacity="0.50"></image><path d="M 87.6 682.1 L 88.0 729.9 C 88.0 742.1 97.5 752.0 109.6 752.0 L 995.6 752.0 C 1007.7 752.0 1018.0 742.1 1018.0 729.9 L 1018.0 682.1 C 1018.0 669.9 1007.7 660.0 995.6 660.0 L 109.6 660.0 C 97.5 660.0 87.6 669.9 87.6 682.1 Z M 87.6 682.1 " fill="#000000"></path></g></g></g><g opacity="0.69"><g><clipPath id="clip0x600000eb81e0"><path d="M 15.0 19.0 L 1009.0 19.0 L 1009.0 231.0 L 15.0 231.0 Z M 15.0 19.0 "></path></clipPath><g clip-path="url(#clip0x600000eb81e0)"><image xlink:href="../../59AF8132-DE29-4119-86F3-C53B93FB773C/assets/5A5C3A82F1FEFABE3095D9A9F7688DDC.png" width="990.00" height="205.00" transform="matrix(1.00, 0.00, -0.00, -1.00, 16.9, 225.2)" opacity="0.50"></image><path d="M 19.9 50.5 L 20.0 198.7 C 20.0 212.8 31.3 224.0 45.4 224.0 L 978.6 224.0 C 992.7 224.0 1004.0 212.8 1004.0 198.7 L 1004.0 50.5 C 1004.0 36.4 992.7 25.0 978.6 25.0 L 45.4 25.0 C 31.3 25.0 19.9 36.4 19.9 50.5 Z M 19.9 50.5 " fill="#000000"></path></g></g></g><text xml:space="preserve" font-family="Times-Bold,Times" font-weight="bold" font-size="74.0" fill="#FEFFFE" transform="matrix(1.00, 0.00, -0.00, -1.00, 25.7, 680.5)">H</text><text xml:space="preserve" font-family="Times-Bold,Times" font-weight="bold" font-size="74.0" fill="#FEFFFE" transform="matrix(1.00, 0.00, -0.00, -1.00, 83.2, 680.5)">a</text><text xml:space="preserve" font-family="Times-Bold,Times" font-weight="bold" font-size="74.0" fill="#FEFFFE" transform="matrix(1.00, 0.00, -0.00, -1.00, 120.2, 680.5)">n</text><text xml:space="preserve" font-family="Times-Bold,Times" font-weight="bold" font-size="74.0" fill="#FEFFFE" transform="matrix(1.00, 0.00, -0.00, -1.00, 161.4, 680.5)">d</text><text xml:space="preserve" font-family="Times-Bold,Times" font-weight="bold" font-size="74.0" fill="#FEFFFE" transform="matrix(1.00, 0.00, -0.00, -1.00, 202.5, 680.5)">s</text><text xml:space="preserve" font-family="Times-Bold,Times" font-weight="bold" font-size="74.0" fill="#FEFFFE" transform="matrix(1.00, 0.00, -0.00, -1.00, 231.3, 680.5)">-</text><text xml:space="preserve" font-family="Times-Bold,Times" font-weight="bold" font-size="74.0" fill="#FEFFFE" transform="matrix(1.00, 0.00, -0.00, -1.00, 255.9, 680.5)">o</text><text xml:space="preserve" font-family="Times-Bold,Times" font-weight="bold" font-size="74.0" fill="#FEFFFE" transform="matrix(1.00, 0.00, -0.00, -1.00, 292.9, 680.5)">n</text><text xml:space="preserve" font-family="Times-Bold,Times" font-weight="bold" font-size="74.0" fill="#FEFFFE" transform="matrix(1.00, 0.00, -0.00, -1.00, 334.0, 680.5)">:</text><text xml:space="preserve" font-family="Times-Bold,Times" font-weight="bold" font-size="74.0" fill="#FEFFFE" transform="matrix(1.00, 0.00, -0.00, -1.00, 358.7, 680.5)"> </text><text xml:space="preserve" font-family="Times-Bold,Times" font-weight="bold" font-size="74.0" fill="#FEFFFE" transform="matrix(1.00, 0.00, -0.00, -1.00, 377.1, 680.5)">C</text><text xml:space="preserve" font-family="Times-Bold,Times" font-weight="bold" font-size="74.0" fill="#FEFFFE" transform="matrix(1.00, 0.00, -0.00, -1.00, 430.5, 680.5)">o</text><text xml:space="preserve" font-family="Times-Bold,Times" font-weight="bold" font-size="74.0" fill="#FEFFFE" transform="matrix(1.00, 0.00, -0.00, -1.00, 467.5, 680.5)">n</text><text xml:space="preserve" font-family="Times-Bold,Times" font-weight="bold" font-size="74.0" fill="#FEFFFE" transform="matrix(1.00, 0.00, -0.00, -1.00, 508.6, 680.5)">t</text><text xml:space="preserve" font-family="Times-Bold,Times" font-weight="bold" font-size="74.0" fill="#FEFFFE" transform="matrix(1.00, 0.00, -0.00, -1.00, 533.3, 680.5)">r</text><text xml:space="preserve" font-family="Times-Bold,Times" font-weight="bold" font-size="74.0" fill="#FEFFFE" transform="matrix(1.00, 0.00, -0.00, -1.00, 564.8, 680.5)">o</text><text xml:space="preserve" font-family="Times-Bold,Times" font-weight="bold" font-size="74.0" fill="#FEFFFE" transform="matrix(1.00, 0.00, -0.00, -1.00, 601.7, 680.5)">l</text><text xml:space="preserve" font-family="Times-Bold,Times" font-weight="bold" font-size="74.0" fill="#FEFFFE" transform="matrix(1.00, 0.00, -0.00, -1.00, 622.3, 680.5)"> </text><text xml:space="preserve" font-family="Times-Bold,Times" font-weight="bold" font-size="74.0" fill="#FEFFFE" transform="matrix(1.00, 0.00, -0.00, -1.00, 640.8, 680.5)">L</text><text xml:space="preserve" font-family="Times-Bold,Times" font-weight="bold" font-size="74.0" fill="#FEFFFE" transform="matrix(1.00, 0.00, -0.00, -1.00, 690.1, 680.5)">E</text><text xml:space="preserve" font-family="Times-Bold,Times" font-weight="bold" font-size="74.0" fill="#FEFFFE" transform="matrix(1.00, 0.00, -0.00, -1.00, 739.4, 680.5)">D</text><text xml:space="preserve" font-family="Times-Bold,Times" font-weight="bold" font-size="74.0" fill="#FEFFFE" transform="matrix(1.00, 0.00, -0.00, -1.00, 792.8, 680.5)"> </text><text xml:space="preserve" font-family="Times-Bold,Times" font-weight="bold" font-size="74.0" fill="#FEFFFE" transform="matrix(1.00, 0.00, -0.00, -1.00, 811.3, 680.5)">w</text><text xml:space="preserve" font-family="Times-Bold,Times" font-weight="bold" font-size="74.0" fill="#FEFFFE" transform="matrix(1.00, 0.00, -0.00, -1.00, 864.7, 680.5)">/</text><text xml:space="preserve" font-family="Times-Bold,Times" font-weight="bold" font-size="74.0" fill="#FEFFFE" transform="matrix(1.00, 0.00, -0.00, -1.00, 885.3, 680.5)"> </text><text xml:space="preserve" font-family="Times-Bold,Times" font-weight="bold" font-size="74.0" fill="#FEFFFE" transform="matrix(1.00, 0.00, -0.00, -1.00, 903.8, 680.5)">R</text><text xml:space="preserve" font-family="Times-Bold,Times" font-weight="bold" font-size="74.0" fill="#FEFFFE" transform="matrix(1.00, 0.00, -0.00, -1.00, 957.2, 680.5)">P</text><text xml:space="preserve" font-family="Times-Bold,Times" font-weight="bold" font-size="74.0" fill="#FEFFFE" transform="matrix(1.00, 0.00, -0.00, -1.00, 998.3, 680.5)"> </text><text xml:space="preserve" font-family="Times-Roman,Times" font-size="55.3" fill="#FEFFFE" transform="matrix(1.00, 0.00, -0.00, -1.00, 24.1, 171.4)">1</text><text xml:space="preserve" font-family="Times-Roman,Times" font-size="55.3" fill="#FEFFFE" transform="matrix(1.00, 0.00, -0.00, -1.00, 51.7, 171.4)">)</text><text xml:space="preserve" font-family="Times-Roman,Times" font-size="55.3" fill="#FEFFFE" transform="matrix(1.00, 0.00, -0.00, -1.00, 70.1, 171.4)">.</text><text xml:space="preserve" font-family="Times-Roman,Times" font-size="55.3" fill="#FEFFFE" transform="matrix(1.00, 0.00, -0.00, -1.00, 83.9, 171.4)"> </text><text xml:space="preserve" font-family="Times-Roman,Times" font-size="55.3" fill="#FEFFFE" transform="matrix(1.00, 0.00, -0.00, -1.00, 97.8, 171.4)">B</text><text xml:space="preserve" font-family="Times-Roman,Times" font-size="55.3" fill="#FEFFFE" transform="matrix(1.00, 0.00, -0.00, -1.00, 134.6, 171.4)">u</text><text xml:space="preserve" font-family="Times-Roman,Times" font-size="55.3" fill="#FEFFFE" transform="matrix(1.00, 0.00, -0.00, -1.00, 162.3, 171.4)">i</text><text xml:space="preserve" font-family="Times-Roman,Times" font-size="55.3" fill="#FEFFFE" transform="matrix(1.00, 0.00, -0.00, -1.00, 177.6, 171.4)">l</text><text xml:space="preserve" font-family="Times-Roman,Times" font-size="55.3" fill="#FEFFFE" transform="matrix(1.00, 0.00, -0.00, -1.00, 193.0, 171.4)">d</text><text xml:space="preserve" font-family="Times-Roman,Times" font-size="55.3" fill="#FEFFFE" transform="matrix(1.00, 0.00, -0.00, -1.00, 220.6, 171.4)"> </text><text xml:space="preserve" font-family="Times-Roman,Times" font-size="55.3" fill="#FEFFFE" transform="matrix(1.00, 0.00, -0.00, -1.00, 234.5, 171.4)">a</text><text xml:space="preserve" font-family="Times-Roman,Times" font-size="55.3" fill="#FEFFFE" transform="matrix(1.00, 0.00, -0.00, -1.00, 259.0, 171.4)"> </text><text xml:space="preserve" font-family="Times-Bold,Times" font-weight="bold" font-size="55.3" fill="#FEFFFE" transform="matrix(1.00, 0.00, -0.00, -1.00, 272.8, 171.4)">L</text><text xml:space="preserve" font-family="Times-Bold,Times" font-weight="bold" font-size="55.3" fill="#FEFFFE" transform="matrix(1.00, 0.00, -0.00, -1.00, 309.7, 171.4)">E</text><text xml:space="preserve" font-family="Times-Bold,Times" font-weight="bold" font-size="55.3" fill="#FEFFFE" transform="matrix(1.00, 0.00, -0.00, -1.00, 346.6, 171.4)">D</text><text xml:space="preserve" font-family="Times-Bold,Times" font-weight="bold" font-size="55.3" fill="#FEFFFE" transform="matrix(1.00, 0.00, -0.00, -1.00, 386.5, 171.4)"> </text><text xml:space="preserve" font-family="Times-Bold,Times" font-weight="bold" font-size="55.3" fill="#FEFFFE" transform="matrix(1.00, 0.00, -0.00, -1.00, 400.4, 171.4)">c</text><text xml:space="preserve" font-family="Times-Bold,Times" font-weight="bold" font-size="55.3" fill="#FEFFFE" transform="matrix(1.00, 0.00, -0.00, -1.00, 424.9, 171.4)">i</text><text xml:space="preserve" font-family="Times-Bold,Times" font-weight="bold" font-size="55.3" fill="#FEFFFE" transform="matrix(1.00, 0.00, -0.00, -1.00, 440.2, 171.4)">r</text><text xml:space="preserve" font-family="Times-Bold,Times" font-weight="bold" font-size="55.3" fill="#FEFFFE" transform="matrix(1.00, 0.00, -0.00, -1.00, 463.8, 171.4)">c</text><text xml:space="preserve" font-family="Times-Bold,Times" font-weight="bold" font-size="55.3" fill="#FEFFFE" transform="matrix(1.00, 0.00, -0.00, -1.00, 488.3, 171.4)">u</text><text xml:space="preserve" font-family="Times-Bold,Times" font-weight="bold" font-size="55.3" fill="#FEFFFE" transform="matrix(1.00, 0.00, -0.00, -1.00, 519.1, 171.4)">i</text><text xml:space="preserve" font-family="Times-Bold,Times" font-weight="bold" font-size="55.3" fill="#FEFFFE" transform="matrix(1.00, 0.00, -0.00, -1.00, 534.4, 171.4)">t</text><text xml:space="preserve" font-family="Times-Roman,Times" font-size="55.3" fill="#FEFFFE" transform="matrix(1.00, 0.00, -0.00, -1.00, 552.9, 171.4)"> </text><text xml:space="preserve" font-family="Times-Roman,Times" font-size="55.3" fill="#FEFFFE" transform="matrix(1.00, 0.00, -0.00, -1.00, 566.7, 171.4)">o</text><text xml:space="preserve" font-family="Times-Roman,Times" font-size="55.3" fill="#FEFFFE" transform="matrix(1.00, 0.00, -0.00, -1.00, 594.3, 171.4)">n</text><text xml:space="preserve" font-family="Times-Roman,Times" font-size="55.3" fill="#FEFFFE" transform="matrix(1.00, 0.00, -0.00, -1.00, 622.0, 171.4)"> </text><text xml:space="preserve" font-family="Times-Roman,Times" font-size="55.3" fill="#FEFFFE" transform="matrix(1.00, 0.00, -0.00, -1.00, 635.8, 171.4)">a</text><text xml:space="preserve" font-family="Times-Roman,Times" font-size="55.3" fill="#FEFFFE" transform="matrix(1.00, 0.00, -0.00, -1.00, 660.3, 171.4)"> </text><text xml:space="preserve" font-family="Times-Bold,Times" font-weight="bold" font-size="55.3" fill="#FEFFFE" transform="matrix(1.00, 0.00, -0.00, -1.00, 674.2, 171.4)">b</text><text xml:space="preserve" font-family="Times-Bold,Times" font-weight="bold" font-size="55.3" fill="#FEFFFE" transform="matrix(1.00, 0.00, -0.00, -1.00, 704.9, 171.4)">r</text><text xml:space="preserve" font-family="Times-Bold,Times" font-weight="bold" font-size="55.3" fill="#FEFFFE" transform="matrix(1.00, 0.00, -0.00, -1.00, 728.5, 171.4)">e</text><text xml:space="preserve" font-family="Times-Bold,Times" font-weight="bold" font-size="55.3" fill="#FEFFFE" transform="matrix(1.00, 0.00, -0.00, -1.00, 753.0, 171.4)">a</text><text xml:space="preserve" font-family="Times-Bold,Times" font-weight="bold" font-size="55.3" fill="#FEFFFE" transform="matrix(1.00, 0.00, -0.00, -1.00, 780.7, 171.4)">d</text><text xml:space="preserve" font-family="Times-Bold,Times" font-weight="bold" font-size="55.3" fill="#FEFFFE" transform="matrix(1.00, 0.00, -0.00, -1.00, 811.4, 171.4)">b</text><text xml:space="preserve" font-family="Times-Bold,Times" font-weight="bold" font-size="55.3" fill="#FEFFFE" transform="matrix(1.00, 0.00, -0.00, -1.00, 842.2, 171.4)">o</text><text xml:space="preserve" font-family="Times-Bold,Times" font-weight="bold" font-size="55.3" fill="#FEFFFE" transform="matrix(1.00, 0.00, -0.00, -1.00, 869.8, 171.4)">a</text><text xml:space="preserve" font-family="Times-Bold,Times" font-weight="bold" font-size="55.3" fill="#FEFFFE" transform="matrix(1.00, 0.00, -0.00, -1.00, 897.5, 171.4)">r</text><text xml:space="preserve" font-family="Times-Bold,Times" font-weight="bold" font-size="55.3" fill="#FEFFFE" transform="matrix(1.00, 0.00, -0.00, -1.00, 922.0, 171.4)">d</text><text xml:space="preserve" font-family="Times-Roman,Times" font-size="55.3" fill="#FEFFFE" transform="matrix(1.00, 0.00, -0.00, -1.00, 952.8, 171.4)">,</text><text xml:space="preserve" font-family="LucidaGrande,Lucida Grande" font-size="55.3" fill="#FEFFFE" transform="matrix(1.00, 0.00, -0.00, -1.00, 966.6, 171.4)"> </text><text xml:space="preserve" font-family="Times-Roman,Times" font-size="55.3" fill="#FEFFFE" transform="matrix(1.00, 0.00, -0.00, -1.00, 24.1, 105.4)">2</text><text xml:space="preserve" font-family="Times-Roman,Times" font-size="55.3" fill="#FEFFFE" transform="matrix(1.00, 0.00, -0.00, -1.00, 51.7, 105.4)">)</text><text xml:space="preserve" font-family="Times-Roman,Times" font-size="55.3" fill="#FEFFFE" transform="matrix(1.00, 0.00, -0.00, -1.00, 70.1, 105.4)">.</text><text xml:space="preserve" font-family="Times-Roman,Times" font-size="55.3" fill="#FEFFFE" transform="matrix(1.00, 0.00, -0.00, -1.00, 83.9, 105.4)"> </text><text xml:space="preserve" font-family="Times-Roman,Times" font-size="55.3" fill="#FEFFFE" transform="matrix(1.00, 0.00, -0.00, -1.00, 97.8, 105.4)">c</text><text xml:space="preserve" font-family="Times-Roman,Times" font-size="55.3" fill="#FEFFFE" transform="matrix(1.00, 0.00, -0.00, -1.00, 122.3, 105.4)">o</text><text xml:space="preserve" font-family="Times-Roman,Times" font-size="55.3" fill="#FEFFFE" transform="matrix(1.00, 0.00, -0.00, -1.00, 149.9, 105.4)">n</text><text xml:space="preserve" font-family="Times-Roman,Times" font-size="55.3" fill="#FEFFFE" transform="matrix(1.00, 0.00, -0.00, -1.00, 177.6, 105.4)">n</text><text xml:space="preserve" font-family="Times-Roman,Times" font-size="55.3" fill="#FEFFFE" transform="matrix(1.00, 0.00, -0.00, -1.00, 205.2, 105.4)">e</text><text xml:space="preserve" font-family="Times-Roman,Times" font-size="55.3" fill="#FEFFFE" transform="matrix(1.00, 0.00, -0.00, -1.00, 229.8, 105.4)">c</text><text xml:space="preserve" font-family="Times-Roman,Times" font-size="55.3" fill="#FEFFFE" transform="matrix(1.00, 0.00, -0.00, -1.00, 254.3, 105.4)">t</text><text xml:space="preserve" font-family="Times-Roman,Times" font-size="55.3" fill="#FEFFFE" transform="matrix(1.00, 0.00, -0.00, -1.00, 269.6, 105.4)"> </text><text xml:space="preserve" font-family="Times-Roman,Times" font-size="55.3" fill="#FEFFFE" transform="matrix(1.00, 0.00, -0.00, -1.00, 283.5, 105.4)">i</text><text xml:space="preserve" font-family="Times-Roman,Times" font-size="55.3" fill="#FEFFFE" transform="matrix(1.00, 0.00, -0.00, -1.00, 298.8, 105.4)">t</text><text xml:space="preserve" font-family="Times-Roman,Times" font-size="55.3" fill="#FEFFFE" transform="matrix(1.00, 0.00, -0.00, -1.00, 314.2, 105.4)"> </text><text xml:space="preserve" font-family="Times-Roman,Times" font-size="55.3" fill="#FEFFFE" transform="matrix(1.00, 0.00, -0.00, -1.00, 328.0, 105.4)">t</text><text xml:space="preserve" font-family="Times-Roman,Times" font-size="55.3" fill="#FEFFFE" transform="matrix(1.00, 0.00, -0.00, -1.00, 343.3, 105.4)">o</text><text xml:space="preserve" font-family="Times-Roman,Times" font-size="55.3" fill="#FEFFFE" transform="matrix(1.00, 0.00, -0.00, -1.00, 371.0, 105.4)"> </text><text xml:space="preserve" font-family="Times-Bold,Times" font-weight="bold" font-size="55.3" fill="#FEFFFE" transform="matrix(1.00, 0.00, -0.00, -1.00, 384.9, 105.4)">R</text><text xml:space="preserve" font-family="Times-Bold,Times" font-weight="bold" font-size="55.3" fill="#FEFFFE" transform="matrix(1.00, 0.00, -0.00, -1.00, 424.8, 105.4)">a</text><text xml:space="preserve" font-family="Times-Bold,Times" font-weight="bold" font-size="55.3" fill="#FEFFFE" transform="matrix(1.00, 0.00, -0.00, -1.00, 452.5, 105.4)">s</text><text xml:space="preserve" font-family="Times-Bold,Times" font-weight="bold" font-size="55.3" fill="#FEFFFE" transform="matrix(1.00, 0.00, -0.00, -1.00, 474.0, 105.4)">p</text><text xml:space="preserve" font-family="Times-Bold,Times" font-weight="bold" font-size="55.3" fill="#FEFFFE" transform="matrix(1.00, 0.00, -0.00, -1.00, 504.7, 105.4)">b</text><text xml:space="preserve" font-family="Times-Bold,Times" font-weight="bold" font-size="55.3" fill="#FEFFFE" transform="matrix(1.00, 0.00, -0.00, -1.00, 535.5, 105.4)">e</text><text xml:space="preserve" font-family="Times-Bold,Times" font-weight="bold" font-size="55.3" fill="#FEFFFE" transform="matrix(1.00, 0.00, -0.00, -1.00, 560.0, 105.4)">r</text><text xml:space="preserve" font-family="Times-Bold,Times" font-weight="bold" font-size="55.3" fill="#FEFFFE" transform="matrix(1.00, 0.00, -0.00, -1.00, 584.6, 105.4)">r</text><text xml:space="preserve" font-family="Times-Bold,Times" font-weight="bold" font-size="55.3" fill="#FEFFFE" transform="matrix(1.00, 0.00, -0.00, -1.00, 609.1, 105.4)">y</text><text xml:space="preserve" font-family="Times-Bold,Times" font-weight="bold" font-size="55.3" fill="#FEFFFE" transform="matrix(1.00, 0.00, -0.00, -1.00, 636.7, 105.4)"> </text><text xml:space="preserve" font-family="Times-Bold,Times" font-weight="bold" font-size="55.3" fill="#FEFFFE" transform="matrix(1.00, 0.00, -0.00, -1.00, 650.6, 105.4)">P</text><text xml:space="preserve" font-family="Times-Bold,Times" font-weight="bold" font-size="55.3" fill="#FEFFFE" transform="matrix(1.00, 0.00, -0.00, -1.00, 684.3, 105.4)">i</text><text xml:space="preserve" font-family="Times-Roman,Times" font-size="55.3" fill="#FEFFFE" transform="matrix(1.00, 0.00, -0.00, -1.00, 699.7, 105.4)">’</text><text xml:space="preserve" font-family="Times-Roman,Times" font-size="55.3" fill="#FEFFFE" transform="matrix(1.00, 0.00, -0.00, -1.00, 715.1, 105.4)">s</text><text xml:space="preserve" font-family="Times-Roman,Times" font-size="55.3" fill="#FEFFFE" transform="matrix(1.00, 0.00, -0.00, -1.00, 736.6, 105.4)"> </text><text xml:space="preserve" font-family="Times-Bold,Times" font-weight="bold" font-size="55.3" fill="#FEFFFE" transform="matrix(1.00, 0.00, -0.00, -1.00, 750.4, 105.4)">G</text><text xml:space="preserve" font-family="Times-Bold,Times" font-weight="bold" font-size="55.3" fill="#FEFFFE" transform="matrix(1.00, 0.00, -0.00, -1.00, 793.4, 105.4)">P</text><text xml:space="preserve" font-family="Times-Bold,Times" font-weight="bold" font-size="55.3" fill="#FEFFFE" transform="matrix(1.00, 0.00, -0.00, -1.00, 827.2, 105.4)">I</text><text xml:space="preserve" font-family="Times-Bold,Times" font-weight="bold" font-size="55.3" fill="#FEFFFE" transform="matrix(1.00, 0.00, -0.00, -1.00, 848.7, 105.4)">O</text><text xml:space="preserve" font-family="Times-Roman,Times" font-size="55.3" fill="#FEFFFE" transform="matrix(1.00, 0.00, -0.00, -1.00, 891.7, 105.4)">,</text><text xml:space="preserve" font-family="Times-Roman,Times" font-size="55.3" fill="#FEFFFE" transform="matrix(1.00, 0.00, -0.00, -1.00, 905.5, 105.4)"> </text><text xml:space="preserve" font-family="Times-Roman,Times" font-size="55.3" fill="#FEFFFE" transform="matrix(1.00, 0.00, -0.00, -1.00, 919.4, 105.4)">a</text><text xml:space="preserve" font-family="Times-Roman,Times" font-size="55.3" fill="#FEFFFE" transform="matrix(1.00, 0.00, -0.00, -1.00, 943.9, 105.4)">n</text><text xml:space="preserve" font-family="Times-Roman,Times" font-size="55.3" fill="#FEFFFE" transform="matrix(1.00, 0.00, -0.00, -1.00, 971.5, 105.4)">d</text><text xml:space="preserve" font-family="LucidaGrande,Lucida Grande" font-size="55.3" fill="#FEFFFE" transform="matrix(1.00, 0.00, -0.00, -1.00, 999.2, 105.4)"> </text><text xml:space="preserve" font-family="Times-Roman,Times" font-size="55.3" fill="#FEFFFE" transform="matrix(1.00, 0.00, -0.00, -1.00, 24.1, 39.4)">3</text><text xml:space="preserve" font-family="Times-Roman,Times" font-size="55.3" fill="#FEFFFE" transform="matrix(1.00, 0.00, -0.00, -1.00, 51.7, 39.4)">)</text><text xml:space="preserve" font-family="Times-Roman,Times" font-size="55.3" fill="#FEFFFE" transform="matrix(1.00, 0.00, -0.00, -1.00, 70.1, 39.4)">.</text><text xml:space="preserve" font-family="Times-Roman,Times" font-size="55.3" fill="#FEFFFE" transform="matrix(1.00, 0.00, -0.00, -1.00, 83.9, 39.4)"> </text><text xml:space="preserve" font-family="Times-Roman,Times" font-size="55.3" fill="#FEFFFE" transform="matrix(1.00, 0.00, -0.00, -1.00, 97.8, 39.4)">c</text><text xml:space="preserve" font-family="Times-Roman,Times" font-size="55.3" fill="#FEFFFE" transform="matrix(1.00, 0.00, -0.00, -1.00, 122.3, 39.4)">o</text><text xml:space="preserve" font-family="Times-Roman,Times" font-size="55.3" fill="#FEFFFE" transform="matrix(1.00, 0.00, -0.00, -1.00, 149.9, 39.4)">n</text><text xml:space="preserve" font-family="Times-Roman,Times" font-size="55.3" fill="#FEFFFE" transform="matrix(1.00, 0.00, -0.00, -1.00, 177.6, 39.4)">t</text><text xml:space="preserve" font-family="Times-Roman,Times" font-size="55.3" fill="#FEFFFE" transform="matrix(1.00, 0.00, -0.00, -1.00, 192.9, 39.4)">r</text><text xml:space="preserve" font-family="Times-Roman,Times" font-size="55.3" fill="#FEFFFE" transform="matrix(1.00, 0.00, -0.00, -1.00, 211.3, 39.4)">o</text><text xml:space="preserve" font-family="Times-Roman,Times" font-size="55.3" fill="#FEFFFE" transform="matrix(1.00, 0.00, -0.00, -1.00, 239.0, 39.4)">l</text><text xml:space="preserve" font-family="Times-Roman,Times" font-size="55.3" fill="#FEFFFE" transform="matrix(1.00, 0.00, -0.00, -1.00, 254.3, 39.4)"> </text><text xml:space="preserve" font-family="Times-Roman,Times" font-size="55.3" fill="#FEFFFE" transform="matrix(1.00, 0.00, -0.00, -1.00, 268.2, 39.4)">L</text><text xml:space="preserve" font-family="Times-Roman,Times" font-size="55.3" fill="#FEFFFE" transform="matrix(1.00, 0.00, -0.00, -1.00, 301.9, 39.4)">E</text><text xml:space="preserve" font-family="Times-Roman,Times" font-size="55.3" fill="#FEFFFE" transform="matrix(1.00, 0.00, -0.00, -1.00, 335.7, 39.4)">D</text><text xml:space="preserve" font-family="Times-Roman,Times" font-size="55.3" fill="#FEFFFE" transform="matrix(1.00, 0.00, -0.00, -1.00, 375.6, 39.4)"> </text><text xml:space="preserve" font-family="Times-Roman,Times" font-size="55.3" fill="#FEFFFE" transform="matrix(1.00, 0.00, -0.00, -1.00, 389.4, 39.4)">l</text><text xml:space="preserve" font-family="Times-Roman,Times" font-size="55.3" fill="#FEFFFE" transform="matrix(1.00, 0.00, -0.00, -1.00, 404.8, 39.4)">i</text><text xml:space="preserve" font-family="Times-Roman,Times" font-size="55.3" fill="#FEFFFE" transform="matrix(1.00, 0.00, -0.00, -1.00, 420.1, 39.4)">g</text><text xml:space="preserve" font-family="Times-Roman,Times" font-size="55.3" fill="#FEFFFE" transform="matrix(1.00, 0.00, -0.00, -1.00, 447.8, 39.4)">h</text><text xml:space="preserve" font-family="Times-Roman,Times" font-size="55.3" fill="#FEFFFE" transform="matrix(1.00, 0.00, -0.00, -1.00, 475.4, 39.4)">t</text><text xml:space="preserve" font-family="Times-Roman,Times" font-size="55.3" fill="#FEFFFE" transform="matrix(1.00, 0.00, -0.00, -1.00, 490.8, 39.4)"> </text><text xml:space="preserve" font-family="Times-Roman,Times" font-size="55.3" fill="#FEFFFE" transform="matrix(1.00, 0.00, -0.00, -1.00, 504.6, 39.4)">f</text><text xml:space="preserve" font-family="Times-Roman,Times" font-size="55.3" fill="#FEFFFE" transform="matrix(1.00, 0.00, -0.00, -1.00, 523.0, 39.4)">r</text><text xml:space="preserve" font-family="Times-Roman,Times" font-size="55.3" fill="#FEFFFE" transform="matrix(1.00, 0.00, -0.00, -1.00, 541.4, 39.4)">o</text><text xml:space="preserve" font-family="Times-Roman,Times" font-size="55.3" fill="#FEFFFE" transform="matrix(1.00, 0.00, -0.00, -1.00, 569.1, 39.4)">m</text><text xml:space="preserve" font-family="Times-Roman,Times" font-size="55.3" fill="#FEFFFE" transform="matrix(1.00, 0.00, -0.00, -1.00, 612.1, 39.4)"> </text><text xml:space="preserve" font-family="Times-Bold,Times" font-weight="bold" font-size="55.3" fill="#FEFFFE" transform="matrix(1.00, 0.00, -0.00, -1.00, 626.0, 39.4)">S</text><text xml:space="preserve" font-family="Times-Bold,Times" font-weight="bold" font-size="55.3" fill="#FEFFFE" transform="matrix(1.00, 0.00, -0.00, -1.00, 656.7, 39.4)">c</text><text xml:space="preserve" font-family="Times-Bold,Times" font-weight="bold" font-size="55.3" fill="#FEFFFE" transform="matrix(1.00, 0.00, -0.00, -1.00, 681.3, 39.4)">r</text><text xml:space="preserve" font-family="Times-Bold,Times" font-weight="bold" font-size="55.3" fill="#FEFFFE" transform="matrix(1.00, 0.00, -0.00, -1.00, 705.8, 39.4)">a</text><text xml:space="preserve" font-family="Times-Bold,Times" font-weight="bold" font-size="55.3" fill="#FEFFFE" transform="matrix(1.00, 0.00, -0.00, -1.00, 733.4, 39.4)">t</text><text xml:space="preserve" font-family="Times-Bold,Times" font-weight="bold" font-size="55.3" fill="#FEFFFE" transform="matrix(1.00, 0.00, -0.00, -1.00, 751.9, 39.4)">c</text><text xml:space="preserve" font-family="Times-Bold,Times" font-weight="bold" font-size="55.3" fill="#FEFFFE" transform="matrix(1.00, 0.00, -0.00, -1.00, 776.4, 39.4)">h</text><text xml:space="preserve" font-family="Times-Roman,Times" font-size="55.3" fill="#FEFFFE" transform="matrix(1.00, 0.00, -0.00, -1.00, 807.2, 39.4)">.</text></g></svg>