<?xml version="1.0" encoding="UTF-8" standalone="no"?><svg xmlns="http://www.w3.org/2000/svg" xmlns:xlink="http://www.w3.org/1999/xlink" clip-rule="evenodd" stroke-miterlimit="10" viewBox="0 0 380 81"><desc>SVG generated by Keynote</desc><defs></defs><g transform="matrix(1.00, 0.00, -0.00, -1.00, 0.0, 81.0)"><text xml:space="preserve" font-family="Times-Bold,Times" font-weight="bold" font-size="37.0" fill="#C82505" transform="matrix(1.00, 0.00, -0.00, -1.00, 0.2, 53.9)">C</text><text xml:space="preserve" font-family="Times-Bold,Times" font-weight="bold" font-size="37.0" fill="#C82505" transform="matrix(1.00, 0.00, -0.00, -1.00, 26.9, 53.9)">l</text><text xml:space="preserve" font-family="Times-Bold,Times" font-weight="bold" font-size="37.0" fill="#C82505" transform="matrix(1.00, 0.00, -0.00, -1.00, 37.2, 53.9)">o</text><text xml:space="preserve" font-family="Times-Bold,Times" font-weight="bold" font-size="37.0" fill="#C82505" transform="matrix(1.00, 0.00, -0.00, -1.00, 55.7, 53.9)">s</text><text xml:space="preserve" font-family="Times-Bold,Times" font-weight="bold" font-size="37.0" fill="#C82505" transform="matrix(1.00, 0.00, -0.00, -1.00, 70.1, 53.9)">e</text><text xml:space="preserve" font-family="Times-Bold,Times" font-weight="bold" font-size="37.0" fill="#C82505" transform="matrix(1.00, 0.00, -0.00, -1.00, 86.5, 53.9)">r</text><text xml:space="preserve" font-family="Times-Bold,Times" font-weight="bold" font-size="37.0" fill="#C82505" transform="matrix(1.00, 0.00, -0.00, -1.00, 102.3, 53.9)"> </text><text xml:space="preserve" font-family="Times-Bold,Times" font-weight="bold" font-size="37.0" fill="#C82505" transform="matrix(1.00, 0.00, -0.00, -1.00, 111.5, 53.9)">t</text><text xml:space="preserve" font-family="Times-Bold,Times" font-weight="bold" font-size="37.0" fill="#C82505" transform="matrix(1.00, 0.00, -0.00, -1.00, 123.9, 53.9)">o</text><text xml:space="preserve" font-family="Times-Bold,Times" font-weight="bold" font-size="37.0" fill="#C82505" transform="matrix(1.00, 0.00, -0.00, -1.00, 142.4, 53.9)"> </text><text xml:space="preserve" font-family="Times-Bold,Times" font-weight="bold" font-size="37.0" fill="#C82505" transform="matrix(1.00, 0.00, -0.00, -1.00, 151.6, 53.9)">t</text><text xml:space="preserve" font-family="Times-Bold,Times" font-weight="bold" font-size="37.0" fill="#C82505" transform="matrix(1.00, 0.00, -0.00, -1.00, 163.9, 53.9)">h</text><text xml:space="preserve" font-family="Times-Bold,Times" font-weight="bold" font-size="37.0" fill="#C82505" transform="matrix(1.00, 0.00, -0.00, -1.00, 184.5, 53.9)">e</text><text xml:space="preserve" font-family="Times-Bold,Times" font-weight="bold" font-size="37.0" fill="#C82505" transform="matrix(1.00, 0.00, -0.00, -1.00, 200.9, 53.9)"> </text><text xml:space="preserve" font-family="Times-Bold,Times" font-weight="bold" font-size="37.0" fill="#C82505" transform="matrix(1.00, 0.00, -0.00, -1.00, 210.2, 53.9)">s</text><text xml:space="preserve" font-family="Times-Bold,Times" font-weight="bold" font-size="37.0" fill="#C82505" transform="matrix(1.00, 0.00, -0.00, -1.00, 224.6, 53.9)">i</text><text xml:space="preserve" font-family="Times-Bold,Times" font-weight="bold" font-size="37.0" fill="#C82505" transform="matrix(1.00, 0.00, -0.00, -1.00, 234.9, 53.9)">d</text><text xml:space="preserve" font-family="Times-Bold,Times" font-weight="bold" font-size="37.0" fill="#C82505" transform="matrix(1.00, 0.00, -0.00, -1.00, 255.4, 53.9)">e</text><text xml:space="preserve" font-family="Times-Bold,Times" font-weight="bold" font-size="37.0" fill="#C82505" transform="matrix(1.00, 0.00, -0.00, -1.00, 271.9, 53.9)"> </text><text xml:space="preserve" font-family="Times-Bold,Times" font-weight="bold" font-size="37.0" fill="#C82505" transform="matrix(1.00, 0.00, -0.00, -1.00, 281.1, 53.9)">e</text><text xml:space="preserve" font-family="Times-Bold,Times" font-weight="bold" font-size="37.0" fill="#C82505" transform="matrix(1.00, 0.00, -0.00, -1.00, 297.5, 53.9)">d</text><text xml:space="preserve" font-family="Times-Bold,Times" font-weight="bold" font-size="37.0" fill="#C82505" transform="matrix(1.00, 0.00, -0.00, -1.00, 318.1, 53.9)">g</text><text xml:space="preserve" font-family="Times-Bold,Times" font-weight="bold" font-size="37.0" fill="#C82505" transform="matrix(1.00, 0.00, -0.00, -1.00, 336.6, 53.9)">e</text><text xml:space="preserve" font-family="Times-Bold,Times" font-weight="bold" font-size="37.0" fill="#C82505" transform="matrix(1.00, 0.00, -0.00, -1.00, 353.0, 53.9)">s</text><text xml:space="preserve" font-family="Times-Bold,Times" font-weight="bold" font-size="37.0" fill="#C82505" transform="matrix(1.00, 0.00, -0.00, -1.00, 367.4, 53.9)">,</text><text xml:space="preserve" font-family="Times-Bold,Times" font-weight="bold" font-size="37.0" fill="#C82505" transform="matrix(1.00, 0.00, -0.00, -1.00, 376.7, 53.9)">	</text><text xml:space="preserve" font-family="Times-Bold,Times" font-weight="bold" font-size="37.0" fill="#C82505" transform="matrix(1.00, 0.00, -0.00, -1.00, 404.7, 53.9)">
</text><text xml:space="preserve" font-family="Times-Bold,Times" font-weight="bold" font-size="37.0" fill="#C82505" transform="matrix(1.00, 0.00, -0.00, -1.00, 404.7, 53.9)"></text><text xml:space="preserve" font-family="Times-Bold,Times" font-weight="bold" font-size="37.0" fill="#C82505" transform="matrix(1.00, 0.00, -0.00, -1.00, 8.9, 9.9)">t</text><text xml:space="preserve" font-family="Times-Bold,Times" font-weight="bold" font-size="37.0" fill="#C82505" transform="matrix(1.00, 0.00, -0.00, -1.00, 21.2, 9.9)">h</text><text xml:space="preserve" font-family="Times-Bold,Times" font-weight="bold" font-size="37.0" fill="#C82505" transform="matrix(1.00, 0.00, -0.00, -1.00, 41.8, 9.9)">e</text><text xml:space="preserve" font-family="Times-Bold,Times" font-weight="bold" font-size="37.0" fill="#C82505" transform="matrix(1.00, 0.00, -0.00, -1.00, 58.2, 9.9)">n</text><text xml:space="preserve" font-family="Times-Bold,Times" font-weight="bold" font-size="37.0" fill="#C82505" transform="matrix(1.00, 0.00, -0.00, -1.00, 78.8, 9.9)"> </text><text xml:space="preserve" font-family="Times-Bold,Times" font-weight="bold" font-size="37.0" fill="#C82505" transform="matrix(1.00, 0.00, -0.00, -1.00, 88.1, 9.9)">b</text><text xml:space="preserve" font-family="Times-Bold,Times" font-weight="bold" font-size="37.0" fill="#C82505" transform="matrix(1.00, 0.00, -0.00, -1.00, 108.7, 9.9)">r</text><text xml:space="preserve" font-family="Times-Bold,Times" font-weight="bold" font-size="37.0" fill="#C82505" transform="matrix(1.00, 0.00, -0.00, -1.00, 125.1, 9.9)">i</text><text xml:space="preserve" font-family="Times-Bold,Times" font-weight="bold" font-size="37.0" fill="#C82505" transform="matrix(1.00, 0.00, -0.00, -1.00, 135.3, 9.9)">g</text><text xml:space="preserve" font-family="Times-Bold,Times" font-weight="bold" font-size="37.0" fill="#C82505" transform="matrix(1.00, 0.00, -0.00, -1.00, 153.8, 9.9)">h</text><text xml:space="preserve" font-family="Times-Bold,Times" font-weight="bold" font-size="37.0" fill="#C82505" transform="matrix(1.00, 0.00, -0.00, -1.00, 174.4, 9.9)">t</text><text xml:space="preserve" font-family="Times-Bold,Times" font-weight="bold" font-size="37.0" fill="#C82505" transform="matrix(1.00, 0.00, -0.00, -1.00, 186.8, 9.9)">e</text><text xml:space="preserve" font-family="Times-Bold,Times" font-weight="bold" font-size="37.0" fill="#C82505" transform="matrix(1.00, 0.00, -0.00, -1.00, 203.2, 9.9)">r</text><text xml:space="preserve" font-family="Times-Bold,Times" font-weight="bold" font-size="37.0" fill="#C82505" transform="matrix(1.00, 0.00, -0.00, -1.00, 218.9, 9.9)"> </text><text xml:space="preserve" font-family="Times-Bold,Times" font-weight="bold" font-size="37.0" fill="#C82505" transform="matrix(1.00, 0.00, -0.00, -1.00, 228.2, 9.9)">t</text><text xml:space="preserve" font-family="Times-Bold,Times" font-weight="bold" font-size="37.0" fill="#C82505" transform="matrix(1.00, 0.00, -0.00, -1.00, 240.5, 9.9)">h</text><text xml:space="preserve" font-family="Times-Bold,Times" font-weight="bold" font-size="37.0" fill="#C82505" transform="matrix(1.00, 0.00, -0.00, -1.00, 261.1, 9.9)">e</text><text xml:space="preserve" font-family="Times-Bold,Times" font-weight="bold" font-size="37.0" fill="#C82505" transform="matrix(1.00, 0.00, -0.00, -1.00, 277.5, 9.9)"> </text><text xml:space="preserve" font-family="Times-Bold,Times" font-weight="bold" font-size="37.0" fill="#C82505" transform="matrix(1.00, 0.00, -0.00, -1.00, 286.8, 9.9)">l</text><text xml:space="preserve" font-family="Times-Bold,Times" font-weight="bold" font-size="37.0" fill="#C82505" transform="matrix(1.00, 0.00, -0.00, -1.00, 297.0, 9.9)">i</text><text xml:space="preserve" font-family="Times-Bold,Times" font-weight="bold" font-size="37.0" fill="#C82505" transform="matrix(1.00, 0.00, -0.00, -1.00, 307.3, 9.9)">g</text><text xml:space="preserve" font-family="Times-Bold,Times" font-weight="bold" font-size="37.0" fill="#C82505" transform="matrix(1.00, 0.00, -0.00, -1.00, 325.8, 9.9)">h</text><text xml:space="preserve" font-family="Times-Bold,Times" font-weight="bold" font-size="37.0" fill="#C82505" transform="matrix(1.00, 0.00, -0.00, -1.00, 346.4, 9.9)">t</text><text xml:space="preserve" font-family="Times-Bold,Times" font-weight="bold" font-size="37.0" fill="#C82505" transform="matrix(1.00, 0.00, -0.00, -1.00, 358.7, 9.9)">.</text></g></svg>