<?xml version="1.0" encoding="UTF-8" standalone="no"?><svg xmlns="http://www.w3.org/2000/svg" xmlns:xlink="http://www.w3.org/1999/xlink" clip-rule="evenodd" stroke-miterlimit="10" viewBox="0 0 316 45"><desc>SVG generated by Keynote</desc><defs></defs><g transform="matrix(1.00, 0.00, -0.00, -1.00, 0.0, 45.0)"><text xml:space="preserve" font-family="Times-Bold,Times" font-weight="bold" font-size="45.5" fill="#000000" transform="matrix(1.00, 0.00, -0.00, -1.00, 0.6, 11.1)">S</text><text xml:space="preserve" font-family="Times-Bold,Times" font-weight="bold" font-size="45.5" fill="#000000" transform="matrix(1.00, 0.00, -0.00, -1.00, 25.9, 11.1)">a</text><text xml:space="preserve" font-family="Times-Bold,Times" font-weight="bold" font-size="45.5" fill="#000000" transform="matrix(1.00, 0.00, -0.00, -1.00, 48.7, 11.1)">m</text><text xml:space="preserve" font-family="Times-Bold,Times" font-weight="bold" font-size="45.5" fill="#000000" transform="matrix(1.00, 0.00, -0.00, -1.00, 86.6, 11.1)">p</text><text xml:space="preserve" font-family="Times-Bold,Times" font-weight="bold" font-size="45.5" fill="#000000" transform="matrix(1.00, 0.00, -0.00, -1.00, 112.0, 11.1)">l</text><text xml:space="preserve" font-family="Times-Bold,Times" font-weight="bold" font-size="45.5" fill="#000000" transform="matrix(1.00, 0.00, -0.00, -1.00, 124.6, 11.1)">e</text><text xml:space="preserve" font-family="Times-Bold,Times" font-weight="bold" font-size="45.5" fill="#000000" transform="matrix(1.00, 0.00, -0.00, -1.00, 144.8, 11.1)"> </text><text xml:space="preserve" font-family="Times-Bold,Times" font-weight="bold" font-size="45.5" fill="#000000" transform="matrix(1.00, 0.00, -0.00, -1.00, 153.7, 11.1)">A</text><text xml:space="preserve" font-family="Times-Bold,Times" font-weight="bold" font-size="45.5" fill="#000000" transform="matrix(1.00, 0.00, -0.00, -1.00, 186.6, 11.1)">n</text><text xml:space="preserve" font-family="Times-Bold,Times" font-weight="bold" font-size="45.5" fill="#000000" transform="matrix(1.00, 0.00, -0.00, -1.00, 212.0, 11.1)">s</text><text xml:space="preserve" font-family="Times-Bold,Times" font-weight="bold" font-size="45.5" fill="#000000" transform="matrix(1.00, 0.00, -0.00, -1.00, 229.7, 11.1)">w</text><text xml:space="preserve" font-family="Times-Bold,Times" font-weight="bold" font-size="45.5" fill="#000000" transform="matrix(1.00, 0.00, -0.00, -1.00, 262.6, 11.1)">e</text><text xml:space="preserve" font-family="Times-Bold,Times" font-weight="bold" font-size="45.5" fill="#000000" transform="matrix(1.00, 0.00, -0.00, -1.00, 282.8, 11.1)">r</text><text xml:space="preserve" font-family="Times-Bold,Times" font-weight="bold" font-size="45.5" fill="#000000" transform="matrix(1.00, 0.00, -0.00, -1.00, 303.0, 11.1)">:</text></g></svg>