<?xml version="1.0" encoding="UTF-8" standalone="no"?><svg xmlns="http://www.w3.org/2000/svg" xmlns:xlink="http://www.w3.org/1999/xlink" clip-rule="evenodd" stroke-miterlimit="10" viewBox="0 0 491 37"><desc>SVG generated by Keynote</desc><defs></defs><g transform="matrix(1.00, 0.00, -0.00, -1.00, 0.0, 37.0)"><text xml:space="preserve" font-family="Times-Roman,Times" font-size="37.0" fill="#FEFFFE" transform="matrix(1.00, 0.00, -0.00, -1.00, 1.3, 9.6)">C</text><text xml:space="preserve" font-family="Times-Roman,Times" font-size="37.0" fill="#FEFFFE" transform="matrix(1.00, 0.00, -0.00, -1.00, 25.9, 9.6)">o</text><text xml:space="preserve" font-family="Times-Roman,Times" font-size="37.0" fill="#FEFFFE" transform="matrix(1.00, 0.00, -0.00, -1.00, 44.4, 9.6)">n</text><text xml:space="preserve" font-family="Times-Roman,Times" font-size="37.0" fill="#FEFFFE" transform="matrix(1.00, 0.00, -0.00, -1.00, 62.9, 9.6)">t</text><text xml:space="preserve" font-family="Times-Roman,Times" font-size="37.0" fill="#FEFFFE" transform="matrix(1.00, 0.00, -0.00, -1.00, 73.2, 9.6)">r</text><text xml:space="preserve" font-family="Times-Roman,Times" font-size="37.0" fill="#FEFFFE" transform="matrix(1.00, 0.00, -0.00, -1.00, 85.5, 9.6)">o</text><text xml:space="preserve" font-family="Times-Roman,Times" font-size="37.0" fill="#FEFFFE" transform="matrix(1.00, 0.00, -0.00, -1.00, 104.0, 9.6)">l</text><text xml:space="preserve" font-family="Times-Roman,Times" font-size="37.0" fill="#FEFFFE" transform="matrix(1.00, 0.00, -0.00, -1.00, 114.3, 9.6)"> </text><text xml:space="preserve" font-family="Times-Roman,Times" font-size="37.0" fill="#FEFFFE" transform="matrix(1.00, 0.00, -0.00, -1.00, 123.6, 9.6)">L</text><text xml:space="preserve" font-family="Times-Roman,Times" font-size="37.0" fill="#FEFFFE" transform="matrix(1.00, 0.00, -0.00, -1.00, 146.2, 9.6)">E</text><text xml:space="preserve" font-family="Times-Roman,Times" font-size="37.0" fill="#FEFFFE" transform="matrix(1.00, 0.00, -0.00, -1.00, 168.7, 9.6)">D</text><text xml:space="preserve" font-family="Times-Roman,Times" font-size="37.0" fill="#FEFFFE" transform="matrix(1.00, 0.00, -0.00, -1.00, 195.5, 9.6)"> </text><text xml:space="preserve" font-family="Times-Roman,Times" font-size="37.0" fill="#FEFFFE" transform="matrix(1.00, 0.00, -0.00, -1.00, 204.7, 9.6)">w</text><text xml:space="preserve" font-family="Times-Roman,Times" font-size="37.0" fill="#FEFFFE" transform="matrix(1.00, 0.00, -0.00, -1.00, 231.5, 9.6)">i</text><text xml:space="preserve" font-family="Times-Roman,Times" font-size="37.0" fill="#FEFFFE" transform="matrix(1.00, 0.00, -0.00, -1.00, 241.7, 9.6)">t</text><text xml:space="preserve" font-family="Times-Roman,Times" font-size="37.0" fill="#FEFFFE" transform="matrix(1.00, 0.00, -0.00, -1.00, 252.0, 9.6)">h</text><text xml:space="preserve" font-family="Times-Roman,Times" font-size="37.0" fill="#FEFFFE" transform="matrix(1.00, 0.00, -0.00, -1.00, 270.5, 9.6)"> </text><text xml:space="preserve" font-family="Times-Bold,Times" font-weight="bold" font-size="37.0" fill="#FEFFFE" transform="matrix(1.00, 0.00, -0.00, -1.00, 279.8, 9.6)">R</text><text xml:space="preserve" font-family="Times-Bold,Times" font-weight="bold" font-size="37.0" fill="#FEFFFE" transform="matrix(1.00, 0.00, -0.00, -1.00, 306.5, 9.6)">a</text><text xml:space="preserve" font-family="Times-Bold,Times" font-weight="bold" font-size="37.0" fill="#FEFFFE" transform="matrix(1.00, 0.00, -0.00, -1.00, 325.0, 9.6)">s</text><text xml:space="preserve" font-family="Times-Bold,Times" font-weight="bold" font-size="37.0" fill="#FEFFFE" transform="matrix(1.00, 0.00, -0.00, -1.00, 339.4, 9.6)">p</text><text xml:space="preserve" font-family="Times-Bold,Times" font-weight="bold" font-size="37.0" fill="#FEFFFE" transform="matrix(1.00, 0.00, -0.00, -1.00, 360.0, 9.6)">b</text><text xml:space="preserve" font-family="Times-Bold,Times" font-weight="bold" font-size="37.0" fill="#FEFFFE" transform="matrix(1.00, 0.00, -0.00, -1.00, 380.6, 9.6)">e</text><text xml:space="preserve" font-family="Times-Bold,Times" font-weight="bold" font-size="37.0" fill="#FEFFFE" transform="matrix(1.00, 0.00, -0.00, -1.00, 397.0, 9.6)">r</text><text xml:space="preserve" font-family="Times-Bold,Times" font-weight="bold" font-size="37.0" fill="#FEFFFE" transform="matrix(1.00, 0.00, -0.00, -1.00, 413.4, 9.6)">r</text><text xml:space="preserve" font-family="Times-Bold,Times" font-weight="bold" font-size="37.0" fill="#FEFFFE" transform="matrix(1.00, 0.00, -0.00, -1.00, 429.8, 9.6)">y</text><text xml:space="preserve" font-family="Times-Bold,Times" font-weight="bold" font-size="37.0" fill="#FEFFFE" transform="matrix(1.00, 0.00, -0.00, -1.00, 448.3, 9.6)"> </text><text xml:space="preserve" font-family="Times-Bold,Times" font-weight="bold" font-size="37.0" fill="#FEFFFE" transform="matrix(1.00, 0.00, -0.00, -1.00, 457.6, 9.6)">P</text><text xml:space="preserve" font-family="Times-Bold,Times" font-weight="bold" font-size="37.0" fill="#FEFFFE" transform="matrix(1.00, 0.00, -0.00, -1.00, 480.2, 9.6)">i</text></g></svg>