<?xml version="1.0" encoding="UTF-8" standalone="no"?><svg xmlns="http://www.w3.org/2000/svg" xmlns:xlink="http://www.w3.org/1999/xlink" clip-rule="evenodd" stroke-miterlimit="10" viewBox="0 0 501 41"><desc>SVG generated by Keynote</desc><defs></defs><g transform="matrix(1.00, 0.00, -0.00, -1.00, 0.0, 41.0)"><text xml:space="preserve" font-family="Times-Roman,Times" font-size="41.0" fill="#FEFFFE" transform="matrix(1.00, 0.00, -0.00, -1.00, 1.0, 10.6)">M</text><text xml:space="preserve" font-family="Times-Roman,Times" font-size="41.0" fill="#FEFFFE" transform="matrix(1.00, 0.00, -0.00, -1.00, 37.4, 10.6)">a</text><text xml:space="preserve" font-family="Times-Roman,Times" font-size="41.0" fill="#FEFFFE" transform="matrix(1.00, 0.00, -0.00, -1.00, 55.6, 10.6)">k</text><text xml:space="preserve" font-family="Times-Roman,Times" font-size="41.0" fill="#FEFFFE" transform="matrix(1.00, 0.00, -0.00, -1.00, 76.1, 10.6)">e</text><text xml:space="preserve" font-family="Times-Roman,Times" font-size="41.0" fill="#FEFFFE" transform="matrix(1.00, 0.00, -0.00, -1.00, 94.3, 10.6)"> </text><text xml:space="preserve" font-family="Times-Roman,Times" font-size="41.0" fill="#FEFFFE" transform="matrix(1.00, 0.00, -0.00, -1.00, 104.6, 10.6)">a</text><text xml:space="preserve" font-family="Times-Roman,Times" font-size="41.0" fill="#FEFFFE" transform="matrix(1.00, 0.00, -0.00, -1.00, 122.7, 10.6)"> </text><text xml:space="preserve" font-family="Times-Roman,Times" font-size="41.0" fill="#FEFFFE" transform="matrix(1.00, 0.00, -0.00, -1.00, 133.0, 10.6)">p</text><text xml:space="preserve" font-family="Times-Roman,Times" font-size="41.0" fill="#FEFFFE" transform="matrix(1.00, 0.00, -0.00, -1.00, 153.5, 10.6)">r</text><text xml:space="preserve" font-family="Times-Roman,Times" font-size="41.0" fill="#FEFFFE" transform="matrix(1.00, 0.00, -0.00, -1.00, 167.1, 10.6)">o</text><text xml:space="preserve" font-family="Times-Roman,Times" font-size="41.0" fill="#FEFFFE" transform="matrix(1.00, 0.00, -0.00, -1.00, 187.6, 10.6)">g</text><text xml:space="preserve" font-family="Times-Roman,Times" font-size="41.0" fill="#FEFFFE" transform="matrix(1.00, 0.00, -0.00, -1.00, 208.1, 10.6)">r</text><text xml:space="preserve" font-family="Times-Roman,Times" font-size="41.0" fill="#FEFFFE" transform="matrix(1.00, 0.00, -0.00, -1.00, 221.8, 10.6)">a</text><text xml:space="preserve" font-family="Times-Roman,Times" font-size="41.0" fill="#FEFFFE" transform="matrix(1.00, 0.00, -0.00, -1.00, 240.0, 10.6)">m</text><text xml:space="preserve" font-family="Times-Roman,Times" font-size="41.0" fill="#FEFFFE" transform="matrix(1.00, 0.00, -0.00, -1.00, 271.9, 10.6)"> </text><text xml:space="preserve" font-family="Times-Roman,Times" font-size="41.0" fill="#FEFFFE" transform="matrix(1.00, 0.00, -0.00, -1.00, 282.1, 10.6)">w</text><text xml:space="preserve" font-family="Times-Roman,Times" font-size="41.0" fill="#FEFFFE" transform="matrix(1.00, 0.00, -0.00, -1.00, 311.7, 10.6)">i</text><text xml:space="preserve" font-family="Times-Roman,Times" font-size="41.0" fill="#FEFFFE" transform="matrix(1.00, 0.00, -0.00, -1.00, 323.1, 10.6)">t</text><text xml:space="preserve" font-family="Times-Roman,Times" font-size="41.0" fill="#FEFFFE" transform="matrix(1.00, 0.00, -0.00, -1.00, 334.5, 10.6)">h</text><text xml:space="preserve" font-family="Times-Roman,Times" font-size="41.0" fill="#FEFFFE" transform="matrix(1.00, 0.00, -0.00, -1.00, 355.0, 10.6)"> </text><text xml:space="preserve" font-family="Times-Bold,Times" font-weight="bold" font-size="41.0" fill="#FEFFFE" transform="matrix(1.00, 0.00, -0.00, -1.00, 365.3, 10.6)">S</text><text xml:space="preserve" font-family="Times-Bold,Times" font-weight="bold" font-size="41.0" fill="#FEFFFE" transform="matrix(1.00, 0.00, -0.00, -1.00, 388.1, 10.6)">c</text><text xml:space="preserve" font-family="Times-Bold,Times" font-weight="bold" font-size="41.0" fill="#FEFFFE" transform="matrix(1.00, 0.00, -0.00, -1.00, 406.3, 10.6)">r</text><text xml:space="preserve" font-family="Times-Bold,Times" font-weight="bold" font-size="41.0" fill="#FEFFFE" transform="matrix(1.00, 0.00, -0.00, -1.00, 424.5, 10.6)">a</text><text xml:space="preserve" font-family="Times-Bold,Times" font-weight="bold" font-size="41.0" fill="#FEFFFE" transform="matrix(1.00, 0.00, -0.00, -1.00, 445.0, 10.6)">t</text><text xml:space="preserve" font-family="Times-Bold,Times" font-weight="bold" font-size="41.0" fill="#FEFFFE" transform="matrix(1.00, 0.00, -0.00, -1.00, 458.6, 10.6)">c</text><text xml:space="preserve" font-family="Times-Bold,Times" font-weight="bold" font-size="41.0" fill="#FEFFFE" transform="matrix(1.00, 0.00, -0.00, -1.00, 476.8, 10.6)">h</text></g></svg>