<?xml version="1.0" encoding="UTF-8" standalone="no"?><svg xmlns="http://www.w3.org/2000/svg" xmlns:xlink="http://www.w3.org/1999/xlink" clip-rule="evenodd" stroke-miterlimit="10" viewBox="0 0 1024 768"><desc>SVG generated by Keynote</desc><defs></defs><g transform="matrix(1.00, 0.00, -0.00, -1.00, 0.0, 768.0)"><path d="M 0.0 768.0 L 1024.0 768.0 L 1024.0 0.0 L 0.0 0.0 Z M 0.0 768.0 " fill="#FEFFFF"></path><image xlink:href="../../8521FAAA-217C-4C04-BA7F-5F022F0530AC/assets/E0EB44B5AB3567064EEFA1508D7555BF.png" width="554.00" height="370.00" transform="matrix(1.00, 0.00, -0.00, -1.00, 438.8, 347.1)" opacity="0.70"></image><image xlink:href="../../8521FAAA-217C-4C04-BA7F-5F022F0530AC/assets/AC0FD1E4431A03AE066BA4C9310784BD.png" width="664.00" height="426.00" transform="matrix(0.77, 0.00, -0.00, -0.77, 458.8, 337.1)"></image><image xlink:href="../../92714DC3-65B9-4F5A-8D96-6AF6C21812F9/assets/F355C6980ADF62949F1B8812F2F8D727.png" width="599.00" height="315.00" transform="matrix(1.00, 0.00, -0.00, -1.00, -0.3, 638.6)" opacity="0.70"></image><image xlink:href="../../92714DC3-65B9-4F5A-8D96-6AF6C21812F9/assets/B87B6B131DE5BF6AA54D80E016AB6E7F.png" width="1612.00" height="792.00" transform="matrix(0.35, 0.00, -0.00, -0.35, 19.7, 628.6)"></image><text xml:space="preserve" font-family="Times-Bold,Times" font-weight="bold" font-size="102.0" fill="#000000" transform="matrix(1.00, 0.00, -0.00, -1.00, 296.7, 663.8)">S</text><text xml:space="preserve" font-family="Times-Bold,Times" font-weight="bold" font-size="102.0" fill="#000000" transform="matrix(1.00, 0.00, -0.00, -1.00, 353.4, 663.8)">u</text><text xml:space="preserve" font-family="Times-Bold,Times" font-weight="bold" font-size="102.0" fill="#000000" transform="matrix(1.00, 0.00, -0.00, -1.00, 410.2, 663.8)">m</text><text xml:space="preserve" font-family="Times-Bold,Times" font-weight="bold" font-size="102.0" fill="#000000" transform="matrix(1.00, 0.00, -0.00, -1.00, 495.1, 663.8)">m</text><text xml:space="preserve" font-family="Times-Bold,Times" font-weight="bold" font-size="102.0" fill="#000000" transform="matrix(1.00, 0.00, -0.00, -1.00, 580.1, 663.8)">a</text><text xml:space="preserve" font-family="Times-Bold,Times" font-weight="bold" font-size="102.0" fill="#000000" transform="matrix(1.00, 0.00, -0.00, -1.00, 631.1, 663.8)">r</text><text xml:space="preserve" font-family="Times-Bold,Times" font-weight="bold" font-size="102.0" fill="#000000" transform="matrix(1.00, 0.00, -0.00, -1.00, 676.4, 663.8)">y</text><g opacity="0.69"><g><clipPath id="clip0x600000aa0420"><path d="M 26.0 347.0 L 573.0 347.0 L 573.0 418.0 L 26.0 418.0 Z M 26.0 347.0 "></path></clipPath><g clip-path="url(#clip0x600000aa0420)"><image xlink:href="../../92714DC3-65B9-4F5A-8D96-6AF6C21812F9/assets/3D49DD974D4D463B1BD8E1D85C8E7178.png" width="545.00" height="64.00" transform="matrix(1.00, 0.00, -0.00, -1.00, 27.0, 412.9)" opacity="0.50"></image><path d="M 30.0 367.7 L 30.0 397.9 C 30.0 405.6 36.3 412.0 44.0 412.0 L 554.6 412.0 C 562.3 412.0 569.0 405.6 569.0 397.9 L 569.0 367.7 C 569.0 360.0 562.3 354.0 554.6 354.0 L 44.0 354.0 C 36.3 354.0 30.0 360.0 30.0 367.7 Z M 30.0 367.7 " fill="#000000"></path></g></g></g><text xml:space="preserve" font-family="Times-Roman,Times" font-size="41.0" fill="#FEFFFE" transform="matrix(1.00, 0.00, -0.00, -1.00, 50.0, 369.6)">M</text><text xml:space="preserve" font-family="Times-Roman,Times" font-size="41.0" fill="#FEFFFE" transform="matrix(1.00, 0.00, -0.00, -1.00, 86.4, 369.6)">a</text><text xml:space="preserve" font-family="Times-Roman,Times" font-size="41.0" fill="#FEFFFE" transform="matrix(1.00, 0.00, -0.00, -1.00, 104.6, 369.6)">k</text><text xml:space="preserve" font-family="Times-Roman,Times" font-size="41.0" fill="#FEFFFE" transform="matrix(1.00, 0.00, -0.00, -1.00, 125.1, 369.6)">e</text><text xml:space="preserve" font-family="Times-Roman,Times" font-size="41.0" fill="#FEFFFE" transform="matrix(1.00, 0.00, -0.00, -1.00, 143.3, 369.6)"> </text><text xml:space="preserve" font-family="Times-Roman,Times" font-size="41.0" fill="#FEFFFE" transform="matrix(1.00, 0.00, -0.00, -1.00, 153.6, 369.6)">a</text><text xml:space="preserve" font-family="Times-Roman,Times" font-size="41.0" fill="#FEFFFE" transform="matrix(1.00, 0.00, -0.00, -1.00, 171.7, 369.6)"> </text><text xml:space="preserve" font-family="Times-Roman,Times" font-size="41.0" fill="#FEFFFE" transform="matrix(1.00, 0.00, -0.00, -1.00, 182.0, 369.6)">p</text><text xml:space="preserve" font-family="Times-Roman,Times" font-size="41.0" fill="#FEFFFE" transform="matrix(1.00, 0.00, -0.00, -1.00, 202.5, 369.6)">r</text><text xml:space="preserve" font-family="Times-Roman,Times" font-size="41.0" fill="#FEFFFE" transform="matrix(1.00, 0.00, -0.00, -1.00, 216.1, 369.6)">o</text><text xml:space="preserve" font-family="Times-Roman,Times" font-size="41.0" fill="#FEFFFE" transform="matrix(1.00, 0.00, -0.00, -1.00, 236.6, 369.6)">g</text><text xml:space="preserve" font-family="Times-Roman,Times" font-size="41.0" fill="#FEFFFE" transform="matrix(1.00, 0.00, -0.00, -1.00, 257.1, 369.6)">r</text><text xml:space="preserve" font-family="Times-Roman,Times" font-size="41.0" fill="#FEFFFE" transform="matrix(1.00, 0.00, -0.00, -1.00, 270.8, 369.6)">a</text><text xml:space="preserve" font-family="Times-Roman,Times" font-size="41.0" fill="#FEFFFE" transform="matrix(1.00, 0.00, -0.00, -1.00, 289.0, 369.6)">m</text><text xml:space="preserve" font-family="Times-Roman,Times" font-size="41.0" fill="#FEFFFE" transform="matrix(1.00, 0.00, -0.00, -1.00, 320.9, 369.6)"> </text><text xml:space="preserve" font-family="Times-Roman,Times" font-size="41.0" fill="#FEFFFE" transform="matrix(1.00, 0.00, -0.00, -1.00, 331.1, 369.6)">w</text><text xml:space="preserve" font-family="Times-Roman,Times" font-size="41.0" fill="#FEFFFE" transform="matrix(1.00, 0.00, -0.00, -1.00, 360.7, 369.6)">i</text><text xml:space="preserve" font-family="Times-Roman,Times" font-size="41.0" fill="#FEFFFE" transform="matrix(1.00, 0.00, -0.00, -1.00, 372.1, 369.6)">t</text><text xml:space="preserve" font-family="Times-Roman,Times" font-size="41.0" fill="#FEFFFE" transform="matrix(1.00, 0.00, -0.00, -1.00, 383.5, 369.6)">h</text><text xml:space="preserve" font-family="Times-Roman,Times" font-size="41.0" fill="#FEFFFE" transform="matrix(1.00, 0.00, -0.00, -1.00, 404.0, 369.6)"> </text><text xml:space="preserve" font-family="Times-Bold,Times" font-weight="bold" font-size="41.0" fill="#FEFFFE" transform="matrix(1.00, 0.00, -0.00, -1.00, 414.3, 369.6)">S</text><text xml:space="preserve" font-family="Times-Bold,Times" font-weight="bold" font-size="41.0" fill="#FEFFFE" transform="matrix(1.00, 0.00, -0.00, -1.00, 437.1, 369.6)">c</text><text xml:space="preserve" font-family="Times-Bold,Times" font-weight="bold" font-size="41.0" fill="#FEFFFE" transform="matrix(1.00, 0.00, -0.00, -1.00, 455.3, 369.6)">r</text><text xml:space="preserve" font-family="Times-Bold,Times" font-weight="bold" font-size="41.0" fill="#FEFFFE" transform="matrix(1.00, 0.00, -0.00, -1.00, 473.5, 369.6)">a</text><text xml:space="preserve" font-family="Times-Bold,Times" font-weight="bold" font-size="41.0" fill="#FEFFFE" transform="matrix(1.00, 0.00, -0.00, -1.00, 494.0, 369.6)">t</text><text xml:space="preserve" font-family="Times-Bold,Times" font-weight="bold" font-size="41.0" fill="#FEFFFE" transform="matrix(1.00, 0.00, -0.00, -1.00, 507.6, 369.6)">c</text><text xml:space="preserve" font-family="Times-Bold,Times" font-weight="bold" font-size="41.0" fill="#FEFFFE" transform="matrix(1.00, 0.00, -0.00, -1.00, 525.8, 369.6)">h</text><g opacity="0.69"><g><clipPath id="clip0x600000aa1260"><path d="M 455.0 5.0 L 980.0 5.0 L 980.0 76.0 L 455.0 76.0 Z M 455.0 5.0 "></path></clipPath><g clip-path="url(#clip0x600000aa1260)"><image xlink:href="../../8521FAAA-217C-4C04-BA7F-5F022F0530AC/assets/28360C7DE3B58B29D4FFC205AFE13A5C.png" width="522.00" height="64.00" transform="matrix(1.00, 0.00, -0.00, -1.00, 456.7, 70.4)" opacity="0.50"></image><path d="M 459.7 27.8 L 460.0 52.9 C 460.0 62.0 467.1 69.0 476.2 69.0 L 959.2 69.0 C 968.3 69.0 976.0 62.0 976.0 52.9 L 976.0 27.8 C 976.0 18.6 968.3 11.0 959.2 11.0 L 476.2 11.0 C 467.1 11.0 459.7 18.6 459.7 27.8 Z M 459.7 27.8 " fill="#000000"></path></g></g></g><text xml:space="preserve" font-family="Times-Roman,Times" font-size="37.0" fill="#FEFFFE" transform="matrix(1.00, 0.00, -0.00, -1.00, 477.3, 27.6)">C</text><text xml:space="preserve" font-family="Times-Roman,Times" font-size="37.0" fill="#FEFFFE" transform="matrix(1.00, 0.00, -0.00, -1.00, 501.9, 27.6)">o</text><text xml:space="preserve" font-family="Times-Roman,Times" font-size="37.0" fill="#FEFFFE" transform="matrix(1.00, 0.00, -0.00, -1.00, 520.4, 27.6)">n</text><text xml:space="preserve" font-family="Times-Roman,Times" font-size="37.0" fill="#FEFFFE" transform="matrix(1.00, 0.00, -0.00, -1.00, 538.9, 27.6)">t</text><text xml:space="preserve" font-family="Times-Roman,Times" font-size="37.0" fill="#FEFFFE" transform="matrix(1.00, 0.00, -0.00, -1.00, 549.2, 27.6)">r</text><text xml:space="preserve" font-family="Times-Roman,Times" font-size="37.0" fill="#FEFFFE" transform="matrix(1.00, 0.00, -0.00, -1.00, 561.5, 27.6)">o</text><text xml:space="preserve" font-family="Times-Roman,Times" font-size="37.0" fill="#FEFFFE" transform="matrix(1.00, 0.00, -0.00, -1.00, 580.0, 27.6)">l</text><text xml:space="preserve" font-family="Times-Roman,Times" font-size="37.0" fill="#FEFFFE" transform="matrix(1.00, 0.00, -0.00, -1.00, 590.3, 27.6)"> </text><text xml:space="preserve" font-family="Times-Roman,Times" font-size="37.0" fill="#FEFFFE" transform="matrix(1.00, 0.00, -0.00, -1.00, 599.6, 27.6)">L</text><text xml:space="preserve" font-family="Times-Roman,Times" font-size="37.0" fill="#FEFFFE" transform="matrix(1.00, 0.00, -0.00, -1.00, 622.2, 27.6)">E</text><text xml:space="preserve" font-family="Times-Roman,Times" font-size="37.0" fill="#FEFFFE" transform="matrix(1.00, 0.00, -0.00, -1.00, 644.7, 27.6)">D</text><text xml:space="preserve" font-family="Times-Roman,Times" font-size="37.0" fill="#FEFFFE" transform="matrix(1.00, 0.00, -0.00, -1.00, 671.5, 27.6)"> </text><text xml:space="preserve" font-family="Times-Roman,Times" font-size="37.0" fill="#FEFFFE" transform="matrix(1.00, 0.00, -0.00, -1.00, 680.7, 27.6)">w</text><text xml:space="preserve" font-family="Times-Roman,Times" font-size="37.0" fill="#FEFFFE" transform="matrix(1.00, 0.00, -0.00, -1.00, 707.5, 27.6)">i</text><text xml:space="preserve" font-family="Times-Roman,Times" font-size="37.0" fill="#FEFFFE" transform="matrix(1.00, 0.00, -0.00, -1.00, 717.7, 27.6)">t</text><text xml:space="preserve" font-family="Times-Roman,Times" font-size="37.0" fill="#FEFFFE" transform="matrix(1.00, 0.00, -0.00, -1.00, 728.0, 27.6)">h</text><text xml:space="preserve" font-family="Times-Roman,Times" font-size="37.0" fill="#FEFFFE" transform="matrix(1.00, 0.00, -0.00, -1.00, 746.5, 27.6)"> </text><text xml:space="preserve" font-family="Times-Bold,Times" font-weight="bold" font-size="37.0" fill="#FEFFFE" transform="matrix(1.00, 0.00, -0.00, -1.00, 755.8, 27.6)">R</text><text xml:space="preserve" font-family="Times-Bold,Times" font-weight="bold" font-size="37.0" fill="#FEFFFE" transform="matrix(1.00, 0.00, -0.00, -1.00, 782.5, 27.6)">a</text><text xml:space="preserve" font-family="Times-Bold,Times" font-weight="bold" font-size="37.0" fill="#FEFFFE" transform="matrix(1.00, 0.00, -0.00, -1.00, 801.0, 27.6)">s</text><text xml:space="preserve" font-family="Times-Bold,Times" font-weight="bold" font-size="37.0" fill="#FEFFFE" transform="matrix(1.00, 0.00, -0.00, -1.00, 815.4, 27.6)">p</text><text xml:space="preserve" font-family="Times-Bold,Times" font-weight="bold" font-size="37.0" fill="#FEFFFE" transform="matrix(1.00, 0.00, -0.00, -1.00, 836.0, 27.6)">b</text><text xml:space="preserve" font-family="Times-Bold,Times" font-weight="bold" font-size="37.0" fill="#FEFFFE" transform="matrix(1.00, 0.00, -0.00, -1.00, 856.6, 27.6)">e</text><text xml:space="preserve" font-family="Times-Bold,Times" font-weight="bold" font-size="37.0" fill="#FEFFFE" transform="matrix(1.00, 0.00, -0.00, -1.00, 873.0, 27.6)">r</text><text xml:space="preserve" font-family="Times-Bold,Times" font-weight="bold" font-size="37.0" fill="#FEFFFE" transform="matrix(1.00, 0.00, -0.00, -1.00, 889.4, 27.6)">r</text><text xml:space="preserve" font-family="Times-Bold,Times" font-weight="bold" font-size="37.0" fill="#FEFFFE" transform="matrix(1.00, 0.00, -0.00, -1.00, 905.8, 27.6)">y</text><text xml:space="preserve" font-family="Times-Bold,Times" font-weight="bold" font-size="37.0" fill="#FEFFFE" transform="matrix(1.00, 0.00, -0.00, -1.00, 924.3, 27.6)"> </text><text xml:space="preserve" font-family="Times-Bold,Times" font-weight="bold" font-size="37.0" fill="#FEFFFE" transform="matrix(1.00, 0.00, -0.00, -1.00, 933.6, 27.6)">P</text><text xml:space="preserve" font-family="Times-Bold,Times" font-weight="bold" font-size="37.0" fill="#FEFFFE" transform="matrix(1.00, 0.00, -0.00, -1.00, 956.2, 27.6)">i</text></g></svg>