<?xml version="1.0" encoding="UTF-8" standalone="no"?><svg xmlns="http://www.w3.org/2000/svg" xmlns:xlink="http://www.w3.org/1999/xlink" clip-rule="evenodd" stroke-miterlimit="10" viewBox="0 0 299 43"><desc>SVG generated by Keynote</desc><defs></defs><g transform="matrix(1.00, 0.00, -0.00, -1.00, 0.0, 43.0)"><text xml:space="preserve" font-family="Times-Bold,Times" font-weight="bold" font-size="43.0" fill="#000000" transform="matrix(1.00, 0.00, -0.00, -1.00, 0.7, 10.8)">S</text><text xml:space="preserve" font-family="Times-Bold,Times" font-weight="bold" font-size="43.0" fill="#000000" transform="matrix(1.00, 0.00, -0.00, -1.00, 24.6, 10.8)">a</text><text xml:space="preserve" font-family="Times-Bold,Times" font-weight="bold" font-size="43.0" fill="#000000" transform="matrix(1.00, 0.00, -0.00, -1.00, 46.1, 10.8)">m</text><text xml:space="preserve" font-family="Times-Bold,Times" font-weight="bold" font-size="43.0" fill="#000000" transform="matrix(1.00, 0.00, -0.00, -1.00, 81.9, 10.8)">p</text><text xml:space="preserve" font-family="Times-Bold,Times" font-weight="bold" font-size="43.0" fill="#000000" transform="matrix(1.00, 0.00, -0.00, -1.00, 105.8, 10.8)">l</text><text xml:space="preserve" font-family="Times-Bold,Times" font-weight="bold" font-size="43.0" fill="#000000" transform="matrix(1.00, 0.00, -0.00, -1.00, 117.8, 10.8)">e</text><text xml:space="preserve" font-family="Times-Bold,Times" font-weight="bold" font-size="43.0" fill="#000000" transform="matrix(1.00, 0.00, -0.00, -1.00, 136.9, 10.8)"> </text><text xml:space="preserve" font-family="Times-Bold,Times" font-weight="bold" font-size="43.0" fill="#000000" transform="matrix(1.00, 0.00, -0.00, -1.00, 145.3, 10.8)">A</text><text xml:space="preserve" font-family="Times-Bold,Times" font-weight="bold" font-size="43.0" fill="#000000" transform="matrix(1.00, 0.00, -0.00, -1.00, 176.3, 10.8)">n</text><text xml:space="preserve" font-family="Times-Bold,Times" font-weight="bold" font-size="43.0" fill="#000000" transform="matrix(1.00, 0.00, -0.00, -1.00, 200.2, 10.8)">s</text><text xml:space="preserve" font-family="Times-Bold,Times" font-weight="bold" font-size="43.0" fill="#000000" transform="matrix(1.00, 0.00, -0.00, -1.00, 217.0, 10.8)">w</text><text xml:space="preserve" font-family="Times-Bold,Times" font-weight="bold" font-size="43.0" fill="#000000" transform="matrix(1.00, 0.00, -0.00, -1.00, 248.0, 10.8)">e</text><text xml:space="preserve" font-family="Times-Bold,Times" font-weight="bold" font-size="43.0" fill="#000000" transform="matrix(1.00, 0.00, -0.00, -1.00, 267.1, 10.8)">r</text><text xml:space="preserve" font-family="Times-Bold,Times" font-weight="bold" font-size="43.0" fill="#000000" transform="matrix(1.00, 0.00, -0.00, -1.00, 286.2, 10.8)">:</text></g></svg>