<?xml version="1.0" encoding="UTF-8" standalone="no"?><svg xmlns="http://www.w3.org/2000/svg" xmlns:xlink="http://www.w3.org/1999/xlink" clip-rule="evenodd" stroke-miterlimit="10" viewBox="0 0 1024 768"><desc>SVG generated by Keynote</desc><defs></defs><g transform="matrix(1.00, 0.00, -0.00, -1.00, 0.0, 768.0)"><path d="M 0.0 768.0 L 1024.0 768.0 L 1024.0 0.0 L 0.0 0.0 Z M 0.0 768.0 " fill="#FEFFFF"></path><text xml:space="preserve" font-family="Times-Roman,Times" font-size="87.4" fill="#000000" transform="matrix(1.00, 0.00, -0.00, -1.00, 16.0, 629.8)">J</text><text xml:space="preserve" font-family="Times-Roman,Times" font-size="87.4" fill="#000000" transform="matrix(1.00, 0.00, -0.00, -1.00, 50.0, 629.8)">u</text><text xml:space="preserve" font-family="Times-Roman,Times" font-size="87.4" fill="#000000" transform="matrix(1.00, 0.00, -0.00, -1.00, 93.6, 629.8)">m</text><text xml:space="preserve" font-family="Times-Roman,Times" font-size="87.4" fill="#000000" transform="matrix(1.00, 0.00, -0.00, -1.00, 161.6, 629.8)">p</text><text xml:space="preserve" font-family="Times-Roman,Times" font-size="87.4" fill="#000000" transform="matrix(1.00, 0.00, -0.00, -1.00, 205.3, 629.8)">e</text><text xml:space="preserve" font-family="Times-Roman,Times" font-size="87.4" fill="#000000" transform="matrix(1.00, 0.00, -0.00, -1.00, 244.0, 629.8)">r</text><text xml:space="preserve" font-family="Times-Roman,Times" font-size="87.4" fill="#000000" transform="matrix(1.00, 0.00, -0.00, -1.00, 273.1, 629.8)"> </text><text xml:space="preserve" font-family="Times-Roman,Times" font-size="87.4" fill="#000000" transform="matrix(1.00, 0.00, -0.00, -1.00, 293.4, 629.8)">W</text><text xml:space="preserve" font-family="Times-Roman,Times" font-size="87.4" fill="#000000" transform="matrix(1.00, 0.00, -0.00, -1.00, 372.4, 629.8)">i</text><text xml:space="preserve" font-family="Times-Roman,Times" font-size="87.4" fill="#000000" transform="matrix(1.00, 0.00, -0.00, -1.00, 396.7, 629.8)">r</text><text xml:space="preserve" font-family="Times-Roman,Times" font-size="87.4" fill="#000000" transform="matrix(1.00, 0.00, -0.00, -1.00, 425.7, 629.8)">e</text><text xml:space="preserve" font-family="Times-Roman,Times" font-size="37.6" fill="#000000" transform="matrix(1.00, 0.00, -0.00, -1.00, 22.5, 520.4)">T</text><text xml:space="preserve" font-family="Times-Roman,Times" font-size="37.6" fill="#000000" transform="matrix(1.00, 0.00, -0.00, -1.00, 45.4, 520.4)">h</text><text xml:space="preserve" font-family="Times-Roman,Times" font-size="37.6" fill="#000000" transform="matrix(1.00, 0.00, -0.00, -1.00, 64.2, 520.4)">e</text><text xml:space="preserve" font-family="Times-Roman,Times" font-size="37.6" fill="#000000" transform="matrix(1.00, 0.00, -0.00, -1.00, 80.9, 520.4)">r</text><text xml:space="preserve" font-family="Times-Roman,Times" font-size="37.6" fill="#000000" transform="matrix(1.00, 0.00, -0.00, -1.00, 93.4, 520.4)">e</text><text xml:space="preserve" font-family="Times-Roman,Times" font-size="37.6" fill="#000000" transform="matrix(1.00, 0.00, -0.00, -1.00, 110.1, 520.4)"> </text><text xml:space="preserve" font-family="Times-Roman,Times" font-size="37.6" fill="#000000" transform="matrix(1.00, 0.00, -0.00, -1.00, 119.5, 520.4)">a</text><text xml:space="preserve" font-family="Times-Roman,Times" font-size="37.6" fill="#000000" transform="matrix(1.00, 0.00, -0.00, -1.00, 136.2, 520.4)">r</text><text xml:space="preserve" font-family="Times-Roman,Times" font-size="37.6" fill="#000000" transform="matrix(1.00, 0.00, -0.00, -1.00, 148.7, 520.4)">e</text><text xml:space="preserve" font-family="Times-Roman,Times" font-size="37.6" fill="#000000" transform="matrix(1.00, 0.00, -0.00, -1.00, 165.4, 520.4)"> </text><text xml:space="preserve" font-family="Times-Roman,Times" font-size="37.6" fill="#000000" transform="matrix(1.00, 0.00, -0.00, -1.00, 174.8, 520.4)">t</text><text xml:space="preserve" font-family="Times-Roman,Times" font-size="37.6" fill="#000000" transform="matrix(1.00, 0.00, -0.00, -1.00, 185.2, 520.4)">w</text><text xml:space="preserve" font-family="Times-Roman,Times" font-size="37.6" fill="#000000" transform="matrix(1.00, 0.00, -0.00, -1.00, 212.4, 520.4)">o</text><text xml:space="preserve" font-family="Times-Roman,Times" font-size="37.6" fill="#000000" transform="matrix(1.00, 0.00, -0.00, -1.00, 231.2, 520.4)"> </text><text xml:space="preserve" font-family="Times-Roman,Times" font-size="37.6" fill="#000000" transform="matrix(1.00, 0.00, -0.00, -1.00, 240.6, 520.4)">t</text><text xml:space="preserve" font-family="Times-Roman,Times" font-size="37.6" fill="#000000" transform="matrix(1.00, 0.00, -0.00, -1.00, 251.0, 520.4)">y</text><text xml:space="preserve" font-family="Times-Roman,Times" font-size="37.6" fill="#000000" transform="matrix(1.00, 0.00, -0.00, -1.00, 269.8, 520.4)">p</text><text xml:space="preserve" font-family="Times-Roman,Times" font-size="37.6" fill="#000000" transform="matrix(1.00, 0.00, -0.00, -1.00, 288.6, 520.4)">e</text><text xml:space="preserve" font-family="Times-Roman,Times" font-size="37.6" fill="#000000" transform="matrix(1.00, 0.00, -0.00, -1.00, 305.3, 520.4)">s</text><text xml:space="preserve" font-family="Times-Roman,Times" font-size="37.6" fill="#000000" transform="matrix(1.00, 0.00, -0.00, -1.00, 320.0, 520.4)"> </text><text xml:space="preserve" font-family="Times-Roman,Times" font-size="37.6" fill="#000000" transform="matrix(1.00, 0.00, -0.00, -1.00, 329.4, 520.4)">f</text><text xml:space="preserve" font-family="Times-Roman,Times" font-size="37.6" fill="#000000" transform="matrix(1.00, 0.00, -0.00, -1.00, 341.9, 520.4)">o</text><text xml:space="preserve" font-family="Times-Roman,Times" font-size="37.6" fill="#000000" transform="matrix(1.00, 0.00, -0.00, -1.00, 360.7, 520.4)">r</text><text xml:space="preserve" font-family="Times-Roman,Times" font-size="37.6" fill="#000000" transform="matrix(1.00, 0.00, -0.00, -1.00, 373.2, 520.4)"> </text><text xml:space="preserve" font-family="Times-Roman,Times" font-size="37.6" fill="#000000" transform="matrix(1.00, 0.00, -0.00, -1.00, 22.5, 476.4)">c</text><text xml:space="preserve" font-family="Times-Roman,Times" font-size="37.6" fill="#000000" transform="matrix(1.00, 0.00, -0.00, -1.00, 39.1, 476.4)">o</text><text xml:space="preserve" font-family="Times-Roman,Times" font-size="37.6" fill="#000000" transform="matrix(1.00, 0.00, -0.00, -1.00, 57.9, 476.4)">n</text><text xml:space="preserve" font-family="Times-Roman,Times" font-size="37.6" fill="#000000" transform="matrix(1.00, 0.00, -0.00, -1.00, 76.7, 476.4)">n</text><text xml:space="preserve" font-family="Times-Roman,Times" font-size="37.6" fill="#000000" transform="matrix(1.00, 0.00, -0.00, -1.00, 95.5, 476.4)">e</text><text xml:space="preserve" font-family="Times-Roman,Times" font-size="37.6" fill="#000000" transform="matrix(1.00, 0.00, -0.00, -1.00, 112.2, 476.4)">c</text><text xml:space="preserve" font-family="Times-Roman,Times" font-size="37.6" fill="#000000" transform="matrix(1.00, 0.00, -0.00, -1.00, 128.9, 476.4)">t</text><text xml:space="preserve" font-family="Times-Roman,Times" font-size="37.6" fill="#000000" transform="matrix(1.00, 0.00, -0.00, -1.00, 139.3, 476.4)">i</text><text xml:space="preserve" font-family="Times-Roman,Times" font-size="37.6" fill="#000000" transform="matrix(1.00, 0.00, -0.00, -1.00, 149.8, 476.4)">n</text><text xml:space="preserve" font-family="Times-Roman,Times" font-size="37.6" fill="#000000" transform="matrix(1.00, 0.00, -0.00, -1.00, 168.6, 476.4)">g</text><text xml:space="preserve" font-family="Times-Roman,Times" font-size="37.6" fill="#000000" transform="matrix(1.00, 0.00, -0.00, -1.00, 187.4, 476.4)"> </text><text xml:space="preserve" font-family="Times-Roman,Times" font-size="37.6" fill="#000000" transform="matrix(1.00, 0.00, -0.00, -1.00, 196.8, 476.4)">b</text><text xml:space="preserve" font-family="Times-Roman,Times" font-size="37.6" fill="#000000" transform="matrix(1.00, 0.00, -0.00, -1.00, 215.6, 476.4)">e</text><text xml:space="preserve" font-family="Times-Roman,Times" font-size="37.6" fill="#000000" transform="matrix(1.00, 0.00, -0.00, -1.00, 232.3, 476.4)">t</text><text xml:space="preserve" font-family="Times-Roman,Times" font-size="37.6" fill="#000000" transform="matrix(1.00, 0.00, -0.00, -1.00, 242.7, 476.4)">w</text><text xml:space="preserve" font-family="Times-Roman,Times" font-size="37.6" fill="#000000" transform="matrix(1.00, 0.00, -0.00, -1.00, 269.9, 476.4)">e</text><text xml:space="preserve" font-family="Times-Roman,Times" font-size="37.6" fill="#000000" transform="matrix(1.00, 0.00, -0.00, -1.00, 286.5, 476.4)">e</text><text xml:space="preserve" font-family="Times-Roman,Times" font-size="37.6" fill="#000000" transform="matrix(1.00, 0.00, -0.00, -1.00, 303.2, 476.4)">n</text><text xml:space="preserve" font-family="Times-Roman,Times" font-size="37.6" fill="#000000" transform="matrix(1.00, 0.00, -0.00, -1.00, 322.0, 476.4)">:</text><text xml:space="preserve" font-family="Times-Roman,Times" font-size="37.6" fill="#000000" transform="matrix(1.00, 0.00, -0.00, -1.00, 332.5, 476.4)">	</text><text xml:space="preserve" font-family="Times-Roman,Times" font-size="37.6" fill="#000000" transform="matrix(1.00, 0.00, -0.00, -1.00, 360.5, 476.4)">
</text><text xml:space="preserve" font-family="Times-Roman,Times" font-size="37.6" fill="#000000" transform="matrix(1.00, 0.00, -0.00, -1.00, 360.5, 476.4)"></text><text xml:space="preserve" font-family="Times-Roman,Times" font-size="37.6" fill="#000000" transform="matrix(1.00, 0.00, -0.00, -1.00, 22.5, 365.8)">1</text><text xml:space="preserve" font-family="Times-Roman,Times" font-size="37.6" fill="#000000" transform="matrix(1.00, 0.00, -0.00, -1.00, 41.3, 365.8)">.</text><text xml:space="preserve" font-family="Times-Roman,Times" font-size="37.6" fill="#000000" transform="matrix(1.00, 0.00, -0.00, -1.00, 50.7, 365.8)"> </text><text xml:space="preserve" font-family="Times-Roman,Times" font-size="37.6" fill="#000000" transform="matrix(1.00, 0.00, -0.00, -1.00, 60.1, 365.8)">R</text><text xml:space="preserve" font-family="Times-Roman,Times" font-size="37.6" fill="#000000" transform="matrix(1.00, 0.00, -0.00, -1.00, 85.1, 365.8)">a</text><text xml:space="preserve" font-family="Times-Roman,Times" font-size="37.6" fill="#000000" transform="matrix(1.00, 0.00, -0.00, -1.00, 101.8, 365.8)">s</text><text xml:space="preserve" font-family="Times-Roman,Times" font-size="37.6" fill="#000000" transform="matrix(1.00, 0.00, -0.00, -1.00, 116.5, 365.8)">p</text><text xml:space="preserve" font-family="Times-Roman,Times" font-size="37.6" fill="#000000" transform="matrix(1.00, 0.00, -0.00, -1.00, 135.3, 365.8)">b</text><text xml:space="preserve" font-family="Times-Roman,Times" font-size="37.6" fill="#000000" transform="matrix(1.00, 0.00, -0.00, -1.00, 154.1, 365.8)">e</text><text xml:space="preserve" font-family="Times-Roman,Times" font-size="37.6" fill="#000000" transform="matrix(1.00, 0.00, -0.00, -1.00, 170.7, 365.8)">r</text><text xml:space="preserve" font-family="Times-Roman,Times" font-size="37.6" fill="#000000" transform="matrix(1.00, 0.00, -0.00, -1.00, 183.3, 365.8)">r</text><text xml:space="preserve" font-family="Times-Roman,Times" font-size="37.6" fill="#000000" transform="matrix(1.00, 0.00, -0.00, -1.00, 195.8, 365.8)">y</text><text xml:space="preserve" font-family="Times-Roman,Times" font-size="37.6" fill="#000000" transform="matrix(1.00, 0.00, -0.00, -1.00, 214.6, 365.8)"> </text><text xml:space="preserve" font-family="Times-Roman,Times" font-size="37.6" fill="#000000" transform="matrix(1.00, 0.00, -0.00, -1.00, 224.0, 365.8)">P</text><text xml:space="preserve" font-family="Times-Roman,Times" font-size="37.6" fill="#000000" transform="matrix(1.00, 0.00, -0.00, -1.00, 244.9, 365.8)">i</text><text xml:space="preserve" font-family="Times-Roman,Times" font-size="37.6" fill="#000000" transform="matrix(1.00, 0.00, -0.00, -1.00, 255.3, 365.8)"> </text><text xml:space="preserve" font-family="Times-Roman,Times" font-size="37.6" fill="#000000" transform="matrix(1.00, 0.00, -0.00, -1.00, 264.7, 365.8)">a</text><text xml:space="preserve" font-family="Times-Roman,Times" font-size="37.6" fill="#000000" transform="matrix(1.00, 0.00, -0.00, -1.00, 281.4, 365.8)">n</text><text xml:space="preserve" font-family="Times-Roman,Times" font-size="37.6" fill="#000000" transform="matrix(1.00, 0.00, -0.00, -1.00, 300.2, 365.8)">d</text><text xml:space="preserve" font-family="LucidaGrande,Lucida Grande" font-size="37.6" fill="#000000" transform="matrix(1.00, 0.00, -0.00, -1.00, 319.0, 365.8)"> </text><text xml:space="preserve" font-family="Times-Roman,Times" font-size="37.6" fill="#000000" transform="matrix(1.00, 0.00, -0.00, -1.00, 22.5, 321.8)"> </text><text xml:space="preserve" font-family="Times-Roman,Times" font-size="37.6" fill="#000000" transform="matrix(1.00, 0.00, -0.00, -1.00, 31.9, 321.8)"> </text><text xml:space="preserve" font-family="Times-Roman,Times" font-size="37.6" fill="#000000" transform="matrix(1.00, 0.00, -0.00, -1.00, 41.3, 321.8)"> </text><text xml:space="preserve" font-family="Times-Roman,Times" font-size="37.6" fill="#000000" transform="matrix(1.00, 0.00, -0.00, -1.00, 50.7, 321.8)"> </text><text xml:space="preserve" font-family="Times-Roman,Times" font-size="37.6" fill="#000000" transform="matrix(1.00, 0.00, -0.00, -1.00, 60.1, 321.8)">B</text><text xml:space="preserve" font-family="Times-Roman,Times" font-size="37.6" fill="#000000" transform="matrix(1.00, 0.00, -0.00, -1.00, 85.1, 321.8)">r</text><text xml:space="preserve" font-family="Times-Roman,Times" font-size="37.6" fill="#000000" transform="matrix(1.00, 0.00, -0.00, -1.00, 97.7, 321.8)">e</text><text xml:space="preserve" font-family="Times-Roman,Times" font-size="37.6" fill="#000000" transform="matrix(1.00, 0.00, -0.00, -1.00, 114.3, 321.8)">a</text><text xml:space="preserve" font-family="Times-Roman,Times" font-size="37.6" fill="#000000" transform="matrix(1.00, 0.00, -0.00, -1.00, 131.0, 321.8)">d</text><text xml:space="preserve" font-family="Times-Roman,Times" font-size="37.6" fill="#000000" transform="matrix(1.00, 0.00, -0.00, -1.00, 149.8, 321.8)">b</text><text xml:space="preserve" font-family="Times-Roman,Times" font-size="37.6" fill="#000000" transform="matrix(1.00, 0.00, -0.00, -1.00, 168.6, 321.8)">o</text><text xml:space="preserve" font-family="Times-Roman,Times" font-size="37.6" fill="#000000" transform="matrix(1.00, 0.00, -0.00, -1.00, 187.4, 321.8)">a</text><text xml:space="preserve" font-family="Times-Roman,Times" font-size="37.6" fill="#000000" transform="matrix(1.00, 0.00, -0.00, -1.00, 204.1, 321.8)">r</text><text xml:space="preserve" font-family="Times-Roman,Times" font-size="37.6" fill="#000000" transform="matrix(1.00, 0.00, -0.00, -1.00, 216.6, 321.8)">d</text><text xml:space="preserve" font-family="Times-Roman,Times" font-size="37.6" fill="#000000" transform="matrix(1.00, 0.00, -0.00, -1.00, 235.4, 321.8)">	</text><text xml:space="preserve" font-family="Times-Roman,Times" font-size="37.6" fill="#000000" transform="matrix(1.00, 0.00, -0.00, -1.00, 263.4, 321.8)">
</text><text xml:space="preserve" font-family="Times-Roman,Times" font-size="37.6" fill="#000000" transform="matrix(1.00, 0.00, -0.00, -1.00, 263.4, 321.8)"></text><text xml:space="preserve" font-family="Times-Roman,Times" font-size="37.6" fill="#000000" transform="matrix(1.00, 0.00, -0.00, -1.00, 22.5, 211.3)">2</text><text xml:space="preserve" font-family="Times-Roman,Times" font-size="37.6" fill="#000000" transform="matrix(1.00, 0.00, -0.00, -1.00, 41.3, 211.3)">.</text><text xml:space="preserve" font-family="Times-Roman,Times" font-size="37.6" fill="#000000" transform="matrix(1.00, 0.00, -0.00, -1.00, 50.7, 211.3)"> </text><text xml:space="preserve" font-family="Times-Roman,Times" font-size="37.6" fill="#000000" transform="matrix(1.00, 0.00, -0.00, -1.00, 60.1, 211.3)">B</text><text xml:space="preserve" font-family="Times-Roman,Times" font-size="37.6" fill="#000000" transform="matrix(1.00, 0.00, -0.00, -1.00, 85.1, 211.3)">r</text><text xml:space="preserve" font-family="Times-Roman,Times" font-size="37.6" fill="#000000" transform="matrix(1.00, 0.00, -0.00, -1.00, 97.7, 211.3)">e</text><text xml:space="preserve" font-family="Times-Roman,Times" font-size="37.6" fill="#000000" transform="matrix(1.00, 0.00, -0.00, -1.00, 114.3, 211.3)">a</text><text xml:space="preserve" font-family="Times-Roman,Times" font-size="37.6" fill="#000000" transform="matrix(1.00, 0.00, -0.00, -1.00, 131.0, 211.3)">d</text><text xml:space="preserve" font-family="Times-Roman,Times" font-size="37.6" fill="#000000" transform="matrix(1.00, 0.00, -0.00, -1.00, 149.8, 211.3)">b</text><text xml:space="preserve" font-family="Times-Roman,Times" font-size="37.6" fill="#000000" transform="matrix(1.00, 0.00, -0.00, -1.00, 168.6, 211.3)">o</text><text xml:space="preserve" font-family="Times-Roman,Times" font-size="37.6" fill="#000000" transform="matrix(1.00, 0.00, -0.00, -1.00, 187.4, 211.3)">a</text><text xml:space="preserve" font-family="Times-Roman,Times" font-size="37.6" fill="#000000" transform="matrix(1.00, 0.00, -0.00, -1.00, 204.1, 211.3)">r</text><text xml:space="preserve" font-family="Times-Roman,Times" font-size="37.6" fill="#000000" transform="matrix(1.00, 0.00, -0.00, -1.00, 216.6, 211.3)">d</text><text xml:space="preserve" font-family="Times-Roman,Times" font-size="37.6" fill="#000000" transform="matrix(1.00, 0.00, -0.00, -1.00, 235.4, 211.3)"> </text><text xml:space="preserve" font-family="Times-Roman,Times" font-size="37.6" fill="#000000" transform="matrix(1.00, 0.00, -0.00, -1.00, 244.8, 211.3)">a</text><text xml:space="preserve" font-family="Times-Roman,Times" font-size="37.6" fill="#000000" transform="matrix(1.00, 0.00, -0.00, -1.00, 261.5, 211.3)">n</text><text xml:space="preserve" font-family="Times-Roman,Times" font-size="37.6" fill="#000000" transform="matrix(1.00, 0.00, -0.00, -1.00, 280.3, 211.3)">d</text><text xml:space="preserve" font-family="LucidaGrande,Lucida Grande" font-size="37.6" fill="#000000" transform="matrix(1.00, 0.00, -0.00, -1.00, 299.1, 211.3)"> </text><text xml:space="preserve" font-family="Times-Roman,Times" font-size="37.6" fill="#000000" transform="matrix(1.00, 0.00, -0.00, -1.00, 22.5, 167.3)"> </text><text xml:space="preserve" font-family="Times-Roman,Times" font-size="37.6" fill="#000000" transform="matrix(1.00, 0.00, -0.00, -1.00, 31.9, 167.3)"> </text><text xml:space="preserve" font-family="Times-Roman,Times" font-size="37.6" fill="#000000" transform="matrix(1.00, 0.00, -0.00, -1.00, 41.3, 167.3)"> </text><text xml:space="preserve" font-family="Times-Roman,Times" font-size="37.6" fill="#000000" transform="matrix(1.00, 0.00, -0.00, -1.00, 50.7, 167.3)"> </text><text xml:space="preserve" font-family="Times-Roman,Times" font-size="37.6" fill="#000000" transform="matrix(1.00, 0.00, -0.00, -1.00, 60.1, 167.3)">B</text><text xml:space="preserve" font-family="Times-Roman,Times" font-size="37.6" fill="#000000" transform="matrix(1.00, 0.00, -0.00, -1.00, 85.1, 167.3)">r</text><text xml:space="preserve" font-family="Times-Roman,Times" font-size="37.6" fill="#000000" transform="matrix(1.00, 0.00, -0.00, -1.00, 97.7, 167.3)">e</text><text xml:space="preserve" font-family="Times-Roman,Times" font-size="37.6" fill="#000000" transform="matrix(1.00, 0.00, -0.00, -1.00, 114.3, 167.3)">a</text><text xml:space="preserve" font-family="Times-Roman,Times" font-size="37.6" fill="#000000" transform="matrix(1.00, 0.00, -0.00, -1.00, 131.0, 167.3)">d</text><text xml:space="preserve" font-family="Times-Roman,Times" font-size="37.6" fill="#000000" transform="matrix(1.00, 0.00, -0.00, -1.00, 149.8, 167.3)">b</text><text xml:space="preserve" font-family="Times-Roman,Times" font-size="37.6" fill="#000000" transform="matrix(1.00, 0.00, -0.00, -1.00, 168.6, 167.3)">o</text><text xml:space="preserve" font-family="Times-Roman,Times" font-size="37.6" fill="#000000" transform="matrix(1.00, 0.00, -0.00, -1.00, 187.4, 167.3)">a</text><text xml:space="preserve" font-family="Times-Roman,Times" font-size="37.6" fill="#000000" transform="matrix(1.00, 0.00, -0.00, -1.00, 204.1, 167.3)">r</text><text xml:space="preserve" font-family="Times-Roman,Times" font-size="37.6" fill="#000000" transform="matrix(1.00, 0.00, -0.00, -1.00, 216.6, 167.3)">d</text><text xml:space="preserve" font-family="Times-Roman,Times" font-size="37.6" fill="#000000" transform="matrix(1.00, 0.00, -0.00, -1.00, 235.4, 167.3)">	</text><text xml:space="preserve" font-family="Times-Roman,Times" font-size="37.6" fill="#000000" transform="matrix(1.00, 0.00, -0.00, -1.00, 263.4, 167.3)">
</text><text xml:space="preserve" font-family="Times-Roman,Times" font-size="37.6" fill="#000000" transform="matrix(1.00, 0.00, -0.00, -1.00, 263.4, 167.3)"></text><text xml:space="preserve" font-family="Times-Roman,Times" font-size="34.8" fill="#000000" transform="matrix(1.00, 0.00, -0.00, -1.00, 22.5, 113.3)">*</text><text xml:space="preserve" font-family="Times-Roman,Times" font-size="34.8" fill="#000000" transform="matrix(1.00, 0.00, -0.00, -1.00, 39.9, 113.3)"> </text><text xml:space="preserve" font-family="Times-Roman,Times" font-size="34.8" fill="#000000" transform="matrix(1.00, 0.00, -0.00, -1.00, 47.3, 113.3)">Y</text><text xml:space="preserve" font-family="Times-Roman,Times" font-size="34.8" fill="#000000" transform="matrix(1.00, 0.00, -0.00, -1.00, 68.9, 113.3)">o</text><text xml:space="preserve" font-family="Times-Roman,Times" font-size="34.8" fill="#000000" transform="matrix(1.00, 0.00, -0.00, -1.00, 86.3, 113.3)">u</text><text xml:space="preserve" font-family="Times-Roman,Times" font-size="34.8" fill="#000000" transform="matrix(1.00, 0.00, -0.00, -1.00, 103.7, 113.3)"> </text><text xml:space="preserve" font-family="Times-Roman,Times" font-size="34.8" fill="#000000" transform="matrix(1.00, 0.00, -0.00, -1.00, 112.4, 113.3)">d</text><text xml:space="preserve" font-family="Times-Roman,Times" font-size="34.8" fill="#000000" transform="matrix(1.00, 0.00, -0.00, -1.00, 129.8, 113.3)">o</text><text xml:space="preserve" font-family="Times-Roman,Times" font-size="34.8" fill="#000000" transform="matrix(1.00, 0.00, -0.00, -1.00, 147.2, 113.3)">n</text><text xml:space="preserve" font-family="Times-Roman,Times" font-size="34.8" fill="#000000" transform="matrix(1.00, 0.00, -0.00, -1.00, 164.6, 113.3)">’</text><text xml:space="preserve" font-family="Times-Roman,Times" font-size="34.8" fill="#000000" transform="matrix(1.00, 0.00, -0.00, -1.00, 175.6, 113.3)">t</text><text xml:space="preserve" font-family="Times-Roman,Times" font-size="34.8" fill="#000000" transform="matrix(1.00, 0.00, -0.00, -1.00, 185.2, 113.3)"> </text><text xml:space="preserve" font-family="Times-Roman,Times" font-size="34.8" fill="#000000" transform="matrix(1.00, 0.00, -0.00, -1.00, 193.9, 113.3)">h</text><text xml:space="preserve" font-family="Times-Roman,Times" font-size="34.8" fill="#000000" transform="matrix(1.00, 0.00, -0.00, -1.00, 211.3, 113.3)">a</text><text xml:space="preserve" font-family="Times-Roman,Times" font-size="34.8" fill="#000000" transform="matrix(1.00, 0.00, -0.00, -1.00, 226.7, 113.3)">v</text><text xml:space="preserve" font-family="Times-Roman,Times" font-size="34.8" fill="#000000" transform="matrix(1.00, 0.00, -0.00, -1.00, 244.1, 113.3)">e</text><text xml:space="preserve" font-family="Times-Roman,Times" font-size="34.8" fill="#000000" transform="matrix(1.00, 0.00, -0.00, -1.00, 259.5, 113.3)"> </text><text xml:space="preserve" font-family="Times-Roman,Times" font-size="34.8" fill="#000000" transform="matrix(1.00, 0.00, -0.00, -1.00, 268.2, 113.3)">t</text><text xml:space="preserve" font-family="Times-Roman,Times" font-size="34.8" fill="#000000" transform="matrix(1.00, 0.00, -0.00, -1.00, 277.9, 113.3)">o</text><text xml:space="preserve" font-family="Times-Roman,Times" font-size="34.8" fill="#000000" transform="matrix(1.00, 0.00, -0.00, -1.00, 295.3, 113.3)"> </text><text xml:space="preserve" font-family="Times-Roman,Times" font-size="34.8" fill="#000000" transform="matrix(1.00, 0.00, -0.00, -1.00, 304.0, 113.3)">c</text><text xml:space="preserve" font-family="Times-Roman,Times" font-size="34.8" fill="#000000" transform="matrix(1.00, 0.00, -0.00, -1.00, 319.4, 113.3)">a</text><text xml:space="preserve" font-family="Times-Roman,Times" font-size="34.8" fill="#000000" transform="matrix(1.00, 0.00, -0.00, -1.00, 334.8, 113.3)">r</text><text xml:space="preserve" font-family="Times-Roman,Times" font-size="34.8" fill="#000000" transform="matrix(1.00, 0.00, -0.00, -1.00, 346.4, 113.3)">e</text><text xml:space="preserve" font-family="Times-Roman,Times" font-size="34.8" fill="#000000" transform="matrix(1.00, 0.00, -0.00, -1.00, 361.9, 113.3)"> </text><text xml:space="preserve" font-family="LucidaGrande,Lucida Grande" font-size="34.8" fill="#000000" transform="matrix(1.00, 0.00, -0.00, -1.00, 370.6, 113.3)"> </text><text xml:space="preserve" font-family="Times-Roman,Times" font-size="34.8" fill="#000000" transform="matrix(1.00, 0.00, -0.00, -1.00, 22.5, 71.3)"> </text><text xml:space="preserve" font-family="Times-Roman,Times" font-size="34.8" fill="#000000" transform="matrix(1.00, 0.00, -0.00, -1.00, 31.2, 71.3)"> </text><text xml:space="preserve" font-family="Times-Roman,Times" font-size="34.8" fill="#000000" transform="matrix(1.00, 0.00, -0.00, -1.00, 39.9, 71.3)"> </text><text xml:space="preserve" font-family="Times-Roman,Times" font-size="34.8" fill="#000000" transform="matrix(1.00, 0.00, -0.00, -1.00, 48.6, 71.3)">a</text><text xml:space="preserve" font-family="Times-Roman,Times" font-size="34.8" fill="#000000" transform="matrix(1.00, 0.00, -0.00, -1.00, 64.0, 71.3)">b</text><text xml:space="preserve" font-family="Times-Roman,Times" font-size="34.8" fill="#000000" transform="matrix(1.00, 0.00, -0.00, -1.00, 81.4, 71.3)">o</text><text xml:space="preserve" font-family="Times-Roman,Times" font-size="34.8" fill="#000000" transform="matrix(1.00, 0.00, -0.00, -1.00, 98.8, 71.3)">u</text><text xml:space="preserve" font-family="Times-Roman,Times" font-size="34.8" fill="#000000" transform="matrix(1.00, 0.00, -0.00, -1.00, 116.2, 71.3)">t</text><text xml:space="preserve" font-family="Times-Roman,Times" font-size="34.8" fill="#000000" transform="matrix(1.00, 0.00, -0.00, -1.00, 125.8, 71.3)"> </text><text xml:space="preserve" font-family="Times-Roman,Times" font-size="34.8" fill="#000000" transform="matrix(1.00, 0.00, -0.00, -1.00, 134.5, 71.3)">i</text><text xml:space="preserve" font-family="Times-Roman,Times" font-size="34.8" fill="#000000" transform="matrix(1.00, 0.00, -0.00, -1.00, 144.2, 71.3)">t</text><text xml:space="preserve" font-family="Times-Roman,Times" font-size="34.8" fill="#000000" transform="matrix(1.00, 0.00, -0.00, -1.00, 153.8, 71.3)">’</text><text xml:space="preserve" font-family="Times-Roman,Times" font-size="34.8" fill="#000000" transform="matrix(1.00, 0.00, -0.00, -1.00, 163.5, 71.3)">s</text><text xml:space="preserve" font-family="Times-Roman,Times" font-size="34.8" fill="#000000" transform="matrix(1.00, 0.00, -0.00, -1.00, 177.0, 71.3)"> </text><text xml:space="preserve" font-family="Times-Roman,Times" font-size="34.8" fill="#000000" transform="matrix(1.00, 0.00, -0.00, -1.00, 185.7, 71.3)">c</text><text xml:space="preserve" font-family="Times-Roman,Times" font-size="34.8" fill="#000000" transform="matrix(1.00, 0.00, -0.00, -1.00, 201.2, 71.3)">o</text><text xml:space="preserve" font-family="Times-Roman,Times" font-size="34.8" fill="#000000" transform="matrix(1.00, 0.00, -0.00, -1.00, 218.5, 71.3)">l</text><text xml:space="preserve" font-family="Times-Roman,Times" font-size="34.8" fill="#000000" transform="matrix(1.00, 0.00, -0.00, -1.00, 228.2, 71.3)">o</text><text xml:space="preserve" font-family="Times-Roman,Times" font-size="34.8" fill="#000000" transform="matrix(1.00, 0.00, -0.00, -1.00, 245.6, 71.3)">r</text><text xml:space="preserve" font-family="Times-Roman,Times" font-size="34.8" fill="#000000" transform="matrix(1.00, 0.00, -0.00, -1.00, 255.3, 71.3)">.</text><image xlink:href="E6D057B058B1E0B688A693C354CBB7A4.png" width="594.00" height="819.00" transform="matrix(1.00, 0.00, -0.00, -1.00, 471.4, 783.3)" opacity="0.70"></image><g><clipPath id="clip0x610000cbf560"><path d="M 491.0 773.0 L 1046.0 773.0 L 1046.0 -5.0 L 491.0 -5.0 Z M 491.4 773.3 "></path></clipPath><g clip-path="url(#clip0x610000cbf560)"><image xlink:href="DF744E06EDB4A35EE404FED1B3D39FDD.jpeg" width="3264.00" height="2448.00" transform="matrix(0.00, -0.24, -0.24, 0.00, 1045.5, 773.3)"></image></g></g></g></svg>