<?xml version="1.0" encoding="UTF-8" standalone="no"?><svg xmlns="http://www.w3.org/2000/svg" xmlns:xlink="http://www.w3.org/1999/xlink" clip-rule="evenodd" stroke-miterlimit="10" viewBox="0 0 1024 768"><desc>SVG generated by Keynote</desc><defs></defs><g transform="matrix(1.00, 0.00, -0.00, -1.00, 0.0, 768.0)"><path d="M 0.0 768.0 L 1024.0 768.0 L 1024.0 0.0 L 0.0 0.0 Z M 0.0 768.0 " fill="#FEFFFF"></path><image xlink:href="../../F849B904-7131-4408-8125-98770EED4CA3/assets/98DC3BF6A1449415CCE0CA5805B285B4.jpeg" width="2048.00" height="1360.00" transform="matrix(0.57, 0.00, -0.00, -0.57, -117.9, 769.1)"></image><g opacity="0.69"><g><clipPath id="clip0x6100014a3360"><path d="M 16.0 605.0 L 1008.0 605.0 L 1008.0 739.0 L 16.0 739.0 Z M 16.0 605.0 "></path></clipPath><g clip-path="url(#clip0x6100014a3360)"><image xlink:href="../../F849B904-7131-4408-8125-98770EED4CA3/assets/04EF506CF78AD079C5D03D7128CBC44A.png" width="988.00" height="126.00" transform="matrix(1.00, 0.00, -0.00, -1.00, 17.8, 733.4)" opacity="0.50"></image><path d="M 20.8 630.1 L 21.0 714.3 C 21.0 724.3 28.9 732.0 38.9 732.0 L 985.1 732.0 C 995.1 732.0 1003.0 724.3 1003.0 714.3 L 1003.0 630.1 C 1003.0 620.1 995.1 612.0 985.1 612.0 L 38.9 612.0 C 28.9 612.0 20.8 620.1 20.8 630.1 Z M 20.8 630.1 " fill="#000000"></path></g></g></g><text xml:space="preserve" font-family="Courier-Bold,Courier" font-weight="bold" font-size="46.4" fill="#FEFFFE" transform="matrix(1.00, 0.00, -0.00, -1.00, 66.4, 683.6)">S</text><text xml:space="preserve" font-family="Courier-Bold,Courier" font-weight="bold" font-size="46.4" fill="#FEFFFE" transform="matrix(1.00, 0.00, -0.00, -1.00, 94.2, 683.6)">c</text><text xml:space="preserve" font-family="Courier-Bold,Courier" font-weight="bold" font-size="46.4" fill="#FEFFFE" transform="matrix(1.00, 0.00, -0.00, -1.00, 122.1, 683.6)">r</text><text xml:space="preserve" font-family="Courier-Bold,Courier" font-weight="bold" font-size="46.4" fill="#FEFFFE" transform="matrix(1.00, 0.00, -0.00, -1.00, 149.9, 683.6)">a</text><text xml:space="preserve" font-family="Courier-Bold,Courier" font-weight="bold" font-size="46.4" fill="#FEFFFE" transform="matrix(1.00, 0.00, -0.00, -1.00, 177.8, 683.6)">t</text><text xml:space="preserve" font-family="Courier-Bold,Courier" font-weight="bold" font-size="46.4" fill="#FEFFFE" transform="matrix(1.00, 0.00, -0.00, -1.00, 205.6, 683.6)">c</text><text xml:space="preserve" font-family="Courier-Bold,Courier" font-weight="bold" font-size="46.4" fill="#FEFFFE" transform="matrix(1.00, 0.00, -0.00, -1.00, 233.5, 683.6)">h</text><text xml:space="preserve" font-family="Courier-Bold,Courier" font-weight="bold" font-size="46.4" fill="#FEFFFE" transform="matrix(1.00, 0.00, -0.00, -1.00, 261.3, 683.6)"> </text><text xml:space="preserve" font-family="Courier,Courier" font-size="46.4" fill="#FEFFFE" transform="matrix(1.00, 0.00, -0.00, -1.00, 289.2, 683.6)">+</text><text xml:space="preserve" font-family="Courier,Courier" font-size="46.4" fill="#FEFFFE" transform="matrix(1.00, 0.00, -0.00, -1.00, 317.0, 683.6)"> </text><text xml:space="preserve" font-family="Courier-Bold,Courier" font-weight="bold" font-size="46.4" fill="#FEFFFE" transform="matrix(1.00, 0.00, -0.00, -1.00, 344.9, 683.6)">R</text><text xml:space="preserve" font-family="Courier-Bold,Courier" font-weight="bold" font-size="46.4" fill="#FEFFFE" transform="matrix(1.00, 0.00, -0.00, -1.00, 372.7, 683.6)">a</text><text xml:space="preserve" font-family="Courier-Bold,Courier" font-weight="bold" font-size="46.4" fill="#FEFFFE" transform="matrix(1.00, 0.00, -0.00, -1.00, 400.6, 683.6)">s</text><text xml:space="preserve" font-family="Courier-Bold,Courier" font-weight="bold" font-size="46.4" fill="#FEFFFE" transform="matrix(1.00, 0.00, -0.00, -1.00, 428.4, 683.6)">p</text><text xml:space="preserve" font-family="Courier-Bold,Courier" font-weight="bold" font-size="46.4" fill="#FEFFFE" transform="matrix(1.00, 0.00, -0.00, -1.00, 456.3, 683.6)">b</text><text xml:space="preserve" font-family="Courier-Bold,Courier" font-weight="bold" font-size="46.4" fill="#FEFFFE" transform="matrix(1.00, 0.00, -0.00, -1.00, 484.1, 683.6)">e</text><text xml:space="preserve" font-family="Courier-Bold,Courier" font-weight="bold" font-size="46.4" fill="#FEFFFE" transform="matrix(1.00, 0.00, -0.00, -1.00, 512.0, 683.6)">r</text><text xml:space="preserve" font-family="Courier-Bold,Courier" font-weight="bold" font-size="46.4" fill="#FEFFFE" transform="matrix(1.00, 0.00, -0.00, -1.00, 539.9, 683.6)">r</text><text xml:space="preserve" font-family="Courier-Bold,Courier" font-weight="bold" font-size="46.4" fill="#FEFFFE" transform="matrix(1.00, 0.00, -0.00, -1.00, 567.7, 683.6)">y</text><text xml:space="preserve" font-family="Courier-Bold,Courier" font-weight="bold" font-size="46.4" fill="#FEFFFE" transform="matrix(1.00, 0.00, -0.00, -1.00, 595.6, 683.6)"> </text><text xml:space="preserve" font-family="Courier-Bold,Courier" font-weight="bold" font-size="46.4" fill="#FEFFFE" transform="matrix(1.00, 0.00, -0.00, -1.00, 623.4, 683.6)">P</text><text xml:space="preserve" font-family="Courier-Bold,Courier" font-weight="bold" font-size="46.4" fill="#FEFFFE" transform="matrix(1.00, 0.00, -0.00, -1.00, 651.3, 683.6)">i</text><text xml:space="preserve" font-family="Courier-Bold,Courier" font-weight="bold" font-size="46.4" fill="#FEFFFE" transform="matrix(1.00, 0.00, -0.00, -1.00, 679.1, 683.6)"> </text><text xml:space="preserve" font-family="Courier-Bold,Courier" font-weight="bold" font-size="46.4" fill="#FEFFFE" transform="matrix(1.00, 0.00, -0.00, -1.00, 707.0, 683.6)">W</text><text xml:space="preserve" font-family="Courier-Bold,Courier" font-weight="bold" font-size="46.4" fill="#FEFFFE" transform="matrix(1.00, 0.00, -0.00, -1.00, 734.8, 683.6)">o</text><text xml:space="preserve" font-family="Courier-Bold,Courier" font-weight="bold" font-size="46.4" fill="#FEFFFE" transform="matrix(1.00, 0.00, -0.00, -1.00, 762.7, 683.6)">r</text><text xml:space="preserve" font-family="Courier-Bold,Courier" font-weight="bold" font-size="46.4" fill="#FEFFFE" transform="matrix(1.00, 0.00, -0.00, -1.00, 790.5, 683.6)">k</text><text xml:space="preserve" font-family="Courier-Bold,Courier" font-weight="bold" font-size="46.4" fill="#FEFFFE" transform="matrix(1.00, 0.00, -0.00, -1.00, 818.4, 683.6)">s</text><text xml:space="preserve" font-family="Courier-Bold,Courier" font-weight="bold" font-size="46.4" fill="#FEFFFE" transform="matrix(1.00, 0.00, -0.00, -1.00, 846.2, 683.6)">h</text><text xml:space="preserve" font-family="Courier-Bold,Courier" font-weight="bold" font-size="46.4" fill="#FEFFFE" transform="matrix(1.00, 0.00, -0.00, -1.00, 874.1, 683.6)">o</text><text xml:space="preserve" font-family="Courier-Bold,Courier" font-weight="bold" font-size="46.4" fill="#FEFFFE" transform="matrix(1.00, 0.00, -0.00, -1.00, 901.9, 683.6)">p</text><text xml:space="preserve" font-family="Courier-Bold,Courier" font-weight="bold" font-size="46.4" fill="#FEFFFE" transform="matrix(1.00, 0.00, -0.00, -1.00, 929.8, 683.6)">:</text><text xml:space="preserve" font-family="Courier,Courier" font-size="46.4" fill="#FEFFFE" transform="matrix(1.00, 0.00, -0.00, -1.00, 957.6, 683.6)"> </text><text xml:space="preserve" font-family="Courier,Courier" font-size="46.4" fill="#FEFFFE" transform="matrix(1.00, 0.00, -0.00, -1.00, 52.5, 628.6)">C</text><text xml:space="preserve" font-family="Courier,Courier" font-size="46.4" fill="#FEFFFE" transform="matrix(1.00, 0.00, -0.00, -1.00, 80.3, 628.6)">o</text><text xml:space="preserve" font-family="Courier,Courier" font-size="46.4" fill="#FEFFFE" transform="matrix(1.00, 0.00, -0.00, -1.00, 108.2, 628.6)">n</text><text xml:space="preserve" font-family="Courier,Courier" font-size="46.4" fill="#FEFFFE" transform="matrix(1.00, 0.00, -0.00, -1.00, 136.0, 628.6)">t</text><text xml:space="preserve" font-family="Courier,Courier" font-size="46.4" fill="#FEFFFE" transform="matrix(1.00, 0.00, -0.00, -1.00, 163.9, 628.6)">r</text><text xml:space="preserve" font-family="Courier,Courier" font-size="46.4" fill="#FEFFFE" transform="matrix(1.00, 0.00, -0.00, -1.00, 191.7, 628.6)">o</text><text xml:space="preserve" font-family="Courier,Courier" font-size="46.4" fill="#FEFFFE" transform="matrix(1.00, 0.00, -0.00, -1.00, 219.6, 628.6)">l</text><text xml:space="preserve" font-family="Courier,Courier" font-size="46.4" fill="#FEFFFE" transform="matrix(1.00, 0.00, -0.00, -1.00, 247.4, 628.6)"> </text><text xml:space="preserve" font-family="Courier,Courier" font-size="46.4" fill="#FEFFFE" transform="matrix(1.00, 0.00, -0.00, -1.00, 275.3, 628.6)">L</text><text xml:space="preserve" font-family="Courier,Courier" font-size="46.4" fill="#FEFFFE" transform="matrix(1.00, 0.00, -0.00, -1.00, 303.1, 628.6)">E</text><text xml:space="preserve" font-family="Courier,Courier" font-size="46.4" fill="#FEFFFE" transform="matrix(1.00, 0.00, -0.00, -1.00, 331.0, 628.6)">D</text><text xml:space="preserve" font-family="Courier,Courier" font-size="46.4" fill="#FEFFFE" transform="matrix(1.00, 0.00, -0.00, -1.00, 358.8, 628.6)"> </text><text xml:space="preserve" font-family="Courier,Courier" font-size="46.4" fill="#FEFFFE" transform="matrix(1.00, 0.00, -0.00, -1.00, 386.7, 628.6)">L</text><text xml:space="preserve" font-family="Courier,Courier" font-size="46.4" fill="#FEFFFE" transform="matrix(1.00, 0.00, -0.00, -1.00, 414.5, 628.6)">i</text><text xml:space="preserve" font-family="Courier,Courier" font-size="46.4" fill="#FEFFFE" transform="matrix(1.00, 0.00, -0.00, -1.00, 442.4, 628.6)">g</text><text xml:space="preserve" font-family="Courier,Courier" font-size="46.4" fill="#FEFFFE" transform="matrix(1.00, 0.00, -0.00, -1.00, 470.2, 628.6)">h</text><text xml:space="preserve" font-family="Courier,Courier" font-size="46.4" fill="#FEFFFE" transform="matrix(1.00, 0.00, -0.00, -1.00, 498.1, 628.6)">t</text><text xml:space="preserve" font-family="Courier,Courier" font-size="46.4" fill="#FEFFFE" transform="matrix(1.00, 0.00, -0.00, -1.00, 525.9, 628.6)">s</text><text xml:space="preserve" font-family="Courier,Courier" font-size="46.4" fill="#FEFFFE" transform="matrix(1.00, 0.00, -0.00, -1.00, 553.8, 628.6)"> </text><text xml:space="preserve" font-family="Courier,Courier" font-size="46.4" fill="#FEFFFE" transform="matrix(1.00, 0.00, -0.00, -1.00, 581.6, 628.6)">b</text><text xml:space="preserve" font-family="Courier,Courier" font-size="46.4" fill="#FEFFFE" transform="matrix(1.00, 0.00, -0.00, -1.00, 609.5, 628.6)">y</text><text xml:space="preserve" font-family="Courier,Courier" font-size="46.4" fill="#FEFFFE" transform="matrix(1.00, 0.00, -0.00, -1.00, 637.3, 628.6)"> </text><text xml:space="preserve" font-family="Courier,Courier" font-size="46.4" fill="#FEFFFE" transform="matrix(1.00, 0.00, -0.00, -1.00, 665.2, 628.6)">P</text><text xml:space="preserve" font-family="Courier,Courier" font-size="46.4" fill="#FEFFFE" transform="matrix(1.00, 0.00, -0.00, -1.00, 693.0, 628.6)">r</text><text xml:space="preserve" font-family="Courier,Courier" font-size="46.4" fill="#FEFFFE" transform="matrix(1.00, 0.00, -0.00, -1.00, 720.9, 628.6)">o</text><text xml:space="preserve" font-family="Courier,Courier" font-size="46.4" fill="#FEFFFE" transform="matrix(1.00, 0.00, -0.00, -1.00, 748.7, 628.6)">g</text><text xml:space="preserve" font-family="Courier,Courier" font-size="46.4" fill="#FEFFFE" transform="matrix(1.00, 0.00, -0.00, -1.00, 776.6, 628.6)">r</text><text xml:space="preserve" font-family="Courier,Courier" font-size="46.4" fill="#FEFFFE" transform="matrix(1.00, 0.00, -0.00, -1.00, 804.4, 628.6)">a</text><text xml:space="preserve" font-family="Courier,Courier" font-size="46.4" fill="#FEFFFE" transform="matrix(1.00, 0.00, -0.00, -1.00, 832.3, 628.6)">m</text><text xml:space="preserve" font-family="Courier,Courier" font-size="46.4" fill="#FEFFFE" transform="matrix(1.00, 0.00, -0.00, -1.00, 860.2, 628.6)">m</text><text xml:space="preserve" font-family="Courier,Courier" font-size="46.4" fill="#FEFFFE" transform="matrix(1.00, 0.00, -0.00, -1.00, 888.0, 628.6)">i</text><text xml:space="preserve" font-family="Courier,Courier" font-size="46.4" fill="#FEFFFE" transform="matrix(1.00, 0.00, -0.00, -1.00, 915.9, 628.6)">n</text><text xml:space="preserve" font-family="Courier,Courier" font-size="46.4" fill="#FEFFFE" transform="matrix(1.00, 0.00, -0.00, -1.00, 943.7, 628.6)">g</text><g opacity="0.69"><g><clipPath id="clip0x6100014a51c0"><path d="M 629.0 12.0 L 1016.0 12.0 L 1016.0 184.0 L 629.0 184.0 Z M 629.0 12.0 "></path></clipPath><g clip-path="url(#clip0x6100014a51c0)"><image xlink:href="E3198138E53897D8B15074D080176BB4.png" width="384.00" height="165.00" transform="matrix(1.00, 0.00, -0.00, -1.00, 630.2, 178.8)" opacity="0.50"></image><path d="M 633.2 37.0 L 633.0 159.7 C 633.0 169.7 641.2 178.0 651.2 178.0 L 993.4 178.0 C 1003.3 178.0 1011.0 169.7 1011.0 159.7 L 1011.0 37.0 C 1011.0 27.0 1003.3 19.0 993.4 19.0 L 651.2 19.0 C 641.2 19.0 633.2 27.0 633.2 37.0 Z M 633.2 37.0 " fill="#000000"></path></g></g><g><clipPath id="clip0x6180016b54e0"><path d="M 629.0 18.9 L 1016.0 18.9 L 1016.0 177.8 L 629.0 177.8 Z M 629.0 18.9 "></path></clipPath><g clip-path="url(#clip0x6180016b54e0)"><text xml:space="preserve" font-family="Courier,Courier" font-size="40.0" fill="#FEFFFE" transform="matrix(1.00, 0.00, -0.00, -1.00, 642.3, 108.5)">2</text><text xml:space="preserve" font-family="Courier,Courier" font-size="40.0" fill="#FEFFFE" transform="matrix(1.00, 0.00, -0.00, -1.00, 666.3, 108.5)">0</text><text xml:space="preserve" font-family="Courier,Courier" font-size="40.0" fill="#FEFFFE" transform="matrix(1.00, 0.00, -0.00, -1.00, 690.3, 108.5)">1</text><text xml:space="preserve" font-family="Courier,Courier" font-size="40.0" fill="#FEFFFE" transform="matrix(1.00, 0.00, -0.00, -1.00, 714.3, 108.5)">4</text><text xml:space="preserve" font-family="Courier,Courier" font-size="40.0" fill="#FEFFFE" transform="matrix(1.00, 0.00, -0.00, -1.00, 738.3, 108.5)">/</text><text xml:space="preserve" font-family="Courier,Courier" font-size="40.0" fill="#FEFFFE" transform="matrix(1.00, 0.00, -0.00, -1.00, 762.3, 108.5)">0</text><text xml:space="preserve" font-family="Courier,Courier" font-size="40.0" fill="#FEFFFE" transform="matrix(1.00, 0.00, -0.00, -1.00, 786.3, 108.5)">4</text><text xml:space="preserve" font-family="Courier,Courier" font-size="40.0" fill="#FEFFFE" transform="matrix(1.00, 0.00, -0.00, -1.00, 810.3, 108.5)">/</text><text xml:space="preserve" font-family="Courier,Courier" font-size="40.0" fill="#FEFFFE" transform="matrix(1.00, 0.00, -0.00, -1.00, 834.3, 108.5)">1</text><text xml:space="preserve" font-family="Courier,Courier" font-size="40.0" fill="#FEFFFE" transform="matrix(1.00, 0.00, -0.00, -1.00, 858.3, 108.5)">7</text><text xml:space="preserve" font-family="Courier,Courier" font-size="40.0" fill="#FEFFFE" transform="matrix(1.00, 0.00, -0.00, -1.00, 882.3, 108.5)">(</text><text xml:space="preserve" font-family="Courier,Courier" font-size="40.0" fill="#FEFFFE" transform="matrix(1.00, 0.00, -0.00, -1.00, 906.3, 108.5)">S</text><text xml:space="preserve" font-family="Courier,Courier" font-size="40.0" fill="#FEFFFE" transform="matrix(1.00, 0.00, -0.00, -1.00, 930.3, 108.5)">u</text><text xml:space="preserve" font-family="Courier,Courier" font-size="40.0" fill="#FEFFFE" transform="matrix(1.00, 0.00, -0.00, -1.00, 954.3, 108.5)">n</text><text xml:space="preserve" font-family="Courier,Courier" font-size="40.0" fill="#FEFFFE" transform="matrix(1.00, 0.00, -0.00, -1.00, 978.3, 108.5)">)</text><text xml:space="preserve" font-family="Courier,Courier" font-size="40.0" fill="#FEFFFE" transform="matrix(1.00, 0.00, -0.00, -1.00, 654.3, 60.5)">Y</text><text xml:space="preserve" font-family="Courier,Courier" font-size="40.0" fill="#FEFFFE" transform="matrix(1.00, 0.00, -0.00, -1.00, 678.3, 60.5)">o</text><text xml:space="preserve" font-family="Courier,Courier" font-size="40.0" fill="#FEFFFE" transform="matrix(1.00, 0.00, -0.00, -1.00, 702.3, 60.5)">h</text><text xml:space="preserve" font-family="Courier,Courier" font-size="40.0" fill="#FEFFFE" transform="matrix(1.00, 0.00, -0.00, -1.00, 726.3, 60.5)">e</text><text xml:space="preserve" font-family="Courier,Courier" font-size="40.0" fill="#FEFFFE" transform="matrix(1.00, 0.00, -0.00, -1.00, 750.3, 60.5)">i</text><text xml:space="preserve" font-family="Courier,Courier" font-size="40.0" fill="#FEFFFE" transform="matrix(1.00, 0.00, -0.00, -1.00, 774.3, 60.5)"> </text><text xml:space="preserve" font-family="Courier,Courier" font-size="40.0" fill="#FEFFFE" transform="matrix(1.00, 0.00, -0.00, -1.00, 798.3, 60.5)">Y</text><text xml:space="preserve" font-family="Courier,Courier" font-size="40.0" fill="#FEFFFE" transform="matrix(1.00, 0.00, -0.00, -1.00, 822.3, 60.5)">a</text><text xml:space="preserve" font-family="Courier,Courier" font-size="40.0" fill="#FEFFFE" transform="matrix(1.00, 0.00, -0.00, -1.00, 846.3, 60.5)">s</text><text xml:space="preserve" font-family="Courier,Courier" font-size="40.0" fill="#FEFFFE" transform="matrix(1.00, 0.00, -0.00, -1.00, 870.3, 60.5)">u</text><text xml:space="preserve" font-family="Courier,Courier" font-size="40.0" fill="#FEFFFE" transform="matrix(1.00, 0.00, -0.00, -1.00, 894.3, 60.5)">k</text><text xml:space="preserve" font-family="Courier,Courier" font-size="40.0" fill="#FEFFFE" transform="matrix(1.00, 0.00, -0.00, -1.00, 918.3, 60.5)">a</text><text xml:space="preserve" font-family="Courier,Courier" font-size="40.0" fill="#FEFFFE" transform="matrix(1.00, 0.00, -0.00, -1.00, 942.3, 60.5)">w</text><text xml:space="preserve" font-family="Courier,Courier" font-size="40.0" fill="#FEFFFE" transform="matrix(1.00, 0.00, -0.00, -1.00, 966.3, 60.5)">a</text></g></g></g></g></svg>