<?xml version="1.0" encoding="UTF-8" standalone="no"?><svg xmlns="http://www.w3.org/2000/svg" xmlns:xlink="http://www.w3.org/1999/xlink" clip-rule="evenodd" stroke-miterlimit="10" viewBox="0 0 1007 75"><desc>SVG generated by Keynote</desc><defs></defs><g transform="matrix(1.00, 0.00, -0.00, -1.00, 0.0, 75.0)"><text xml:space="preserve" font-family="Times-Roman,Times" font-size="79.0" fill="#000000" transform="matrix(1.00, 0.00, -0.00, -1.00, -0.4, 19.4)">O</text><text xml:space="preserve" font-family="Times-Roman,Times" font-size="79.0" fill="#000000" transform="matrix(1.00, 0.00, -0.00, -1.00, 56.7, 19.4)">t</text><text xml:space="preserve" font-family="Times-Roman,Times" font-size="79.0" fill="#000000" transform="matrix(1.00, 0.00, -0.00, -1.00, 78.6, 19.4)">h</text><text xml:space="preserve" font-family="Times-Roman,Times" font-size="79.0" fill="#000000" transform="matrix(1.00, 0.00, -0.00, -1.00, 118.1, 19.4)">e</text><text xml:space="preserve" font-family="Times-Roman,Times" font-size="79.0" fill="#000000" transform="matrix(1.00, 0.00, -0.00, -1.00, 153.2, 19.4)">r</text><text xml:space="preserve" font-family="Times-Roman,Times" font-size="79.0" fill="#000000" transform="matrix(1.00, 0.00, -0.00, -1.00, 179.5, 19.4)"> </text><text xml:space="preserve" font-family="Times-Roman,Times" font-size="79.0" fill="#000000" transform="matrix(1.00, 0.00, -0.00, -1.00, 199.2, 19.4)">S</text><text xml:space="preserve" font-family="Times-Roman,Times" font-size="79.0" fill="#000000" transform="matrix(1.00, 0.00, -0.00, -1.00, 243.2, 19.4)">a</text><text xml:space="preserve" font-family="Times-Roman,Times" font-size="79.0" fill="#000000" transform="matrix(1.00, 0.00, -0.00, -1.00, 278.2, 19.4)">m</text><text xml:space="preserve" font-family="Times-Roman,Times" font-size="79.0" fill="#000000" transform="matrix(1.00, 0.00, -0.00, -1.00, 339.7, 19.4)">p</text><text xml:space="preserve" font-family="Times-Roman,Times" font-size="79.0" fill="#000000" transform="matrix(1.00, 0.00, -0.00, -1.00, 379.2, 19.4)">l</text><text xml:space="preserve" font-family="Times-Roman,Times" font-size="79.0" fill="#000000" transform="matrix(1.00, 0.00, -0.00, -1.00, 401.1, 19.4)">e</text><text xml:space="preserve" font-family="Times-Roman,Times" font-size="79.0" fill="#000000" transform="matrix(1.00, 0.00, -0.00, -1.00, 436.1, 19.4)">:</text><text xml:space="preserve" font-family="Times-Roman,Times" font-size="79.0" fill="#000000" transform="matrix(1.00, 0.00, -0.00, -1.00, 458.1, 19.4)"> </text><text xml:space="preserve" font-family="Times-Roman,Times" font-size="79.0" fill="#000000" transform="matrix(1.00, 0.00, -0.00, -1.00, 477.8, 19.4)">E</text><text xml:space="preserve" font-family="Times-Roman,Times" font-size="79.0" fill="#000000" transform="matrix(1.00, 0.00, -0.00, -1.00, 526.1, 19.4)">s</text><text xml:space="preserve" font-family="Times-Roman,Times" font-size="79.0" fill="#000000" transform="matrix(1.00, 0.00, -0.00, -1.00, 556.8, 19.4)">c</text><text xml:space="preserve" font-family="Times-Roman,Times" font-size="79.0" fill="#000000" transform="matrix(1.00, 0.00, -0.00, -1.00, 591.9, 19.4)">a</text><text xml:space="preserve" font-family="Times-Roman,Times" font-size="79.0" fill="#000000" transform="matrix(1.00, 0.00, -0.00, -1.00, 626.9, 19.4)">p</text><text xml:space="preserve" font-family="Times-Roman,Times" font-size="79.0" fill="#000000" transform="matrix(1.00, 0.00, -0.00, -1.00, 666.4, 19.4)">e</text><text xml:space="preserve" font-family="Times-Roman,Times" font-size="79.0" fill="#000000" transform="matrix(1.00, 0.00, -0.00, -1.00, 701.5, 19.4)"> </text><text xml:space="preserve" font-family="Times-Roman,Times" font-size="79.0" fill="#000000" transform="matrix(1.00, 0.00, -0.00, -1.00, 721.2, 19.4)">f</text><text xml:space="preserve" font-family="Times-Roman,Times" font-size="79.0" fill="#000000" transform="matrix(1.00, 0.00, -0.00, -1.00, 747.5, 19.4)">r</text><text xml:space="preserve" font-family="Times-Roman,Times" font-size="79.0" fill="#000000" transform="matrix(1.00, 0.00, -0.00, -1.00, 773.8, 19.4)">o</text><text xml:space="preserve" font-family="Times-Roman,Times" font-size="79.0" fill="#000000" transform="matrix(1.00, 0.00, -0.00, -1.00, 813.3, 19.4)">m</text><text xml:space="preserve" font-family="Times-Roman,Times" font-size="79.0" fill="#000000" transform="matrix(1.00, 0.00, -0.00, -1.00, 874.8, 19.4)"> </text><text xml:space="preserve" font-family="Times-Roman,Times" font-size="79.0" fill="#000000" transform="matrix(1.00, 0.00, -0.00, -1.00, 894.5, 19.4)">C</text><text xml:space="preserve" font-family="Times-Roman,Times" font-size="79.0" fill="#000000" transform="matrix(1.00, 0.00, -0.00, -1.00, 947.2, 19.4)">a</text><text xml:space="preserve" font-family="Times-Roman,Times" font-size="79.0" fill="#000000" transform="matrix(1.00, 0.00, -0.00, -1.00, 982.3, 19.4)">t</text></g></svg>