<?xml version="1.0" encoding="UTF-8" standalone="no"?><svg xmlns="http://www.w3.org/2000/svg" xmlns:xlink="http://www.w3.org/1999/xlink" clip-rule="evenodd" stroke-miterlimit="10" viewBox="0 0 867 81"><desc>SVG generated by Keynote</desc><defs></defs><g transform="matrix(1.00, 0.00, -0.00, -1.00, 0.0, 81.0)"><text xml:space="preserve" font-family="Times-Bold,Times" font-weight="bold" font-size="85.3" fill="#000000" transform="matrix(1.00, 0.00, -0.00, -1.00, 0.2, 20.0)">H</text><text xml:space="preserve" font-family="Times-Bold,Times" font-weight="bold" font-size="85.3" fill="#000000" transform="matrix(1.00, 0.00, -0.00, -1.00, 66.5, 20.0)">a</text><text xml:space="preserve" font-family="Times-Bold,Times" font-weight="bold" font-size="85.3" fill="#000000" transform="matrix(1.00, 0.00, -0.00, -1.00, 109.1, 20.0)">n</text><text xml:space="preserve" font-family="Times-Bold,Times" font-weight="bold" font-size="85.3" fill="#000000" transform="matrix(1.00, 0.00, -0.00, -1.00, 156.6, 20.0)">d</text><text xml:space="preserve" font-family="Times-Bold,Times" font-weight="bold" font-size="85.3" fill="#000000" transform="matrix(1.00, 0.00, -0.00, -1.00, 204.0, 20.0)">s</text><text xml:space="preserve" font-family="Times-Bold,Times" font-weight="bold" font-size="85.3" fill="#000000" transform="matrix(1.00, 0.00, -0.00, -1.00, 237.2, 20.0)">-</text><text xml:space="preserve" font-family="Times-Bold,Times" font-weight="bold" font-size="85.3" fill="#000000" transform="matrix(1.00, 0.00, -0.00, -1.00, 265.6, 20.0)">o</text><text xml:space="preserve" font-family="Times-Bold,Times" font-weight="bold" font-size="85.3" fill="#000000" transform="matrix(1.00, 0.00, -0.00, -1.00, 308.2, 20.0)">n</text><text xml:space="preserve" font-family="Times-Bold,Times" font-weight="bold" font-size="85.3" fill="#000000" transform="matrix(1.00, 0.00, -0.00, -1.00, 355.7, 20.0)">:</text><text xml:space="preserve" font-family="Times-Bold,Times" font-weight="bold" font-size="85.3" fill="#000000" transform="matrix(1.00, 0.00, -0.00, -1.00, 384.1, 20.0)"> </text><text xml:space="preserve" font-family="Times-Bold,Times" font-weight="bold" font-size="85.3" fill="#000000" transform="matrix(1.00, 0.00, -0.00, -1.00, 403.9, 20.0)">W</text><text xml:space="preserve" font-family="Times-Bold,Times" font-weight="bold" font-size="85.3" fill="#000000" transform="matrix(1.00, 0.00, -0.00, -1.00, 484.5, 20.0)">a</text><text xml:space="preserve" font-family="Times-Bold,Times" font-weight="bold" font-size="85.3" fill="#000000" transform="matrix(1.00, 0.00, -0.00, -1.00, 527.1, 20.0)">l</text><text xml:space="preserve" font-family="Times-Bold,Times" font-weight="bold" font-size="85.3" fill="#000000" transform="matrix(1.00, 0.00, -0.00, -1.00, 550.8, 20.0)">k</text><text xml:space="preserve" font-family="Times-Bold,Times" font-weight="bold" font-size="85.3" fill="#000000" transform="matrix(1.00, 0.00, -0.00, -1.00, 598.2, 20.0)">i</text><text xml:space="preserve" font-family="Times-Bold,Times" font-weight="bold" font-size="85.3" fill="#000000" transform="matrix(1.00, 0.00, -0.00, -1.00, 621.9, 20.0)">n</text><text xml:space="preserve" font-family="Times-Bold,Times" font-weight="bold" font-size="85.3" fill="#000000" transform="matrix(1.00, 0.00, -0.00, -1.00, 669.3, 20.0)">g</text><text xml:space="preserve" font-family="Times-Bold,Times" font-weight="bold" font-size="85.3" fill="#000000" transform="matrix(1.00, 0.00, -0.00, -1.00, 711.9, 20.0)"> </text><text xml:space="preserve" font-family="Times-Bold,Times" font-weight="bold" font-size="85.3" fill="#000000" transform="matrix(1.00, 0.00, -0.00, -1.00, 733.2, 20.0)">C</text><text xml:space="preserve" font-family="Times-Bold,Times" font-weight="bold" font-size="85.3" fill="#000000" transform="matrix(1.00, 0.00, -0.00, -1.00, 794.8, 20.0)">a</text><text xml:space="preserve" font-family="Times-Bold,Times" font-weight="bold" font-size="85.3" fill="#000000" transform="matrix(1.00, 0.00, -0.00, -1.00, 837.5, 20.0)">t</text></g></svg>