<?xml version="1.0" encoding="UTF-8" standalone="no"?><svg xmlns="http://www.w3.org/2000/svg" xmlns:xlink="http://www.w3.org/1999/xlink" clip-rule="evenodd" stroke-miterlimit="10" viewBox="0 0 1024 768"><desc>SVG generated by Keynote</desc><defs></defs><g transform="matrix(1.00, 0.00, -0.00, -1.00, 0.0, 768.0)"><path d="M 0.0 768.0 L 1024.0 768.0 L 1024.0 0.0 L 0.0 0.0 Z M 0.0 768.0 " fill="#FEFFFF"></path><text xml:space="preserve" font-family="Times-Roman,Times" font-size="123.0" fill="#000000" transform="matrix(1.00, 0.00, -0.00, -1.00, 32.7, 627.6)">R</text><text xml:space="preserve" font-family="Times-Roman,Times" font-size="123.0" fill="#000000" transform="matrix(1.00, 0.00, -0.00, -1.00, 114.7, 627.6)">e</text><text xml:space="preserve" font-family="Times-Roman,Times" font-size="123.0" fill="#000000" transform="matrix(1.00, 0.00, -0.00, -1.00, 169.3, 627.6)">s</text><text xml:space="preserve" font-family="Times-Roman,Times" font-size="123.0" fill="#000000" transform="matrix(1.00, 0.00, -0.00, -1.00, 217.2, 627.6)">i</text><text xml:space="preserve" font-family="Times-Roman,Times" font-size="123.0" fill="#000000" transform="matrix(1.00, 0.00, -0.00, -1.00, 251.3, 627.6)">s</text><text xml:space="preserve" font-family="Times-Roman,Times" font-size="123.0" fill="#000000" transform="matrix(1.00, 0.00, -0.00, -1.00, 299.2, 627.6)">t</text><text xml:space="preserve" font-family="Times-Roman,Times" font-size="123.0" fill="#000000" transform="matrix(1.00, 0.00, -0.00, -1.00, 333.4, 627.6)">o</text><text xml:space="preserve" font-family="Times-Roman,Times" font-size="123.0" fill="#000000" transform="matrix(1.00, 0.00, -0.00, -1.00, 394.9, 627.6)">r</text><text xml:space="preserve" font-family="Times-Roman,Times" font-size="43.0" fill="#000000" transform="matrix(1.00, 0.00, -0.00, -1.00, 9.9, 540.1)">i</text><text xml:space="preserve" font-family="Times-Roman,Times" font-size="43.0" fill="#000000" transform="matrix(1.00, 0.00, -0.00, -1.00, 21.8, 540.1)">s</text><text xml:space="preserve" font-family="Times-Roman,Times" font-size="43.0" fill="#000000" transform="matrix(1.00, 0.00, -0.00, -1.00, 38.6, 540.1)"> </text><text xml:space="preserve" font-family="Times-Roman,Times" font-size="43.0" fill="#000000" transform="matrix(1.00, 0.00, -0.00, -1.00, 49.3, 540.1)">a</text><text xml:space="preserve" font-family="Times-Roman,Times" font-size="43.0" fill="#000000" transform="matrix(1.00, 0.00, -0.00, -1.00, 68.4, 540.1)">n</text><text xml:space="preserve" font-family="Times-Roman,Times" font-size="43.0" fill="#000000" transform="matrix(1.00, 0.00, -0.00, -1.00, 89.9, 540.1)"> </text><text xml:space="preserve" font-family="Times-Roman,Times" font-size="43.0" fill="#000000" transform="matrix(1.00, 0.00, -0.00, -1.00, 100.6, 540.1)">e</text><text xml:space="preserve" font-family="Times-Roman,Times" font-size="43.0" fill="#000000" transform="matrix(1.00, 0.00, -0.00, -1.00, 119.7, 540.1)">l</text><text xml:space="preserve" font-family="Times-Roman,Times" font-size="43.0" fill="#000000" transform="matrix(1.00, 0.00, -0.00, -1.00, 131.6, 540.1)">e</text><text xml:space="preserve" font-family="Times-Roman,Times" font-size="43.0" fill="#000000" transform="matrix(1.00, 0.00, -0.00, -1.00, 150.7, 540.1)">c</text><text xml:space="preserve" font-family="Times-Roman,Times" font-size="43.0" fill="#000000" transform="matrix(1.00, 0.00, -0.00, -1.00, 169.8, 540.1)">t</text><text xml:space="preserve" font-family="Times-Roman,Times" font-size="43.0" fill="#000000" transform="matrix(1.00, 0.00, -0.00, -1.00, 181.7, 540.1)">r</text><text xml:space="preserve" font-family="Times-Roman,Times" font-size="43.0" fill="#000000" transform="matrix(1.00, 0.00, -0.00, -1.00, 196.1, 540.1)">o</text><text xml:space="preserve" font-family="Times-Roman,Times" font-size="43.0" fill="#000000" transform="matrix(1.00, 0.00, -0.00, -1.00, 217.6, 540.1)">n</text><text xml:space="preserve" font-family="Times-Roman,Times" font-size="43.0" fill="#000000" transform="matrix(1.00, 0.00, -0.00, -1.00, 239.1, 540.1)">i</text><text xml:space="preserve" font-family="Times-Roman,Times" font-size="43.0" fill="#000000" transform="matrix(1.00, 0.00, -0.00, -1.00, 251.0, 540.1)">c</text><text xml:space="preserve" font-family="Times-Roman,Times" font-size="43.0" fill="#000000" transform="matrix(1.00, 0.00, -0.00, -1.00, 270.1, 540.1)"> </text><text xml:space="preserve" font-family="Times-Roman,Times" font-size="43.0" fill="#000000" transform="matrix(1.00, 0.00, -0.00, -1.00, 280.8, 540.1)">e</text><text xml:space="preserve" font-family="Times-Roman,Times" font-size="43.0" fill="#000000" transform="matrix(1.00, 0.00, -0.00, -1.00, 299.9, 540.1)">l</text><text xml:space="preserve" font-family="Times-Roman,Times" font-size="43.0" fill="#000000" transform="matrix(1.00, 0.00, -0.00, -1.00, 311.8, 540.1)">e</text><text xml:space="preserve" font-family="Times-Roman,Times" font-size="43.0" fill="#000000" transform="matrix(1.00, 0.00, -0.00, -1.00, 330.9, 540.1)">m</text><text xml:space="preserve" font-family="Times-Roman,Times" font-size="43.0" fill="#000000" transform="matrix(1.00, 0.00, -0.00, -1.00, 364.4, 540.1)">e</text><text xml:space="preserve" font-family="Times-Roman,Times" font-size="43.0" fill="#000000" transform="matrix(1.00, 0.00, -0.00, -1.00, 383.4, 540.1)">n</text><text xml:space="preserve" font-family="Times-Roman,Times" font-size="43.0" fill="#000000" transform="matrix(1.00, 0.00, -0.00, -1.00, 404.9, 540.1)">t</text><text xml:space="preserve" font-family="Times-Roman,Times" font-size="43.0" fill="#000000" transform="matrix(1.00, 0.00, -0.00, -1.00, 416.9, 540.1)"> </text><text xml:space="preserve" font-family="Times-Roman,Times" font-size="43.0" fill="#000000" transform="matrix(1.00, 0.00, -0.00, -1.00, 427.6, 540.1)">t</text><text xml:space="preserve" font-family="Times-Roman,Times" font-size="43.0" fill="#000000" transform="matrix(1.00, 0.00, -0.00, -1.00, 439.6, 540.1)">o</text><text xml:space="preserve" font-family="Times-Roman,Times" font-size="43.0" fill="#000000" transform="matrix(1.00, 0.00, -0.00, -1.00, 461.1, 540.1)"> </text><text xml:space="preserve" font-family="Times-Roman,Times" font-size="43.0" fill="#000000" transform="matrix(1.00, 0.00, -0.00, -1.00, 9.9, 488.1)">c</text><text xml:space="preserve" font-family="Times-Roman,Times" font-size="43.0" fill="#000000" transform="matrix(1.00, 0.00, -0.00, -1.00, 28.9, 488.1)">o</text><text xml:space="preserve" font-family="Times-Roman,Times" font-size="43.0" fill="#000000" transform="matrix(1.00, 0.00, -0.00, -1.00, 50.4, 488.1)">n</text><text xml:space="preserve" font-family="Times-Roman,Times" font-size="43.0" fill="#000000" transform="matrix(1.00, 0.00, -0.00, -1.00, 71.9, 488.1)">t</text><text xml:space="preserve" font-family="Times-Roman,Times" font-size="43.0" fill="#000000" transform="matrix(1.00, 0.00, -0.00, -1.00, 83.9, 488.1)">r</text><text xml:space="preserve" font-family="Times-Roman,Times" font-size="43.0" fill="#000000" transform="matrix(1.00, 0.00, -0.00, -1.00, 98.2, 488.1)">o</text><text xml:space="preserve" font-family="Times-Roman,Times" font-size="43.0" fill="#000000" transform="matrix(1.00, 0.00, -0.00, -1.00, 119.7, 488.1)">l</text><text xml:space="preserve" font-family="Times-Roman,Times" font-size="43.0" fill="#000000" transform="matrix(1.00, 0.00, -0.00, -1.00, 131.6, 488.1)"> </text><text xml:space="preserve" font-family="Times-Roman,Times" font-size="43.0" fill="#000000" transform="matrix(1.00, 0.00, -0.00, -1.00, 142.4, 488.1)">c</text><text xml:space="preserve" font-family="Times-Roman,Times" font-size="43.0" fill="#000000" transform="matrix(1.00, 0.00, -0.00, -1.00, 161.5, 488.1)">u</text><text xml:space="preserve" font-family="Times-Roman,Times" font-size="43.0" fill="#000000" transform="matrix(1.00, 0.00, -0.00, -1.00, 183.0, 488.1)">r</text><text xml:space="preserve" font-family="Times-Roman,Times" font-size="43.0" fill="#000000" transform="matrix(1.00, 0.00, -0.00, -1.00, 197.3, 488.1)">r</text><text xml:space="preserve" font-family="Times-Roman,Times" font-size="43.0" fill="#000000" transform="matrix(1.00, 0.00, -0.00, -1.00, 211.6, 488.1)">e</text><text xml:space="preserve" font-family="Times-Roman,Times" font-size="43.0" fill="#000000" transform="matrix(1.00, 0.00, -0.00, -1.00, 230.7, 488.1)">n</text><text xml:space="preserve" font-family="Times-Roman,Times" font-size="43.0" fill="#000000" transform="matrix(1.00, 0.00, -0.00, -1.00, 252.2, 488.1)">t</text><text xml:space="preserve" font-family="Times-Roman,Times" font-size="43.0" fill="#000000" transform="matrix(1.00, 0.00, -0.00, -1.00, 264.1, 488.1)"> </text><text xml:space="preserve" font-family="Times-Roman,Times" font-size="43.0" fill="#000000" transform="matrix(1.00, 0.00, -0.00, -1.00, 274.9, 488.1)">t</text><text xml:space="preserve" font-family="Times-Roman,Times" font-size="43.0" fill="#000000" transform="matrix(1.00, 0.00, -0.00, -1.00, 286.8, 488.1)">o</text><text xml:space="preserve" font-family="Times-Roman,Times" font-size="43.0" fill="#000000" transform="matrix(1.00, 0.00, -0.00, -1.00, 308.3, 488.1)"> </text><text xml:space="preserve" font-family="TrebuchetMS,Trebuchet MS" font-size="43.0" fill="#000000" transform="matrix(1.00, 0.00, -0.00, -1.00, 319.1, 488.1)">L</text><text xml:space="preserve" font-family="TrebuchetMS,Trebuchet MS" font-size="43.0" fill="#000000" transform="matrix(1.00, 0.00, -0.00, -1.00, 340.9, 488.1)">E</text><text xml:space="preserve" font-family="TrebuchetMS,Trebuchet MS" font-size="43.0" fill="#000000" transform="matrix(1.00, 0.00, -0.00, -1.00, 363.9, 488.1)">D</text><text xml:space="preserve" font-family="Times-Roman,Times" font-size="12.0" fill="#000000" transform="matrix(1.00, 0.00, -0.00, -1.00, 390.3, 488.1)">	</text><text xml:space="preserve" font-family="Times-Roman,Times" font-size="12.0" fill="#000000" transform="matrix(1.00, 0.00, -0.00, -1.00, 418.3, 488.1)">
</text><text xml:space="preserve" font-family="Times-Roman,Times" font-size="12.0" fill="#000000" transform="matrix(1.00, 0.00, -0.00, -1.00, 418.3, 488.1)"></text><text xml:space="preserve" font-family="Times-Roman,Times" font-size="37.0" fill="#000000" transform="matrix(1.00, 0.00, -0.00, -1.00, 9.9, 404.6)">B</text><text xml:space="preserve" font-family="Times-Roman,Times" font-size="37.0" fill="#000000" transform="matrix(1.00, 0.00, -0.00, -1.00, 34.6, 404.6)">e</text><text xml:space="preserve" font-family="Times-Roman,Times" font-size="37.0" fill="#000000" transform="matrix(1.00, 0.00, -0.00, -1.00, 51.0, 404.6)">n</text><text xml:space="preserve" font-family="Times-Roman,Times" font-size="37.0" fill="#000000" transform="matrix(1.00, 0.00, -0.00, -1.00, 69.5, 404.6)">d</text><text xml:space="preserve" font-family="Times-Roman,Times" font-size="37.0" fill="#000000" transform="matrix(1.00, 0.00, -0.00, -1.00, 88.0, 404.6)"> </text><text xml:space="preserve" font-family="Times-Roman,Times" font-size="37.0" fill="#000000" transform="matrix(1.00, 0.00, -0.00, -1.00, 97.2, 404.6)">a</text><text xml:space="preserve" font-family="Times-Roman,Times" font-size="37.0" fill="#000000" transform="matrix(1.00, 0.00, -0.00, -1.00, 113.6, 404.6)"> </text><text xml:space="preserve" font-family="Times-Roman,Times" font-size="37.0" fill="#000000" transform="matrix(1.00, 0.00, -0.00, -1.00, 122.9, 404.6)">r</text><text xml:space="preserve" font-family="Times-Roman,Times" font-size="37.0" fill="#000000" transform="matrix(1.00, 0.00, -0.00, -1.00, 135.2, 404.6)">e</text><text xml:space="preserve" font-family="Times-Roman,Times" font-size="37.0" fill="#000000" transform="matrix(1.00, 0.00, -0.00, -1.00, 151.6, 404.6)">s</text><text xml:space="preserve" font-family="Times-Roman,Times" font-size="37.0" fill="#000000" transform="matrix(1.00, 0.00, -0.00, -1.00, 166.0, 404.6)">i</text><text xml:space="preserve" font-family="Times-Roman,Times" font-size="37.0" fill="#000000" transform="matrix(1.00, 0.00, -0.00, -1.00, 176.3, 404.6)">s</text><text xml:space="preserve" font-family="Times-Roman,Times" font-size="37.0" fill="#000000" transform="matrix(1.00, 0.00, -0.00, -1.00, 190.7, 404.6)">t</text><text xml:space="preserve" font-family="Times-Roman,Times" font-size="37.0" fill="#000000" transform="matrix(1.00, 0.00, -0.00, -1.00, 201.0, 404.6)">o</text><text xml:space="preserve" font-family="Times-Roman,Times" font-size="37.0" fill="#000000" transform="matrix(1.00, 0.00, -0.00, -1.00, 219.5, 404.6)">r</text><text xml:space="preserve" font-family="Times-Roman,Times" font-size="37.0" fill="#000000" transform="matrix(1.00, 0.00, -0.00, -1.00, 231.8, 404.6)"> </text><text xml:space="preserve" font-family="Times-Roman,Times" font-size="37.0" fill="#000000" transform="matrix(1.00, 0.00, -0.00, -1.00, 241.0, 404.6)">‘</text><text xml:space="preserve" font-family="Times-Roman,Times" font-size="37.0" fill="#000000" transform="matrix(1.00, 0.00, -0.00, -1.00, 253.4, 404.6)">C</text><text xml:space="preserve" font-family="Times-Roman,Times" font-size="37.0" fill="#000000" transform="matrix(1.00, 0.00, -0.00, -1.00, 278.0, 404.6)">’</text><text xml:space="preserve" font-family="Times-Roman,Times" font-size="37.0" fill="#000000" transform="matrix(1.00, 0.00, -0.00, -1.00, 287.6, 404.6)"> </text><text xml:space="preserve" font-family="Times-Roman,Times" font-size="37.0" fill="#000000" transform="matrix(1.00, 0.00, -0.00, -1.00, 296.9, 404.6)">s</text><text xml:space="preserve" font-family="Times-Roman,Times" font-size="37.0" fill="#000000" transform="matrix(1.00, 0.00, -0.00, -1.00, 311.3, 404.6)">h</text><text xml:space="preserve" font-family="Times-Roman,Times" font-size="37.0" fill="#000000" transform="matrix(1.00, 0.00, -0.00, -1.00, 329.8, 404.6)">a</text><text xml:space="preserve" font-family="Times-Roman,Times" font-size="37.0" fill="#000000" transform="matrix(1.00, 0.00, -0.00, -1.00, 346.2, 404.6)">p</text><text xml:space="preserve" font-family="Times-Roman,Times" font-size="37.0" fill="#000000" transform="matrix(1.00, 0.00, -0.00, -1.00, 364.7, 404.6)">e</text><text xml:space="preserve" font-family="Times-Roman,Times" font-size="37.0" fill="#000000" transform="matrix(1.00, 0.00, -0.00, -1.00, 381.1, 404.6)"> </text><text xml:space="preserve" font-family="Times-Roman,Times" font-size="37.0" fill="#000000" transform="matrix(1.00, 0.00, -0.00, -1.00, 390.4, 404.6)">t</text><text xml:space="preserve" font-family="Times-Roman,Times" font-size="37.0" fill="#000000" transform="matrix(1.00, 0.00, -0.00, -1.00, 400.6, 404.6)">o</text><text xml:space="preserve" font-family="Times-Roman,Times" font-size="37.0" fill="#000000" transform="matrix(1.00, 0.00, -0.00, -1.00, 419.1, 404.6)"> </text><text xml:space="preserve" font-family="Times-Roman,Times" font-size="37.0" fill="#000000" transform="matrix(1.00, 0.00, -0.00, -1.00, 9.9, 360.6)">w</text><text xml:space="preserve" font-family="Times-Roman,Times" font-size="37.0" fill="#000000" transform="matrix(1.00, 0.00, -0.00, -1.00, 36.6, 360.6)">i</text><text xml:space="preserve" font-family="Times-Roman,Times" font-size="37.0" fill="#000000" transform="matrix(1.00, 0.00, -0.00, -1.00, 46.9, 360.6)">r</text><text xml:space="preserve" font-family="Times-Roman,Times" font-size="37.0" fill="#000000" transform="matrix(1.00, 0.00, -0.00, -1.00, 59.2, 360.6)">e</text><text xml:space="preserve" font-family="Times-Roman,Times" font-size="37.0" fill="#000000" transform="matrix(1.00, 0.00, -0.00, -1.00, 75.6, 360.6)"> </text><text xml:space="preserve" font-family="Times-Roman,Times" font-size="37.0" fill="#000000" transform="matrix(1.00, 0.00, -0.00, -1.00, 84.9, 360.6)">i</text><text xml:space="preserve" font-family="Times-Roman,Times" font-size="37.0" fill="#000000" transform="matrix(1.00, 0.00, -0.00, -1.00, 95.1, 360.6)">t</text><text xml:space="preserve" font-family="Times-Roman,Times" font-size="37.0" fill="#000000" transform="matrix(1.00, 0.00, -0.00, -1.00, 105.4, 360.6)"> </text><text xml:space="preserve" font-family="Times-Roman,Times" font-size="37.0" fill="#000000" transform="matrix(1.00, 0.00, -0.00, -1.00, 114.7, 360.6)">i</text><text xml:space="preserve" font-family="Times-Roman,Times" font-size="37.0" fill="#000000" transform="matrix(1.00, 0.00, -0.00, -1.00, 124.9, 360.6)">n</text><text xml:space="preserve" font-family="Times-Roman,Times" font-size="37.0" fill="#000000" transform="matrix(1.00, 0.00, -0.00, -1.00, 143.4, 360.6)">t</text><text xml:space="preserve" font-family="Times-Roman,Times" font-size="37.0" fill="#000000" transform="matrix(1.00, 0.00, -0.00, -1.00, 153.7, 360.6)">o</text><text xml:space="preserve" font-family="Times-Roman,Times" font-size="37.0" fill="#000000" transform="matrix(1.00, 0.00, -0.00, -1.00, 172.2, 360.6)"> </text><text xml:space="preserve" font-family="Times-Roman,Times" font-size="37.0" fill="#000000" transform="matrix(1.00, 0.00, -0.00, -1.00, 181.4, 360.6)">y</text><text xml:space="preserve" font-family="Times-Roman,Times" font-size="37.0" fill="#000000" transform="matrix(1.00, 0.00, -0.00, -1.00, 199.9, 360.6)">o</text><text xml:space="preserve" font-family="Times-Roman,Times" font-size="37.0" fill="#000000" transform="matrix(1.00, 0.00, -0.00, -1.00, 218.4, 360.6)">u</text><text xml:space="preserve" font-family="Times-Roman,Times" font-size="37.0" fill="#000000" transform="matrix(1.00, 0.00, -0.00, -1.00, 236.9, 360.6)">r</text><text xml:space="preserve" font-family="Times-Roman,Times" font-size="37.0" fill="#000000" transform="matrix(1.00, 0.00, -0.00, -1.00, 249.3, 360.6)"> </text><text xml:space="preserve" font-family="Times-Roman,Times" font-size="37.0" fill="#000000" transform="matrix(1.00, 0.00, -0.00, -1.00, 258.5, 360.6)">b</text><text xml:space="preserve" font-family="Times-Roman,Times" font-size="37.0" fill="#000000" transform="matrix(1.00, 0.00, -0.00, -1.00, 277.0, 360.6)">r</text><text xml:space="preserve" font-family="Times-Roman,Times" font-size="37.0" fill="#000000" transform="matrix(1.00, 0.00, -0.00, -1.00, 289.3, 360.6)">e</text><text xml:space="preserve" font-family="Times-Roman,Times" font-size="37.0" fill="#000000" transform="matrix(1.00, 0.00, -0.00, -1.00, 305.8, 360.6)">a</text><text xml:space="preserve" font-family="Times-Roman,Times" font-size="37.0" fill="#000000" transform="matrix(1.00, 0.00, -0.00, -1.00, 322.2, 360.6)">d</text><text xml:space="preserve" font-family="Times-Roman,Times" font-size="37.0" fill="#000000" transform="matrix(1.00, 0.00, -0.00, -1.00, 340.7, 360.6)">b</text><text xml:space="preserve" font-family="Times-Roman,Times" font-size="37.0" fill="#000000" transform="matrix(1.00, 0.00, -0.00, -1.00, 359.2, 360.6)">o</text><text xml:space="preserve" font-family="Times-Roman,Times" font-size="37.0" fill="#000000" transform="matrix(1.00, 0.00, -0.00, -1.00, 377.7, 360.6)">a</text><text xml:space="preserve" font-family="Times-Roman,Times" font-size="37.0" fill="#000000" transform="matrix(1.00, 0.00, -0.00, -1.00, 394.1, 360.6)">r</text><text xml:space="preserve" font-family="Times-Roman,Times" font-size="37.0" fill="#000000" transform="matrix(1.00, 0.00, -0.00, -1.00, 406.4, 360.6)">d</text><text xml:space="preserve" font-family="Times-Roman,Times" font-size="37.0" fill="#000000" transform="matrix(1.00, 0.00, -0.00, -1.00, 424.9, 360.6)">.</text><image xlink:href="3DE559B17611336A5455B8D699028DE5.png" width="556.00" height="811.00" transform="matrix(1.00, 0.00, -0.00, -1.00, 487.5, 779.4)" opacity="0.70"></image><g><clipPath id="clip0x600000eb3980"><path d="M 507.0 769.0 L 1023.0 769.0 L 1023.0 -1.0 L 507.0 -1.0 Z M 507.5 769.4 "></path></clipPath><g clip-path="url(#clip0x600000eb3980)"><image xlink:href="D9E635FF1BBBD25E9709CED2E827A3C1.jpeg" width="3264.00" height="2448.00" transform="matrix(0.00, -0.24, -0.24, 0.00, 1054.5, 769.4)"></image></g></g></g></svg>