<?xml version="1.0" encoding="UTF-8" standalone="no"?><svg xmlns="http://www.w3.org/2000/svg" xmlns:xlink="http://www.w3.org/1999/xlink" clip-rule="evenodd" stroke-miterlimit="10" viewBox="0 0 1024 768"><desc>SVG generated by Keynote</desc><defs></defs><g transform="matrix(1.00, 0.00, -0.00, -1.00, 0.0, 768.0)"><path d="M 0.0 768.0 L 1024.0 768.0 L 1024.0 0.0 L 0.0 0.0 Z M 0.0 768.0 " fill="#FEFFFF"></path><text xml:space="preserve" font-family="Times-Bold,Times" font-weight="bold" font-size="85.3" fill="#000000" transform="matrix(1.00, 0.00, -0.00, -1.00, 79.2, 669.0)">H</text><text xml:space="preserve" font-family="Times-Bold,Times" font-weight="bold" font-size="85.3" fill="#000000" transform="matrix(1.00, 0.00, -0.00, -1.00, 145.5, 669.0)">a</text><text xml:space="preserve" font-family="Times-Bold,Times" font-weight="bold" font-size="85.3" fill="#000000" transform="matrix(1.00, 0.00, -0.00, -1.00, 188.1, 669.0)">n</text><text xml:space="preserve" font-family="Times-Bold,Times" font-weight="bold" font-size="85.3" fill="#000000" transform="matrix(1.00, 0.00, -0.00, -1.00, 235.6, 669.0)">d</text><text xml:space="preserve" font-family="Times-Bold,Times" font-weight="bold" font-size="85.3" fill="#000000" transform="matrix(1.00, 0.00, -0.00, -1.00, 283.0, 669.0)">s</text><text xml:space="preserve" font-family="Times-Bold,Times" font-weight="bold" font-size="85.3" fill="#000000" transform="matrix(1.00, 0.00, -0.00, -1.00, 316.2, 669.0)">-</text><text xml:space="preserve" font-family="Times-Bold,Times" font-weight="bold" font-size="85.3" fill="#000000" transform="matrix(1.00, 0.00, -0.00, -1.00, 344.6, 669.0)">o</text><text xml:space="preserve" font-family="Times-Bold,Times" font-weight="bold" font-size="85.3" fill="#000000" transform="matrix(1.00, 0.00, -0.00, -1.00, 387.2, 669.0)">n</text><text xml:space="preserve" font-family="Times-Bold,Times" font-weight="bold" font-size="85.3" fill="#000000" transform="matrix(1.00, 0.00, -0.00, -1.00, 434.7, 669.0)">:</text><text xml:space="preserve" font-family="Times-Bold,Times" font-weight="bold" font-size="85.3" fill="#000000" transform="matrix(1.00, 0.00, -0.00, -1.00, 463.1, 669.0)"> </text><text xml:space="preserve" font-family="Times-Bold,Times" font-weight="bold" font-size="85.3" fill="#000000" transform="matrix(1.00, 0.00, -0.00, -1.00, 482.9, 669.0)">W</text><text xml:space="preserve" font-family="Times-Bold,Times" font-weight="bold" font-size="85.3" fill="#000000" transform="matrix(1.00, 0.00, -0.00, -1.00, 563.5, 669.0)">a</text><text xml:space="preserve" font-family="Times-Bold,Times" font-weight="bold" font-size="85.3" fill="#000000" transform="matrix(1.00, 0.00, -0.00, -1.00, 606.1, 669.0)">l</text><text xml:space="preserve" font-family="Times-Bold,Times" font-weight="bold" font-size="85.3" fill="#000000" transform="matrix(1.00, 0.00, -0.00, -1.00, 629.8, 669.0)">k</text><text xml:space="preserve" font-family="Times-Bold,Times" font-weight="bold" font-size="85.3" fill="#000000" transform="matrix(1.00, 0.00, -0.00, -1.00, 677.2, 669.0)">i</text><text xml:space="preserve" font-family="Times-Bold,Times" font-weight="bold" font-size="85.3" fill="#000000" transform="matrix(1.00, 0.00, -0.00, -1.00, 700.9, 669.0)">n</text><text xml:space="preserve" font-family="Times-Bold,Times" font-weight="bold" font-size="85.3" fill="#000000" transform="matrix(1.00, 0.00, -0.00, -1.00, 748.3, 669.0)">g</text><text xml:space="preserve" font-family="Times-Bold,Times" font-weight="bold" font-size="85.3" fill="#000000" transform="matrix(1.00, 0.00, -0.00, -1.00, 790.9, 669.0)"> </text><text xml:space="preserve" font-family="Times-Bold,Times" font-weight="bold" font-size="85.3" fill="#000000" transform="matrix(1.00, 0.00, -0.00, -1.00, 812.2, 669.0)">C</text><text xml:space="preserve" font-family="Times-Bold,Times" font-weight="bold" font-size="85.3" fill="#000000" transform="matrix(1.00, 0.00, -0.00, -1.00, 873.8, 669.0)">a</text><text xml:space="preserve" font-family="Times-Bold,Times" font-weight="bold" font-size="85.3" fill="#000000" transform="matrix(1.00, 0.00, -0.00, -1.00, 916.5, 669.0)">t</text><image xlink:href="66296005CF72560AEDCCA687634D818F.png" width="821.00" height="666.00" transform="matrix(1.00, 0.00, -0.00, -1.00, 104.0, 653.8)" opacity="0.50"></image><image xlink:href="7392204786055460C66CC93176233709.png" width="980.00" height="792.00" transform="matrix(0.83, 0.00, -0.00, -0.83, 107.6, 651.0)"></image></g></svg>