<?xml version="1.0" encoding="UTF-8" standalone="no"?><svg xmlns="http://www.w3.org/2000/svg" xmlns:xlink="http://www.w3.org/1999/xlink" clip-rule="evenodd" stroke-miterlimit="10" viewBox="0 0 1024 768"><desc>SVG generated by Keynote</desc><defs></defs><g transform="matrix(1.00, 0.00, -0.00, -1.00, 0.0, 768.0)"><path d="M 0.0 768.0 L 1024.0 768.0 L 1024.0 0.0 L 0.0 0.0 Z M 0.0 768.0 " fill="#FEFFFF"></path><image xlink:href="../../8521FAAA-217C-4C04-BA7F-5F022F0530AC/assets/14C3BB066AAFD9DB9D1CD7DDBC239237.png" width="1021.00" height="784.00" transform="matrix(1.00, 0.00, -0.00, -1.00, -0.4, 768.6)"></image><g opacity="0.69"><g><clipPath id="clip0x600000aa48c0"><path d="M 20.0 0.0 L 995.0 0.0 L 995.0 96.0 L 20.0 96.0 Z M 20.0 0.0 "></path></clipPath><g clip-path="url(#clip0x600000aa48c0)"><image xlink:href="../../8521FAAA-217C-4C04-BA7F-5F022F0530AC/assets/8802E7970A9841DF05F042AF2CA66D62.png" width="972.00" height="101.00" transform="matrix(1.00, 0.00, -0.00, -1.00, 21.1, 90.2)" opacity="0.50"></image><path d="M 24.1 16.9 L 24.0 66.4 C 24.0 79.0 34.3 89.0 46.9 89.0 L 967.8 89.0 C 980.3 89.0 991.0 79.0 991.0 66.4 L 991.0 16.9 C 991.0 4.3 980.3 -6.0 967.8 -6.0 L 46.9 -6.0 C 34.3 -6.0 24.1 4.3 24.1 16.9 Z M 24.1 16.9 " fill="#000000"></path></g></g></g><text xml:space="preserve" font-family="Times-Roman,Times" font-size="33.0" fill="#FEFFFE" transform="matrix(1.00, 0.00, -0.00, -1.00, 31.8, 51.4)">M</text><text xml:space="preserve" font-family="Times-Roman,Times" font-size="33.0" fill="#FEFFFE" transform="matrix(1.00, 0.00, -0.00, -1.00, 61.2, 51.4)">a</text><text xml:space="preserve" font-family="Times-Roman,Times" font-size="33.0" fill="#FEFFFE" transform="matrix(1.00, 0.00, -0.00, -1.00, 75.8, 51.4)">k</text><text xml:space="preserve" font-family="Times-Roman,Times" font-size="33.0" fill="#FEFFFE" transform="matrix(1.00, 0.00, -0.00, -1.00, 92.3, 51.4)">i</text><text xml:space="preserve" font-family="Times-Roman,Times" font-size="33.0" fill="#FEFFFE" transform="matrix(1.00, 0.00, -0.00, -1.00, 101.5, 51.4)">n</text><text xml:space="preserve" font-family="Times-Roman,Times" font-size="33.0" fill="#FEFFFE" transform="matrix(1.00, 0.00, -0.00, -1.00, 118.0, 51.4)">g</text><text xml:space="preserve" font-family="Times-Roman,Times" font-size="33.0" fill="#FEFFFE" transform="matrix(1.00, 0.00, -0.00, -1.00, 134.5, 51.4)"> </text><text xml:space="preserve" font-family="Times-Roman,Times" font-size="33.0" fill="#FEFFFE" transform="matrix(1.00, 0.00, -0.00, -1.00, 142.7, 51.4)">a</text><text xml:space="preserve" font-family="Times-Roman,Times" font-size="33.0" fill="#FEFFFE" transform="matrix(1.00, 0.00, -0.00, -1.00, 157.4, 51.4)"> </text><text xml:space="preserve" font-family="Times-Roman,Times" font-size="33.0" fill="#FEFFFE" transform="matrix(1.00, 0.00, -0.00, -1.00, 165.6, 51.4)">p</text><text xml:space="preserve" font-family="Times-Roman,Times" font-size="33.0" fill="#FEFFFE" transform="matrix(1.00, 0.00, -0.00, -1.00, 182.1, 51.4)">r</text><text xml:space="preserve" font-family="Times-Roman,Times" font-size="33.0" fill="#FEFFFE" transform="matrix(1.00, 0.00, -0.00, -1.00, 193.1, 51.4)">o</text><text xml:space="preserve" font-family="Times-Roman,Times" font-size="33.0" fill="#FEFFFE" transform="matrix(1.00, 0.00, -0.00, -1.00, 209.6, 51.4)">g</text><text xml:space="preserve" font-family="Times-Roman,Times" font-size="33.0" fill="#FEFFFE" transform="matrix(1.00, 0.00, -0.00, -1.00, 226.1, 51.4)">r</text><text xml:space="preserve" font-family="Times-Roman,Times" font-size="33.0" fill="#FEFFFE" transform="matrix(1.00, 0.00, -0.00, -1.00, 237.1, 51.4)">a</text><text xml:space="preserve" font-family="Times-Roman,Times" font-size="33.0" fill="#FEFFFE" transform="matrix(1.00, 0.00, -0.00, -1.00, 251.7, 51.4)">m</text><text xml:space="preserve" font-family="Times-Roman,Times" font-size="33.0" fill="#FEFFFE" transform="matrix(1.00, 0.00, -0.00, -1.00, 277.4, 51.4)"> </text><text xml:space="preserve" font-family="Times-Roman,Times" font-size="33.0" fill="#FEFFFE" transform="matrix(1.00, 0.00, -0.00, -1.00, 285.6, 51.4)">w</text><text xml:space="preserve" font-family="Times-Roman,Times" font-size="33.0" fill="#FEFFFE" transform="matrix(1.00, 0.00, -0.00, -1.00, 309.5, 51.4)">i</text><text xml:space="preserve" font-family="Times-Roman,Times" font-size="33.0" fill="#FEFFFE" transform="matrix(1.00, 0.00, -0.00, -1.00, 318.6, 51.4)">t</text><text xml:space="preserve" font-family="Times-Roman,Times" font-size="33.0" fill="#FEFFFE" transform="matrix(1.00, 0.00, -0.00, -1.00, 327.8, 51.4)">h</text><text xml:space="preserve" font-family="Times-Roman,Times" font-size="33.0" fill="#FEFFFE" transform="matrix(1.00, 0.00, -0.00, -1.00, 344.3, 51.4)"> </text><text xml:space="preserve" font-family="Times-Roman,Times" font-size="33.0" fill="#FEFFFE" transform="matrix(1.00, 0.00, -0.00, -1.00, 352.5, 51.4)">S</text><text xml:space="preserve" font-family="Times-Roman,Times" font-size="33.0" fill="#FEFFFE" transform="matrix(1.00, 0.00, -0.00, -1.00, 370.9, 51.4)">c</text><text xml:space="preserve" font-family="Times-Roman,Times" font-size="33.0" fill="#FEFFFE" transform="matrix(1.00, 0.00, -0.00, -1.00, 385.5, 51.4)">r</text><text xml:space="preserve" font-family="Times-Roman,Times" font-size="33.0" fill="#FEFFFE" transform="matrix(1.00, 0.00, -0.00, -1.00, 396.5, 51.4)">a</text><text xml:space="preserve" font-family="Times-Roman,Times" font-size="33.0" fill="#FEFFFE" transform="matrix(1.00, 0.00, -0.00, -1.00, 411.2, 51.4)">t</text><text xml:space="preserve" font-family="Times-Roman,Times" font-size="33.0" fill="#FEFFFE" transform="matrix(1.00, 0.00, -0.00, -1.00, 420.3, 51.4)">c</text><text xml:space="preserve" font-family="Times-Roman,Times" font-size="33.0" fill="#FEFFFE" transform="matrix(1.00, 0.00, -0.00, -1.00, 435.0, 51.4)">h</text><text xml:space="preserve" font-family="Times-Roman,Times" font-size="33.0" fill="#FEFFFE" transform="matrix(1.00, 0.00, -0.00, -1.00, 451.5, 51.4)"> </text><text xml:space="preserve" font-family="Times-Roman,Times" font-size="33.0" fill="#FEFFFE" transform="matrix(1.00, 0.00, -0.00, -1.00, 459.7, 51.4)">i</text><text xml:space="preserve" font-family="Times-Roman,Times" font-size="33.0" fill="#FEFFFE" transform="matrix(1.00, 0.00, -0.00, -1.00, 468.9, 51.4)">s</text><text xml:space="preserve" font-family="Times-Roman,Times" font-size="33.0" fill="#FEFFFE" transform="matrix(1.00, 0.00, -0.00, -1.00, 481.7, 51.4)"> </text><text xml:space="preserve" font-family="Times-Roman,Times" font-size="33.0" fill="#FEFFFE" transform="matrix(1.00, 0.00, -0.00, -1.00, 490.0, 51.4)">r</text><text xml:space="preserve" font-family="Times-Roman,Times" font-size="33.0" fill="#FEFFFE" transform="matrix(1.00, 0.00, -0.00, -1.00, 501.0, 51.4)">e</text><text xml:space="preserve" font-family="Times-Roman,Times" font-size="33.0" fill="#FEFFFE" transform="matrix(1.00, 0.00, -0.00, -1.00, 515.6, 51.4)">a</text><text xml:space="preserve" font-family="Times-Roman,Times" font-size="33.0" fill="#FEFFFE" transform="matrix(1.00, 0.00, -0.00, -1.00, 530.3, 51.4)">l</text><text xml:space="preserve" font-family="Times-Roman,Times" font-size="33.0" fill="#FEFFFE" transform="matrix(1.00, 0.00, -0.00, -1.00, 539.4, 51.4)">l</text><text xml:space="preserve" font-family="Times-Roman,Times" font-size="33.0" fill="#FEFFFE" transform="matrix(1.00, 0.00, -0.00, -1.00, 548.6, 51.4)">y</text><text xml:space="preserve" font-family="Times-Roman,Times" font-size="33.0" fill="#FEFFFE" transform="matrix(1.00, 0.00, -0.00, -1.00, 565.1, 51.4)"> </text><text xml:space="preserve" font-family="Times-Roman,Times" font-size="33.0" fill="#FEFFFE" transform="matrix(1.00, 0.00, -0.00, -1.00, 573.3, 51.4)">e</text><text xml:space="preserve" font-family="Times-Roman,Times" font-size="33.0" fill="#FEFFFE" transform="matrix(1.00, 0.00, -0.00, -1.00, 588.0, 51.4)">a</text><text xml:space="preserve" font-family="Times-Roman,Times" font-size="33.0" fill="#FEFFFE" transform="matrix(1.00, 0.00, -0.00, -1.00, 602.6, 51.4)">s</text><text xml:space="preserve" font-family="Times-Roman,Times" font-size="33.0" fill="#FEFFFE" transform="matrix(1.00, 0.00, -0.00, -1.00, 615.5, 51.4)">y</text><text xml:space="preserve" font-family="Times-Roman,Times" font-size="33.0" fill="#FEFFFE" transform="matrix(1.00, 0.00, -0.00, -1.00, 629.8, 51.4)">.</text><text xml:space="preserve" font-family="LucidaGrande,Lucida Grande" font-size="33.0" fill="#FEFFFE" transform="matrix(1.00, 0.00, -0.00, -1.00, 638.2, 51.4)"> </text><text xml:space="preserve" font-family="Times-Roman,Times" font-size="33.0" fill="#FEFFFE" transform="matrix(1.00, 0.00, -0.00, -1.00, 31.8, 11.4)">Y</text><text xml:space="preserve" font-family="Times-Roman,Times" font-size="33.0" fill="#FEFFFE" transform="matrix(1.00, 0.00, -0.00, -1.00, 52.4, 11.4)">o</text><text xml:space="preserve" font-family="Times-Roman,Times" font-size="33.0" fill="#FEFFFE" transform="matrix(1.00, 0.00, -0.00, -1.00, 68.9, 11.4)">u</text><text xml:space="preserve" font-family="Times-Roman,Times" font-size="33.0" fill="#FEFFFE" transform="matrix(1.00, 0.00, -0.00, -1.00, 85.4, 11.4)"> </text><text xml:space="preserve" font-family="Times-Roman,Times" font-size="33.0" fill="#FEFFFE" transform="matrix(1.00, 0.00, -0.00, -1.00, 93.6, 11.4)">c</text><text xml:space="preserve" font-family="Times-Roman,Times" font-size="33.0" fill="#FEFFFE" transform="matrix(1.00, 0.00, -0.00, -1.00, 108.3, 11.4)">a</text><text xml:space="preserve" font-family="Times-Roman,Times" font-size="33.0" fill="#FEFFFE" transform="matrix(1.00, 0.00, -0.00, -1.00, 122.9, 11.4)">n</text><text xml:space="preserve" font-family="Times-Roman,Times" font-size="33.0" fill="#FEFFFE" transform="matrix(1.00, 0.00, -0.00, -1.00, 139.4, 11.4)"> </text><text xml:space="preserve" font-family="Times-Roman,Times" font-size="33.0" fill="#FEFFFE" transform="matrix(1.00, 0.00, -0.00, -1.00, 147.6, 11.4)">r</text><text xml:space="preserve" font-family="Times-Roman,Times" font-size="33.0" fill="#FEFFFE" transform="matrix(1.00, 0.00, -0.00, -1.00, 158.6, 11.4)">u</text><text xml:space="preserve" font-family="Times-Roman,Times" font-size="33.0" fill="#FEFFFE" transform="matrix(1.00, 0.00, -0.00, -1.00, 175.1, 11.4)">n</text><text xml:space="preserve" font-family="Times-Roman,Times" font-size="33.0" fill="#FEFFFE" transform="matrix(1.00, 0.00, -0.00, -1.00, 191.6, 11.4)"> </text><text xml:space="preserve" font-family="Times-Roman,Times" font-size="33.0" fill="#FEFFFE" transform="matrix(1.00, 0.00, -0.00, -1.00, 199.9, 11.4)">S</text><text xml:space="preserve" font-family="Times-Roman,Times" font-size="33.0" fill="#FEFFFE" transform="matrix(1.00, 0.00, -0.00, -1.00, 218.2, 11.4)">c</text><text xml:space="preserve" font-family="Times-Roman,Times" font-size="33.0" fill="#FEFFFE" transform="matrix(1.00, 0.00, -0.00, -1.00, 232.9, 11.4)">r</text><text xml:space="preserve" font-family="Times-Roman,Times" font-size="33.0" fill="#FEFFFE" transform="matrix(1.00, 0.00, -0.00, -1.00, 243.9, 11.4)">a</text><text xml:space="preserve" font-family="Times-Roman,Times" font-size="33.0" fill="#FEFFFE" transform="matrix(1.00, 0.00, -0.00, -1.00, 258.5, 11.4)">t</text><text xml:space="preserve" font-family="Times-Roman,Times" font-size="33.0" fill="#FEFFFE" transform="matrix(1.00, 0.00, -0.00, -1.00, 267.7, 11.4)">c</text><text xml:space="preserve" font-family="Times-Roman,Times" font-size="33.0" fill="#FEFFFE" transform="matrix(1.00, 0.00, -0.00, -1.00, 282.3, 11.4)">h</text><text xml:space="preserve" font-family="Times-Roman,Times" font-size="33.0" fill="#FEFFFE" transform="matrix(1.00, 0.00, -0.00, -1.00, 298.8, 11.4)"> </text><text xml:space="preserve" font-family="Times-Roman,Times" font-size="33.0" fill="#FEFFFE" transform="matrix(1.00, 0.00, -0.00, -1.00, 307.1, 11.4)">b</text><text xml:space="preserve" font-family="Times-Roman,Times" font-size="33.0" fill="#FEFFFE" transform="matrix(1.00, 0.00, -0.00, -1.00, 323.6, 11.4)">y</text><text xml:space="preserve" font-family="Times-Roman,Times" font-size="33.0" fill="#FEFFFE" transform="matrix(1.00, 0.00, -0.00, -1.00, 340.1, 11.4)"> </text><text xml:space="preserve" font-family="Times-Roman,Times" font-size="33.0" fill="#FEFFFE" transform="matrix(1.00, 0.00, -0.00, -1.00, 348.3, 11.4)">d</text><text xml:space="preserve" font-family="Times-Roman,Times" font-size="33.0" fill="#FEFFFE" transform="matrix(1.00, 0.00, -0.00, -1.00, 364.8, 11.4)">o</text><text xml:space="preserve" font-family="Times-Roman,Times" font-size="33.0" fill="#FEFFFE" transform="matrix(1.00, 0.00, -0.00, -1.00, 381.3, 11.4)">u</text><text xml:space="preserve" font-family="Times-Roman,Times" font-size="33.0" fill="#FEFFFE" transform="matrix(1.00, 0.00, -0.00, -1.00, 397.8, 11.4)">b</text><text xml:space="preserve" font-family="Times-Roman,Times" font-size="33.0" fill="#FEFFFE" transform="matrix(1.00, 0.00, -0.00, -1.00, 414.3, 11.4)">l</text><text xml:space="preserve" font-family="Times-Roman,Times" font-size="33.0" fill="#FEFFFE" transform="matrix(1.00, 0.00, -0.00, -1.00, 423.5, 11.4)">e</text><text xml:space="preserve" font-family="Times-Roman,Times" font-size="33.0" fill="#FEFFFE" transform="matrix(1.00, 0.00, -0.00, -1.00, 438.1, 11.4)">-</text><text xml:space="preserve" font-family="Times-Roman,Times" font-size="33.0" fill="#FEFFFE" transform="matrix(1.00, 0.00, -0.00, -1.00, 449.1, 11.4)">c</text><text xml:space="preserve" font-family="Times-Roman,Times" font-size="33.0" fill="#FEFFFE" transform="matrix(1.00, 0.00, -0.00, -1.00, 463.7, 11.4)">l</text><text xml:space="preserve" font-family="Times-Roman,Times" font-size="33.0" fill="#FEFFFE" transform="matrix(1.00, 0.00, -0.00, -1.00, 472.9, 11.4)">i</text><text xml:space="preserve" font-family="Times-Roman,Times" font-size="33.0" fill="#FEFFFE" transform="matrix(1.00, 0.00, -0.00, -1.00, 482.1, 11.4)">c</text><text xml:space="preserve" font-family="Times-Roman,Times" font-size="33.0" fill="#FEFFFE" transform="matrix(1.00, 0.00, -0.00, -1.00, 496.7, 11.4)">k</text><text xml:space="preserve" font-family="Times-Roman,Times" font-size="33.0" fill="#FEFFFE" transform="matrix(1.00, 0.00, -0.00, -1.00, 513.2, 11.4)">i</text><text xml:space="preserve" font-family="Times-Roman,Times" font-size="33.0" fill="#FEFFFE" transform="matrix(1.00, 0.00, -0.00, -1.00, 522.4, 11.4)">n</text><text xml:space="preserve" font-family="Times-Roman,Times" font-size="33.0" fill="#FEFFFE" transform="matrix(1.00, 0.00, -0.00, -1.00, 538.9, 11.4)">g</text><text xml:space="preserve" font-family="Times-Roman,Times" font-size="33.0" fill="#FEFFFE" transform="matrix(1.00, 0.00, -0.00, -1.00, 555.4, 11.4)"> </text><text xml:space="preserve" font-family="Times-Roman,Times" font-size="33.0" fill="#FEFFFE" transform="matrix(1.00, 0.00, -0.00, -1.00, 563.6, 11.4)">t</text><text xml:space="preserve" font-family="Times-Roman,Times" font-size="33.0" fill="#FEFFFE" transform="matrix(1.00, 0.00, -0.00, -1.00, 572.8, 11.4)">h</text><text xml:space="preserve" font-family="Times-Roman,Times" font-size="33.0" fill="#FEFFFE" transform="matrix(1.00, 0.00, -0.00, -1.00, 589.3, 11.4)">i</text><text xml:space="preserve" font-family="Times-Roman,Times" font-size="33.0" fill="#FEFFFE" transform="matrix(1.00, 0.00, -0.00, -1.00, 598.4, 11.4)">s</text><text xml:space="preserve" font-family="Times-Roman,Times" font-size="33.0" fill="#FEFFFE" transform="matrix(1.00, 0.00, -0.00, -1.00, 611.3, 11.4)"> </text><text xml:space="preserve" font-family="Times-Roman,Times" font-size="33.0" fill="#FEFFFE" transform="matrix(1.00, 0.00, -0.00, -1.00, 619.5, 11.4)">i</text><text xml:space="preserve" font-family="Times-Roman,Times" font-size="33.0" fill="#FEFFFE" transform="matrix(1.00, 0.00, -0.00, -1.00, 628.7, 11.4)">c</text><text xml:space="preserve" font-family="Times-Roman,Times" font-size="33.0" fill="#FEFFFE" transform="matrix(1.00, 0.00, -0.00, -1.00, 643.3, 11.4)">o</text><text xml:space="preserve" font-family="Times-Roman,Times" font-size="33.0" fill="#FEFFFE" transform="matrix(1.00, 0.00, -0.00, -1.00, 659.8, 11.4)">n</text><text xml:space="preserve" font-family="Times-Roman,Times" font-size="33.0" fill="#FEFFFE" transform="matrix(1.00, 0.00, -0.00, -1.00, 676.3, 11.4)"> </text><text xml:space="preserve" font-family="Times-Roman,Times" font-size="33.0" fill="#FEFFFE" transform="matrix(1.00, 0.00, -0.00, -1.00, 684.6, 11.4)">o</text><text xml:space="preserve" font-family="Times-Roman,Times" font-size="33.0" fill="#FEFFFE" transform="matrix(1.00, 0.00, -0.00, -1.00, 701.1, 11.4)">n</text><text xml:space="preserve" font-family="Times-Roman,Times" font-size="33.0" fill="#FEFFFE" transform="matrix(1.00, 0.00, -0.00, -1.00, 717.6, 11.4)"> </text><text xml:space="preserve" font-family="Times-Roman,Times" font-size="33.0" fill="#FEFFFE" transform="matrix(1.00, 0.00, -0.00, -1.00, 725.8, 11.4)">D</text><text xml:space="preserve" font-family="Times-Roman,Times" font-size="33.0" fill="#FEFFFE" transform="matrix(1.00, 0.00, -0.00, -1.00, 749.7, 11.4)">e</text><text xml:space="preserve" font-family="Times-Roman,Times" font-size="33.0" fill="#FEFFFE" transform="matrix(1.00, 0.00, -0.00, -1.00, 764.3, 11.4)">s</text><text xml:space="preserve" font-family="Times-Roman,Times" font-size="33.0" fill="#FEFFFE" transform="matrix(1.00, 0.00, -0.00, -1.00, 777.2, 11.4)">k</text><text xml:space="preserve" font-family="Times-Roman,Times" font-size="33.0" fill="#FEFFFE" transform="matrix(1.00, 0.00, -0.00, -1.00, 793.7, 11.4)">t</text><text xml:space="preserve" font-family="Times-Roman,Times" font-size="33.0" fill="#FEFFFE" transform="matrix(1.00, 0.00, -0.00, -1.00, 802.8, 11.4)">o</text><text xml:space="preserve" font-family="Times-Roman,Times" font-size="33.0" fill="#FEFFFE" transform="matrix(1.00, 0.00, -0.00, -1.00, 819.3, 11.4)">p</text><text xml:space="preserve" font-family="Times-Roman,Times" font-size="33.0" fill="#FEFFFE" transform="matrix(1.00, 0.00, -0.00, -1.00, 835.8, 11.4)">:</text><image xlink:href="../../8521FAAA-217C-4C04-BA7F-5F022F0530AC/assets/F244FD81D9F24B1AF4DF9A0F8B1D6A85.png" width="92.00" height="93.00" transform="matrix(1.00, 0.00, -0.00, -1.00, 848.8, 87.9)" opacity="0.70"></image><image xlink:href="../../8521FAAA-217C-4C04-BA7F-5F022F0530AC/assets/4D03299FEE4F8236E6D9AE1E27E0B0E6.png" width="206.00" height="209.00" transform="matrix(0.40, 0.00, -0.00, -0.40, 852.8, 84.7)"></image><path d="M 0.0 0.0 L 81.9 0.0 L 81.9 83.1 L 0.0 83.1 Z M 0.0 0.0 " fill="none" stroke="#F2F6F5" stroke-width="2.00" transform="matrix(1.00, 0.00, 0.00, -1.00, 852.8, 84.7)"></path></g></svg>