<?xml version="1.0" encoding="UTF-8" standalone="no"?><svg xmlns="http://www.w3.org/2000/svg" xmlns:xlink="http://www.w3.org/1999/xlink" clip-rule="evenodd" stroke-miterlimit="10" viewBox="0 0 462 153"><desc>SVG generated by Keynote</desc><defs></defs><g transform="matrix(1.00, 0.00, -0.00, -1.00, 0.0, 153.0)"><text xml:space="preserve" font-family="Times-Bold,Times" font-weight="bold" font-size="72.2" fill="#000000" transform="matrix(1.00, 0.00, -0.00, -1.00, 68.7, 102.9)">H</text><text xml:space="preserve" font-family="Times-Bold,Times" font-weight="bold" font-size="72.2" fill="#000000" transform="matrix(1.00, 0.00, -0.00, -1.00, 124.9, 102.9)">a</text><text xml:space="preserve" font-family="Times-Bold,Times" font-weight="bold" font-size="72.2" fill="#000000" transform="matrix(1.00, 0.00, -0.00, -1.00, 161.0, 102.9)">n</text><text xml:space="preserve" font-family="Times-Bold,Times" font-weight="bold" font-size="72.2" fill="#000000" transform="matrix(1.00, 0.00, -0.00, -1.00, 201.2, 102.9)">d</text><text xml:space="preserve" font-family="Times-Bold,Times" font-weight="bold" font-size="72.2" fill="#000000" transform="matrix(1.00, 0.00, -0.00, -1.00, 241.4, 102.9)">s</text><text xml:space="preserve" font-family="Times-Bold,Times" font-weight="bold" font-size="72.2" fill="#000000" transform="matrix(1.00, 0.00, -0.00, -1.00, 269.5, 102.9)">-</text><text xml:space="preserve" font-family="Times-Bold,Times" font-weight="bold" font-size="72.2" fill="#000000" transform="matrix(1.00, 0.00, -0.00, -1.00, 293.5, 102.9)">o</text><text xml:space="preserve" font-family="Times-Bold,Times" font-weight="bold" font-size="72.2" fill="#000000" transform="matrix(1.00, 0.00, -0.00, -1.00, 329.6, 102.9)">n</text><text xml:space="preserve" font-family="Times-Bold,Times" font-weight="bold" font-size="72.2" fill="#000000" transform="matrix(1.00, 0.00, -0.00, -1.00, 369.8, 102.9)">:</text><text xml:space="preserve" font-family="Times-Bold,Times" font-weight="bold" font-size="72.2" fill="#000000" transform="matrix(1.00, 0.00, -0.00, -1.00, 393.8, 102.9)"> </text><text xml:space="preserve" font-family="LucidaGrande-Bold,Lucida Grande" font-weight="bold" font-size="72.2" fill="#000000" transform="matrix(1.00, 0.00, -0.00, -1.00, 411.8, 102.9)"> </text><text xml:space="preserve" font-family="Times-Bold,Times" font-weight="bold" font-size="72.2" fill="#000000" transform="matrix(1.00, 0.00, -0.00, -1.00, 0.6, 16.9)">L</text><text xml:space="preserve" font-family="Times-Bold,Times" font-weight="bold" font-size="72.2" fill="#000000" transform="matrix(1.00, 0.00, -0.00, -1.00, 48.7, 16.9)">i</text><text xml:space="preserve" font-family="Times-Bold,Times" font-weight="bold" font-size="72.2" fill="#000000" transform="matrix(1.00, 0.00, -0.00, -1.00, 68.8, 16.9)">g</text><text xml:space="preserve" font-family="Times-Bold,Times" font-weight="bold" font-size="72.2" fill="#000000" transform="matrix(1.00, 0.00, -0.00, -1.00, 104.9, 16.9)">h</text><text xml:space="preserve" font-family="Times-Bold,Times" font-weight="bold" font-size="72.2" fill="#000000" transform="matrix(1.00, 0.00, -0.00, -1.00, 145.0, 16.9)">t</text><text xml:space="preserve" font-family="Times-Bold,Times" font-weight="bold" font-size="72.2" fill="#000000" transform="matrix(1.00, 0.00, -0.00, -1.00, 169.1, 16.9)"> </text><text xml:space="preserve" font-family="Times-Bold,Times" font-weight="bold" font-size="72.2" fill="#000000" transform="matrix(1.00, 0.00, -0.00, -1.00, 187.1, 16.9)">b</text><text xml:space="preserve" font-family="Times-Bold,Times" font-weight="bold" font-size="72.2" fill="#000000" transform="matrix(1.00, 0.00, -0.00, -1.00, 227.3, 16.9)">y</text><text xml:space="preserve" font-family="Times-Bold,Times" font-weight="bold" font-size="72.2" fill="#000000" transform="matrix(1.00, 0.00, -0.00, -1.00, 263.4, 16.9)"> </text><text xml:space="preserve" font-family="Times-Bold,Times" font-weight="bold" font-size="72.2" fill="#000000" transform="matrix(1.00, 0.00, -0.00, -1.00, 281.5, 16.9)">S</text><text xml:space="preserve" font-family="Times-Bold,Times" font-weight="bold" font-size="72.2" fill="#000000" transform="matrix(1.00, 0.00, -0.00, -1.00, 321.6, 16.9)">p</text><text xml:space="preserve" font-family="Times-Bold,Times" font-weight="bold" font-size="72.2" fill="#000000" transform="matrix(1.00, 0.00, -0.00, -1.00, 361.8, 16.9)">a</text><text xml:space="preserve" font-family="Times-Bold,Times" font-weight="bold" font-size="72.2" fill="#000000" transform="matrix(1.00, 0.00, -0.00, -1.00, 397.9, 16.9)">c</text><text xml:space="preserve" font-family="Times-Bold,Times" font-weight="bold" font-size="72.2" fill="#000000" transform="matrix(1.00, 0.00, -0.00, -1.00, 430.0, 16.9)">e</text></g></svg>