<?xml version="1.0" encoding="UTF-8" standalone="no"?><svg xmlns="http://www.w3.org/2000/svg" xmlns:xlink="http://www.w3.org/1999/xlink" clip-rule="evenodd" stroke-miterlimit="10" viewBox="0 0 491 481"><desc>SVG generated by Keynote</desc><defs></defs><g transform="matrix(1.00, 0.00, -0.00, -1.00, 0.0, 481.0)"><text xml:space="preserve" font-family="Times-Roman,Times" font-size="43.0" fill="#000000" transform="matrix(1.00, 0.00, -0.00, -1.00, 1.7, 449.5)">•</text><text xml:space="preserve" font-family="Times-Roman,Times" font-size="43.0" fill="#000000" transform="matrix(1.00, 0.00, -0.00, -1.00, 16.7, 449.5)"> </text><text xml:space="preserve" font-family="Times-Roman,Times" font-size="43.0" fill="#000000" transform="matrix(1.00, 0.00, -0.00, -1.00, 27.5, 449.5)">C</text><text xml:space="preserve" font-family="Times-Roman,Times" font-size="43.0" fill="#000000" transform="matrix(1.00, 0.00, -0.00, -1.00, 56.2, 449.5)">r</text><text xml:space="preserve" font-family="Times-Roman,Times" font-size="43.0" fill="#000000" transform="matrix(1.00, 0.00, -0.00, -1.00, 70.5, 449.5)">e</text><text xml:space="preserve" font-family="Times-Roman,Times" font-size="43.0" fill="#000000" transform="matrix(1.00, 0.00, -0.00, -1.00, 89.6, 449.5)">a</text><text xml:space="preserve" font-family="Times-Roman,Times" font-size="43.0" fill="#000000" transform="matrix(1.00, 0.00, -0.00, -1.00, 108.6, 449.5)">t</text><text xml:space="preserve" font-family="Times-Roman,Times" font-size="43.0" fill="#000000" transform="matrix(1.00, 0.00, -0.00, -1.00, 120.6, 449.5)">e</text><text xml:space="preserve" font-family="Times-Roman,Times" font-size="43.0" fill="#000000" transform="matrix(1.00, 0.00, -0.00, -1.00, 139.7, 449.5)"> </text><text xml:space="preserve" font-family="Times-Roman,Times" font-size="43.0" fill="#000000" transform="matrix(1.00, 0.00, -0.00, -1.00, 150.4, 449.5)">a</text><text xml:space="preserve" font-family="Times-Roman,Times" font-size="43.0" fill="#000000" transform="matrix(1.00, 0.00, -0.00, -1.00, 169.5, 449.5)"> </text><text xml:space="preserve" font-family="Times-Roman,Times" font-size="43.0" fill="#000000" transform="matrix(1.00, 0.00, -0.00, -1.00, 180.2, 449.5)">s</text><text xml:space="preserve" font-family="Times-Roman,Times" font-size="43.0" fill="#000000" transform="matrix(1.00, 0.00, -0.00, -1.00, 197.0, 449.5)">c</text><text xml:space="preserve" font-family="Times-Roman,Times" font-size="43.0" fill="#000000" transform="matrix(1.00, 0.00, -0.00, -1.00, 216.0, 449.5)">r</text><text xml:space="preserve" font-family="Times-Roman,Times" font-size="43.0" fill="#000000" transform="matrix(1.00, 0.00, -0.00, -1.00, 230.4, 449.5)">i</text><text xml:space="preserve" font-family="Times-Roman,Times" font-size="43.0" fill="#000000" transform="matrix(1.00, 0.00, -0.00, -1.00, 242.3, 449.5)">p</text><text xml:space="preserve" font-family="Times-Roman,Times" font-size="43.0" fill="#000000" transform="matrix(1.00, 0.00, -0.00, -1.00, 263.8, 449.5)">t</text><text xml:space="preserve" font-family="Times-Roman,Times" font-size="43.0" fill="#000000" transform="matrix(1.00, 0.00, -0.00, -1.00, 275.7, 449.5)"> </text><text xml:space="preserve" font-family="Times-Roman,Times" font-size="43.0" fill="#000000" transform="matrix(1.00, 0.00, -0.00, -1.00, 286.5, 449.5)">t</text><text xml:space="preserve" font-family="Times-Roman,Times" font-size="43.0" fill="#000000" transform="matrix(1.00, 0.00, -0.00, -1.00, 298.4, 449.5)">h</text><text xml:space="preserve" font-family="Times-Roman,Times" font-size="43.0" fill="#000000" transform="matrix(1.00, 0.00, -0.00, -1.00, 319.9, 449.5)">a</text><text xml:space="preserve" font-family="Times-Roman,Times" font-size="43.0" fill="#000000" transform="matrix(1.00, 0.00, -0.00, -1.00, 339.0, 449.5)">t</text><text xml:space="preserve" font-family="Times-Roman,Times" font-size="43.0" fill="#000000" transform="matrix(1.00, 0.00, -0.00, -1.00, 350.9, 449.5)"> </text><text xml:space="preserve" font-family="Times-Roman,Times" font-size="43.0" fill="#000000" transform="matrix(1.00, 0.00, -0.00, -1.00, 361.7, 449.5)">t</text><text xml:space="preserve" font-family="Times-Roman,Times" font-size="43.0" fill="#000000" transform="matrix(1.00, 0.00, -0.00, -1.00, 373.6, 449.5)">u</text><text xml:space="preserve" font-family="Times-Roman,Times" font-size="43.0" fill="#000000" transform="matrix(1.00, 0.00, -0.00, -1.00, 395.1, 449.5)">r</text><text xml:space="preserve" font-family="Times-Roman,Times" font-size="43.0" fill="#000000" transform="matrix(1.00, 0.00, -0.00, -1.00, 409.5, 449.5)">n</text><text xml:space="preserve" font-family="Times-Roman,Times" font-size="43.0" fill="#000000" transform="matrix(1.00, 0.00, -0.00, -1.00, 431.0, 449.5)">s</text><text xml:space="preserve" font-family="Times-Roman,Times" font-size="43.0" fill="#000000" transform="matrix(1.00, 0.00, -0.00, -1.00, 447.7, 449.5)"> </text><text xml:space="preserve" font-family="Times-Roman,Times" font-size="43.0" fill="#000000" transform="matrix(1.00, 0.00, -0.00, -1.00, 1.7, 397.5)">o</text><text xml:space="preserve" font-family="Times-Roman,Times" font-size="43.0" fill="#000000" transform="matrix(1.00, 0.00, -0.00, -1.00, 23.2, 397.5)">n</text><text xml:space="preserve" font-family="Times-Roman,Times" font-size="43.0" fill="#000000" transform="matrix(1.00, 0.00, -0.00, -1.00, 44.7, 397.5)"> </text><text xml:space="preserve" font-family="Times-Roman,Times" font-size="43.0" fill="#000000" transform="matrix(1.00, 0.00, -0.00, -1.00, 55.4, 397.5)">L</text><text xml:space="preserve" font-family="Times-Roman,Times" font-size="43.0" fill="#000000" transform="matrix(1.00, 0.00, -0.00, -1.00, 81.7, 397.5)">E</text><text xml:space="preserve" font-family="Times-Roman,Times" font-size="43.0" fill="#000000" transform="matrix(1.00, 0.00, -0.00, -1.00, 107.9, 397.5)">D</text><text xml:space="preserve" font-family="Times-Roman,Times" font-size="43.0" fill="#000000" transform="matrix(1.00, 0.00, -0.00, -1.00, 139.0, 397.5)"> </text><text xml:space="preserve" font-family="Times-Roman,Times" font-size="43.0" fill="#000000" transform="matrix(1.00, 0.00, -0.00, -1.00, 149.8, 397.5)">l</text><text xml:space="preserve" font-family="Times-Roman,Times" font-size="43.0" fill="#000000" transform="matrix(1.00, 0.00, -0.00, -1.00, 161.7, 397.5)">i</text><text xml:space="preserve" font-family="Times-Roman,Times" font-size="43.0" fill="#000000" transform="matrix(1.00, 0.00, -0.00, -1.00, 173.6, 397.5)">g</text><text xml:space="preserve" font-family="Times-Roman,Times" font-size="43.0" fill="#000000" transform="matrix(1.00, 0.00, -0.00, -1.00, 195.1, 397.5)">h</text><text xml:space="preserve" font-family="Times-Roman,Times" font-size="43.0" fill="#000000" transform="matrix(1.00, 0.00, -0.00, -1.00, 216.6, 397.5)">t</text><text xml:space="preserve" font-family="Times-Roman,Times" font-size="43.0" fill="#000000" transform="matrix(1.00, 0.00, -0.00, -1.00, 228.6, 397.5)"> </text><text xml:space="preserve" font-family="Times-Roman,Times" font-size="43.0" fill="#000000" transform="matrix(1.00, 0.00, -0.00, -1.00, 239.3, 397.5)">w</text><text xml:space="preserve" font-family="Times-Roman,Times" font-size="43.0" fill="#000000" transform="matrix(1.00, 0.00, -0.00, -1.00, 270.4, 397.5)">h</text><text xml:space="preserve" font-family="Times-Roman,Times" font-size="43.0" fill="#000000" transform="matrix(1.00, 0.00, -0.00, -1.00, 291.9, 397.5)">i</text><text xml:space="preserve" font-family="Times-Roman,Times" font-size="43.0" fill="#000000" transform="matrix(1.00, 0.00, -0.00, -1.00, 303.8, 397.5)">l</text><text xml:space="preserve" font-family="Times-Roman,Times" font-size="43.0" fill="#000000" transform="matrix(1.00, 0.00, -0.00, -1.00, 315.8, 397.5)">e</text><text xml:space="preserve" font-family="Times-Roman,Times" font-size="43.0" fill="#000000" transform="matrix(1.00, 0.00, -0.00, -1.00, 334.8, 397.5)"> </text><text xml:space="preserve" font-family="Times-Roman,Times" font-size="43.0" fill="#000000" transform="matrix(1.00, 0.00, -0.00, -1.00, 345.6, 397.5)">p</text><text xml:space="preserve" font-family="Times-Roman,Times" font-size="43.0" fill="#000000" transform="matrix(1.00, 0.00, -0.00, -1.00, 367.1, 397.5)">r</text><text xml:space="preserve" font-family="Times-Roman,Times" font-size="43.0" fill="#000000" transform="matrix(1.00, 0.00, -0.00, -1.00, 381.4, 397.5)">e</text><text xml:space="preserve" font-family="Times-Roman,Times" font-size="43.0" fill="#000000" transform="matrix(1.00, 0.00, -0.00, -1.00, 400.5, 397.5)">s</text><text xml:space="preserve" font-family="Times-Roman,Times" font-size="43.0" fill="#000000" transform="matrix(1.00, 0.00, -0.00, -1.00, 417.2, 397.5)">s</text><text xml:space="preserve" font-family="Times-Roman,Times" font-size="43.0" fill="#000000" transform="matrix(1.00, 0.00, -0.00, -1.00, 434.0, 397.5)">i</text><text xml:space="preserve" font-family="Times-Roman,Times" font-size="43.0" fill="#000000" transform="matrix(1.00, 0.00, -0.00, -1.00, 445.9, 397.5)">n</text><text xml:space="preserve" font-family="Times-Roman,Times" font-size="43.0" fill="#000000" transform="matrix(1.00, 0.00, -0.00, -1.00, 467.4, 397.5)">g</text><text xml:space="preserve" font-family="Times-Roman,Times" font-size="43.0" fill="#000000" transform="matrix(1.00, 0.00, -0.00, -1.00, 488.9, 397.5)"> </text><text xml:space="preserve" font-family="Times-Bold,Times" font-weight="bold" font-size="43.0" fill="#000000" transform="matrix(1.00, 0.00, -0.00, -1.00, 1.7, 345.5)">S</text><text xml:space="preserve" font-family="Times-Bold,Times" font-weight="bold" font-size="43.0" fill="#000000" transform="matrix(1.00, 0.00, -0.00, -1.00, 25.6, 345.5)">p</text><text xml:space="preserve" font-family="Times-Bold,Times" font-weight="bold" font-size="43.0" fill="#000000" transform="matrix(1.00, 0.00, -0.00, -1.00, 49.5, 345.5)">a</text><text xml:space="preserve" font-family="Times-Bold,Times" font-weight="bold" font-size="43.0" fill="#000000" transform="matrix(1.00, 0.00, -0.00, -1.00, 71.0, 345.5)">c</text><text xml:space="preserve" font-family="Times-Bold,Times" font-weight="bold" font-size="43.0" fill="#000000" transform="matrix(1.00, 0.00, -0.00, -1.00, 90.1, 345.5)">e</text><text xml:space="preserve" font-family="Times-Roman,Times" font-size="43.0" fill="#000000" transform="matrix(1.00, 0.00, -0.00, -1.00, 109.2, 345.5)"> </text><text xml:space="preserve" font-family="Times-Roman,Times" font-size="43.0" fill="#000000" transform="matrix(1.00, 0.00, -0.00, -1.00, 119.9, 345.5)">o</text><text xml:space="preserve" font-family="Times-Roman,Times" font-size="43.0" fill="#000000" transform="matrix(1.00, 0.00, -0.00, -1.00, 141.4, 345.5)">n</text><text xml:space="preserve" font-family="Times-Roman,Times" font-size="43.0" fill="#000000" transform="matrix(1.00, 0.00, -0.00, -1.00, 162.9, 345.5)"> </text><text xml:space="preserve" font-family="Times-Roman,Times" font-size="43.0" fill="#000000" transform="matrix(1.00, 0.00, -0.00, -1.00, 173.7, 345.5)">y</text><text xml:space="preserve" font-family="Times-Roman,Times" font-size="43.0" fill="#000000" transform="matrix(1.00, 0.00, -0.00, -1.00, 195.2, 345.5)">o</text><text xml:space="preserve" font-family="Times-Roman,Times" font-size="43.0" fill="#000000" transform="matrix(1.00, 0.00, -0.00, -1.00, 216.7, 345.5)">u</text><text xml:space="preserve" font-family="Times-Roman,Times" font-size="43.0" fill="#000000" transform="matrix(1.00, 0.00, -0.00, -1.00, 238.2, 345.5)">r</text><text xml:space="preserve" font-family="Times-Roman,Times" font-size="43.0" fill="#000000" transform="matrix(1.00, 0.00, -0.00, -1.00, 252.5, 345.5)"> </text><text xml:space="preserve" font-family="Times-Roman,Times" font-size="43.0" fill="#000000" transform="matrix(1.00, 0.00, -0.00, -1.00, 263.2, 345.5)">k</text><text xml:space="preserve" font-family="Times-Roman,Times" font-size="43.0" fill="#000000" transform="matrix(1.00, 0.00, -0.00, -1.00, 284.7, 345.5)">e</text><text xml:space="preserve" font-family="Times-Roman,Times" font-size="43.0" fill="#000000" transform="matrix(1.00, 0.00, -0.00, -1.00, 303.8, 345.5)">y</text><text xml:space="preserve" font-family="Times-Roman,Times" font-size="43.0" fill="#000000" transform="matrix(1.00, 0.00, -0.00, -1.00, 325.3, 345.5)">b</text><text xml:space="preserve" font-family="Times-Roman,Times" font-size="43.0" fill="#000000" transform="matrix(1.00, 0.00, -0.00, -1.00, 346.8, 345.5)">o</text><text xml:space="preserve" font-family="Times-Roman,Times" font-size="43.0" fill="#000000" transform="matrix(1.00, 0.00, -0.00, -1.00, 368.3, 345.5)">a</text><text xml:space="preserve" font-family="Times-Roman,Times" font-size="43.0" fill="#000000" transform="matrix(1.00, 0.00, -0.00, -1.00, 387.4, 345.5)">r</text><text xml:space="preserve" font-family="Times-Roman,Times" font-size="43.0" fill="#000000" transform="matrix(1.00, 0.00, -0.00, -1.00, 401.7, 345.5)">d</text><text xml:space="preserve" font-family="Times-Roman,Times" font-size="43.0" fill="#000000" transform="matrix(1.00, 0.00, -0.00, -1.00, 423.2, 345.5)">.</text><text xml:space="preserve" font-family="LucidaGrande,Lucida Grande" font-size="43.0" fill="#000000" transform="matrix(1.00, 0.00, -0.00, -1.00, 434.0, 345.5)"> </text><text xml:space="preserve" font-family="Times-Roman,Times" font-size="43.0" fill="#000000" transform="matrix(1.00, 0.00, -0.00, -1.00, 1.7, 230.5)">•</text><text xml:space="preserve" font-family="Times-Roman,Times" font-size="43.0" fill="#000000" transform="matrix(1.00, 0.00, -0.00, -1.00, 16.7, 230.5)"> </text><text xml:space="preserve" font-family="Times-Roman,Times" font-size="43.0" fill="#000000" transform="matrix(1.00, 0.00, -0.00, -1.00, 27.5, 230.5)">I</text><text xml:space="preserve" font-family="Times-Roman,Times" font-size="43.0" fill="#000000" transform="matrix(1.00, 0.00, -0.00, -1.00, 41.8, 230.5)">f</text><text xml:space="preserve" font-family="Times-Roman,Times" font-size="43.0" fill="#000000" transform="matrix(1.00, 0.00, -0.00, -1.00, 56.1, 230.5)"> </text><text xml:space="preserve" font-family="Times-Roman,Times" font-size="43.0" fill="#000000" transform="matrix(1.00, 0.00, -0.00, -1.00, 66.9, 230.5)">n</text><text xml:space="preserve" font-family="Times-Roman,Times" font-size="43.0" fill="#000000" transform="matrix(1.00, 0.00, -0.00, -1.00, 88.4, 230.5)">o</text><text xml:space="preserve" font-family="Times-Roman,Times" font-size="43.0" fill="#000000" transform="matrix(1.00, 0.00, -0.00, -1.00, 109.9, 230.5)">t</text><text xml:space="preserve" font-family="Times-Roman,Times" font-size="43.0" fill="#000000" transform="matrix(1.00, 0.00, -0.00, -1.00, 121.8, 230.5)"> </text><text xml:space="preserve" font-family="Times-Roman,Times" font-size="43.0" fill="#000000" transform="matrix(1.00, 0.00, -0.00, -1.00, 132.6, 230.5)">p</text><text xml:space="preserve" font-family="Times-Roman,Times" font-size="43.0" fill="#000000" transform="matrix(1.00, 0.00, -0.00, -1.00, 154.1, 230.5)">r</text><text xml:space="preserve" font-family="Times-Roman,Times" font-size="43.0" fill="#000000" transform="matrix(1.00, 0.00, -0.00, -1.00, 168.4, 230.5)">e</text><text xml:space="preserve" font-family="Times-Roman,Times" font-size="43.0" fill="#000000" transform="matrix(1.00, 0.00, -0.00, -1.00, 187.5, 230.5)">s</text><text xml:space="preserve" font-family="Times-Roman,Times" font-size="43.0" fill="#000000" transform="matrix(1.00, 0.00, -0.00, -1.00, 204.2, 230.5)">s</text><text xml:space="preserve" font-family="Times-Roman,Times" font-size="43.0" fill="#000000" transform="matrix(1.00, 0.00, -0.00, -1.00, 220.9, 230.5)">i</text><text xml:space="preserve" font-family="Times-Roman,Times" font-size="43.0" fill="#000000" transform="matrix(1.00, 0.00, -0.00, -1.00, 232.9, 230.5)">n</text><text xml:space="preserve" font-family="Times-Roman,Times" font-size="43.0" fill="#000000" transform="matrix(1.00, 0.00, -0.00, -1.00, 254.4, 230.5)">g</text><text xml:space="preserve" font-family="Times-Roman,Times" font-size="43.0" fill="#000000" transform="matrix(1.00, 0.00, -0.00, -1.00, 275.9, 230.5)"> </text><text xml:space="preserve" font-family="Times-Bold,Times" font-weight="bold" font-size="43.0" fill="#000000" transform="matrix(1.00, 0.00, -0.00, -1.00, 286.6, 230.5)">S</text><text xml:space="preserve" font-family="Times-Bold,Times" font-weight="bold" font-size="43.0" fill="#000000" transform="matrix(1.00, 0.00, -0.00, -1.00, 310.6, 230.5)">p</text><text xml:space="preserve" font-family="Times-Bold,Times" font-weight="bold" font-size="43.0" fill="#000000" transform="matrix(1.00, 0.00, -0.00, -1.00, 334.5, 230.5)">a</text><text xml:space="preserve" font-family="Times-Bold,Times" font-weight="bold" font-size="43.0" fill="#000000" transform="matrix(1.00, 0.00, -0.00, -1.00, 356.0, 230.5)">c</text><text xml:space="preserve" font-family="Times-Bold,Times" font-weight="bold" font-size="43.0" fill="#000000" transform="matrix(1.00, 0.00, -0.00, -1.00, 375.1, 230.5)">e</text><text xml:space="preserve" font-family="Times-Roman,Times" font-size="43.0" fill="#000000" transform="matrix(1.00, 0.00, -0.00, -1.00, 394.1, 230.5)">,</text><text xml:space="preserve" font-family="Times-Roman,Times" font-size="43.0" fill="#000000" transform="matrix(1.00, 0.00, -0.00, -1.00, 404.9, 230.5)"> </text><text xml:space="preserve" font-family="Times-Roman,Times" font-size="43.0" fill="#000000" transform="matrix(1.00, 0.00, -0.00, -1.00, 1.7, 178.5)">L</text><text xml:space="preserve" font-family="Times-Roman,Times" font-size="43.0" fill="#000000" transform="matrix(1.00, 0.00, -0.00, -1.00, 27.9, 178.5)">E</text><text xml:space="preserve" font-family="Times-Roman,Times" font-size="43.0" fill="#000000" transform="matrix(1.00, 0.00, -0.00, -1.00, 54.2, 178.5)">D</text><text xml:space="preserve" font-family="Times-Roman,Times" font-size="43.0" fill="#000000" transform="matrix(1.00, 0.00, -0.00, -1.00, 85.3, 178.5)"> </text><text xml:space="preserve" font-family="Times-Roman,Times" font-size="43.0" fill="#000000" transform="matrix(1.00, 0.00, -0.00, -1.00, 96.0, 178.5)">l</text><text xml:space="preserve" font-family="Times-Roman,Times" font-size="43.0" fill="#000000" transform="matrix(1.00, 0.00, -0.00, -1.00, 107.9, 178.5)">i</text><text xml:space="preserve" font-family="Times-Roman,Times" font-size="43.0" fill="#000000" transform="matrix(1.00, 0.00, -0.00, -1.00, 119.9, 178.5)">g</text><text xml:space="preserve" font-family="Times-Roman,Times" font-size="43.0" fill="#000000" transform="matrix(1.00, 0.00, -0.00, -1.00, 141.4, 178.5)">h</text><text xml:space="preserve" font-family="Times-Roman,Times" font-size="43.0" fill="#000000" transform="matrix(1.00, 0.00, -0.00, -1.00, 162.9, 178.5)">t</text><text xml:space="preserve" font-family="Times-Roman,Times" font-size="43.0" fill="#000000" transform="matrix(1.00, 0.00, -0.00, -1.00, 174.8, 178.5)"> </text><text xml:space="preserve" font-family="Times-Roman,Times" font-size="43.0" fill="#000000" transform="matrix(1.00, 0.00, -0.00, -1.00, 185.6, 178.5)">s</text><text xml:space="preserve" font-family="Times-Roman,Times" font-size="43.0" fill="#000000" transform="matrix(1.00, 0.00, -0.00, -1.00, 202.3, 178.5)">h</text><text xml:space="preserve" font-family="Times-Roman,Times" font-size="43.0" fill="#000000" transform="matrix(1.00, 0.00, -0.00, -1.00, 223.8, 178.5)">o</text><text xml:space="preserve" font-family="Times-Roman,Times" font-size="43.0" fill="#000000" transform="matrix(1.00, 0.00, -0.00, -1.00, 245.3, 178.5)">u</text><text xml:space="preserve" font-family="Times-Roman,Times" font-size="43.0" fill="#000000" transform="matrix(1.00, 0.00, -0.00, -1.00, 266.8, 178.5)">l</text><text xml:space="preserve" font-family="Times-Roman,Times" font-size="43.0" fill="#000000" transform="matrix(1.00, 0.00, -0.00, -1.00, 278.7, 178.5)">d</text><text xml:space="preserve" font-family="Times-Roman,Times" font-size="43.0" fill="#000000" transform="matrix(1.00, 0.00, -0.00, -1.00, 300.2, 178.5)"> </text><text xml:space="preserve" font-family="Times-Roman,Times" font-size="43.0" fill="#000000" transform="matrix(1.00, 0.00, -0.00, -1.00, 311.0, 178.5)">b</text><text xml:space="preserve" font-family="Times-Roman,Times" font-size="43.0" fill="#000000" transform="matrix(1.00, 0.00, -0.00, -1.00, 332.5, 178.5)">e</text><text xml:space="preserve" font-family="Times-Roman,Times" font-size="43.0" fill="#000000" transform="matrix(1.00, 0.00, -0.00, -1.00, 351.6, 178.5)"> </text><text xml:space="preserve" font-family="Times-Roman,Times" font-size="43.0" fill="#000000" transform="matrix(1.00, 0.00, -0.00, -1.00, 362.3, 178.5)">o</text><text xml:space="preserve" font-family="Times-Roman,Times" font-size="43.0" fill="#000000" transform="matrix(1.00, 0.00, -0.00, -1.00, 383.8, 178.5)">f</text><text xml:space="preserve" font-family="Times-Roman,Times" font-size="43.0" fill="#000000" transform="matrix(1.00, 0.00, -0.00, -1.00, 397.4, 178.5)">f</text><text xml:space="preserve" font-family="Times-Roman,Times" font-size="43.0" fill="#000000" transform="matrix(1.00, 0.00, -0.00, -1.00, 411.7, 178.5)">.</text><text xml:space="preserve" font-family="LucidaGrande,Lucida Grande" font-size="43.0" fill="#000000" transform="matrix(1.00, 0.00, -0.00, -1.00, 422.5, 178.5)"> </text><text xml:space="preserve" font-family="Times-Roman,Times" font-size="43.0" fill="#000000" transform="matrix(1.00, 0.00, -0.00, -1.00, 1.7, 63.5)">•</text><text xml:space="preserve" font-family="Times-Roman,Times" font-size="43.0" fill="#000000" transform="matrix(1.00, 0.00, -0.00, -1.00, 16.7, 63.5)"> </text><text xml:space="preserve" font-family="Times-Roman,Times" font-size="43.0" fill="#000000" transform="matrix(1.00, 0.00, -0.00, -1.00, 27.5, 63.5)">H</text><text xml:space="preserve" font-family="Times-Roman,Times" font-size="43.0" fill="#000000" transform="matrix(1.00, 0.00, -0.00, -1.00, 58.5, 63.5)">i</text><text xml:space="preserve" font-family="Times-Roman,Times" font-size="43.0" fill="#000000" transform="matrix(1.00, 0.00, -0.00, -1.00, 70.5, 63.5)">n</text><text xml:space="preserve" font-family="Times-Roman,Times" font-size="43.0" fill="#000000" transform="matrix(1.00, 0.00, -0.00, -1.00, 92.0, 63.5)">t</text><text xml:space="preserve" font-family="Times-Roman,Times" font-size="43.0" fill="#000000" transform="matrix(1.00, 0.00, -0.00, -1.00, 103.9, 63.5)">:</text><text xml:space="preserve" font-family="Times-Roman,Times" font-size="43.0" fill="#000000" transform="matrix(1.00, 0.00, -0.00, -1.00, 115.9, 63.5)"> </text><text xml:space="preserve" font-family="Times-Roman,Times" font-size="43.0" fill="#000000" transform="matrix(1.00, 0.00, -0.00, -1.00, 126.6, 63.5)">S</text><text xml:space="preserve" font-family="Times-Roman,Times" font-size="43.0" fill="#000000" transform="matrix(1.00, 0.00, -0.00, -1.00, 150.5, 63.5)">o</text><text xml:space="preserve" font-family="Times-Roman,Times" font-size="43.0" fill="#000000" transform="matrix(1.00, 0.00, -0.00, -1.00, 172.0, 63.5)">m</text><text xml:space="preserve" font-family="Times-Roman,Times" font-size="43.0" fill="#000000" transform="matrix(1.00, 0.00, -0.00, -1.00, 205.5, 63.5)">e</text><text xml:space="preserve" font-family="Times-Roman,Times" font-size="43.0" fill="#000000" transform="matrix(1.00, 0.00, -0.00, -1.00, 224.5, 63.5)"> </text><text xml:space="preserve" font-family="Times-Roman,Times" font-size="43.0" fill="#000000" transform="matrix(1.00, 0.00, -0.00, -1.00, 235.3, 63.5)">b</text><text xml:space="preserve" font-family="Times-Roman,Times" font-size="43.0" fill="#000000" transform="matrix(1.00, 0.00, -0.00, -1.00, 256.8, 63.5)">l</text><text xml:space="preserve" font-family="Times-Roman,Times" font-size="43.0" fill="#000000" transform="matrix(1.00, 0.00, -0.00, -1.00, 268.7, 63.5)">o</text><text xml:space="preserve" font-family="Times-Roman,Times" font-size="43.0" fill="#000000" transform="matrix(1.00, 0.00, -0.00, -1.00, 290.2, 63.5)">c</text><text xml:space="preserve" font-family="Times-Roman,Times" font-size="43.0" fill="#000000" transform="matrix(1.00, 0.00, -0.00, -1.00, 309.3, 63.5)">k</text><text xml:space="preserve" font-family="Times-Roman,Times" font-size="43.0" fill="#000000" transform="matrix(1.00, 0.00, -0.00, -1.00, 330.8, 63.5)"> </text><text xml:space="preserve" font-family="Times-Roman,Times" font-size="43.0" fill="#000000" transform="matrix(1.00, 0.00, -0.00, -1.00, 341.6, 63.5)">i</text><text xml:space="preserve" font-family="Times-Roman,Times" font-size="43.0" fill="#000000" transform="matrix(1.00, 0.00, -0.00, -1.00, 353.5, 63.5)">n</text><text xml:space="preserve" font-family="Times-Roman,Times" font-size="43.0" fill="#000000" transform="matrix(1.00, 0.00, -0.00, -1.00, 375.0, 63.5)"> </text><text xml:space="preserve" font-family="Times-Bold,Times" font-weight="bold" font-size="43.0" fill="#000000" transform="matrix(1.00, 0.00, -0.00, -1.00, 1.7, 11.5)">S</text><text xml:space="preserve" font-family="Times-Bold,Times" font-weight="bold" font-size="43.0" fill="#000000" transform="matrix(1.00, 0.00, -0.00, -1.00, 25.6, 11.5)">e</text><text xml:space="preserve" font-family="Times-Bold,Times" font-weight="bold" font-size="43.0" fill="#000000" transform="matrix(1.00, 0.00, -0.00, -1.00, 44.7, 11.5)">n</text><text xml:space="preserve" font-family="Times-Bold,Times" font-weight="bold" font-size="43.0" fill="#000000" transform="matrix(1.00, 0.00, -0.00, -1.00, 68.6, 11.5)">s</text><text xml:space="preserve" font-family="Times-Bold,Times" font-weight="bold" font-size="43.0" fill="#000000" transform="matrix(1.00, 0.00, -0.00, -1.00, 85.4, 11.5)">i</text><text xml:space="preserve" font-family="Times-Bold,Times" font-weight="bold" font-size="43.0" fill="#000000" transform="matrix(1.00, 0.00, -0.00, -1.00, 97.3, 11.5)">n</text><text xml:space="preserve" font-family="Times-Bold,Times" font-weight="bold" font-size="43.0" fill="#000000" transform="matrix(1.00, 0.00, -0.00, -1.00, 121.2, 11.5)">g</text><text xml:space="preserve" font-family="Times-Roman,Times" font-size="43.0" fill="#000000" transform="matrix(1.00, 0.00, -0.00, -1.00, 142.7, 11.5)"> </text><text xml:space="preserve" font-family="Times-Roman,Times" font-size="43.0" fill="#000000" transform="matrix(1.00, 0.00, -0.00, -1.00, 153.4, 11.5)">m</text><text xml:space="preserve" font-family="Times-Roman,Times" font-size="43.0" fill="#000000" transform="matrix(1.00, 0.00, -0.00, -1.00, 186.9, 11.5)">a</text><text xml:space="preserve" font-family="Times-Roman,Times" font-size="43.0" fill="#000000" transform="matrix(1.00, 0.00, -0.00, -1.00, 205.9, 11.5)">y</text><text xml:space="preserve" font-family="Times-Roman,Times" font-size="43.0" fill="#000000" transform="matrix(1.00, 0.00, -0.00, -1.00, 227.4, 11.5)"> </text><text xml:space="preserve" font-family="Times-Roman,Times" font-size="43.0" fill="#000000" transform="matrix(1.00, 0.00, -0.00, -1.00, 238.2, 11.5)">b</text><text xml:space="preserve" font-family="Times-Roman,Times" font-size="43.0" fill="#000000" transform="matrix(1.00, 0.00, -0.00, -1.00, 259.7, 11.5)">e</text><text xml:space="preserve" font-family="Times-Roman,Times" font-size="43.0" fill="#000000" transform="matrix(1.00, 0.00, -0.00, -1.00, 278.8, 11.5)"> </text><text xml:space="preserve" font-family="Times-Roman,Times" font-size="43.0" fill="#000000" transform="matrix(1.00, 0.00, -0.00, -1.00, 289.5, 11.5)">h</text><text xml:space="preserve" font-family="Times-Roman,Times" font-size="43.0" fill="#000000" transform="matrix(1.00, 0.00, -0.00, -1.00, 311.0, 11.5)">e</text><text xml:space="preserve" font-family="Times-Roman,Times" font-size="43.0" fill="#000000" transform="matrix(1.00, 0.00, -0.00, -1.00, 330.1, 11.5)">l</text><text xml:space="preserve" font-family="Times-Roman,Times" font-size="43.0" fill="#000000" transform="matrix(1.00, 0.00, -0.00, -1.00, 342.0, 11.5)">p</text><text xml:space="preserve" font-family="Times-Roman,Times" font-size="43.0" fill="#000000" transform="matrix(1.00, 0.00, -0.00, -1.00, 363.5, 11.5)">f</text><text xml:space="preserve" font-family="Times-Roman,Times" font-size="43.0" fill="#000000" transform="matrix(1.00, 0.00, -0.00, -1.00, 377.9, 11.5)">u</text><text xml:space="preserve" font-family="Times-Roman,Times" font-size="43.0" fill="#000000" transform="matrix(1.00, 0.00, -0.00, -1.00, 399.4, 11.5)">l</text><text xml:space="preserve" font-family="Times-Roman,Times" font-size="43.0" fill="#000000" transform="matrix(1.00, 0.00, -0.00, -1.00, 411.3, 11.5)">.</text></g></svg>