<?xml version="1.0" encoding="UTF-8" standalone="no"?><svg xmlns="http://www.w3.org/2000/svg" xmlns:xlink="http://www.w3.org/1999/xlink" clip-rule="evenodd" stroke-miterlimit="10" viewBox="0 0 1024 768"><desc>SVG generated by Keynote</desc><defs></defs><g transform="matrix(1.00, 0.00, -0.00, -1.00, 0.0, 768.0)"><path d="M 0.0 768.0 L 1024.0 768.0 L 1024.0 0.0 L 0.0 0.0 Z M 0.0 768.0 " fill="#FEFFFF"></path><image xlink:href="../../ADB5A9D6-2E06-4C5B-A1A6-25E669B24BF8/assets/F9AB278679D013E5133D6901A0FD227B.png" width="524.00" height="340.00" transform="matrix(1.00, 0.00, -0.00, -1.00, 468.2, 340.4)" opacity="0.70"></image><image xlink:href="../../8521FAAA-217C-4C04-BA7F-5F022F0530AC/assets/AC0FD1E4431A03AE066BA4C9310784BD.png" width="664.00" height="426.00" transform="matrix(0.77, 0.00, -0.00, -0.77, 472.2, 337.1)"></image><path d="M 0.0 0.0 L 514.0 0.0 L 514.0 329.8 L 0.0 329.8 Z M 0.0 0.0 " fill="none" stroke="#F2F6F5" stroke-width="2.00" transform="matrix(1.00, 0.00, 0.00, -1.00, 472.2, 337.1)"></path><image xlink:href="../../ADB5A9D6-2E06-4C5B-A1A6-25E669B24BF8/assets/AFF51C1E8F9ED36F361F68C40B155364.png" width="569.00" height="285.00" transform="matrix(1.00, 0.00, -0.00, -1.00, 15.7, 624.9)" opacity="0.70"></image><image xlink:href="../../92714DC3-65B9-4F5A-8D96-6AF6C21812F9/assets/B87B6B131DE5BF6AA54D80E016AB6E7F.png" width="1612.00" height="792.00" transform="matrix(0.35, 0.00, -0.00, -0.35, 19.7, 621.6)"></image><path d="M 0.0 0.0 L 559.1 0.0 L 559.1 274.7 L 0.0 274.7 Z M 0.0 0.0 " fill="none" stroke="#F2F6F5" stroke-width="2.00" transform="matrix(1.00, 0.00, 0.00, -1.00, 19.7, 621.6)"></path><text xml:space="preserve" font-family="Times-Bold,Times" font-weight="bold" font-size="102.0" fill="#000000" transform="matrix(1.00, 0.00, -0.00, -1.00, 295.7, 663.8)">S</text><text xml:space="preserve" font-family="Times-Bold,Times" font-weight="bold" font-size="102.0" fill="#000000" transform="matrix(1.00, 0.00, -0.00, -1.00, 352.4, 663.8)">u</text><text xml:space="preserve" font-family="Times-Bold,Times" font-weight="bold" font-size="102.0" fill="#000000" transform="matrix(1.00, 0.00, -0.00, -1.00, 409.2, 663.8)">m</text><text xml:space="preserve" font-family="Times-Bold,Times" font-weight="bold" font-size="102.0" fill="#000000" transform="matrix(1.00, 0.00, -0.00, -1.00, 494.1, 663.8)">m</text><text xml:space="preserve" font-family="Times-Bold,Times" font-weight="bold" font-size="102.0" fill="#000000" transform="matrix(1.00, 0.00, -0.00, -1.00, 579.1, 663.8)">a</text><text xml:space="preserve" font-family="Times-Bold,Times" font-weight="bold" font-size="102.0" fill="#000000" transform="matrix(1.00, 0.00, -0.00, -1.00, 630.1, 663.8)">r</text><text xml:space="preserve" font-family="Times-Bold,Times" font-weight="bold" font-size="102.0" fill="#000000" transform="matrix(1.00, 0.00, -0.00, -1.00, 675.4, 663.8)">y</text><g opacity="0.69"><g><clipPath id="clip0x6100014a0f00"><path d="M 26.0 340.0 L 573.0 340.0 L 573.0 411.0 L 26.0 411.0 Z M 26.0 340.0 "></path></clipPath><g clip-path="url(#clip0x6100014a0f00)"><image xlink:href="../../92714DC3-65B9-4F5A-8D96-6AF6C21812F9/assets/3D49DD974D4D463B1BD8E1D85C8E7178.png" width="545.00" height="64.00" transform="matrix(1.00, 0.00, -0.00, -1.00, 27.0, 405.9)" opacity="0.50"></image><path d="M 30.0 360.7 L 30.0 390.9 C 30.0 398.6 36.3 405.0 44.0 405.0 L 554.6 405.0 C 562.3 405.0 569.0 398.6 569.0 390.9 L 569.0 360.7 C 569.0 353.0 562.3 347.0 554.6 347.0 L 44.0 347.0 C 36.3 347.0 30.0 353.0 30.0 360.7 Z M 30.0 360.7 " fill="#000000"></path></g></g></g><text xml:space="preserve" font-family="Times-Roman,Times" font-size="34.0" fill="#FEFFFE" transform="matrix(1.00, 0.00, -0.00, -1.00, 79.4, 360.4)">M</text><text xml:space="preserve" font-family="Times-Roman,Times" font-size="34.0" fill="#FEFFFE" transform="matrix(1.00, 0.00, -0.00, -1.00, 109.7, 360.4)">a</text><text xml:space="preserve" font-family="Times-Roman,Times" font-size="34.0" fill="#FEFFFE" transform="matrix(1.00, 0.00, -0.00, -1.00, 124.7, 360.4)">k</text><text xml:space="preserve" font-family="Times-Roman,Times" font-size="34.0" fill="#FEFFFE" transform="matrix(1.00, 0.00, -0.00, -1.00, 141.7, 360.4)">e</text><text xml:space="preserve" font-family="Times-Roman,Times" font-size="34.0" fill="#FEFFFE" transform="matrix(1.00, 0.00, -0.00, -1.00, 156.8, 360.4)"> </text><text xml:space="preserve" font-family="Times-Roman,Times" font-size="34.0" fill="#FEFFFE" transform="matrix(1.00, 0.00, -0.00, -1.00, 165.3, 360.4)">a</text><text xml:space="preserve" font-family="Times-Roman,Times" font-size="34.0" fill="#FEFFFE" transform="matrix(1.00, 0.00, -0.00, -1.00, 180.4, 360.4)"> </text><text xml:space="preserve" font-family="Times-Roman,Times" font-size="34.0" fill="#FEFFFE" transform="matrix(1.00, 0.00, -0.00, -1.00, 188.9, 360.4)">p</text><text xml:space="preserve" font-family="Times-Roman,Times" font-size="34.0" fill="#FEFFFE" transform="matrix(1.00, 0.00, -0.00, -1.00, 205.9, 360.4)">r</text><text xml:space="preserve" font-family="Times-Roman,Times" font-size="34.0" fill="#FEFFFE" transform="matrix(1.00, 0.00, -0.00, -1.00, 217.2, 360.4)">o</text><text xml:space="preserve" font-family="Times-Roman,Times" font-size="34.0" fill="#FEFFFE" transform="matrix(1.00, 0.00, -0.00, -1.00, 234.2, 360.4)">g</text><text xml:space="preserve" font-family="Times-Roman,Times" font-size="34.0" fill="#FEFFFE" transform="matrix(1.00, 0.00, -0.00, -1.00, 251.2, 360.4)">r</text><text xml:space="preserve" font-family="Times-Roman,Times" font-size="34.0" fill="#FEFFFE" transform="matrix(1.00, 0.00, -0.00, -1.00, 262.6, 360.4)">a</text><text xml:space="preserve" font-family="Times-Roman,Times" font-size="34.0" fill="#FEFFFE" transform="matrix(1.00, 0.00, -0.00, -1.00, 277.6, 360.4)">m</text><text xml:space="preserve" font-family="Times-Roman,Times" font-size="34.0" fill="#FEFFFE" transform="matrix(1.00, 0.00, -0.00, -1.00, 304.1, 360.4)"> </text><text xml:space="preserve" font-family="Times-Roman,Times" font-size="34.0" fill="#FEFFFE" transform="matrix(1.00, 0.00, -0.00, -1.00, 312.6, 360.4)">w</text><text xml:space="preserve" font-family="Times-Roman,Times" font-size="34.0" fill="#FEFFFE" transform="matrix(1.00, 0.00, -0.00, -1.00, 337.1, 360.4)">i</text><text xml:space="preserve" font-family="Times-Roman,Times" font-size="34.0" fill="#FEFFFE" transform="matrix(1.00, 0.00, -0.00, -1.00, 346.6, 360.4)">t</text><text xml:space="preserve" font-family="Times-Roman,Times" font-size="34.0" fill="#FEFFFE" transform="matrix(1.00, 0.00, -0.00, -1.00, 356.0, 360.4)">h</text><text xml:space="preserve" font-family="Times-Roman,Times" font-size="34.0" fill="#FEFFFE" transform="matrix(1.00, 0.00, -0.00, -1.00, 373.0, 360.4)"> </text><text xml:space="preserve" font-family="Times-Bold,Times" font-weight="bold" font-size="42.0" fill="#FEFFFE" transform="matrix(1.00, 0.00, -0.00, -1.00, 381.6, 360.4)">S</text><text xml:space="preserve" font-family="Times-Bold,Times" font-weight="bold" font-size="42.0" fill="#FEFFFE" transform="matrix(1.00, 0.00, -0.00, -1.00, 404.9, 360.4)">c</text><text xml:space="preserve" font-family="Times-Bold,Times" font-weight="bold" font-size="42.0" fill="#FEFFFE" transform="matrix(1.00, 0.00, -0.00, -1.00, 423.6, 360.4)">r</text><text xml:space="preserve" font-family="Times-Bold,Times" font-weight="bold" font-size="42.0" fill="#FEFFFE" transform="matrix(1.00, 0.00, -0.00, -1.00, 442.2, 360.4)">a</text><text xml:space="preserve" font-family="Times-Bold,Times" font-weight="bold" font-size="42.0" fill="#FEFFFE" transform="matrix(1.00, 0.00, -0.00, -1.00, 463.2, 360.4)">t</text><text xml:space="preserve" font-family="Times-Bold,Times" font-weight="bold" font-size="42.0" fill="#FEFFFE" transform="matrix(1.00, 0.00, -0.00, -1.00, 477.2, 360.4)">c</text><text xml:space="preserve" font-family="Times-Bold,Times" font-weight="bold" font-size="42.0" fill="#FEFFFE" transform="matrix(1.00, 0.00, -0.00, -1.00, 495.8, 360.4)">h</text><g opacity="0.69"><g><clipPath id="clip0x6100014a1ce0"><path d="M 469.0 5.0 L 994.0 5.0 L 994.0 76.0 L 469.0 76.0 Z M 469.0 5.0 "></path></clipPath><g clip-path="url(#clip0x6100014a1ce0)"><image xlink:href="../../4AC1BDEB-CF62-4A8F-887F-ED552B17B4CE/assets/50DC5C2DC696BC61BBD9ECE64819C249.png" width="522.00" height="64.00" transform="matrix(1.00, 0.00, -0.00, -1.00, 470.0, 70.4)" opacity="0.50"></image><path d="M 473.0 27.8 L 473.0 52.9 C 473.0 62.0 480.4 69.0 489.5 69.0 L 972.5 69.0 C 981.6 69.0 989.0 62.0 989.0 52.9 L 989.0 27.8 C 989.0 18.6 981.6 11.0 972.5 11.0 L 489.5 11.0 C 480.4 11.0 473.0 18.6 473.0 27.8 Z M 473.0 27.8 " fill="#000000"></path></g></g></g><text xml:space="preserve" font-family="Times-Roman,Times" font-size="34.0" fill="#FEFFFE" transform="matrix(1.00, 0.00, -0.00, -1.00, 510.4, 27.8)">C</text><text xml:space="preserve" font-family="Times-Roman,Times" font-size="34.0" fill="#FEFFFE" transform="matrix(1.00, 0.00, -0.00, -1.00, 533.1, 27.8)">o</text><text xml:space="preserve" font-family="Times-Roman,Times" font-size="34.0" fill="#FEFFFE" transform="matrix(1.00, 0.00, -0.00, -1.00, 550.1, 27.8)">n</text><text xml:space="preserve" font-family="Times-Roman,Times" font-size="34.0" fill="#FEFFFE" transform="matrix(1.00, 0.00, -0.00, -1.00, 567.1, 27.8)">t</text><text xml:space="preserve" font-family="Times-Roman,Times" font-size="34.0" fill="#FEFFFE" transform="matrix(1.00, 0.00, -0.00, -1.00, 576.5, 27.8)">r</text><text xml:space="preserve" font-family="Times-Roman,Times" font-size="34.0" fill="#FEFFFE" transform="matrix(1.00, 0.00, -0.00, -1.00, 587.9, 27.8)">o</text><text xml:space="preserve" font-family="Times-Roman,Times" font-size="34.0" fill="#FEFFFE" transform="matrix(1.00, 0.00, -0.00, -1.00, 604.9, 27.8)">l</text><text xml:space="preserve" font-family="Times-Roman,Times" font-size="34.0" fill="#FEFFFE" transform="matrix(1.00, 0.00, -0.00, -1.00, 614.3, 27.8)"> </text><text xml:space="preserve" font-family="Times-Roman,Times" font-size="34.0" fill="#FEFFFE" transform="matrix(1.00, 0.00, -0.00, -1.00, 622.8, 27.8)">L</text><text xml:space="preserve" font-family="Times-Roman,Times" font-size="34.0" fill="#FEFFFE" transform="matrix(1.00, 0.00, -0.00, -1.00, 643.6, 27.8)">E</text><text xml:space="preserve" font-family="Times-Roman,Times" font-size="34.0" fill="#FEFFFE" transform="matrix(1.00, 0.00, -0.00, -1.00, 664.3, 27.8)">D</text><text xml:space="preserve" font-family="Times-Roman,Times" font-size="34.0" fill="#FEFFFE" transform="matrix(1.00, 0.00, -0.00, -1.00, 688.9, 27.8)"> </text><text xml:space="preserve" font-family="Times-Roman,Times" font-size="34.0" fill="#FEFFFE" transform="matrix(1.00, 0.00, -0.00, -1.00, 697.4, 27.8)">w</text><text xml:space="preserve" font-family="Times-Roman,Times" font-size="34.0" fill="#FEFFFE" transform="matrix(1.00, 0.00, -0.00, -1.00, 722.0, 27.8)">i</text><text xml:space="preserve" font-family="Times-Roman,Times" font-size="34.0" fill="#FEFFFE" transform="matrix(1.00, 0.00, -0.00, -1.00, 731.4, 27.8)">t</text><text xml:space="preserve" font-family="Times-Roman,Times" font-size="34.0" fill="#FEFFFE" transform="matrix(1.00, 0.00, -0.00, -1.00, 740.8, 27.8)">h</text><text xml:space="preserve" font-family="Times-Roman,Times" font-size="34.0" fill="#FEFFFE" transform="matrix(1.00, 0.00, -0.00, -1.00, 757.8, 27.8)"> </text><text xml:space="preserve" font-family="Times-Bold,Times" font-weight="bold" font-size="34.0" fill="#FEFFFE" transform="matrix(1.00, 0.00, -0.00, -1.00, 766.4, 27.8)">R</text><text xml:space="preserve" font-family="Times-Bold,Times" font-weight="bold" font-size="34.0" fill="#FEFFFE" transform="matrix(1.00, 0.00, -0.00, -1.00, 790.9, 27.8)">a</text><text xml:space="preserve" font-family="Times-Bold,Times" font-weight="bold" font-size="34.0" fill="#FEFFFE" transform="matrix(1.00, 0.00, -0.00, -1.00, 807.9, 27.8)">s</text><text xml:space="preserve" font-family="Times-Bold,Times" font-weight="bold" font-size="34.0" fill="#FEFFFE" transform="matrix(1.00, 0.00, -0.00, -1.00, 821.2, 27.8)">p</text><text xml:space="preserve" font-family="Times-Bold,Times" font-weight="bold" font-size="34.0" fill="#FEFFFE" transform="matrix(1.00, 0.00, -0.00, -1.00, 840.1, 27.8)">b</text><text xml:space="preserve" font-family="Times-Bold,Times" font-weight="bold" font-size="34.0" fill="#FEFFFE" transform="matrix(1.00, 0.00, -0.00, -1.00, 859.0, 27.8)">e</text><text xml:space="preserve" font-family="Times-Bold,Times" font-weight="bold" font-size="34.0" fill="#FEFFFE" transform="matrix(1.00, 0.00, -0.00, -1.00, 874.1, 27.8)">r</text><text xml:space="preserve" font-family="Times-Bold,Times" font-weight="bold" font-size="34.0" fill="#FEFFFE" transform="matrix(1.00, 0.00, -0.00, -1.00, 889.2, 27.8)">r</text><text xml:space="preserve" font-family="Times-Bold,Times" font-weight="bold" font-size="34.0" fill="#FEFFFE" transform="matrix(1.00, 0.00, -0.00, -1.00, 904.2, 27.8)">y</text><text xml:space="preserve" font-family="Times-Bold,Times" font-weight="bold" font-size="34.0" fill="#FEFFFE" transform="matrix(1.00, 0.00, -0.00, -1.00, 921.2, 27.8)"> </text><text xml:space="preserve" font-family="Times-Bold,Times" font-weight="bold" font-size="34.0" fill="#FEFFFE" transform="matrix(1.00, 0.00, -0.00, -1.00, 929.7, 27.8)">P</text><text xml:space="preserve" font-family="Times-Bold,Times" font-weight="bold" font-size="34.0" fill="#FEFFFE" transform="matrix(1.00, 0.00, -0.00, -1.00, 950.5, 27.8)">i</text><image xlink:href="../../4AC1BDEB-CF62-4A8F-887F-ED552B17B4CE/assets/F11FA1A1FF41D85E219D51650B68C65F.png" width="200.00" height="156.00" transform="matrix(2.36, 0.00, -0.00, -2.36, 39.5, 658.0)"></image><image xlink:href="../../4AC1BDEB-CF62-4A8F-887F-ED552B17B4CE/assets/F11FA1A1FF41D85E219D51650B68C65F.png" width="200.00" height="156.00" transform="matrix(2.36, 0.00, -0.00, -2.36, 489.9, 356.5)"></image></g></svg>