<?xml version="1.0" encoding="UTF-8" standalone="no"?><svg xmlns="http://www.w3.org/2000/svg" xmlns:xlink="http://www.w3.org/1999/xlink" clip-rule="evenodd" stroke-miterlimit="10" viewBox="0 0 1024 768"><desc>SVG generated by Keynote</desc><defs></defs><g transform="matrix(1.00, 0.00, -0.00, -1.00, 0.0, 768.0)"><path d="M 0.0 768.0 L 1024.0 768.0 L 1024.0 0.0 L 0.0 0.0 Z M 0.0 768.0 " fill="#FEFFFF"></path><text xml:space="preserve" font-family="Times-Roman,Times" font-size="68.1" fill="#000000" transform="matrix(1.00, 0.00, -0.00, -1.00, 41.5, 678.9)">F</text><text xml:space="preserve" font-family="Times-Roman,Times" font-size="68.1" fill="#000000" transform="matrix(1.00, 0.00, -0.00, -1.00, 79.4, 678.9)">o</text><text xml:space="preserve" font-family="Times-Roman,Times" font-size="68.1" fill="#000000" transform="matrix(1.00, 0.00, -0.00, -1.00, 113.4, 678.9)">r</text><text xml:space="preserve" font-family="Times-Roman,Times" font-size="68.1" fill="#000000" transform="matrix(1.00, 0.00, -0.00, -1.00, 136.1, 678.9)"> </text><text xml:space="preserve" font-family="Times-Roman,Times" font-size="68.1" fill="#000000" transform="matrix(1.00, 0.00, -0.00, -1.00, 153.1, 678.9)">f</text><text xml:space="preserve" font-family="Times-Roman,Times" font-size="68.1" fill="#000000" transform="matrix(1.00, 0.00, -0.00, -1.00, 175.8, 678.9)">u</text><text xml:space="preserve" font-family="Times-Roman,Times" font-size="68.1" fill="#000000" transform="matrix(1.00, 0.00, -0.00, -1.00, 209.8, 678.9)">r</text><text xml:space="preserve" font-family="Times-Roman,Times" font-size="68.1" fill="#000000" transform="matrix(1.00, 0.00, -0.00, -1.00, 232.5, 678.9)">t</text><text xml:space="preserve" font-family="Times-Roman,Times" font-size="68.1" fill="#000000" transform="matrix(1.00, 0.00, -0.00, -1.00, 251.4, 678.9)">h</text><text xml:space="preserve" font-family="Times-Roman,Times" font-size="68.1" fill="#000000" transform="matrix(1.00, 0.00, -0.00, -1.00, 285.4, 678.9)">e</text><text xml:space="preserve" font-family="Times-Roman,Times" font-size="68.1" fill="#000000" transform="matrix(1.00, 0.00, -0.00, -1.00, 315.7, 678.9)">r</text><text xml:space="preserve" font-family="Times-Roman,Times" font-size="68.1" fill="#000000" transform="matrix(1.00, 0.00, -0.00, -1.00, 338.3, 678.9)"> </text><text xml:space="preserve" font-family="Times-Roman,Times" font-size="68.1" fill="#000000" transform="matrix(1.00, 0.00, -0.00, -1.00, 355.3, 678.9)">t</text><text xml:space="preserve" font-family="Times-Roman,Times" font-size="68.1" fill="#000000" transform="matrix(1.00, 0.00, -0.00, -1.00, 374.2, 678.9)">o</text><text xml:space="preserve" font-family="Times-Roman,Times" font-size="68.1" fill="#000000" transform="matrix(1.00, 0.00, -0.00, -1.00, 408.3, 678.9)">p</text><text xml:space="preserve" font-family="Times-Roman,Times" font-size="68.1" fill="#000000" transform="matrix(1.00, 0.00, -0.00, -1.00, 442.3, 678.9)">i</text><text xml:space="preserve" font-family="Times-Roman,Times" font-size="68.1" fill="#000000" transform="matrix(1.00, 0.00, -0.00, -1.00, 461.2, 678.9)">c</text><text xml:space="preserve" font-family="Times-Roman,Times" font-size="68.1" fill="#000000" transform="matrix(1.00, 0.00, -0.00, -1.00, 491.4, 678.9)">s</text><text xml:space="preserve" font-family="Times-Roman,Times" font-size="68.1" fill="#000000" transform="matrix(1.00, 0.00, -0.00, -1.00, 517.9, 678.9)">,</text><text xml:space="preserve" font-family="Times-Roman,Times" font-size="68.1" fill="#000000" transform="matrix(1.00, 0.00, -0.00, -1.00, 535.0, 678.9)"> </text><text xml:space="preserve" font-family="Times-Roman,Times" font-size="68.1" fill="#000000" transform="matrix(1.00, 0.00, -0.00, -1.00, 552.0, 678.9)">y</text><text xml:space="preserve" font-family="Times-Roman,Times" font-size="68.1" fill="#000000" transform="matrix(1.00, 0.00, -0.00, -1.00, 586.0, 678.9)">o</text><text xml:space="preserve" font-family="Times-Roman,Times" font-size="68.1" fill="#000000" transform="matrix(1.00, 0.00, -0.00, -1.00, 620.1, 678.9)">u</text><text xml:space="preserve" font-family="Times-Roman,Times" font-size="68.1" fill="#000000" transform="matrix(1.00, 0.00, -0.00, -1.00, 654.1, 678.9)"> </text><text xml:space="preserve" font-family="Times-Roman,Times" font-size="68.1" fill="#000000" transform="matrix(1.00, 0.00, -0.00, -1.00, 671.1, 678.9)">c</text><text xml:space="preserve" font-family="Times-Roman,Times" font-size="68.1" fill="#000000" transform="matrix(1.00, 0.00, -0.00, -1.00, 701.3, 678.9)">a</text><text xml:space="preserve" font-family="Times-Roman,Times" font-size="68.1" fill="#000000" transform="matrix(1.00, 0.00, -0.00, -1.00, 731.5, 678.9)">n</text><text xml:space="preserve" font-family="Times-Roman,Times" font-size="68.1" fill="#000000" transform="matrix(1.00, 0.00, -0.00, -1.00, 765.6, 678.9)"> </text><text xml:space="preserve" font-family="Times-Roman,Times" font-size="68.1" fill="#000000" transform="matrix(1.00, 0.00, -0.00, -1.00, 782.6, 678.9)">r</text><text xml:space="preserve" font-family="Times-Roman,Times" font-size="68.1" fill="#000000" transform="matrix(1.00, 0.00, -0.00, -1.00, 805.3, 678.9)">e</text><text xml:space="preserve" font-family="Times-Roman,Times" font-size="68.1" fill="#000000" transform="matrix(1.00, 0.00, -0.00, -1.00, 835.5, 678.9)">p</text><text xml:space="preserve" font-family="Times-Roman,Times" font-size="68.1" fill="#000000" transform="matrix(1.00, 0.00, -0.00, -1.00, 869.5, 678.9)">l</text><text xml:space="preserve" font-family="Times-Roman,Times" font-size="68.1" fill="#000000" transform="matrix(1.00, 0.00, -0.00, -1.00, 888.4, 678.9)">a</text><text xml:space="preserve" font-family="Times-Roman,Times" font-size="68.1" fill="#000000" transform="matrix(1.00, 0.00, -0.00, -1.00, 918.6, 678.9)">c</text><text xml:space="preserve" font-family="Times-Roman,Times" font-size="68.1" fill="#000000" transform="matrix(1.00, 0.00, -0.00, -1.00, 948.8, 678.9)">e</text><text xml:space="preserve" font-family="Times-Roman,Times" font-size="68.1" fill="#000000" transform="matrix(1.00, 0.00, -0.00, -1.00, 979.0, 678.9)"> </text><text xml:space="preserve" font-family="Times-Roman,Times" font-size="68.1" fill="#000000" transform="matrix(1.00, 0.00, -0.00, -1.00, 41.5, 605.1)">L</text><text xml:space="preserve" font-family="Times-Roman,Times" font-size="68.1" fill="#000000" transform="matrix(1.00, 0.00, -0.00, -1.00, 83.1, 605.1)">E</text><text xml:space="preserve" font-family="Times-Roman,Times" font-size="68.1" fill="#000000" transform="matrix(1.00, 0.00, -0.00, -1.00, 124.7, 605.1)">D</text><text xml:space="preserve" font-family="Times-Roman,Times" font-size="68.1" fill="#000000" transform="matrix(1.00, 0.00, -0.00, -1.00, 173.8, 605.1)"> </text><text xml:space="preserve" font-family="Times-Roman,Times" font-size="68.1" fill="#000000" transform="matrix(1.00, 0.00, -0.00, -1.00, 190.9, 605.1)">l</text><text xml:space="preserve" font-family="Times-Roman,Times" font-size="68.1" fill="#000000" transform="matrix(1.00, 0.00, -0.00, -1.00, 209.8, 605.1)">i</text><text xml:space="preserve" font-family="Times-Roman,Times" font-size="68.1" fill="#000000" transform="matrix(1.00, 0.00, -0.00, -1.00, 228.7, 605.1)">g</text><text xml:space="preserve" font-family="Times-Roman,Times" font-size="68.1" fill="#000000" transform="matrix(1.00, 0.00, -0.00, -1.00, 262.7, 605.1)">h</text><text xml:space="preserve" font-family="Times-Roman,Times" font-size="68.1" fill="#000000" transform="matrix(1.00, 0.00, -0.00, -1.00, 296.7, 605.1)">t</text><text xml:space="preserve" font-family="Times-Roman,Times" font-size="68.1" fill="#000000" transform="matrix(1.00, 0.00, -0.00, -1.00, 315.6, 605.1)"> </text><text xml:space="preserve" font-family="Times-Roman,Times" font-size="68.1" fill="#000000" transform="matrix(1.00, 0.00, -0.00, -1.00, 332.7, 605.1)">w</text><text xml:space="preserve" font-family="Times-Roman,Times" font-size="68.1" fill="#000000" transform="matrix(1.00, 0.00, -0.00, -1.00, 381.8, 605.1)">i</text><text xml:space="preserve" font-family="Times-Roman,Times" font-size="68.1" fill="#000000" transform="matrix(1.00, 0.00, -0.00, -1.00, 400.7, 605.1)">t</text><text xml:space="preserve" font-family="Times-Roman,Times" font-size="68.1" fill="#000000" transform="matrix(1.00, 0.00, -0.00, -1.00, 419.6, 605.1)">h</text><text xml:space="preserve" font-family="Times-Roman,Times" font-size="68.1" fill="#000000" transform="matrix(1.00, 0.00, -0.00, -1.00, 453.7, 605.1)"> </text><text xml:space="preserve" font-family="Times-Roman,Times" font-size="68.1" fill="#000000" transform="matrix(1.00, 0.00, -0.00, -1.00, 470.7, 605.1)">s</text><text xml:space="preserve" font-family="Times-Roman,Times" font-size="68.1" fill="#000000" transform="matrix(1.00, 0.00, -0.00, -1.00, 497.2, 605.1)">o</text><text xml:space="preserve" font-family="Times-Roman,Times" font-size="68.1" fill="#000000" transform="matrix(1.00, 0.00, -0.00, -1.00, 531.3, 605.1)">m</text><text xml:space="preserve" font-family="Times-Roman,Times" font-size="68.1" fill="#000000" transform="matrix(1.00, 0.00, -0.00, -1.00, 584.2, 605.1)">e</text><text xml:space="preserve" font-family="Times-Roman,Times" font-size="68.1" fill="#000000" transform="matrix(1.00, 0.00, -0.00, -1.00, 614.4, 605.1)">t</text><text xml:space="preserve" font-family="Times-Roman,Times" font-size="68.1" fill="#000000" transform="matrix(1.00, 0.00, -0.00, -1.00, 633.3, 605.1)">h</text><text xml:space="preserve" font-family="Times-Roman,Times" font-size="68.1" fill="#000000" transform="matrix(1.00, 0.00, -0.00, -1.00, 667.3, 605.1)">i</text><text xml:space="preserve" font-family="Times-Roman,Times" font-size="68.1" fill="#000000" transform="matrix(1.00, 0.00, -0.00, -1.00, 686.2, 605.1)">n</text><text xml:space="preserve" font-family="Times-Roman,Times" font-size="68.1" fill="#000000" transform="matrix(1.00, 0.00, -0.00, -1.00, 720.3, 605.1)">g</text><text xml:space="preserve" font-family="Times-Roman,Times" font-size="68.1" fill="#000000" transform="matrix(1.00, 0.00, -0.00, -1.00, 754.3, 605.1)"> </text><text xml:space="preserve" font-family="Times-Roman,Times" font-size="68.1" fill="#000000" transform="matrix(1.00, 0.00, -0.00, -1.00, 771.3, 605.1)">l</text><text xml:space="preserve" font-family="Times-Roman,Times" font-size="68.1" fill="#000000" transform="matrix(1.00, 0.00, -0.00, -1.00, 790.2, 605.1)">i</text><text xml:space="preserve" font-family="Times-Roman,Times" font-size="68.1" fill="#000000" transform="matrix(1.00, 0.00, -0.00, -1.00, 809.1, 605.1)">k</text><text xml:space="preserve" font-family="Times-Roman,Times" font-size="68.1" fill="#000000" transform="matrix(1.00, 0.00, -0.00, -1.00, 843.2, 605.1)">e</text><text xml:space="preserve" font-family="Times-Roman,Times" font-size="68.1" fill="#000000" transform="matrix(1.00, 0.00, -0.00, -1.00, 873.4, 605.1)">:</text><text xml:space="preserve" font-family="Arial-BoldMT,Arial" font-weight="bold" font-size="37.0" fill="#000000" transform="matrix(1.00, 0.00, -0.00, -1.00, 130.1, 533.7)">P</text><text xml:space="preserve" font-family="Arial-BoldMT,Arial" font-weight="bold" font-size="37.0" fill="#000000" transform="matrix(1.00, 0.00, -0.00, -1.00, 154.8, 533.7)">i</text><text xml:space="preserve" font-family="Arial-BoldMT,Arial" font-weight="bold" font-size="37.0" fill="#000000" transform="matrix(1.00, 0.00, -0.00, -1.00, 165.1, 533.7)">e</text><text xml:space="preserve" font-family="Arial-BoldMT,Arial" font-weight="bold" font-size="37.0" fill="#000000" transform="matrix(1.00, 0.00, -0.00, -1.00, 185.7, 533.7)">z</text><text xml:space="preserve" font-family="Arial-BoldMT,Arial" font-weight="bold" font-size="37.0" fill="#000000" transform="matrix(1.00, 0.00, -0.00, -1.00, 204.2, 533.7)">o</text><text xml:space="preserve" font-family="Arial-BoldMT,Arial" font-weight="bold" font-size="37.0" fill="#000000" transform="matrix(1.00, 0.00, -0.00, -1.00, 226.8, 533.7)">e</text><text xml:space="preserve" font-family="Arial-BoldMT,Arial" font-weight="bold" font-size="37.0" fill="#000000" transform="matrix(1.00, 0.00, -0.00, -1.00, 247.4, 533.7)">l</text><text xml:space="preserve" font-family="Arial-BoldMT,Arial" font-weight="bold" font-size="37.0" fill="#000000" transform="matrix(1.00, 0.00, -0.00, -1.00, 257.6, 533.7)">e</text><text xml:space="preserve" font-family="Arial-BoldMT,Arial" font-weight="bold" font-size="37.0" fill="#000000" transform="matrix(1.00, 0.00, -0.00, -1.00, 278.2, 533.7)">c</text><text xml:space="preserve" font-family="Arial-BoldMT,Arial" font-weight="bold" font-size="37.0" fill="#000000" transform="matrix(1.00, 0.00, -0.00, -1.00, 298.8, 533.7)">t</text><text xml:space="preserve" font-family="Arial-BoldMT,Arial" font-weight="bold" font-size="37.0" fill="#000000" transform="matrix(1.00, 0.00, -0.00, -1.00, 311.1, 533.7)">r</text><text xml:space="preserve" font-family="Arial-BoldMT,Arial" font-weight="bold" font-size="37.0" fill="#000000" transform="matrix(1.00, 0.00, -0.00, -1.00, 325.5, 533.7)">i</text><text xml:space="preserve" font-family="Arial-BoldMT,Arial" font-weight="bold" font-size="37.0" fill="#000000" transform="matrix(1.00, 0.00, -0.00, -1.00, 335.8, 533.7)">c</text><text xml:space="preserve" font-family="Arial-BoldMT,Arial" font-weight="bold" font-size="37.0" fill="#000000" transform="matrix(1.00, 0.00, -0.00, -1.00, 356.4, 533.7)"> </text><text xml:space="preserve" font-family="Arial-BoldMT,Arial" font-weight="bold" font-size="37.0" fill="#000000" transform="matrix(1.00, 0.00, -0.00, -1.00, 366.7, 533.7)">L</text><text xml:space="preserve" font-family="Arial-BoldMT,Arial" font-weight="bold" font-size="37.0" fill="#000000" transform="matrix(1.00, 0.00, -0.00, -1.00, 389.3, 533.7)">o</text><text xml:space="preserve" font-family="Arial-BoldMT,Arial" font-weight="bold" font-size="37.0" fill="#000000" transform="matrix(1.00, 0.00, -0.00, -1.00, 411.8, 533.7)">u</text><text xml:space="preserve" font-family="Arial-BoldMT,Arial" font-weight="bold" font-size="37.0" fill="#000000" transform="matrix(1.00, 0.00, -0.00, -1.00, 434.4, 533.7)">d</text><text xml:space="preserve" font-family="Arial-BoldMT,Arial" font-weight="bold" font-size="37.0" fill="#000000" transform="matrix(1.00, 0.00, -0.00, -1.00, 457.0, 533.7)">s</text><text xml:space="preserve" font-family="Arial-BoldMT,Arial" font-weight="bold" font-size="37.0" fill="#000000" transform="matrix(1.00, 0.00, -0.00, -1.00, 477.6, 533.7)">p</text><text xml:space="preserve" font-family="Arial-BoldMT,Arial" font-weight="bold" font-size="37.0" fill="#000000" transform="matrix(1.00, 0.00, -0.00, -1.00, 500.2, 533.7)">e</text><text xml:space="preserve" font-family="Arial-BoldMT,Arial" font-weight="bold" font-size="37.0" fill="#000000" transform="matrix(1.00, 0.00, -0.00, -1.00, 520.8, 533.7)">a</text><text xml:space="preserve" font-family="Arial-BoldMT,Arial" font-weight="bold" font-size="37.0" fill="#000000" transform="matrix(1.00, 0.00, -0.00, -1.00, 541.4, 533.7)">k</text><text xml:space="preserve" font-family="Arial-BoldMT,Arial" font-weight="bold" font-size="37.0" fill="#000000" transform="matrix(1.00, 0.00, -0.00, -1.00, 562.0, 533.7)">e</text><text xml:space="preserve" font-family="Arial-BoldMT,Arial" font-weight="bold" font-size="37.0" fill="#000000" transform="matrix(1.00, 0.00, -0.00, -1.00, 582.6, 533.7)">r</text><text xml:space="preserve" font-family="LucidaGrande-Bold,Lucida Grande" font-weight="bold" font-size="37.0" fill="#000000" transform="matrix(1.00, 0.00, -0.00, -1.00, 596.9, 533.7)"> </text><text xml:space="preserve" font-family="ArialMT,Arial" font-size="37.0" fill="#000000" transform="matrix(1.00, 0.00, -0.00, -1.00, 130.1, 489.9)">t</text><text xml:space="preserve" font-family="ArialMT,Arial" font-size="37.0" fill="#000000" transform="matrix(1.00, 0.00, -0.00, -1.00, 140.4, 489.9)">o</text><text xml:space="preserve" font-family="ArialMT,Arial" font-size="37.0" fill="#000000" transform="matrix(1.00, 0.00, -0.00, -1.00, 161.0, 489.9)"> </text><text xml:space="preserve" font-family="ArialMT,Arial" font-size="37.0" fill="#000000" transform="matrix(1.00, 0.00, -0.00, -1.00, 171.3, 489.9)">c</text><text xml:space="preserve" font-family="ArialMT,Arial" font-size="37.0" fill="#000000" transform="matrix(1.00, 0.00, -0.00, -1.00, 189.8, 489.9)">o</text><text xml:space="preserve" font-family="ArialMT,Arial" font-size="37.0" fill="#000000" transform="matrix(1.00, 0.00, -0.00, -1.00, 210.4, 489.9)">n</text><text xml:space="preserve" font-family="ArialMT,Arial" font-size="37.0" fill="#000000" transform="matrix(1.00, 0.00, -0.00, -1.00, 230.9, 489.9)">t</text><text xml:space="preserve" font-family="ArialMT,Arial" font-size="37.0" fill="#000000" transform="matrix(1.00, 0.00, -0.00, -1.00, 241.2, 489.9)">r</text><text xml:space="preserve" font-family="ArialMT,Arial" font-size="37.0" fill="#000000" transform="matrix(1.00, 0.00, -0.00, -1.00, 253.5, 489.9)">o</text><text xml:space="preserve" font-family="ArialMT,Arial" font-size="37.0" fill="#000000" transform="matrix(1.00, 0.00, -0.00, -1.00, 274.1, 489.9)">l</text><text xml:space="preserve" font-family="ArialMT,Arial" font-size="37.0" fill="#000000" transform="matrix(1.00, 0.00, -0.00, -1.00, 282.4, 489.9)"> </text><text xml:space="preserve" font-family="ArialMT,Arial" font-size="37.0" fill="#000000" transform="matrix(1.00, 0.00, -0.00, -1.00, 292.6, 489.9)">s</text><text xml:space="preserve" font-family="ArialMT,Arial" font-size="37.0" fill="#000000" transform="matrix(1.00, 0.00, -0.00, -1.00, 311.1, 489.9)">o</text><text xml:space="preserve" font-family="ArialMT,Arial" font-size="37.0" fill="#000000" transform="matrix(1.00, 0.00, -0.00, -1.00, 331.7, 489.9)">u</text><text xml:space="preserve" font-family="ArialMT,Arial" font-size="37.0" fill="#000000" transform="matrix(1.00, 0.00, -0.00, -1.00, 352.3, 489.9)">n</text><text xml:space="preserve" font-family="ArialMT,Arial" font-size="37.0" fill="#000000" transform="matrix(1.00, 0.00, -0.00, -1.00, 372.9, 489.9)">d</text><text xml:space="preserve" font-family="ArialMT,Arial" font-size="37.0" fill="#000000" transform="matrix(1.00, 0.00, -0.00, -1.00, 393.5, 489.9)">s</text><text xml:space="preserve" font-family="ArialMT,Arial" font-size="37.0" fill="#000000" transform="matrix(1.00, 0.00, -0.00, -1.00, 412.0, 489.9)">:</text><text xml:space="preserve" font-family="LucidaGrande,Lucida Grande" font-size="37.0" fill="#000000" transform="matrix(1.00, 0.00, -0.00, -1.00, 422.2, 489.9)"> </text><text xml:space="preserve" font-family="Arial-BoldMT,Arial" font-weight="bold" font-size="37.0" fill="#000000" transform="matrix(1.00, 0.00, -0.00, -1.00, 130.1, 309.5)">V</text><text xml:space="preserve" font-family="Arial-BoldMT,Arial" font-weight="bold" font-size="37.0" fill="#000000" transform="matrix(1.00, 0.00, -0.00, -1.00, 154.2, 309.5)">i</text><text xml:space="preserve" font-family="Arial-BoldMT,Arial" font-weight="bold" font-size="37.0" fill="#000000" transform="matrix(1.00, 0.00, -0.00, -1.00, 164.4, 309.5)">b</text><text xml:space="preserve" font-family="Arial-BoldMT,Arial" font-weight="bold" font-size="37.0" fill="#000000" transform="matrix(1.00, 0.00, -0.00, -1.00, 187.0, 309.5)">r</text><text xml:space="preserve" font-family="Arial-BoldMT,Arial" font-weight="bold" font-size="37.0" fill="#000000" transform="matrix(1.00, 0.00, -0.00, -1.00, 201.4, 309.5)">a</text><text xml:space="preserve" font-family="Arial-BoldMT,Arial" font-weight="bold" font-size="37.0" fill="#000000" transform="matrix(1.00, 0.00, -0.00, -1.00, 222.0, 309.5)">t</text><text xml:space="preserve" font-family="Arial-BoldMT,Arial" font-weight="bold" font-size="37.0" fill="#000000" transform="matrix(1.00, 0.00, -0.00, -1.00, 234.3, 309.5)">i</text><text xml:space="preserve" font-family="Arial-BoldMT,Arial" font-weight="bold" font-size="37.0" fill="#000000" transform="matrix(1.00, 0.00, -0.00, -1.00, 244.6, 309.5)">n</text><text xml:space="preserve" font-family="Arial-BoldMT,Arial" font-weight="bold" font-size="37.0" fill="#000000" transform="matrix(1.00, 0.00, -0.00, -1.00, 267.2, 309.5)">g</text><text xml:space="preserve" font-family="Arial-BoldMT,Arial" font-weight="bold" font-size="37.0" fill="#000000" transform="matrix(1.00, 0.00, -0.00, -1.00, 289.8, 309.5)"> </text><text xml:space="preserve" font-family="Arial-BoldMT,Arial" font-weight="bold" font-size="37.0" fill="#000000" transform="matrix(1.00, 0.00, -0.00, -1.00, 300.1, 309.5)">M</text><text xml:space="preserve" font-family="Arial-BoldMT,Arial" font-weight="bold" font-size="37.0" fill="#000000" transform="matrix(1.00, 0.00, -0.00, -1.00, 330.9, 309.5)">o</text><text xml:space="preserve" font-family="Arial-BoldMT,Arial" font-weight="bold" font-size="37.0" fill="#000000" transform="matrix(1.00, 0.00, -0.00, -1.00, 353.5, 309.5)">t</text><text xml:space="preserve" font-family="Arial-BoldMT,Arial" font-weight="bold" font-size="37.0" fill="#000000" transform="matrix(1.00, 0.00, -0.00, -1.00, 365.8, 309.5)">o</text><text xml:space="preserve" font-family="Arial-BoldMT,Arial" font-weight="bold" font-size="37.0" fill="#000000" transform="matrix(1.00, 0.00, -0.00, -1.00, 388.4, 309.5)">r</text><text xml:space="preserve" font-family="ArialMT,Arial" font-size="37.0" fill="#000000" transform="matrix(1.00, 0.00, -0.00, -1.00, 402.8, 309.5)"> </text><text xml:space="preserve" font-family="LucidaGrande,Lucida Grande" font-size="37.0" fill="#000000" transform="matrix(1.00, 0.00, -0.00, -1.00, 413.1, 309.5)"> </text><text xml:space="preserve" font-family="TrebuchetMS,Trebuchet MS" font-size="37.0" fill="#000000" transform="matrix(1.00, 0.00, -0.00, -1.00, 130.1, 265.7)">t</text><text xml:space="preserve" font-family="TrebuchetMS,Trebuchet MS" font-size="37.0" fill="#000000" transform="matrix(1.00, 0.00, -0.00, -1.00, 144.8, 265.7)">o</text><text xml:space="preserve" font-family="TrebuchetMS,Trebuchet MS" font-size="37.0" fill="#000000" transform="matrix(1.00, 0.00, -0.00, -1.00, 164.7, 265.7)"> </text><text xml:space="preserve" font-family="TrebuchetMS,Trebuchet MS" font-size="37.0" fill="#000000" transform="matrix(1.00, 0.00, -0.00, -1.00, 175.8, 265.7)">v</text><text xml:space="preserve" font-family="TrebuchetMS,Trebuchet MS" font-size="37.0" fill="#000000" transform="matrix(1.00, 0.00, -0.00, -1.00, 193.9, 265.7)">i</text><text xml:space="preserve" font-family="TrebuchetMS,Trebuchet MS" font-size="37.0" fill="#000000" transform="matrix(1.00, 0.00, -0.00, -1.00, 204.5, 265.7)">b</text><text xml:space="preserve" font-family="TrebuchetMS,Trebuchet MS" font-size="37.0" fill="#000000" transform="matrix(1.00, 0.00, -0.00, -1.00, 225.1, 265.7)">r</text><text xml:space="preserve" font-family="TrebuchetMS,Trebuchet MS" font-size="37.0" fill="#000000" transform="matrix(1.00, 0.00, -0.00, -1.00, 239.5, 265.7)">a</text><text xml:space="preserve" font-family="TrebuchetMS,Trebuchet MS" font-size="37.0" fill="#000000" transform="matrix(1.00, 0.00, -0.00, -1.00, 258.9, 265.7)">t</text><text xml:space="preserve" font-family="TrebuchetMS,Trebuchet MS" font-size="37.0" fill="#000000" transform="matrix(1.00, 0.00, -0.00, -1.00, 273.6, 265.7)">e</text><text xml:space="preserve" font-family="TrebuchetMS,Trebuchet MS" font-size="37.0" fill="#000000" transform="matrix(1.00, 0.00, -0.00, -1.00, 293.8, 265.7)"> </text><text xml:space="preserve" font-family="TrebuchetMS,Trebuchet MS" font-size="37.0" fill="#000000" transform="matrix(1.00, 0.00, -0.00, -1.00, 305.0, 265.7)">s</text><text xml:space="preserve" font-family="TrebuchetMS,Trebuchet MS" font-size="37.0" fill="#000000" transform="matrix(1.00, 0.00, -0.00, -1.00, 320.0, 265.7)">o</text><text xml:space="preserve" font-family="TrebuchetMS,Trebuchet MS" font-size="37.0" fill="#000000" transform="matrix(1.00, 0.00, -0.00, -1.00, 339.8, 265.7)">m</text><text xml:space="preserve" font-family="TrebuchetMS,Trebuchet MS" font-size="37.0" fill="#000000" transform="matrix(1.00, 0.00, -0.00, -1.00, 370.5, 265.7)">e</text><text xml:space="preserve" font-family="TrebuchetMS,Trebuchet MS" font-size="37.0" fill="#000000" transform="matrix(1.00, 0.00, -0.00, -1.00, 390.7, 265.7)">t</text><text xml:space="preserve" font-family="TrebuchetMS,Trebuchet MS" font-size="37.0" fill="#000000" transform="matrix(1.00, 0.00, -0.00, -1.00, 405.4, 265.7)">h</text><text xml:space="preserve" font-family="TrebuchetMS,Trebuchet MS" font-size="37.0" fill="#000000" transform="matrix(1.00, 0.00, -0.00, -1.00, 425.6, 265.7)">i</text><text xml:space="preserve" font-family="TrebuchetMS,Trebuchet MS" font-size="37.0" fill="#000000" transform="matrix(1.00, 0.00, -0.00, -1.00, 436.2, 265.7)">n</text><text xml:space="preserve" font-family="TrebuchetMS,Trebuchet MS" font-size="37.0" fill="#000000" transform="matrix(1.00, 0.00, -0.00, -1.00, 456.4, 265.7)">g</text><text xml:space="preserve" font-family="TrebuchetMS,Trebuchet MS" font-size="37.0" fill="#000000" transform="matrix(1.00, 0.00, -0.00, -1.00, 475.0, 265.7)">:</text><text xml:space="preserve" font-family="LucidaGrande,Lucida Grande" font-size="37.0" fill="#000000" transform="matrix(1.00, 0.00, -0.00, -1.00, 488.5, 265.7)"> </text><text xml:space="preserve" font-family="Times-Roman,Times" font-size="37.0" fill="#000000" transform="matrix(1.00, 0.00, -0.00, -1.00, 130.1, 221.7)">	</text><text xml:space="preserve" font-family="Times-Roman,Times" font-size="37.0" fill="#000000" transform="matrix(1.00, 0.00, -0.00, -1.00, 158.1, 221.7)">
</text><text xml:space="preserve" font-family="Times-Roman,Times" font-size="37.0" fill="#000000" transform="matrix(1.00, 0.00, -0.00, -1.00, 158.1, 221.7)"></text><image xlink:href="2A065D09A51650932A80BE63B24C3FC6.png" width="418.00" height="316.00" transform="matrix(1.00, 0.00, -0.00, -1.00, 500.6, 317.2)" opacity="0.70"></image><image xlink:href="264AE709785D3B8A132C3748911F1AED.png" width="320.00" height="240.00" transform="matrix(1.27, 0.00, -0.00, -1.27, 504.6, 314.0)"></image><path d="M 0.0 0.0 L 407.7 0.0 L 407.7 305.8 L 0.0 305.8 Z M 0.0 0.0 " fill="none" stroke="#F2F6F5" stroke-width="2.00" transform="matrix(1.00, 0.00, 0.00, -1.00, 504.6, 314.0)"></path><image xlink:href="1959D518035EED90ED1A7D801AD6BF76.png" width="640.00" height="480.00" transform="matrix(0.50, 0.00, -0.00, -0.50, 605.4, 577.7)"></image></g></svg>