<svg xmlns="http://www.w3.org/2000/svg" viewBox="0 0 537.89 193.99"><defs><style>.cls-1{fill:#376fbc;}.cls-2{fill:#fff;}</style></defs><title>logo-blue_1</title><g id="レイヤー_2" data-name="レイヤー 2"><g id="レイヤー_1-2" data-name="レイヤー 1"><rect class="cls-1" width="537.89" height="193.99"/><path class="cls-2" d="M121.93,119.73V74.26a12.15,12.15,0,0,1-10.55,0v26.88C102.91,99,95.77,91.58,91.83,81.54A12.22,12.22,0,0,1,81.54,84c5.42,14.82,16.57,25.64,29.85,27.94v7.82a12.15,12.15,0,0,1,10.55,0Z"/><circle class="cls-1" cx="116.66" cy="63.16" r="6.15"/><path class="cls-2" d="M116.66,50.86A12.29,12.29,0,1,0,129,63.16,12.32,12.32,0,0,0,116.66,50.86Zm0,18.45a6.15,6.15,0,1,1,6.15-6.15A6.16,6.16,0,0,1,116.66,69.32Z"/><circle class="cls-1" cx="116.66" cy="130.83" r="6.15"/><path class="cls-2" d="M121.93,119.73a12.29,12.29,0,1,0,7,11.1A12.21,12.21,0,0,0,121.93,119.73ZM116.66,137a6.15,6.15,0,1,1,6.15-6.15A6.16,6.16,0,0,1,116.66,137Z"/><circle class="cls-1" cx="84.14" cy="72.02" r="6.15"/><path class="cls-2" d="M84.14,59.72A12.3,12.3,0,1,0,96.45,72,12.32,12.32,0,0,0,84.14,59.72Zm0,18.45A6.15,6.15,0,1,1,90.29,72,6.16,6.16,0,0,1,84.14,78.18Z"/><path class="cls-2" d="M176.53,102.14,154.84,64.39h11.54L181.57,91l15.24-26.56h11.54l-21.78,37.75v28.71h-10Z"/><path class="cls-2" d="M284.32,96.07l-8,4.26q-1.89-3.87-4.69-3.87a3.23,3.23,0,0,0-2.28.88,3,3,0,0,0-.95,2.26q0,2.41,5.6,4.78,7.7,3.31,10.37,6.11A10.47,10.47,0,0,1,287,118a13.2,13.2,0,0,1-4.48,10.16,15.23,15.23,0,0,1-10.5,3.87q-10.55,0-14.94-10.29l8.26-3.83a18,18,0,0,0,2.63,3.83,6,6,0,0,0,4.22,1.64q4.91,0,4.91-4.48,0-2.58-3.79-4.82-1.46-.73-2.93-1.42l-3-1.42a18.16,18.16,0,0,1-5.94-4.13,10.18,10.18,0,0,1-2.2-6.76,12,12,0,0,1,3.75-9,13.13,13.13,0,0,1,9.3-3.57Q280.4,87.76,284.32,96.07Z"/><path class="cls-2" d="M320.09,96.07l-8,4.26q-1.89-3.87-4.69-3.87a3.23,3.23,0,0,0-2.28.88,3,3,0,0,0-.95,2.26q0,2.41,5.6,4.78,7.7,3.31,10.37,6.11A10.46,10.46,0,0,1,322.8,118a13.2,13.2,0,0,1-4.48,10.16,15.24,15.24,0,0,1-10.5,3.87q-10.55,0-14.94-10.29l8.26-3.83a17.94,17.94,0,0,0,2.63,3.83,6,6,0,0,0,4.22,1.64q4.91,0,4.91-4.48,0-2.58-3.79-4.82-1.46-.73-2.93-1.42l-3-1.42a18.18,18.18,0,0,1-5.94-4.13,10.18,10.18,0,0,1-2.2-6.76,12,12,0,0,1,3.75-9,13.13,13.13,0,0,1,9.3-3.57Q316.17,87.76,320.09,96.07Z"/><path class="cls-2" d="M343.38,64.39v57h19.54v9.43H333.35V64.39Z"/><path class="cls-2" d="M433.12,58.15V93.79q5.81-6,13.17-6a18.12,18.12,0,0,1,14.12,6.33,22.59,22.59,0,0,1,5.64,15.67q0,9.69-5.68,16a18.31,18.31,0,0,1-14.25,6.28,18.12,18.12,0,0,1-13-5.6v4.39h-9.69V58.15Zm23,52a14.48,14.48,0,0,0-3.27-9.81,10.48,10.48,0,0,0-8.31-3.87,11.14,11.14,0,0,0-8.69,3.74,13.91,13.91,0,0,0-3.31,9.64q0,6.11,3.27,9.77a10.88,10.88,0,0,0,8.61,3.75,10.68,10.68,0,0,0,8.35-3.75A13.75,13.75,0,0,0,456.15,110.19Z"/><path class="cls-2" d="M238.51,88.93l.11,19.15c.06.6,0,1.26,0,1.9a14.33,14.33,0,0,1-3.31,9.73,11.11,11.11,0,0,1-8.69,3.7,10.57,10.57,0,0,1-8.35-3.83,14.6,14.6,0,0,1-3.23-9.81,14,14,0,0,1,3.31-9.47,10.7,10.7,0,0,1,8.35-3.79,11,11,0,0,1,7.81,2.93V90.82a16.71,16.71,0,0,0-9.62-3.05,18.18,18.18,0,0,0-14.12,6.29q-5.64,6.28-5.64,15.71,0,9.6,5.64,16a18.54,18.54,0,0,0,14.38,6.28q6.89,0,12.87-5.6v4.39h9.73V88.93Z"/><path class="cls-2" d="M402,88.93l.11,19.15c.06.6,0,1.26,0,1.9a14.33,14.33,0,0,1-3.31,9.73,11.11,11.11,0,0,1-8.69,3.7,10.57,10.57,0,0,1-8.35-3.83,14.6,14.6,0,0,1-3.23-9.81,14,14,0,0,1,3.31-9.47,10.7,10.7,0,0,1,8.35-3.79,11,11,0,0,1,7.81,2.93V90.82a16.71,16.71,0,0,0-9.62-3.05,18.18,18.18,0,0,0-14.12,6.29q-5.64,6.28-5.64,15.71,0,9.6,5.64,16a18.54,18.54,0,0,0,14.38,6.28q6.89,0,12.87-5.6v4.39h9.73V88.93Z"/></g></g></svg>