<svg xmlns="http://www.w3.org/2000/svg" viewBox="0 0 452.26 92.27"><defs><style>.cls-1{fill:#1f2c4c;}.cls-2{fill:#376fbc;}.cls-3{fill:#fff;}</style></defs><title>アセット 1</title><g id="レイヤー_2" data-name="レイヤー 2"><g id="レイヤー_1-2" data-name="レイヤー 1"><path class="cls-1" d="M148.69,50.52,127,12.77h11.54l15.19,26.56L169,12.77H180.5L158.72,50.52V79.23h-10Z"/><path class="cls-1" d="M256.48,44.45l-8,4.26q-1.89-3.87-4.69-3.87a3.23,3.23,0,0,0-2.28.88,3,3,0,0,0-.95,2.26q0,2.41,5.6,4.78,7.7,3.31,10.37,6.11a10.47,10.47,0,0,1,2.67,7.53,13.2,13.2,0,0,1-4.48,10.16,15.23,15.23,0,0,1-10.5,3.87q-10.55,0-14.94-10.29l8.26-3.83a18,18,0,0,0,2.63,3.83,6,6,0,0,0,4.22,1.64q4.91,0,4.91-4.48,0-2.58-3.79-4.82-1.46-.73-2.93-1.42l-3-1.42a18.16,18.16,0,0,1-5.94-4.13,10.18,10.18,0,0,1-2.2-6.76,12,12,0,0,1,3.75-9,13.13,13.13,0,0,1,9.3-3.57Q252.56,36.14,256.48,44.45Z"/><path class="cls-1" d="M292.25,44.45l-8,4.26q-1.89-3.87-4.69-3.87a3.23,3.23,0,0,0-2.28.88,3,3,0,0,0-.95,2.26q0,2.41,5.6,4.78,7.7,3.31,10.37,6.11A10.46,10.46,0,0,1,295,66.4a13.2,13.2,0,0,1-4.48,10.16A15.24,15.24,0,0,1,280,80.43q-10.55,0-14.94-10.29l8.26-3.83a17.94,17.94,0,0,0,2.63,3.83,6,6,0,0,0,4.22,1.64q4.91,0,4.91-4.48,0-2.58-3.79-4.82-1.46-.73-2.93-1.42l-3-1.42a18.18,18.18,0,0,1-5.94-4.13,10.18,10.18,0,0,1-2.2-6.76,12,12,0,0,1,3.75-9,13.13,13.13,0,0,1,9.3-3.57Q288.33,36.14,292.25,44.45Z"/><path class="cls-1" d="M315.54,12.77v57h19.54v9.43H305.51V12.77Z"/><path class="cls-1" d="M405.28,6.53V42.17q5.81-6,13.17-6a18.12,18.12,0,0,1,14.12,6.33,22.59,22.59,0,0,1,5.64,15.67q0,9.69-5.68,16a18.31,18.31,0,0,1-14.25,6.28,18.12,18.12,0,0,1-13-5.6v4.39H395.6V6.53Zm23,52A14.48,14.48,0,0,0,425,48.75a10.48,10.48,0,0,0-8.31-3.87A11.14,11.14,0,0,0,408,48.62a13.91,13.91,0,0,0-3.31,9.64q0,6.11,3.27,9.77a10.88,10.88,0,0,0,8.61,3.75A10.68,10.68,0,0,0,425,68,13.75,13.75,0,0,0,428.31,58.57Z"/><path class="cls-1" d="M440.3,74.41a6,6,0,0,1,12,0,5.81,5.81,0,0,1-1.76,4.26,6.08,6.08,0,0,1-8.48,0A5.84,5.84,0,0,1,440.3,74.41Z"/><path class="cls-1" d="M210.67,37.3l.11,19.15c.06.6,0,1.26,0,1.9a14.33,14.33,0,0,1-3.31,9.73,11.11,11.11,0,0,1-8.69,3.7A10.57,10.57,0,0,1,190.41,68a14.6,14.6,0,0,1-3.23-9.81,14,14,0,0,1,3.31-9.47,10.7,10.7,0,0,1,8.35-3.79,11,11,0,0,1,7.81,2.93V39.19A16.71,16.71,0,0,0,197,36.14a18.18,18.18,0,0,0-14.12,6.29q-5.64,6.28-5.64,15.71,0,9.6,5.64,16a18.54,18.54,0,0,0,14.38,6.28q6.89,0,12.87-5.6v4.39h9.73V37.3Z"/><path class="cls-1" d="M374.12,37.3l.11,19.15c.06.6,0,1.26,0,1.9a14.33,14.33,0,0,1-3.31,9.73,11.11,11.11,0,0,1-8.69,3.7A10.57,10.57,0,0,1,353.86,68a14.6,14.6,0,0,1-3.23-9.81,14,14,0,0,1,3.31-9.47,10.7,10.7,0,0,1,8.35-3.79,11,11,0,0,1,7.81,2.93V39.19a16.71,16.71,0,0,0-9.62-3.05,18.18,18.18,0,0,0-14.12,6.29q-5.64,6.28-5.64,15.71,0,9.6,5.64,16a18.54,18.54,0,0,0,14.38,6.28q6.89,0,12.87-5.6v4.39h9.73V37.3Z"/><path class="cls-2" d="M50.09,68.87V23.4a12.15,12.15,0,0,1-10.55,0V50.28C31.07,48.09,23.93,40.71,20,30.68A12.22,12.22,0,0,1,9.7,33.11C15.12,47.93,26.27,58.75,39.54,61v7.82a12.15,12.15,0,0,1,10.55,0Z"/><circle class="cls-3" cx="44.82" cy="12.3" r="6.15"/><path class="cls-1" d="M44.82,0a12.29,12.29,0,1,0,12.3,12.3A12.32,12.32,0,0,0,44.82,0Zm0,18.45A6.15,6.15,0,1,1,51,12.3,6.16,6.16,0,0,1,44.82,18.45Z"/><circle class="cls-3" cx="44.82" cy="79.97" r="6.15"/><path class="cls-1" d="M50.09,68.87a12.29,12.29,0,1,0,7,11.1A12.21,12.21,0,0,0,50.09,68.87ZM44.82,86.12A6.15,6.15,0,1,1,51,80,6.16,6.16,0,0,1,44.82,86.12Z"/><circle class="cls-3" cx="12.3" cy="21.16" r="6.15"/><path class="cls-1" d="M12.3,8.86a12.3,12.3,0,1,0,12.3,12.3A12.32,12.32,0,0,0,12.3,8.86Zm0,18.45a6.15,6.15,0,1,1,6.15-6.15A6.16,6.16,0,0,1,12.3,27.31Z"/><path class="cls-2" d="M93.47,74.69H78.21V23.4a12.15,12.15,0,0,1-10.55,0V80a5.27,5.27,0,0,0,5.27,5.27H93.47a12.15,12.15,0,0,1,0-10.55Z"/><path class="cls-1" d="M72.94,0a12.29,12.29,0,1,0,12.3,12.3A12.32,12.32,0,0,0,72.94,0Zm5.27,15.45a6.14,6.14,0,1,1,.88-3.15A6.15,6.15,0,0,1,78.21,15.45Z"/><path class="cls-3" d="M72.94,6.15a6.14,6.14,0,1,0,6.15,6.15A6.16,6.16,0,0,0,72.94,6.15Z"/><path class="cls-1" d="M104.57,67.66A12.3,12.3,0,1,0,116.87,80,12.31,12.31,0,0,0,104.57,67.66Zm0,18.45A6.15,6.15,0,1,1,110.72,80,6.11,6.11,0,0,1,104.57,86.12Z"/><path class="cls-3" d="M104.57,73.82A6.15,6.15,0,1,0,110.72,80,6.11,6.11,0,0,0,104.57,73.82Z"/></g></g></svg>