<?xml version="1.0" standalone="no"?>
<!DOCTYPE svg PUBLIC "-//W3C//DTD SVG 20010904//EN"
 "http://www.w3.org/TR/2001/REC-SVG-20010904/DTD/svg10.dtd">
<svg version="1.0" xmlns="http://www.w3.org/2000/svg"
 width="310.000000pt" height="310.000000pt" viewBox="0 0 310.000000 310.000000"
 preserveAspectRatio="xMidYMid meet">
<metadata>
Created by potrace 1.11, written by Peter Selinger 2001-2013
</metadata>
<g transform="translate(0.000000,310.000000) scale(0.100000,-0.100000)"
fill="#000000" stroke="none">
<path d="M0 1550 l0 -1550 1550 0 1550 0 0 1550 0 1550 -1550 0 -1550 0 0
-1550z m1151 1056 c22 -55 43 -105 48 -110 4 -6 27 -47 51 -91 160 -300 294
-535 303 -532 9 3 83 133 202 354 27 48 70 128 97 177 58 104 94 182 118 251
l17 50 352 3 c282 2 351 0 345 -10 -5 -7 -47 -71 -95 -143 -77 -115 -392 -629
-667 -1089 l-95 -158 7 -402 c3 -220 9 -427 12 -459 l6 -57 -302 0 -303 0 7
52 c3 29 9 236 13 460 l6 406 -28 49 c-33 56 -390 644 -573 943 -69 113 -153
246 -187 295 -34 50 -65 96 -69 103 -6 10 63 12 344 10 l351 -3 40 -99z"/>
</g>
</svg>
